<svg xmlns="http://www.w3.org/2000/svg" viewBox="0 0 18.78 18.78"><defs><style>.cls-1{fill:none;}.cls-2{fill:#fff;}.cls-3{fill:#e6e6e6;}.cls-4{fill:#b3b3b3;}.cls-5{fill:gray;}</style></defs><g id="Layer_2" data-name="Layer 2"><g id="Layer_1-2" data-name="Layer 1"><path class="cls-1" d="M18.77,8.91s0,.05,0,.07V8.91Z"/><path class="cls-2" d="M8.92,0h0L8.4.05A9.41,9.41,0,0,0,1.14,4.91,9.37,9.37,0,0,0,.08,10.58a9.38,9.38,0,0,0,6.78,7.85,9.15,9.15,0,0,0,3.29.31,9.19,9.19,0,0,0,5.35-2.23,9.22,9.22,0,0,0,3-4.94,9.45,9.45,0,0,0,.24-1.68.36.36,0,0,1,0-.1V9s0,0,0-.07v0c0-.16,0-.32-.05-.48a8.84,8.84,0,0,0-1-3.26A9.29,9.29,0,0,0,12.63.58,9,9,0,0,0,10.17,0a2.53,2.53,0,0,1-.38,0H9A.09.09,0,0,1,8.92,0ZM14,10.43,9.76,16.32a.23.23,0,0,1-.08.09s0,0-.06-.07L5.36,10.45a.15.15,0,0,1,0-.09l.32.18,4,2.35L14,10.36S14,10.41,14,10.43Zm-4.4-8s0-.07.07-.09a5.72,5.72,0,0,1,.37.58l3.51,5.72.51.83c0,.05-.06.06-.09.08L11.35,11.1,9.8,12l-.12.05-1-.56L5.41,9.59s-.1,0-.11-.09l.62-1Z"/><path class="cls-3" d="M5.3,9.5l.91-.4L8.73,8l.95-.42h0V2.37s0,.06-.07.09l-3.69,6Z"/><path class="cls-4" d="M9.68,7.55h0L8.73,8,6.21,9.1l-.91.4c0,.06.07.06.11.09L8.7,11.5l1,.56V7.69a.57.57,0,0,1,0-.13l.76.33L14,9.46l.11,0-.51-.83L10.05,3a5.72,5.72,0,0,0-.37-.58V7.55Z"/><path class="cls-5" d="M10.45,7.89l-.76-.33a.57.57,0,0,0,0,.13v4.37L9.8,12l1.55-.91L14,9.58s.08,0,.09-.08l-.11,0Z"/><path class="cls-3" d="M5.64,10.54l-.32-.18a.15.15,0,0,0,0,.09l4.26,5.89s0,.06.06.07V12.89Z"/><path class="cls-4" d="M9.68,16.41a.23.23,0,0,0,.08-.09L14,10.43s0,0,0-.07L9.68,12.89Z"/></g></g></svg>