<svg xmlns="http://www.w3.org/2000/svg" viewBox="0 0 21 22.11"><defs><style>.cls-1{fill:#71ee4f;}</style></defs><g id="Layer_2" data-name="Layer 2"><g id="Layer_1-2" data-name="Layer 1"><path class="cls-1" d="M18.62,5.14a4.94,4.94,0,0,1-.77.87A3.25,3.25,0,0,1,15,6.84a5.4,5.4,0,0,1-1.82-.71,18.31,18.31,0,0,0-2-1.06,6.1,6.1,0,0,0-3.27-.43,6.56,6.56,0,0,0-4.43,3,.92.92,0,0,0,0,1.11,1.36,1.36,0,0,0,2.18,0A5.71,5.71,0,0,1,6.48,8a3.33,3.33,0,0,1,3.31-.73c.1,0,.1.06.05.14l-.15.27C8.88,9.07,8.14,10.54,7.4,12a5.48,5.48,0,0,1-2,2.28,3.11,3.11,0,0,1-2.7.37,5.77,5.77,0,0,1-.76-.35,1.23,1.23,0,0,0-1.37.14,1.28,1.28,0,0,0-.5,1.3,1.21,1.21,0,0,0,.65.84,6.12,6.12,0,0,0,6.52-.21,5.9,5.9,0,0,0,1.42-1.26s.05-.1.13-.06l.43.17a16.12,16.12,0,0,1,3.31,2,2.25,2.25,0,0,1,.64.7c.19.32.36.64.52,1,.41.83.78,1.67,1.18,2.51a1.14,1.14,0,0,0,1.28.7,1.21,1.21,0,0,0,1-1.76c-.16-.32-.3-.64-.45-1a25.93,25.93,0,0,0-1.46-2.88,3.31,3.31,0,0,0-.68-.86,21.36,21.36,0,0,0-3.07-2.1c-.08,0-.09-.07,0-.14.73-1.42,1.49-2.81,2.29-4.19a.14.14,0,0,1,.2-.08,5.83,5.83,0,0,0,1.75.25,5.44,5.44,0,0,0,1.3-.16,6.23,6.23,0,0,0,2.8-1.59,8.29,8.29,0,0,0,1.06-1.23,1,1,0,0,0,0-1.28A1.35,1.35,0,0,0,18.62,5.14Z"/><path class="cls-1" d="M14.55,4.94A2.45,2.45,0,0,0,17,2.47a2.47,2.47,0,1,0-2.46,2.47Z"/></g></g></svg>