<svg xmlns="http://www.w3.org/2000/svg" viewBox="0 0 20 16.73"><defs><style>.cls-1{fill:#71ee4f;}</style></defs><g id="Layer_2" data-name="Layer 2"><g id="Layer_1-2" data-name="Layer 1"><path class="cls-1" d="M17.35,14.24v-3c0-.17,0-.34,0-.51s0-.1-.1-.09c-.33,0-.67.09-1,.12-.12,0-.14.06-.14.16,0,1.1,0,2.19,0,3.29a1.26,1.26,0,0,1-1.31,1.28H2.44a1.12,1.12,0,0,1-.68-.23,1.22,1.22,0,0,1-.52-1.06V2.43a1.15,1.15,0,0,1,.17-.57,1.25,1.25,0,0,1,1.14-.62H14.9A1.26,1.26,0,0,1,16,2a2.09,2.09,0,0,1,.08.75c0,.2,0,.2.2.18h0l.94-.12s.07,0,.07,0a4,4,0,0,0,0-.69A2.48,2.48,0,0,0,14.85,0H2.5a2.53,2.53,0,0,0-.77.12A2.46,2.46,0,0,0,0,2.49V14.23a2.46,2.46,0,0,0,2,2.44.92.92,0,0,1,.25.06h.09s.06,0,.09,0H14.93s.07,0,.09,0h.06c.15,0,.31-.05.46-.1A2.48,2.48,0,0,0,17.35,14.24Z"/><path class="cls-1" d="M18.38,3.91a.55.55,0,0,0-.82,0l-.81.82c-.05,0-.05.07,0,.12L18.89,7C18.94,7,19,7,19,7l.72-.72a.86.86,0,0,0,.27-.4v-.2a.89.89,0,0,0-.19-.31Z"/><path class="cls-1" d="M16.23,5.32s-.06,0-.11,0l-5.27,5.27a.18.18,0,0,0,0,.12c0,.7,0,1.4,0,2.11,0,.06,0,.08.08.08H13a.18.18,0,0,0,.14-.06l.91-.92,4.31-4.3s.08-.07,0-.13ZM14,11l-.72.72a.13.13,0,0,1-.09,0l-.54,0c-.07,0-.08,0-.07-.07s0-.38,0-.57,0-.07-.07-.07l-.28,0H12c-.05,0-.07,0-.06-.06s.05-.34.08-.51,0-.06.05-.09l.69-.69c0-.05.07-.05.12,0L14,10.86S14,10.92,14,11ZM16.3,6.66c-.43.42-.85.85-1.28,1.28L13.55,9.41l-.09.07a.18.18,0,0,1-.24,0,.18.18,0,0,1,0-.23l0-.06,2.78-2.78c.1-.1.21-.11.29,0a.16.16,0,0,1,.06.12A.26.26,0,0,1,16.3,6.66Z"/><path class="cls-1" d="M3.16,4.92a.7.7,0,0,0,.29,0H14.26a.62.62,0,1,0-.09-1.24H3.33a.62.62,0,0,0-.57.53A.61.61,0,0,0,3.16,4.92Z"/><path class="cls-1" d="M11.34,8.67a.62.62,0,1,0-.07-1.24H3.35a.6.6,0,0,0-.55.38.62.62,0,0,0,.59.86h8Z"/><path class="cls-1" d="M7.18,11.15H3.39a.63.63,0,0,0-.37.12.6.6,0,0,0-.24.69.59.59,0,0,0,.59.43h4a.62.62,0,0,0,.49-.69A.61.61,0,0,0,7.18,11.15Z"/></g></g></svg>