<svg xmlns="http://www.w3.org/2000/svg" xmlns:xlink="http://www.w3.org/1999/xlink" viewBox="0 0 195.41 279.05"><defs><style>.cls-1{isolation:isolate;}.cls-2{fill:url(#linear-gradient);}.cls-3{fill:url(#linear-gradient-2);}.cls-4{fill:url(#linear-gradient-3);}.cls-5{fill:url(#linear-gradient-4);}.cls-6{fill:url(#linear-gradient-5);}.cls-7{fill:url(#linear-gradient-6);}.cls-8{fill:url(#linear-gradient-7);}.cls-9{mix-blend-mode:screen;}.cls-10{fill:#0d161c;}.cls-11{fill:#fff;}</style><linearGradient id="linear-gradient" x1="100.56" y1="-4.14" x2="94.96" y2="227.04" gradientUnits="userSpaceOnUse"><stop offset="0" stop-color="#2b5e0f"/><stop offset="0.08" stop-color="#3d821f"/><stop offset="0.2" stop-color="#53b134"/><stop offset="0.31" stop-color="#63d243"/><stop offset="0.4" stop-color="#6de74c"/><stop offset="0.46" stop-color="#71ee4f"/></linearGradient><linearGradient id="linear-gradient-2" x1="63" y1="157.31" x2="98.2" y2="8.17" xlink:href="#linear-gradient"/><linearGradient id="linear-gradient-3" x1="129.42" y1="95.64" x2="137.07" y2="63.22" xlink:href="#linear-gradient"/><linearGradient id="linear-gradient-4" x1="58.45" y1="45.15" x2="137.73" y2="152.16" xlink:href="#linear-gradient"/><linearGradient id="linear-gradient-5" x1="162.84" y1="77.32" x2="48.72" y2="202.81" xlink:href="#linear-gradient"/><linearGradient id="linear-gradient-6" x1="91.54" y1="132.97" x2="60.26" y2="-35.19" xlink:href="#linear-gradient"/><linearGradient id="linear-gradient-7" x1="106.35" y1="118.92" x2="75.78" y2="-45.39" xlink:href="#linear-gradient"/></defs><g class="cls-1"><g id="Layer_2" data-name="Layer 2"><g id="Layer_1-2" data-name="Layer 1"><path class="cls-2" d="M98.59,0,96.91,0c-.26,0-.51,0-.77,0a76.05,76.05,0,0,0-15.42,2A77.26,77.26,0,0,0,30.2,41.38c-1.08,2-2.06,4.13-2.94,6.27q-.93,2.24-1.72,4.55a77,77,0,0,0,20.67,81.66,55.83,55.83,0,0,1-2.8-9.76,72.44,72.44,0,1,1,110.37,0,55.56,55.56,0,0,1-2.81,9.79A77.18,77.18,0,0,0,98.59,0Z"/><path class="cls-3" d="M74.72,79.05C53.39,99.31,51.54,132,68,151.67c-.54-.76-1.06-1.56-1.53-2.37a26.52,26.52,0,0,1-1.28-2.49A28.37,28.37,0,0,1,64,143.56a29.63,29.63,0,0,1,1.49-21.89C70.26,111,80,102.77,86.8,93.14a97.61,97.61,0,0,0,13.27-25,59.78,59.78,0,0,0,2.58-10.67c1-7.43-.07-11.79-.27-12.52C102.38,44.92,96.06,58.79,74.72,79.05Z"/><path class="cls-4" d="M133.05,82.94a75.66,75.66,0,0,0,1.66-12.5,85.5,85.5,0,0,1-3.62,19.48c-.43,1.43-.89,2.87-1.39,4.3.88-2.29,1.65-4.64,2.31-7C132.41,85.79,132.76,84.37,133.05,82.94Z"/><path class="cls-5" d="M100.5,123c7.38-3.95,14.83-6.45,20.67-13,4-4.48,6.56-10.07,8.53-15.76q-.4,1.07-.84,2.1c.31-1,.6-2.06.87-3.1a76,76,0,0,0,2.07-11.56c.25-2.51.38-5.06.38-7.63,0-1.94-.08-3.86-.22-5.77-.06-.77-.12-1.53-.21-2.3A75.92,75.92,0,0,0,99.84,11.82l-.59-.47.2.54c.15.45,3.46,10.19-4.39,26.33-.11.23-.22.46-.34.68-.71,1.44-1.51,2.93-2.42,4.47h0c-.18.31-.37.62-.56.93l-.58.93s0,0,0,.05l-1.26,1.95A111.49,111.49,0,0,1,79.15,60.74c-1.55,1.69-3.21,3.42-5,5.18-18.76,18.49-23,36.81-23.08,49.25v0c0,.63,0,1.24,0,1.83,0,.33,0,.64,0,1,0,.83.09,1.64.15,2.42,0,.26.05.52.07.77.05.46.09.89.15,1.33,0,.29.07.57.11.85s.12.8.19,1.18v0c0,.2.07.4.1.59s.08.42.12.62.13.67.2,1A31.61,31.61,0,0,0,53.86,132a54.7,54.7,0,0,0,6.72,11.77l.83,1.08h0a46,46,0,0,0,4.13,4.58c.79.78,1.62,1.52,2.47,2.24C51.54,132,53.39,99.31,74.72,79.05s27.66-34.13,27.66-34.13c.89,1.21,2,2.62,2.73,3.69q1.44,2.12,2.7,4.33a54.31,54.31,0,0,1,2.83,5.66c.51,1.15,1,2.32,1.39,3.52,4,11.67,2.52,24.47-1.82,35.83a77.63,77.63,0,0,1-8.63,16.28c-3.76,5.42-8.58,10-12.28,15.41a25.52,25.52,0,0,0-4.17,10.19h0C86.44,132,93.62,126.64,100.5,123Z"/><path class="cls-6" d="M145.19,100a96.19,96.19,0,0,0-2.29-10.6,72,72,0,0,0-8.19-19,75.66,75.66,0,0,1-1.66,12.5c-.15.74-.31,1.45-.49,2.16-.07.29-.15.58-.23.88-3.18,11.91-10.9,21.28-20.85,28.31-10.23,7.23-24,11.4-26.35,25.54a18.6,18.6,0,0,0,1.34,10.82c10.06,22.06,38.07,7.37,49-5.46.1-.11.18-.22.27-.33l.17-.2,0,0a.74.74,0,0,1,.1-.11,44,44,0,0,0,8.76-17.56c-1.26,1.16-2.56,2.29-3.92,3.36a.1.1,0,0,1,0,0L140,131c-.07.05-.13.11-.2.15-.35.27-.71.53-1.07.79,1.08-1.51,2.07-3,3-4.62.31-.52.6-1,.9-1.57.13-.23.25-.47.38-.71.2-.4.4-.81.59-1.22l.42-1a27,27,0,0,0,1.66-5.79c.11-.57.19-1.15.26-1.77A60.61,60.61,0,0,0,145.19,100Z"/><path class="cls-7" d="M99.45,11.89c.15.45,3.46,10.19-4.39,26.33-.11.23-.22.46-.34.68-.71,1.44-1.51,2.93-2.42,4.47h0c-.18.31-.37.62-.56.93l-.58.93s0,0,0,.05l-1.26,1.95A111.49,111.49,0,0,1,79.15,60.74c-1.55,1.69-3.21,3.42-5,5.18-18.76,18.49-23,36.81-23.08,49.25v0c0,.63,0,1.24,0,1.83,0,.33,0,.64,0,1,0,.83.09,1.64.15,2.42,0,.26.05.52.07.77.05.46.09.89.15,1.33,0,.29.07.57.11.85s.12.8.19,1.18v0c0,.2.07.4.1.59s.08.42.12.62.13.67.2,1A31.61,31.61,0,0,0,53.86,132a54.7,54.7,0,0,0,6.72,11.77l.83,1.08h0a46,46,0,0,0,4.13,4.58c.79.78,1.62,1.52,2.47,2.24C51.54,132,53.39,99.31,74.72,79.05s27.66-34.13,27.66-34.13c.89,1.21,2,2.62,2.73,3.69q1.44,2.12,2.7,4.33a54.31,54.31,0,0,1,2.83,5.66c.51,1.15,1,2.32,1.39,3.52,3.6,10.41,2.77,21.72-.53,32.11h0C127.22,56.42,99.45,11.89,99.45,11.89Z"/><path class="cls-8" d="M153.78,124.09a72.44,72.44,0,1,0-110.37,0,57.28,57.28,0,0,1-1-8.76s-.77-16.56,6.87-31c0,0-9.41,10.18-11.54,23A67.65,67.65,0,0,1,30.7,77.19c0-.59,0-1.17,0-1.76s0-.93.06-1.4q0-.37,0-.75c0-.44.05-.88.09-1.31s.09-1.14.15-1.7v0c0-.43.09-.85.14-1.27,0-.27.07-.53.1-.79.13-1,.29-2,.46-2.94.22-1.24.48-2.47.76-3.68.1-.45.21-.88.33-1.32s.24-.95.38-1.43l.09-.32c.09-.32.18-.63.28-.95s.17-.57.26-.85l.45-1.38c.33-.94.67-1.88,1-2.81.13-.34.27-.68.41-1,.36-.88.74-1.75,1.14-2.62.16-.35.32-.69.49-1s.38-.79.58-1.2l.4-.76c.36-.7.74-1.39,1.12-2.07.19-.33.37-.65.56-1,.29-.5.59-1,.9-1.49.44-.71.89-1.41,1.36-2.1.61-.91,1.24-1.79,1.89-2.67.06-.08.12-.14.17-.22l1.12-1.44c.38-.48.77-1,1.16-1.42s1-1.12,1.46-1.67.76-.84,1.16-1.25.74-.78,1.12-1.16.75-.76,1.15-1.13.77-.75,1.17-1.11.8-.74,1.21-1.08a65,65,0,0,1,6.39-5c.42-.29.85-.57,1.28-.84a.18.18,0,0,1,.09-.07c.43-.29.87-.56,1.3-.82l.07-.05,1.12-.68c.6-.35,1.19-.69,1.8-1l1.3-.7c.47-.24.94-.49,1.43-.72l.9-.43c.3-.15.61-.29.9-.42l1.27-.56c.39-.17.78-.34,1.19-.5l.4-.16c.32-.13.64-.27,1-.38.65-.25,1.31-.5,2-.72s1-.36,1.57-.53l1.47-.45a.83.83,0,0,1,.21-.06c.42-.12.84-.25,1.26-.35l.41-.12c.4-.11.8-.21,1.21-.3a1.87,1.87,0,0,1,.32-.08c.52-.13,1-.24,1.55-.35q1.57-.36,3.18-.6c.65-.12,1.31-.22,2-.31l1.41-.17.18,0,1.5-.15.22,0c.54,0,1.08-.08,1.62-.11L96,9.34l.8,0c.57,0,1.17,0,1.75,0,.35,0,.71,0,1.06,0l1.14,0c1,0,1.91.07,2.85.14.39,0,.77.06,1.14.1a1.87,1.87,0,0,1,.34,0c.44,0,.89.08,1.32.14s.94.1,1.39.17,1.11.16,1.66.24l1.1.2c.5.08,1,.18,1.49.28s1,.2,1.46.31,1,.22,1.47.35,1,.24,1.44.38,1,.25,1.44.4l1.43.43c.88.28,1.75.58,2.62.9.52.2,1,.39,1.56.6.92.36,1.82.73,2.71,1.14.38.16.75.32,1.11.51.54.24,1.07.5,1.6.77s.84.42,1.25.64c.87.45,1.72.92,2.56,1.42q1.91,1.1,3.7,2.32l1.21.83c.4.27.79.56,1.18.85s.76.56,1.15.86l0,0c.36.27.72.56,1.08.85l.09.07,1.08.89c.37.3.74.62,1.1.95s.72.63,1.08,1c.72.64,1.42,1.31,2.1,2,.35.34.69.69,1,1s.62.64.91,1c.73.77,1.43,1.58,2.11,2.39.27.3.53.62.79.94s.7.88,1.05,1.33.51.67.76,1c1.16,1.56,2.26,3.18,3.28,4.84.21.34.42.68.62,1s.57,1,.85,1.49.48.84.69,1.28.47.86.68,1.3c.67,1.33,1.3,2.67,1.87,4,.38.88.74,1.78,1.07,2.69.19.49.37,1,.54,1.49s.3.87.44,1.31.27.85.4,1.28c.27.9.52,1.81.76,2.73.1.39.2.78.29,1.17.28,1.17.53,2.34.74,3.53.08.39.15.8.2,1.21s.11.62.15.93.11.74.16,1.11.1.8.14,1.21a.25.25,0,0,1,0,.08c0,.4.1.79.13,1.19s.07.7.09,1.06l0,.32c0,.39.06.79.08,1.19,0,.72.07,1.45.08,2.17s0,1.17,0,1.76c0,1.28,0,2.56-.11,3.82,0,.47-.06.95-.09,1.41l0,.37c0,.48-.08.95-.13,1.42l0,.47c-.05.52-.12,1-.19,1.56s-.14,1.07-.23,1.6c-.29,1.84-.65,3.64-1.08,5.42-.08.33-.16.65-.25,1s-.16.66-.26,1-.12.45-.19.67c-.11.38-.22.76-.34,1.15s-.17.57-.27.86-.17.54-.26.81l-.28.84c-.14.42-.3.83-.45,1.24s-.35.93-.53,1.38-.27.68-.41,1c-.52,1.24-1.07,2.48-1.66,3.68l-.26.52c-2.11-12.81-11.55-23-11.55-23,7.65,14.4,6.87,31,6.87,31l0,0a.21.21,0,0,1,0,.06A55.8,55.8,0,0,1,153.78,124.09Z"/><g class="cls-9"><path class="cls-10" d="M98.59,0,96.91,0c-.26,0-.51,0-.77,0a76.05,76.05,0,0,0-15.42,2A77.26,77.26,0,0,0,30.2,41.38c-1.08,2-2.06,4.13-2.94,6.27q-.93,2.24-1.72,4.55a77,77,0,0,0,20.67,81.66,55.83,55.83,0,0,1-2.8-9.76,72.44,72.44,0,1,1,110.37,0,55.56,55.56,0,0,1-2.81,9.79A77.18,77.18,0,0,0,98.59,0Z"/><path class="cls-10" d="M74.72,79.05C53.39,99.31,51.54,132,68,151.67c-.54-.76-1.06-1.56-1.53-2.37a26.52,26.52,0,0,1-1.28-2.49A28.37,28.37,0,0,1,64,143.56a29.63,29.63,0,0,1,1.49-21.89C70.26,111,80,102.77,86.8,93.14a97.61,97.61,0,0,0,13.27-25,59.78,59.78,0,0,0,2.58-10.67c1-7.43-.07-11.79-.27-12.52C102.38,44.92,96.06,58.79,74.72,79.05Z"/><path class="cls-10" d="M133.05,82.94a75.66,75.66,0,0,0,1.66-12.5,85.5,85.5,0,0,1-3.62,19.48c-.43,1.43-.89,2.87-1.39,4.3.88-2.29,1.65-4.64,2.31-7C132.41,85.79,132.76,84.37,133.05,82.94Z"/><path class="cls-10" d="M100.5,123c7.38-3.95,14.83-6.45,20.67-13,4-4.48,6.56-10.07,8.53-15.76q-.4,1.07-.84,2.1c.31-1,.6-2.06.87-3.1a76,76,0,0,0,2.07-11.56c.25-2.51.38-5.06.38-7.63,0-1.94-.08-3.86-.22-5.77-.06-.77-.12-1.53-.21-2.3A75.92,75.92,0,0,0,99.84,11.82l-.59-.47.2.54c.15.45,3.46,10.19-4.39,26.33-.11.23-.22.46-.34.68-.71,1.44-1.51,2.93-2.42,4.47h0c-.18.31-.37.62-.56.93l-.58.93s0,0,0,.05l-1.26,1.95A111.49,111.49,0,0,1,79.15,60.74c-1.55,1.69-3.21,3.42-5,5.18-18.76,18.49-23,36.81-23.08,49.25v0c0,.63,0,1.24,0,1.83,0,.33,0,.64,0,1,0,.83.09,1.64.15,2.42,0,.26.05.52.07.77.05.46.09.89.15,1.33,0,.29.07.57.11.85s.12.8.19,1.18v0c0,.2.07.4.1.59s.08.42.12.62.13.67.2,1A31.61,31.61,0,0,0,53.86,132a54.7,54.7,0,0,0,6.72,11.77l.83,1.08h0a46,46,0,0,0,4.13,4.58c.79.78,1.62,1.52,2.47,2.24C51.54,132,53.39,99.31,74.72,79.05s27.66-34.13,27.66-34.13c.89,1.21,2,2.62,2.73,3.69q1.44,2.12,2.7,4.33a54.31,54.31,0,0,1,2.83,5.66c.51,1.15,1,2.32,1.39,3.52,4,11.67,2.52,24.47-1.82,35.83a77.63,77.63,0,0,1-8.63,16.28c-3.76,5.42-8.58,10-12.28,15.41a25.52,25.52,0,0,0-4.17,10.19h0C86.44,132,93.62,126.64,100.5,123Z"/><path class="cls-10" d="M145.19,100a96.19,96.19,0,0,0-2.29-10.6,72,72,0,0,0-8.19-19,75.66,75.66,0,0,1-1.66,12.5c-.15.74-.31,1.45-.49,2.16-.07.29-.15.58-.23.88-3.18,11.91-10.9,21.28-20.85,28.31-10.23,7.23-24,11.4-26.35,25.54a18.6,18.6,0,0,0,1.34,10.82c10.06,22.06,38.07,7.37,49-5.46.1-.11.18-.22.27-.33l.17-.2,0,0a.74.74,0,0,1,.1-.11,44,44,0,0,0,8.76-17.56c-1.26,1.16-2.56,2.29-3.92,3.36a.1.1,0,0,1,0,0L140,131c-.07.05-.13.11-.2.15-.35.27-.71.53-1.07.79,1.08-1.51,2.07-3,3-4.62.31-.52.6-1,.9-1.57.13-.23.25-.47.38-.71.2-.4.4-.81.59-1.22l.42-1a27,27,0,0,0,1.66-5.79c.11-.57.19-1.15.26-1.77A60.61,60.61,0,0,0,145.19,100Z"/><path class="cls-10" d="M99.45,11.89c.15.45,3.46,10.19-4.39,26.33-.11.23-.22.46-.34.68-.71,1.44-1.51,2.93-2.42,4.47h0c-.18.31-.37.62-.56.93l-.58.93s0,0,0,.05l-1.26,1.95A111.49,111.49,0,0,1,79.15,60.74c-1.55,1.69-3.21,3.42-5,5.18-18.76,18.49-23,36.81-23.08,49.25v0c0,.63,0,1.24,0,1.83,0,.33,0,.64,0,1,0,.83.09,1.64.15,2.42,0,.26.05.52.07.77.05.46.09.89.15,1.33,0,.29.07.57.11.85s.12.8.19,1.18v0c0,.2.07.4.1.59s.08.42.12.62.13.67.2,1A31.61,31.61,0,0,0,53.86,132a54.7,54.7,0,0,0,6.72,11.77l.83,1.08h0a46,46,0,0,0,4.13,4.58c.79.78,1.62,1.52,2.47,2.24C51.54,132,53.39,99.31,74.72,79.05s27.66-34.13,27.66-34.13c.89,1.21,2,2.62,2.73,3.69q1.44,2.12,2.7,4.33a54.31,54.31,0,0,1,2.83,5.66c.51,1.15,1,2.32,1.39,3.52,3.6,10.41,2.77,21.72-.53,32.11h0C127.22,56.42,99.45,11.89,99.45,11.89Z"/><path class="cls-10" d="M153.78,124.09a72.44,72.44,0,1,0-110.37,0,57.28,57.28,0,0,1-1-8.76s-.77-16.56,6.87-31c0,0-9.41,10.18-11.54,23A67.65,67.65,0,0,1,30.7,77.19c0-.59,0-1.17,0-1.76s0-.93.06-1.4q0-.37,0-.75c0-.44.05-.88.09-1.31s.09-1.14.15-1.7v0c0-.43.09-.85.14-1.27,0-.27.07-.53.1-.79.13-1,.29-2,.46-2.94.22-1.24.48-2.47.76-3.68.1-.45.21-.88.33-1.32s.24-.95.38-1.43l.09-.32c.09-.32.18-.63.28-.95s.17-.57.26-.85l.45-1.38c.33-.94.67-1.88,1-2.81.13-.34.27-.68.41-1,.36-.88.74-1.75,1.14-2.62.16-.35.32-.69.49-1s.38-.79.58-1.2l.4-.76c.36-.7.74-1.39,1.12-2.07.19-.33.37-.65.56-1,.29-.5.59-1,.9-1.49.44-.71.89-1.41,1.36-2.1.61-.91,1.24-1.79,1.89-2.67.06-.08.12-.14.17-.22l1.12-1.44c.38-.48.77-1,1.16-1.42s1-1.12,1.46-1.67.76-.84,1.16-1.25.74-.78,1.12-1.16.75-.76,1.15-1.13.77-.75,1.17-1.11.8-.74,1.21-1.08a65,65,0,0,1,6.39-5c.42-.29.85-.57,1.28-.84a.18.18,0,0,1,.09-.07c.43-.29.87-.56,1.3-.82l.07-.05,1.12-.68c.6-.35,1.19-.69,1.8-1l1.3-.7c.47-.24.94-.49,1.43-.72l.9-.43c.3-.15.61-.29.9-.42l1.27-.56c.39-.17.78-.34,1.19-.5l.4-.16c.32-.13.64-.27,1-.38.65-.25,1.31-.5,2-.72s1-.36,1.57-.53l1.47-.45a.83.83,0,0,1,.21-.06c.42-.12.84-.25,1.26-.35l.41-.12c.4-.11.8-.21,1.21-.3a1.87,1.87,0,0,1,.32-.08c.52-.13,1-.24,1.55-.35q1.57-.36,3.18-.6c.65-.12,1.31-.22,2-.31l1.41-.17.18,0,1.5-.15.22,0c.54,0,1.08-.08,1.62-.11L96,9.34l.8,0c.57,0,1.17,0,1.75,0,.35,0,.71,0,1.06,0l1.14,0c1,0,1.91.07,2.85.14.39,0,.77.06,1.14.1a1.87,1.87,0,0,1,.34,0c.44,0,.89.08,1.32.14s.94.1,1.39.17,1.11.16,1.66.24l1.1.2c.5.08,1,.18,1.49.28s1,.2,1.46.31,1,.22,1.47.35,1,.24,1.44.38,1,.25,1.44.4l1.43.43c.88.28,1.75.58,2.62.9.52.2,1,.39,1.56.6.92.36,1.82.73,2.71,1.14.38.16.75.32,1.11.51.54.24,1.07.5,1.6.77s.84.42,1.25.64c.87.45,1.72.92,2.56,1.42q1.91,1.1,3.7,2.32l1.21.83c.4.27.79.56,1.18.85s.76.56,1.15.86l0,0c.36.27.72.56,1.08.85l.09.07,1.08.89c.37.3.74.62,1.1.95s.72.63,1.08,1c.72.64,1.42,1.31,2.1,2,.35.34.69.69,1,1s.62.64.91,1c.73.77,1.43,1.58,2.11,2.39.27.3.53.62.79.94s.7.88,1.05,1.33.51.67.76,1c1.16,1.56,2.26,3.18,3.28,4.84.21.34.42.68.62,1s.57,1,.85,1.49.48.84.69,1.28.47.86.68,1.3c.67,1.33,1.3,2.67,1.87,4,.38.88.74,1.78,1.07,2.69.19.49.37,1,.54,1.49s.3.87.44,1.31.27.85.4,1.28c.27.9.52,1.81.76,2.73.1.39.2.78.29,1.17.28,1.17.53,2.34.74,3.53.08.39.15.8.2,1.21s.11.62.15.93.11.74.16,1.11.1.8.14,1.21a.25.25,0,0,1,0,.08c0,.4.1.79.13,1.19s.07.7.09,1.06l0,.32c0,.39.06.79.08,1.19,0,.72.07,1.45.08,2.17s0,1.17,0,1.76c0,1.28,0,2.56-.11,3.82,0,.47-.06.95-.09,1.41l0,.37c0,.48-.08.95-.13,1.42l0,.47c-.05.52-.12,1-.19,1.56s-.14,1.07-.23,1.6c-.29,1.84-.65,3.64-1.08,5.42-.08.33-.16.65-.25,1s-.16.66-.26,1-.12.45-.19.67c-.11.38-.22.76-.34,1.15s-.17.57-.27.86-.17.54-.26.81l-.28.84c-.14.42-.3.83-.45,1.24s-.35.93-.53,1.38-.27.68-.41,1c-.52,1.24-1.07,2.48-1.66,3.68l-.26.52c-2.11-12.81-11.55-23-11.55-23,7.65,14.4,6.87,31,6.87,31l0,0a.21.21,0,0,1,0,.06A55.8,55.8,0,0,1,153.78,124.09Z"/></g><path class="cls-11" d="M0,226.47v-.83H9.69A6.94,6.94,0,0,0,10.77,230a3.25,3.25,0,0,0,2.7,1.23,4.54,4.54,0,0,0,2.62-.74,3.06,3.06,0,0,0,1.33-2.7,3.94,3.94,0,0,0-.65-2.42,10.54,10.54,0,0,0-3.72-2.53c-3.23-1.42-5.08-2.27-5.58-2.56a15.22,15.22,0,0,1-4.91-4.32,11.35,11.35,0,0,1-1.4-2.75,11.4,11.4,0,0,1-.51-3.53,11.85,11.85,0,0,1,3.47-8.47,13.8,13.8,0,0,1,10.46-4.12,13.28,13.28,0,0,1,8.76,2.76q4,3.33,4,10H18a4.22,4.22,0,0,0-.91-2.73,3.42,3.42,0,0,0-2.81-1.3,3.3,3.3,0,0,0-2.11.71A3,3,0,0,0,11,209a3.21,3.21,0,0,0,1.19,2.44,20.63,20.63,0,0,0,4.52,2.67c1.14.55,2.12,1.06,3,1.51.62.34,1.32.74,2.1,1.19a12.43,12.43,0,0,1,4.55,4.5,10.86,10.86,0,0,1,1.39,5.45,12.9,12.9,0,0,1-3.44,8.87,13.72,13.72,0,0,1-10.77,4.49q-6.28,0-9.78-3.27Q0,233.32,0,226.47Z"/><path class="cls-11" d="M49,226v13.33H38.88V197.85H52.63q8.67,0,12.71,4.18,3.34,3.47,3.35,9.63c0,5.32-1.7,9.1-5.11,11.31Q59,226,49,226Zm.11-18.9V217q5.09,0,7-.86A4.12,4.12,0,0,0,58.46,212a3.94,3.94,0,0,0-1.71-3.69C55.41,207.46,52.85,207.06,49.08,207.06Z"/><path class="cls-11" d="M100.27,239.29l-2-6.06H84.59l-2.22,6.06h-11l15.92-41.44H95.5l16,41.44Zm-8.86-27.91-4.12,13.33H95.5Z"/><path class="cls-11" d="M138.72,239.29l-8-13.33v13.33H120.67V197.85h13.75q6.32,0,10.18,2.13a10.68,10.68,0,0,1,4.77,5.17,15.93,15.93,0,0,1,1.2,6.45,13.27,13.27,0,0,1-9.47,13.59l10.15,14.1Zm-8-32.23V217c3.54,0,6-.34,7.3-1a4.06,4.06,0,0,0,2.19-4q0-2.73-1.53-3.69C137.41,207.46,134.75,207.06,130.76,207.06Z"/><path class="cls-11" d="M182.76,239.29l-10.94-18v18H161.73V197.85h10.09v19.47l12.28-19.47h11.31l-13.7,21,13.22,20.41Z"/><path class="cls-11" d="M30.42,274.31h5.67v4.35H25.58V258.84h4.84Z"/><path class="cls-11" d="M57.23,278.66l-1-2.9H49.73l-1.06,2.9H43.41L51,258.84H55l7.63,19.82ZM53,265.31l-2,6.37H55Z"/><path class="cls-11" d="M71.27,271.25V258.84h4.88V271a4.57,4.57,0,0,0,.58,2.7,2.09,2.09,0,0,0,1.75.68c1.67,0,2.5-1.13,2.5-3.38v-12.2h4.86v12.41A8,8,0,0,1,84,276.77a7.06,7.06,0,0,1-5.53,2.17q-3.93,0-5.69-2.17A8.69,8.69,0,0,1,71.27,271.25Z"/><path class="cls-11" d="M109.6,278.66l-7.4-11v11H97.37V258.84h4.4l7.25,11v-11h4.81v19.82Z"/><path class="cls-11" d="M139.19,271.3h5.26a10.74,10.74,0,0,1-3.58,5.56,9.49,9.49,0,0,1-6.17,2.19,10.08,10.08,0,0,1-7.08-2.76,9.85,9.85,0,0,1-3.21-7.58,10.58,10.58,0,0,1,1.1-4.68,9.86,9.86,0,0,1,3.39-3.93,10.22,10.22,0,0,1,5.77-1.64,10.63,10.63,0,0,1,3.51.57,8.92,8.92,0,0,1,3.62,2.32,12.13,12.13,0,0,1,2.7,5h-5.2a6,6,0,0,0-2.19-2.38,4.79,4.79,0,0,0-2.44-.62,5,5,0,0,0-3.53,1.34,5.24,5.24,0,0,0-1.71,3.33,1.94,1.94,0,0,0,0,.24,2.44,2.44,0,0,0,0,.29,6.13,6.13,0,0,0,.48,2.38,5.2,5.2,0,0,0,1.64,2.19,5.08,5.08,0,0,0,3.13,1,4.83,4.83,0,0,0,2.13-.49A6,6,0,0,0,139.19,271.3Z"/><path class="cls-11" d="M169.83,258.84v19.82H165V271.1H160v7.56H155.2V258.84H160v7.53H165v-7.53Z"/></g></g></g></svg>