<svg xmlns="http://www.w3.org/2000/svg" viewBox="0 0 19.73 16.54"><defs><style>.cls-1{fill:#71ee4f;}</style></defs><g id="Layer_2" data-name="Layer 2"><g id="Layer_1-2" data-name="Layer 1"><path class="cls-1" d="M18.39.1,6.12,4.83,1,6.8a2.29,2.29,0,0,0-.8.46A.47.47,0,0,0,.3,8.1a2.29,2.29,0,0,0,.46.2c1.17.37,2.34.77,3.52,1.08.6.16,1,.43,1,1,0,.11.07.22.1.33.48,1.47,1,2.94,1.43,4.41a.47.47,0,0,0,.48.37,1.11,1.11,0,0,0,.88-.35c.7-.68,1.41-1.35,2.1-2,.15-.15.23-.17.41,0,1.39,1,2.8,2.07,4.2,3.1a1.64,1.64,0,0,0,.61.29.81.81,0,0,0,1-.43,2.74,2.74,0,0,0,.23-.72Q18,9.09,19.38,2.83c.13-.6.29-1.19.35-1.71C19.74.19,19.17-.2,18.39.1ZM16.15,3.31,14.92,4.43l-7,6.3a.68.68,0,0,0-.24.49c-.08,1-.17,1.93-.26,2.89,0,.06,0,.12-.07.17l-.78-2.39c-.26-.79-.51-1.57-.77-2.35,0-.16,0-.23.11-.32l9.59-6.05A1.2,1.2,0,0,1,16,3a.24.24,0,0,1,.27.07C16.32,3.16,16.22,3.24,16.15,3.31Z"/></g></g></svg>