<svg xmlns="http://www.w3.org/2000/svg" viewBox="0 0 39.82 39.83"><defs><style>.cls-1{fill:#fff;}</style></defs><g id="Layer_2" data-name="Layer 2"><g id="Layer_1-2" data-name="Layer 1"><path class="cls-1" d="M37.43,39.78A3.49,3.49,0,0,0,38.9,39a3,3,0,0,0,.92-1.73v-1a2.94,2.94,0,0,0-.92-1.78L31,26.67a.39.39,0,0,1-.06-.61A16.85,16.85,0,0,0,23.18,1.2,17.06,17.06,0,0,0,17.77,0H16A16.64,16.64,0,0,0,3,7.24,16.51,16.51,0,0,0,.08,15.4c0,.07,0,.17-.08.2v.26c.16.07.08.21.08.33,0,.56,0,1.13,0,1.69C.66,24.35,3.74,29.22,9.64,32A16.24,16.24,0,0,0,26.16,30.9c.27-.17.38-.08.55.09q3.34,3.36,6.71,6.69a7.45,7.45,0,0,0,2.7,2.15H37.3a.19.19,0,0,1,.11,0ZM16.85,27.57A10.73,10.73,0,1,1,27.6,16.85,10.71,10.71,0,0,1,16.85,27.57Z"/></g></g></svg>