<svg xmlns="http://www.w3.org/2000/svg" viewBox="0 0 20.28 14.27"><defs><style>.cls-1{fill:#71ee4f;}</style></defs><g id="Layer_2" data-name="Layer 2"><g id="Layer_1-2" data-name="Layer 1"><path class="cls-1" d="M20,3.76A14.5,14.5,0,0,0,10.94,0,15.46,15.46,0,0,0,.31,3.72C0,4-.15,4.2.26,4.56.9,5.14,1.5,5.77,2.1,6.4c.24.24.38.35.7.06a11,11,0,0,1,14.7,0c.25.23.38.2.6,0C18.72,5.84,19.34,5.2,20,4.6,20.37,4.28,20.38,4.09,20,3.76Z"/><path class="cls-1" d="M3.89,7.71c-.26.24-.13.34,0,.51C4.62,8.9,5.31,9.58,6,10.28c.22.24.36.19.59,0a5.51,5.51,0,0,1,7.06-.05c.28.2.43.23.67,0,.73-.77,1.49-1.52,2.23-2.28A9.3,9.3,0,0,0,3.89,7.71Z"/><path class="cls-1" d="M12.25,11.45a3.89,3.89,0,0,0-4.72.42c.76.74,1.53,1.48,2.27,2.23.24.25.38.21.59,0,.64-.66,1.28-1.32,2-1.94C12.72,11.82,12.59,11.67,12.25,11.45Z"/></g></g></svg>