<svg xmlns="http://www.w3.org/2000/svg" viewBox="0 0 22.87 17.9"><defs><style>.cls-1{fill:#71ee4f;}</style></defs><g id="Layer_2" data-name="Layer 2"><g id="Layer_1-2" data-name="Layer 1"><path class="cls-1" d="M22.38,5a7.08,7.08,0,0,0-1.75-1.66A12.17,12.17,0,0,0,18.14,2.1a.49.49,0,0,1-.36-.44A1.8,1.8,0,0,0,16.69.24a2,2,0,0,0-.81-.15C14.93,0,14,0,13,0S11.41,0,10.6,0A2.07,2.07,0,0,0,9.32.5c-.34.29-.67.61-1,.93C7.14,2.6,6,3.78,4.79,5h0L2.84,6.9C2.05,7.69,1.26,8.48.49,9.29a1.7,1.7,0,0,0-.45.83,1.92,1.92,0,0,0,.1,1.09.72.72,0,0,0,.16.25l3.15,3.17c.9.91,1.79,1.82,2.72,2.69a1.93,1.93,0,0,0,.58.45,1.69,1.69,0,0,0,1.6-.17,4.64,4.64,0,0,0,.7-.63q3.84-3.81,7.65-7.65a5.5,5.5,0,0,0,1-1.2.1.1,0,0,1,.12,0l.63.12A8.41,8.41,0,0,0,20,8.37a3.93,3.93,0,0,0,1.73-.3,1.71,1.71,0,0,0,1.11-1.54A2.26,2.26,0,0,0,22.38,5ZM6.85,6a1.52,1.52,0,0,1,2,2.27A1.52,1.52,0,0,1,6.85,6ZM9.94,12.9a1.57,1.57,0,0,1-2.14,0,1.54,1.54,0,0,1,0-2.17A1.52,1.52,0,0,1,9.94,12.9Zm1.89-3.57a.3.3,0,0,1-.27.22l-1.71.17c-1.45.14-2.89.28-4.34.4H5.25c-.32,0-.41-.26-.36-.51A.2.2,0,0,1,5,9.5a1.65,1.65,0,0,1,.44-.1c1.07-.14,2.14-.23,3.21-.33l2.68-.24a.51.51,0,0,1,.37.1A.36.36,0,0,1,11.83,9.33Zm9.45-2.68a1.44,1.44,0,0,1-.66.22,5,5,0,0,1-1.72-.1,10.62,10.62,0,0,1-3.84-1.59c-.19-.13-.19-.13-.36,0a1.46,1.46,0,1,1-.07-2.3A1.37,1.37,0,0,1,15.22,4a.42.42,0,0,0,.23.4,12.27,12.27,0,0,0,2.3,1.13l.1,0c0-.11,0-.22,0-.32,0-.54,0-1.08,0-1.63,0-.07,0-.1.09-.06a11.67,11.67,0,0,1,2.1,1.18,4.42,4.42,0,0,1,1.13,1.11,1.32,1.32,0,0,1,.21.45A.25.25,0,0,1,21.28,6.65Z"/><path class="cls-1" d="M8.46,11.37a.62.62,0,0,0,0,.88.61.61,0,0,0,.85,0,.62.62,0,0,0,0-.89A.62.62,0,0,0,8.46,11.37Z"/><path class="cls-1" d="M8.3,7.58a.6.6,0,0,0,0-.88.59.59,0,0,0-.85,0,.62.62,0,0,0,0,.88A.63.63,0,0,0,8.3,7.58Z"/></g></g></svg>