<svg xmlns="http://www.w3.org/2000/svg" viewBox="0 0 195.2 10"><defs><style>.cls-1{fill:#fff;}</style></defs><g id="Layer_2" data-name="Layer 2"><g id="Layer_1-2" data-name="Layer 1"><path class="cls-1" d="M.77,8.77a3.68,3.68,0,0,0,1.87.52c1.07,0,1.69-.55,1.69-1.37S3.9,6.73,2.81,6.32C1.49,5.85.67,5.16.67,4a2.33,2.33,0,0,1,2.62-2.2,3.69,3.69,0,0,1,1.78.39l-.29.86A3.12,3.12,0,0,0,3.25,2.7c-1.11,0-1.53.66-1.53,1.21,0,.75.5,1.12,1.61,1.55C4.7,6,5.39,6.65,5.39,7.84s-.91,2.33-2.83,2.33A4.13,4.13,0,0,1,.5,9.64Z" transform="translate(-0.5 -1.53)"/><path class="cls-1" d="M10.05,10,10,9.31h0a2.16,2.16,0,0,1-1.77.87A1.65,1.65,0,0,1,6.38,8.51c0-1.4,1.24-2.18,3.48-2.16V6.23A1.19,1.19,0,0,0,8.54,4.89,2.84,2.84,0,0,0,7,5.32l-.24-.7A3.63,3.63,0,0,1,8.7,4.11c1.78,0,2.21,1.21,2.21,2.38V8.66A8.42,8.42,0,0,0,11,10Zm-.17-3c-1.14,0-2.45.18-2.45,1.3a.93.93,0,0,0,1,1,1.45,1.45,0,0,0,1.41-1,1,1,0,0,0,.05-.33Z" transform="translate(-0.5 -1.53)"/><path class="cls-1" d="M12.61,1.53h1.05V10H12.61Z" transform="translate(-0.5 -1.53)"/><path class="cls-1" d="M16,7.33a1.85,1.85,0,0,0,2,2,3.92,3.92,0,0,0,1.61-.3l.18.75a4.63,4.63,0,0,1-1.93.37A2.71,2.71,0,0,1,15,7.24c0-1.76,1-3.13,2.73-3.13a2.45,2.45,0,0,1,2.39,2.73,2,2,0,0,1,0,.49Zm3.08-.76a1.49,1.49,0,0,0-1.45-1.7,1.72,1.72,0,0,0-1.62,1.7Z" transform="translate(-0.5 -1.53)"/><path class="cls-1" d="M72.91,2h4.35v.87H74V5.52H77v.86H74V10h-1Z" transform="translate(-0.5 -1.53)"/><path class="cls-1" d="M78.94,7.33a1.86,1.86,0,0,0,2,2,3.92,3.92,0,0,0,1.61-.3l.19.75a4.69,4.69,0,0,1-1.94.37,2.7,2.7,0,0,1-2.85-2.93c0-1.76,1-3.13,2.73-3.13A2.44,2.44,0,0,1,83,6.84a2.93,2.93,0,0,1,0,.49ZM82,6.57a1.5,1.5,0,0,0-1.46-1.7A1.74,1.74,0,0,0,79,6.57Z" transform="translate(-0.5 -1.53)"/><path class="cls-1" d="M84.31,10c0-.4,0-1,0-1.49v-7h1V5.17h0a2.15,2.15,0,0,1,2-1.06c1.44,0,2.45,1.2,2.45,2.95,0,2.09-1.32,3.12-2.61,3.12a2.1,2.1,0,0,1-2-1.09h0l0,.95Zm1.1-2.32a1.58,1.58,0,0,0,0,.38A1.63,1.63,0,0,0,87,9.34c1.11,0,1.76-.9,1.76-2.23,0-1.17-.6-2.17-1.73-2.17a1.68,1.68,0,0,0-1.59,1.3,1.87,1.87,0,0,0-.06.44Z" transform="translate(-0.5 -1.53)"/><path class="cls-1" d="M93.39,10V9.4l.83-.8c2-1.9,2.89-2.91,2.9-4.09A1.39,1.39,0,0,0,95.58,3a2.69,2.69,0,0,0-1.66.66l-.33-.74a3.43,3.43,0,0,1,2.2-.79,2.19,2.19,0,0,1,2.38,2.26c0,1.45-1,2.61-2.68,4.18l-.62.59v0h3.5V10Z" transform="translate(-0.5 -1.53)"/><path class="cls-1" d="M99.8,8.84a3.66,3.66,0,0,0,1.73.48c1.35,0,1.77-.86,1.77-1.51,0-1.1-1-1.56-2-1.56h-.59V5.46h.59c.77,0,1.74-.4,1.74-1.32,0-.62-.4-1.17-1.37-1.17a2.89,2.89,0,0,0-1.56.51l-.28-.76a3.71,3.71,0,0,1,2-.6c1.54,0,2.24.91,2.24,1.86a1.94,1.94,0,0,1-1.44,1.83v0a2,2,0,0,1,1.73,2c0,1.24-1,2.34-2.84,2.34a3.82,3.82,0,0,1-2-.54Z" transform="translate(-0.5 -1.53)"/><path class="cls-1" d="M105.36,11.52a16.72,16.72,0,0,0,.72-2.87l1.18-.12a15.43,15.43,0,0,1-1.15,2.92Z" transform="translate(-0.5 -1.53)"/><path class="cls-1" d="M113,3.23h0L111.65,4l-.21-.8,1.71-.91H114V10h-1Z" transform="translate(-0.5 -1.53)"/><path class="cls-1" d="M119.18,3.23h0L117.8,4l-.2-.8,1.7-.91h.9V10h-1Z" transform="translate(-0.5 -1.53)"/><path class="cls-1" d="M123.14,5.19a.7.7,0,0,1,.71-.75.69.69,0,0,1,.7.75.71.71,0,1,1-1.41,0Zm0,4.24a.71.71,0,0,1,.71-.76.69.69,0,0,1,.7.76.71.71,0,1,1-1.41,0Z" transform="translate(-0.5 -1.53)"/><path class="cls-1" d="M130.71,6.07c0,2.64-1,4.11-2.71,4.11-1.52,0-2.55-1.43-2.58-4s1.13-4,2.71-4S130.71,3.58,130.71,6.07Zm-4.23.11c0,2,.63,3.18,1.58,3.18s1.59-1.26,1.59-3.25-.48-3.17-1.58-3.17C127.15,2.94,126.48,4.06,126.48,6.18Z" transform="translate(-0.5 -1.53)"/><path class="cls-1" d="M136.87,6.07c0,2.64-1,4.11-2.71,4.11-1.52,0-2.56-1.43-2.58-4s1.13-4,2.71-4S136.87,3.58,136.87,6.07Zm-4.23.11c0,2,.62,3.18,1.58,3.18s1.59-1.26,1.59-3.25-.49-3.17-1.58-3.17C133.31,2.94,132.64,4.06,132.64,6.18Z" transform="translate(-0.5 -1.53)"/><path class="cls-1" d="M143.17,6.42v.77h-3V6.42Z" transform="translate(-0.5 -1.53)"/><path class="cls-1" d="M148.9,3.23h0L147.53,4l-.21-.8L149,2.25h.89V10h-1Z" transform="translate(-0.5 -1.53)"/><path class="cls-1" d="M157.22,3a3.93,3.93,0,0,0-.8,0,3.14,3.14,0,0,0-2.7,2.77h0A2.38,2.38,0,0,1,158,7.43a2.62,2.62,0,0,1-2.6,2.75c-1.66,0-2.75-1.3-2.75-3.32A4.86,4.86,0,0,1,154,3.34a4.19,4.19,0,0,1,2.49-1.15,3.17,3.17,0,0,1,.76-.06Zm-.3,4.5a1.58,1.58,0,0,0-1.6-1.78,1.74,1.74,0,0,0-1.53,1,1,1,0,0,0-.11.46c0,1.29.61,2.25,1.72,2.25C156.31,9.37,156.92,8.61,156.92,7.49Z" transform="translate(-0.5 -1.53)"/><path class="cls-1" d="M159,5.19a.71.71,0,0,1,.72-.75.69.69,0,0,1,.7.75.7.7,0,0,1-.71.75A.71.71,0,0,1,159,5.19Zm0,4.24a.72.72,0,0,1,.72-.76.69.69,0,0,1,.7.76.7.7,0,0,1-.71.75A.71.71,0,0,1,159,9.43Z" transform="translate(-0.5 -1.53)"/><path class="cls-1" d="M166.59,6.07c0,2.64-1,4.11-2.71,4.11-1.52,0-2.55-1.43-2.58-4s1.13-4,2.71-4S166.59,3.58,166.59,6.07Zm-4.23.11c0,2,.63,3.18,1.58,3.18s1.59-1.26,1.59-3.25-.48-3.17-1.58-3.17C163,2.94,162.36,4.06,162.36,6.18Z" transform="translate(-0.5 -1.53)"/><path class="cls-1" d="M172.75,6.07c0,2.64-1,4.11-2.71,4.11-1.52,0-2.56-1.43-2.58-4s1.13-4,2.71-4S172.75,3.58,172.75,6.07Zm-4.23.11c0,2,.62,3.18,1.58,3.18s1.59-1.26,1.59-3.25-.49-3.17-1.58-3.17C169.19,2.94,168.52,4.06,168.52,6.18Z" transform="translate(-0.5 -1.53)"/><path class="cls-1" d="M177.68,2V6.75c0,1.8.8,2.57,1.89,2.57s2-.79,2-2.57V2h1.05V6.68c0,2.48-1.3,3.5-3.06,3.5s-2.89-.95-2.89-3.46V2Z" transform="translate(-0.5 -1.53)"/><path class="cls-1" d="M185.94,2.84h-2.46V2h6v.88H187V10h-1.05Z" transform="translate(-0.5 -1.53)"/><path class="cls-1" d="M195.69,9.78a5.18,5.18,0,0,1-2.14.39,3.77,3.77,0,0,1-4-4.1,4,4,0,0,1,4.22-4.24,4.24,4.24,0,0,1,1.91.36l-.25.85a3.85,3.85,0,0,0-1.63-.33A3,3,0,0,0,190.67,6a2.93,2.93,0,0,0,3.09,3.24A4.32,4.32,0,0,0,195.48,9Z" transform="translate(-0.5 -1.53)"/></g></g></svg>