<svg xmlns="http://www.w3.org/2000/svg" viewBox="0 0 37.32 8.28"><defs><style>.cls-1{fill:#fff;}</style></defs><g id="Layer_2" data-name="Layer 2"><g id="Layer_1-2" data-name="Layer 1"><path class="cls-1" d="M5.72,6.07c0,2.64-1,4.11-2.71,4.11-1.52,0-2.55-1.43-2.58-4S1.56,2.12,3.14,2.12,5.72,3.58,5.72,6.07Zm-4.23.11c0,2,.63,3.18,1.58,3.18S4.66,8.1,4.66,6.12,4.18,2.94,3.08,2.94C2.16,2.94,1.49,4.06,1.49,6.18Z" transform="translate(-0.43 -1.9)"/><path class="cls-1" d="M6.78,9.42a.72.72,0,1,1,1.43,0,.72.72,0,1,1-1.43,0Z" transform="translate(-0.43 -1.9)"/><path class="cls-1" d="M11.47,3.23h0L10.09,4l-.2-.8,1.7-.91h.9V10h-1Z" transform="translate(-0.43 -1.9)"/><path class="cls-1" d="M18.25,2.07a9.81,9.81,0,0,1,1.9-.17,3.37,3.37,0,0,1,2.22.58,1.73,1.73,0,0,1,.68,1.44,1.92,1.92,0,0,1-1.37,1.77v0a2.07,2.07,0,0,1,1.67,2,2.12,2.12,0,0,1-.69,1.61,4,4,0,0,1-2.79.76c-.73,0-1.27-.06-1.62-.09Zm1,3.31h1C21.34,5.38,22,4.8,22,4c0-.94-.71-1.32-1.77-1.32a4.12,4.12,0,0,0-.93.08Zm0,3.87a5.13,5.13,0,0,0,.88.05c1.08,0,2.08-.39,2.08-1.57s-.95-1.56-2.09-1.56h-.87Z" transform="translate(-0.43 -1.9)"/><path class="cls-1" d="M24.75,10V2H25.9l2.59,4.09a22,22,0,0,1,1.44,2.63h0c-.1-1.08-.12-2.07-.12-3.32V2h1V10H29.77L27.2,6a27.56,27.56,0,0,1-1.51-2.71h0c.06,1,.07,2,.07,3.34V10Z" transform="translate(-0.43 -1.9)"/><path class="cls-1" d="M32.65,2.07a9.81,9.81,0,0,1,1.9-.17,3.37,3.37,0,0,1,2.22.58,1.73,1.73,0,0,1,.68,1.44,1.92,1.92,0,0,1-1.37,1.77v0a2.07,2.07,0,0,1,1.67,2,2.12,2.12,0,0,1-.69,1.61,4,4,0,0,1-2.79.76c-.73,0-1.27-.06-1.62-.09Zm1,3.31h1c1.09,0,1.74-.58,1.74-1.36,0-.94-.71-1.32-1.77-1.32a4.12,4.12,0,0,0-.93.08Zm0,3.87a5.13,5.13,0,0,0,.88.05c1.08,0,2.08-.39,2.08-1.57s-.95-1.56-2.09-1.56h-.87Z" transform="translate(-0.43 -1.9)"/></g></g></svg>