<svg xmlns="http://www.w3.org/2000/svg" viewBox="0 0 107.95 15.45"><defs><style>.cls-1{fill:#b3b3b3;}.cls-2{fill:none;stroke:#b3b3b3;stroke-miterlimit:10;}</style></defs><g id="Layer_2" data-name="Layer 2"><g id="Layer_1-2" data-name="Layer 1"><path class="cls-1" d="M1.32,2.44H2.5V6.31H6.8V2.44H8v9.25H6.8V7.34H2.5v4.35H1.32Z" transform="translate(0 -1.94)"/><path class="cls-1" d="M9.89,8.27c0-2.28,1.49-3.6,3.17-3.6S16.23,6,16.23,8.27a3.27,3.27,0,0,1-3.17,3.59A3.27,3.27,0,0,1,9.89,8.27Zm5.15,0c0-1.56-.8-2.63-2-2.63s-2,1.07-2,2.63.79,2.62,2,2.62S15,9.84,15,8.27Z" transform="translate(0 -1.94)"/><path class="cls-1" d="M17.16,4.84h1.18l1,4c.14.65.27,1.26.4,1.91h.06c.15-.65.29-1.27.46-1.91l1.06-4h1.13l1.07,4c.17.65.32,1.26.48,1.91h.05c.15-.65.28-1.26.43-1.91l1-4H26.6l-1.84,6.85H23.35L22.36,8c-.16-.65-.29-1.28-.46-2h-.06c-.14.69-.28,1.34-.47,2l-1,3.66H19.06Z" transform="translate(0 -1.94)"/><path class="cls-1" d="M31.1,9.57V5.79h-1V4.91l1.07-.07.13-1.92h1V4.84h1.86v1H32.26v3.8c0,.84.27,1.32,1.06,1.32a2.33,2.33,0,0,0,.78-.18l.22.87a4.1,4.1,0,0,1-1.27.26C31.6,11.86,31.1,10.93,31.1,9.57Z" transform="translate(0 -1.94)"/><path class="cls-1" d="M35,8.27a3.2,3.2,0,1,1,6.35,0,3.2,3.2,0,1,1-6.35,0Zm5.15,0c0-1.56-.8-2.63-2-2.63s-2,1.07-2,2.63.8,2.62,2,2.62S40.1,9.84,40.1,8.27Z" transform="translate(0 -1.94)"/><path class="cls-1" d="M45.86,4.84h1l.1.79h0a3.63,3.63,0,0,1,2.18-1c1.77,0,2.72,1.37,2.72,3.49,0,2.33-1.4,3.7-3,3.7a3.09,3.09,0,0,1-1.9-.8l0,1.2v2.32H45.86Zm4.79,3.33c0-1.51-.52-2.52-1.81-2.52A2.84,2.84,0,0,0,47,6.58v3.59a2.69,2.69,0,0,0,1.67.71C49.81,10.88,50.65,9.86,50.65,8.17Z" transform="translate(0 -1.94)"/><path class="cls-1" d="M53.05,9.91c0-1.49,1.29-2.24,4.2-2.55,0-.89-.29-1.73-1.41-1.73a3.77,3.77,0,0,0-2,.73l-.45-.79A5,5,0,0,1,56,4.67c1.68,0,2.38,1.11,2.38,2.82v4.2h-1l-.09-.82h0a3.66,3.66,0,0,1-2.27,1A1.87,1.87,0,0,1,53.05,9.91Zm4.2.11V8.12C55,8.39,54.19,9,54.19,9.83s.52,1.09,1.19,1.09A2.82,2.82,0,0,0,57.25,10Z" transform="translate(0 -1.94)"/><path class="cls-1" d="M60.57,4.84h1l.1,1.25h0a2.37,2.37,0,0,1,2-1.42,1.61,1.61,0,0,1,.73.14l-.22,1a1.94,1.94,0,0,0-.66-.11c-.58,0-1.27.41-1.73,1.57v4.4H60.57Z" transform="translate(0 -1.94)"/><path class="cls-1" d="M65.66,9.57V5.79h-1V4.91l1.07-.07.14-1.92h1V4.84h1.85v1H66.82v3.8c0,.84.27,1.32,1.06,1.32a2.33,2.33,0,0,0,.78-.18l.22.87a4.1,4.1,0,0,1-1.27.26C66.15,11.86,65.66,10.93,65.66,9.57Z" transform="translate(0 -1.94)"/><path class="cls-1" d="M70,2.69a.8.8,0,0,1,1.6,0,.8.8,0,0,1-1.6,0Zm.21,2.15h1.15v6.85H70.22Z" transform="translate(0 -1.94)"/><path class="cls-1" d="M73.17,8.27a3.32,3.32,0,0,1,3.3-3.6,2.85,2.85,0,0,1,2,.81l-.59.76a2,2,0,0,0-1.36-.6c-1.24,0-2.15,1.07-2.15,2.63s.86,2.62,2.12,2.62a2.43,2.43,0,0,0,1.6-.68l.51.78a3.35,3.35,0,0,1-2.22.87C74.56,11.86,73.17,10.54,73.17,8.27Z" transform="translate(0 -1.94)"/><path class="cls-1" d="M79.89,2.69a.8.8,0,0,1,1.6,0,.8.8,0,0,1-1.6,0Zm.21,2.15h1.16v6.85H80.1Z" transform="translate(0 -1.94)"/><path class="cls-1" d="M83.57,4.84h1l.1.79h0a3.63,3.63,0,0,1,2.18-1c1.77,0,2.72,1.37,2.72,3.49,0,2.33-1.4,3.7-3,3.7a3.09,3.09,0,0,1-1.9-.8l0,1.2v2.32H83.57Zm4.79,3.33c0-1.51-.52-2.52-1.81-2.52a2.84,2.84,0,0,0-1.83.93v3.59a2.71,2.71,0,0,0,1.67.71C87.53,10.88,88.36,9.86,88.36,8.17Z" transform="translate(0 -1.94)"/><path class="cls-1" d="M90.76,9.91c0-1.49,1.29-2.24,4.2-2.55,0-.89-.29-1.73-1.41-1.73a3.77,3.77,0,0,0-2,.73l-.45-.79a5,5,0,0,1,2.69-.9c1.67,0,2.37,1.11,2.37,2.82v4.2h-1l-.1-.82h0a3.66,3.66,0,0,1-2.26,1A1.87,1.87,0,0,1,90.76,9.91ZM95,10V8.12c-2.29.27-3.06.83-3.06,1.71s.52,1.09,1.2,1.09A2.8,2.8,0,0,0,95,10Z" transform="translate(0 -1.94)"/><path class="cls-1" d="M98.29,9.57V5.79h-1V4.91l1.07-.07.14-1.92h1V4.84h1.85v1H99.45v3.8c0,.84.27,1.32,1.06,1.32a2.28,2.28,0,0,0,.77-.18l.23.87a4.16,4.16,0,0,1-1.27.26C98.78,11.86,98.29,10.93,98.29,9.57Z" transform="translate(0 -1.94)"/><path class="cls-1" d="M102.14,8.27a3.3,3.3,0,0,1,3.08-3.6C107,4.67,108,5.93,108,7.88a3.1,3.1,0,0,1-.06.66h-4.61a2.28,2.28,0,0,0,2.28,2.39,3,3,0,0,0,1.7-.54l.42.76a4,4,0,0,1-2.26.71A3.28,3.28,0,0,1,102.14,8.27Zm4.79-.56c0-1.37-.62-2.11-1.69-2.11a2.1,2.1,0,0,0-2,2.11Z" transform="translate(0 -1.94)"/><line class="cls-2" y1="14.95" x2="106.73" y2="14.95"/></g></g></svg>