<svg xmlns="http://www.w3.org/2000/svg" viewBox="0 0 22.22 16.16"><defs><style>.cls-1{fill:#71ee4f;}</style></defs><g id="Layer_2" data-name="Layer 2"><g id="Layer_1-2" data-name="Layer 1"><path class="cls-1" d="M19.88,3.23a3.77,3.77,0,0,0-1.72-1.91A11.41,11.41,0,0,0,14.59,0C14.15,0,14.16,0,14,.29s0,.21.13.25A11.27,11.27,0,0,1,16,1.2a8.94,8.94,0,0,1,2.48,1.69,15.2,15.2,0,0,0-14.87,0A10.52,10.52,0,0,1,5.31,1.67,9.86,9.86,0,0,1,8.15.52c.06,0,.13,0,.16-.07S8,0,7.91,0A10.3,10.3,0,0,0,3.3,1.81a1.21,1.21,0,0,0-.43.44c-.17.34-.37.67-.53,1A26.7,26.7,0,0,0,0,13a.3.3,0,0,0,.09.24A8.25,8.25,0,0,0,2.35,15a10,10,0,0,0,4,1.15c.08,0,.16,0,.23,0,.25-.35.5-.69.77-1a11.7,11.7,0,0,1-2.3-1.13,8.49,8.49,0,0,1-1.91-1.7,11.59,11.59,0,0,0,2.59,1.45,14.29,14.29,0,0,0,5.49,1,15.4,15.4,0,0,0,3.25-.35,12,12,0,0,0,4.31-1.89s.07-.1.15,0a10.15,10.15,0,0,1-4.14,2.69c.24.31.47.58.66.88a.42.42,0,0,0,.46.21,10.7,10.7,0,0,0,2.39-.5,8.71,8.71,0,0,0,3.77-2.38.39.39,0,0,0,.11-.32,29.86,29.86,0,0,0-.38-3.26A25.37,25.37,0,0,0,19.88,3.23ZM9,10.57a1.61,1.61,0,0,1-2.43,0,2.23,2.23,0,0,1,.19-3.08A1.65,1.65,0,0,1,9.32,8a2.22,2.22,0,0,1,.27,1.08A2.11,2.11,0,0,1,9,10.57Zm6.45.12a1.65,1.65,0,0,1-2.58-.55,2.28,2.28,0,0,1-.26-1.06,2.17,2.17,0,0,1,.53-1.44,1.62,1.62,0,0,1,2.41-.07A2.21,2.21,0,0,1,15.47,10.69Z"/></g></g></svg>