<svg xmlns="http://www.w3.org/2000/svg" viewBox="0 0 44.77 11.16"><defs><style>.cls-1{fill:#fff;}</style></defs><g id="Layer_2" data-name="Layer 2"><g id="Layer_1-2" data-name="Layer 1"><path class="cls-1" d="M.77,8.77a3.68,3.68,0,0,0,1.87.53c1.07,0,1.69-.56,1.69-1.38S3.9,6.73,2.8,6.32C1.49,5.85.67,5.16.67,4a2.33,2.33,0,0,1,2.62-2.2,3.56,3.56,0,0,1,1.78.4l-.29.85A3.12,3.12,0,0,0,3.25,2.7c-1.11,0-1.53.66-1.53,1.21,0,.75.49,1.12,1.61,1.55C4.7,6,5.39,6.65,5.39,7.84s-.91,2.33-2.83,2.33A4.13,4.13,0,0,1,.5,9.64Z" transform="translate(-0.5 -1.53)"/><path class="cls-1" d="M10,10,10,9.31h0a2.16,2.16,0,0,1-1.77.87A1.65,1.65,0,0,1,6.38,8.51c0-1.4,1.24-2.18,3.48-2.16V6.23A1.19,1.19,0,0,0,8.54,4.89,2.84,2.84,0,0,0,7,5.32l-.24-.7A3.63,3.63,0,0,1,8.7,4.11c1.78,0,2.21,1.21,2.21,2.38V8.66A8.34,8.34,0,0,0,11,10Zm-.16-3c-1.14,0-2.45.18-2.45,1.3a.93.93,0,0,0,1,1,1.45,1.45,0,0,0,1.41-1,1,1,0,0,0,.05-.33Z" transform="translate(-0.5 -1.53)"/><path class="cls-1" d="M12.61,1.53h1.05V10H12.61Z" transform="translate(-0.5 -1.53)"/><path class="cls-1" d="M16,7.33a1.85,1.85,0,0,0,2,2,3.92,3.92,0,0,0,1.61-.3l.18.75a4.63,4.63,0,0,1-1.93.37A2.71,2.71,0,0,1,15,7.24c0-1.76,1-3.13,2.73-3.13a2.45,2.45,0,0,1,2.39,2.73,2,2,0,0,1,0,.49Zm3.08-.75a1.49,1.49,0,0,0-1.45-1.71,1.73,1.73,0,0,0-1.62,1.71Z" transform="translate(-0.5 -1.53)"/><path class="cls-1" d="M25.27,2.57V4.24h1.51V5H25.27V8.17c0,.72.21,1.13.79,1.13a1.89,1.89,0,0,0,.62-.08l0,.8a2.44,2.44,0,0,1-.94.15,1.47,1.47,0,0,1-1.14-.45,2.22,2.22,0,0,1-.41-1.51V5h-.89v-.8h.89V2.85Z" transform="translate(-0.5 -1.53)"/><path class="cls-1" d="M28.46,4.24l1.27,3.43c.14.39.28.84.37,1.19h0c.1-.35.23-.79.37-1.21l1.15-3.41h1.12L31.18,8.38c-.75,2-1.27,3-2,3.63a3,3,0,0,1-1.3.68l-.26-.88a2.65,2.65,0,0,0,.92-.52,3.38,3.38,0,0,0,.89-1.17.68.68,0,0,0,.08-.26.67.67,0,0,0-.08-.27L27.31,4.24Z" transform="translate(-0.5 -1.53)"/><path class="cls-1" d="M33.73,6.13c0-.74,0-1.34,0-1.89h.94l.06,1h0a2.27,2.27,0,0,1,2.06-1.12c1.4,0,2.46,1.18,2.46,2.94,0,2.1-1.28,3.13-2.64,3.13a2,2,0,0,1-1.79-.92h0v3.16H33.73Zm1.05,1.55a2,2,0,0,0,0,.43A1.62,1.62,0,0,0,36.4,9.35c1.12,0,1.77-.92,1.77-2.25C38.17,6,37.56,5,36.44,5a1.67,1.67,0,0,0-1.59,1.3,1.61,1.61,0,0,0-.07.43Z" transform="translate(-0.5 -1.53)"/><path class="cls-1" d="M41.16,7.33a1.86,1.86,0,0,0,2,2,3.91,3.91,0,0,0,1.6-.3l.19.75a4.69,4.69,0,0,1-1.94.37,2.7,2.7,0,0,1-2.85-2.93c0-1.76,1-3.13,2.73-3.13a2.45,2.45,0,0,1,2.39,2.73,2.72,2.72,0,0,1,0,.49Zm3.09-.75a1.5,1.5,0,0,0-1.46-1.71,1.73,1.73,0,0,0-1.61,1.71Z" transform="translate(-0.5 -1.53)"/></g></g></svg>