<svg xmlns="http://www.w3.org/2000/svg" viewBox="0 0 232.99 11.02"><defs><style>.cls-1{fill:#fff;}</style></defs><g id="Layer_2" data-name="Layer 2"><g id="Layer_1-2" data-name="Layer 1"><path class="cls-1" d="M.91,2.07a10.77,10.77,0,0,1,2-.17,3.37,3.37,0,0,1,2.34.66A2,2,0,0,1,5.89,4.1,2.14,2.14,0,0,1,4.37,6.16v0A2,2,0,0,1,5.55,7.83,12.74,12.74,0,0,0,6.18,10H5.09a11.12,11.12,0,0,1-.53-1.93C4.32,7,3.88,6.57,2.94,6.54H2V10h-1ZM2,5.75H3c1.11,0,1.82-.61,1.82-1.53S4.09,2.71,3,2.71A4.37,4.37,0,0,0,2,2.8Z" transform="translate(-0.91 -1.53)"/><path class="cls-1" d="M8,7.33a1.86,1.86,0,0,0,2,2,3.91,3.91,0,0,0,1.6-.3l.19.75a4.69,4.69,0,0,1-1.94.37A2.7,2.7,0,0,1,7,7.24C7,5.48,8,4.11,9.69,4.11a2.44,2.44,0,0,1,2.38,2.73,2.93,2.93,0,0,1,0,.49Zm3.09-.75A1.5,1.5,0,0,0,9.6,4.87,1.74,1.74,0,0,0,8,6.58Z" transform="translate(-0.91 -1.53)"/><path class="cls-1" d="M18.4,4.24c0,.41,0,.88,0,1.59V9.2a3.33,3.33,0,0,1-.83,2.65,3.08,3.08,0,0,1-2.11.7,3.7,3.7,0,0,1-1.94-.48l.27-.81a3.24,3.24,0,0,0,1.7.47c1.08,0,1.87-.57,1.87-2V9.05h0a2.07,2.07,0,0,1-1.85,1A2.6,2.6,0,0,1,13,7.19a2.78,2.78,0,0,1,2.62-3.08,1.93,1.93,0,0,1,1.81,1h0l0-.87ZM17.3,6.53a1.47,1.47,0,0,0-.06-.48,1.52,1.52,0,0,0-1.48-1.12c-1,0-1.73.85-1.73,2.2,0,1.13.59,2.09,1.72,2.09a1.54,1.54,0,0,0,1.47-1.09,2.1,2.1,0,0,0,.08-.56Z" transform="translate(-0.91 -1.53)"/><path class="cls-1" d="M21.21,2.6a.66.66,0,1,1-1.31,0A.64.64,0,0,1,20.56,2,.63.63,0,0,1,21.21,2.6ZM20,10V4.24h1V10Z" transform="translate(-0.91 -1.53)"/><path class="cls-1" d="M22.69,9a2.86,2.86,0,0,0,1.4.41c.77,0,1.12-.38,1.12-.86s-.3-.77-1.08-1.06c-1-.38-1.54-1-1.54-1.65a1.8,1.8,0,0,1,2-1.7A2.77,2.77,0,0,1,26,4.47l-.26.77a2.27,2.27,0,0,0-1.19-.35c-.62,0-1,.36-1,.8s.34.69,1.1,1c1,.37,1.52.88,1.52,1.74,0,1-.8,1.75-2.17,1.75a3.33,3.33,0,0,1-1.63-.4Z" transform="translate(-0.91 -1.53)"/><path class="cls-1" d="M28.86,2.57V4.24h1.51V5H28.86V8.17c0,.72.2,1.13.79,1.13a1.83,1.83,0,0,0,.61-.08l0,.8a2.44,2.44,0,0,1-.94.15,1.46,1.46,0,0,1-1.14-.45,2.22,2.22,0,0,1-.41-1.51V5h-.9v-.8h.9V2.85Z" transform="translate(-0.91 -1.53)"/><path class="cls-1" d="M32.08,7.33a1.86,1.86,0,0,0,2,2,3.92,3.92,0,0,0,1.61-.3l.19.75a4.69,4.69,0,0,1-1.94.37,2.7,2.7,0,0,1-2.85-2.93c0-1.76,1-3.13,2.73-3.13a2.44,2.44,0,0,1,2.38,2.73,2.93,2.93,0,0,1,0,.49Zm3.09-.75a1.5,1.5,0,0,0-1.46-1.71,1.73,1.73,0,0,0-1.62,1.71Z" transform="translate(-0.91 -1.53)"/><path class="cls-1" d="M37.5,6.05c0-.68,0-1.27,0-1.81h.93l0,1.14h0a1.76,1.76,0,0,1,1.62-1.27,1.29,1.29,0,0,1,.29,0v1a1.86,1.86,0,0,0-.36,0,1.47,1.47,0,0,0-1.41,1.35,2.6,2.6,0,0,0,0,.5V10h-1Z" transform="translate(-0.91 -1.53)"/><path class="cls-1" d="M72.91,2h4.35v.87H74V5.52H77v.87H74V10h-1Z" transform="translate(-0.91 -1.53)"/><path class="cls-1" d="M78.94,7.33a1.86,1.86,0,0,0,2,2,3.92,3.92,0,0,0,1.61-.3l.19.75a4.69,4.69,0,0,1-1.94.37,2.7,2.7,0,0,1-2.85-2.93c0-1.76,1-3.13,2.73-3.13A2.44,2.44,0,0,1,83,6.84a2.93,2.93,0,0,1,0,.49ZM82,6.58a1.5,1.5,0,0,0-1.46-1.71A1.74,1.74,0,0,0,79,6.58Z" transform="translate(-0.91 -1.53)"/><path class="cls-1" d="M84.31,10c0-.39,0-1,0-1.49v-7h1V5.17h0a2.15,2.15,0,0,1,2-1.06c1.44,0,2.45,1.2,2.45,3,0,2.08-1.32,3.11-2.61,3.11a2.1,2.1,0,0,1-2-1.09h0l0,.95Zm1.1-2.32a1.58,1.58,0,0,0,0,.38A1.63,1.63,0,0,0,87,9.34c1.11,0,1.76-.9,1.76-2.23,0-1.17-.6-2.17-1.73-2.17a1.68,1.68,0,0,0-1.59,1.3,1.87,1.87,0,0,0-.06.44Z" transform="translate(-0.91 -1.53)"/><path class="cls-1" d="M93.39,10V9.4l.83-.8c2-1.9,2.89-2.91,2.9-4.09A1.39,1.39,0,0,0,95.58,3a2.69,2.69,0,0,0-1.66.66l-.33-.74a3.41,3.41,0,0,1,2.2-.79,2.19,2.19,0,0,1,2.38,2.26c0,1.45-1,2.61-2.68,4.18l-.62.59v0h3.5V10Z" transform="translate(-0.91 -1.53)"/><path class="cls-1" d="M101.84,3.23h0L100.46,4l-.2-.8,1.7-.91h.9V10h-1Z" transform="translate(-0.91 -1.53)"/><path class="cls-1" d="M105.37,11.52a17.46,17.46,0,0,0,.71-2.87l1.18-.12a15.43,15.43,0,0,1-1.15,2.92Z" transform="translate(-0.91 -1.53)"/><path class="cls-1" d="M113,3.23h0L111.65,4l-.21-.8,1.71-.91H114V10h-1Z" transform="translate(-0.91 -1.53)"/><path class="cls-1" d="M119.18,3.23h0L117.8,4l-.2-.8,1.7-.91h.9V10h-1Z" transform="translate(-0.91 -1.53)"/><path class="cls-1" d="M123.14,5.19a.7.7,0,0,1,.71-.75.69.69,0,0,1,.7.75.71.71,0,1,1-1.41,0Zm0,4.24a.71.71,0,0,1,.71-.76.7.7,0,0,1,.7.76.71.71,0,1,1-1.41,0Z" transform="translate(-0.91 -1.53)"/><path class="cls-1" d="M130.71,6.07c0,2.64-1,4.11-2.71,4.11-1.52,0-2.55-1.43-2.58-4s1.13-4,2.71-4S130.71,3.58,130.71,6.07Zm-4.23.11c0,2,.63,3.18,1.58,3.18s1.59-1.26,1.59-3.25-.48-3.17-1.58-3.17C127.15,2.94,126.48,4.06,126.48,6.18Z" transform="translate(-0.91 -1.53)"/><path class="cls-1" d="M136.87,6.07c0,2.64-1,4.11-2.71,4.11-1.52,0-2.56-1.43-2.58-4s1.13-4,2.71-4S136.87,3.58,136.87,6.07Zm-4.23.11c0,2,.62,3.18,1.58,3.18s1.59-1.26,1.59-3.25-.49-3.17-1.58-3.17C133.31,2.94,132.64,4.06,132.64,6.18Z" transform="translate(-0.91 -1.53)"/><path class="cls-1" d="M143.17,6.42v.77h-3V6.42Z" transform="translate(-0.91 -1.53)"/><path class="cls-1" d="M147,2h4.36v.87H148V5.52h3.05v.87H148V10H147Z" transform="translate(-0.91 -1.53)"/><path class="cls-1" d="M153,7.33a1.86,1.86,0,0,0,2,2,3.91,3.91,0,0,0,1.6-.3l.19.75a4.65,4.65,0,0,1-1.94.37A2.7,2.7,0,0,1,152,7.24c0-1.76,1-3.13,2.73-3.13a2.45,2.45,0,0,1,2.39,2.73,2.72,2.72,0,0,1,0,.49Zm3.09-.75a1.49,1.49,0,0,0-1.45-1.71A1.73,1.73,0,0,0,153,6.58Z" transform="translate(-0.91 -1.53)"/><path class="cls-1" d="M158.38,10c0-.39.05-1,.05-1.49v-7h1V5.17h0a2.17,2.17,0,0,1,2-1.06c1.44,0,2.46,1.2,2.45,3,0,2.08-1.32,3.11-2.61,3.11a2.07,2.07,0,0,1-1.94-1.09h0l-.06.95Zm1.1-2.32a1.58,1.58,0,0,0,.05.38,1.62,1.62,0,0,0,1.58,1.24c1.11,0,1.76-.9,1.76-2.23,0-1.17-.6-2.17-1.73-2.17a1.68,1.68,0,0,0-1.6,1.3,1.87,1.87,0,0,0-.06.44Z" transform="translate(-0.91 -1.53)"/><path class="cls-1" d="M167.46,10V9.4l.83-.8c2-1.9,2.9-2.91,2.9-4.09A1.38,1.38,0,0,0,169.66,3a2.64,2.64,0,0,0-1.66.66l-.34-.74a3.46,3.46,0,0,1,2.21-.79,2.19,2.19,0,0,1,2.38,2.26c0,1.45-1,2.61-2.69,4.18l-.61.59v0h3.49V10Z" transform="translate(-0.91 -1.53)"/><path class="cls-1" d="M173.88,8.84a3.62,3.62,0,0,0,1.73.48c1.34,0,1.77-.86,1.76-1.51,0-1.09-1-1.56-2-1.56h-.59V5.46h.59c.77,0,1.74-.4,1.74-1.32,0-.62-.4-1.17-1.37-1.17a2.82,2.82,0,0,0-1.55.51l-.29-.76a3.71,3.71,0,0,1,2-.6c1.55,0,2.24.91,2.24,1.86a1.94,1.94,0,0,1-1.44,1.83v0a2,2,0,0,1,1.74,2c0,1.24-1,2.34-2.85,2.34a3.85,3.85,0,0,1-2-.54Z" transform="translate(-0.91 -1.53)"/><path class="cls-1" d="M179.44,11.52a17.44,17.44,0,0,0,.72-2.87l1.17-.12a14.78,14.78,0,0,1-1.15,2.92Z" transform="translate(-0.91 -1.53)"/><path class="cls-1" d="M190,6.07c0,2.64-1,4.11-2.71,4.11-1.52,0-2.56-1.43-2.58-4s1.13-4,2.71-4S190,3.58,190,6.07Zm-4.23.11c0,2,.62,3.18,1.58,3.18s1.59-1.26,1.59-3.25-.49-3.17-1.58-3.17C186.43,2.94,185.76,4.06,185.76,6.18Z" transform="translate(-0.91 -1.53)"/><path class="cls-1" d="M190.87,8.07A2.26,2.26,0,0,1,192.41,6v0a1.92,1.92,0,0,1-1.25-1.75,2.19,2.19,0,0,1,2.42-2.07A2,2,0,0,1,195.85,4a2,2,0,0,1-1.28,1.82v0a2.17,2.17,0,0,1,1.56,2,2.4,2.4,0,0,1-2.65,2.27C191.86,10.18,190.87,9.21,190.87,8.07Zm4.2-.06c0-.94-.66-1.4-1.72-1.69a1.68,1.68,0,0,0-1.4,1.6A1.43,1.43,0,0,0,193.5,9.4,1.41,1.41,0,0,0,195.07,8Zm-2.9-3.9c0,.79.59,1.21,1.48,1.45a1.54,1.54,0,0,0,1.18-1.42,1.21,1.21,0,0,0-1.32-1.27A1.23,1.23,0,0,0,192.17,4.11Z" transform="translate(-0.91 -1.53)"/><path class="cls-1" d="M197.21,5.19a.71.71,0,1,1,1.42,0,.71.71,0,1,1-1.42,0Zm0,4.24a.71.71,0,1,1,1.42,0,.71.71,0,1,1-1.42,0Z" transform="translate(-0.91 -1.53)"/><path class="cls-1" d="M204.79,6.07c0,2.64-1,4.11-2.71,4.11-1.53,0-2.56-1.43-2.59-4s1.13-4,2.72-4S204.79,3.58,204.79,6.07Zm-4.23.11c0,2,.62,3.18,1.58,3.18s1.59-1.26,1.59-3.25-.49-3.17-1.59-3.17C201.23,2.94,200.55,4.06,200.56,6.18Z" transform="translate(-0.91 -1.53)"/><path class="cls-1" d="M210.94,6.07c0,2.64-1,4.11-2.71,4.11-1.52,0-2.56-1.43-2.58-4s1.13-4,2.71-4S210.94,3.58,210.94,6.07Zm-4.23.11c0,2,.62,3.18,1.58,3.18s1.59-1.26,1.59-3.25-.48-3.17-1.58-3.17C207.38,2.94,206.71,4.06,206.71,6.18Z" transform="translate(-0.91 -1.53)"/><path class="cls-1" d="M215.87,2V6.75c0,1.8.8,2.57,1.89,2.57s2-.79,2-2.57V2h1.05V6.68c0,2.48-1.31,3.5-3.06,3.5s-2.9-.95-2.9-3.46V2Z" transform="translate(-0.91 -1.53)"/><path class="cls-1" d="M224.13,2.84h-2.46V2h6v.88h-2.48V10h-1.05Z" transform="translate(-0.91 -1.53)"/><path class="cls-1" d="M233.88,9.78a5.18,5.18,0,0,1-2.14.39,3.77,3.77,0,0,1-4-4.09A4,4,0,0,1,232,1.83a4.44,4.44,0,0,1,1.92.36l-.26.85A3.78,3.78,0,0,0,232,2.71,3,3,0,0,0,228.86,6,2.93,2.93,0,0,0,232,9.28,4.27,4.27,0,0,0,233.67,9Z" transform="translate(-0.91 -1.53)"/></g></g></svg>