<svg xmlns="http://www.w3.org/2000/svg" viewBox="0 0 215.23 14.59"><defs><style>.cls-1{fill:#fff;}.cls-2{fill:#71ee4f;}</style></defs><g id="Layer_2" data-name="Layer 2"><g id="Layer_1-2" data-name="Layer 1"><path class="cls-1" d="M3.12,4.6H.38V2.72H8.11V4.6H5.37v8.06H3.12Z" transform="translate(-0.38 -1.49)"/><path class="cls-1" d="M7.87,8.88a3.7,3.7,0,1,1,7.38,0,3.7,3.7,0,1,1-7.38,0Zm5.08,0c0-1.31-.46-2.16-1.39-2.16s-1.39.85-1.39,2.16S10.63,11,11.56,11,13,10.19,13,8.88Z" transform="translate(-0.38 -1.49)"/><path class="cls-1" d="M16.66,2h2.19V8.1h0l2.4-3h2.44L21.09,8.21l2.85,4.45H21.51l-1.7-2.95-1,1.09v1.86H16.66Z" transform="translate(-0.38 -1.49)"/><path class="cls-1" d="M24.15,8.88a3.72,3.72,0,0,1,3.57-4c2.16,0,3.22,1.57,3.22,3.63a5.29,5.29,0,0,1-.09,1H26.32a1.83,1.83,0,0,0,2,1.61,3.17,3.17,0,0,0,1.64-.5L30.66,12a4.87,4.87,0,0,1-2.68.86A3.69,3.69,0,0,1,24.15,8.88ZM29,8.05c0-.83-.36-1.43-1.26-1.43A1.49,1.49,0,0,0,26.3,8.05Z" transform="translate(-0.38 -1.49)"/><path class="cls-1" d="M32.49,5.09h1.83l.16,1h.06A3.46,3.46,0,0,1,37,4.91c1.65,0,2.35,1.16,2.35,3.05v4.7H37.08V8.25c0-1.09-.3-1.43-.95-1.43a1.92,1.92,0,0,0-1.4.74v5.1H32.49Z" transform="translate(-0.38 -1.49)"/><path class="cls-1" d="M98.81,6.49a1.36,1.36,0,1,1,2.71,0,1.36,1.36,0,1,1-2.71,0Zm0,4.95a1.36,1.36,0,1,1,1.36,1.41A1.36,1.36,0,0,1,98.81,11.44Z" transform="translate(-0.38 -1.49)"/><path class="cls-2" d="M106.87,2.65h1.27v10h-1.27Z" transform="translate(-0.38 -1.49)"/><path class="cls-2" d="M110.2,14.09a2.09,2.09,0,0,1,1.09-1.68v-.06a1.37,1.37,0,0,1-.66-1.22,1.78,1.78,0,0,1,.81-1.37V9.7a2.6,2.6,0,0,1-1-2,2.64,2.64,0,0,1,2.79-2.65,2.84,2.84,0,0,1,1,.19h2.59v1h-1.52a2.16,2.16,0,0,1,.6,1.53,2.53,2.53,0,0,1-2.71,2.57,2.72,2.72,0,0,1-1.11-.25,1.07,1.07,0,0,0-.47.87c0,.48.3.81,1.3.81h1.44c1.73,0,2.59.54,2.59,1.77,0,1.38-1.46,2.57-3.75,2.57C111.46,16.08,110.2,15.36,110.2,14.09Zm5.59-.39c0-.69-.52-.92-1.49-.92H113a4.31,4.31,0,0,1-1-.11,1.52,1.52,0,0,0-.75,1.24c0,.8.8,1.3,2.15,1.3S115.79,14.47,115.79,13.7Zm-1-6a1.58,1.58,0,1,0-3.15,0,1.58,1.58,0,1,0,3.15,0Z" transform="translate(-0.38 -1.49)"/><path class="cls-2" d="M118.45,5.25h1l.11,1.06h0a3.55,3.55,0,0,1,2.49-1.25c1.56,0,2.26,1,2.26,2.9v4.7h-1.25V8.12c0-1.38-.42-2-1.4-2a2.82,2.82,0,0,0-2,1.14v5.37h-1.26Z" transform="translate(-0.38 -1.49)"/><path class="cls-2" d="M126.57,2.91a.87.87,0,0,1,1.73,0,.87.87,0,0,1-1.73,0Zm.23,2.34h1.25v7.41H126.8Z" transform="translate(-0.38 -1.49)"/><path class="cls-2" d="M130.77,10.37V6.27h-1.1V5.32l1.16-.07L131,3.17H132V5.25h2v1h-2v4.12c0,.91.29,1.43,1.14,1.43a2.46,2.46,0,0,0,.85-.2l.24,1a4.52,4.52,0,0,1-1.38.28C131.31,12.85,130.77,11.85,130.77,10.37Z" transform="translate(-0.38 -1.49)"/><path class="cls-2" d="M134.94,9c0-2.41,1.63-3.9,3.34-3.9,1.89,0,3,1.36,3,3.48a4.74,4.74,0,0,1-.06.72h-5a2.47,2.47,0,0,0,2.47,2.59,3.19,3.19,0,0,0,1.84-.6l.45.83a4.4,4.4,0,0,1-2.45.77A3.55,3.55,0,0,1,134.94,9Zm5.19-.6c0-1.49-.67-2.3-1.83-2.3a2.28,2.28,0,0,0-2.13,2.3Z" transform="translate(-0.38 -1.49)"/><path class="cls-2" d="M146.23,2.65h2.5c3.08,0,4.73,1.79,4.73,5s-1.65,5-4.67,5h-2.56Zm2.41,9c2.34,0,3.51-1.47,3.51-4S151,3.69,148.64,3.69H147.5v7.93Z" transform="translate(-0.38 -1.49)"/><path class="cls-2" d="M154.94,9c0-2.41,1.63-3.9,3.34-3.9,1.89,0,3,1.36,3,3.48a4.74,4.74,0,0,1-.06.72h-5a2.47,2.47,0,0,0,2.47,2.59,3.19,3.19,0,0,0,1.84-.6l.45.83a4.4,4.4,0,0,1-2.45.77A3.55,3.55,0,0,1,154.94,9Zm5.19-.6c0-1.49-.67-2.3-1.83-2.3a2.28,2.28,0,0,0-2.13,2.3Z" transform="translate(-0.38 -1.49)"/><path class="cls-2" d="M163.18,2.65H169V3.73h-4.5V7.1h3.82V8.18h-3.82v4.48h-1.27Z" transform="translate(-0.38 -1.49)"/><path class="cls-2" d="M170.37,2.91a.8.8,0,0,1,.86-.81.81.81,0,0,1,.87.81.82.82,0,0,1-.87.81A.81.81,0,0,1,170.37,2.91Zm.23,2.34h1.25v7.41H170.6Z" transform="translate(-0.38 -1.49)"/><path class="cls-2" d="M177.4,8.42a12.75,12.75,0,0,1,2-6.93l.78.36a12.8,12.8,0,0,0-1.75,6.57A12.8,12.8,0,0,0,180.19,15l-.78.36A12.75,12.75,0,0,1,177.4,8.42Z" transform="translate(-0.38 -1.49)"/><path class="cls-2" d="M182.14,2.65h1.27v10h-1.27Z" transform="translate(-0.38 -1.49)"/><path class="cls-2" d="M185.57,7.66c0-3.23,1.94-5.2,4.6-5.2a3.86,3.86,0,0,1,2.88,1.24l-.7.83a2.82,2.82,0,0,0-2.15-.94c-2,0-3.32,1.54-3.32,4s1.2,4.09,3.33,4.09a2.75,2.75,0,0,0,1.81-.58V8.53H189.9V7.47h3.28v4.21a4.29,4.29,0,0,1-3.09,1.17C187.45,12.85,185.57,10.92,185.57,7.66Z" transform="translate(-0.38 -1.49)"/><path class="cls-2" d="M195.56,2.65h1.32l3.62,6.29L201.58,11h.06c-.06-1-.16-2.14-.16-3.19V2.65h1.21v10h-1.31l-3.63-6.3-1.08-2.07h-.06c.06,1,.16,2.09.16,3.13v5.24h-1.21Z" transform="translate(-0.38 -1.49)"/><path class="cls-2" d="M207.52,3.73h-3V2.65h7.33V3.73h-3v8.93h-1.27Z" transform="translate(-0.38 -1.49)"/><path class="cls-2" d="M212.82,15a12.7,12.7,0,0,0,1.75-6.57,12.7,12.7,0,0,0-1.75-6.57l.78-.36a12.9,12.9,0,0,1,0,13.86Z" transform="translate(-0.38 -1.49)"/></g></g></svg>