<svg xmlns="http://www.w3.org/2000/svg" viewBox="0 0 126.53 14.22"><defs><style>.cls-1{fill:#fff;}</style></defs><g id="Layer_2" data-name="Layer 2"><g id="Layer_1-2" data-name="Layer 1"><path class="cls-1" d="M1.17,2.72H3.42V6.55H6.86V2.72H9.1v9.94H6.86V8.51H3.42v4.15H1.17Z" transform="translate(-1.17 -1.25)"/><path class="cls-1" d="M10.92,10.56c0-1.59,1.27-2.46,4.26-2.77A1.05,1.05,0,0,0,14,6.69a4.17,4.17,0,0,0-2,.69l-.79-1.47a6.15,6.15,0,0,1,3.23-1c1.94,0,3,1.11,3,3.42v4.33H15.6l-.16-.77h-.06a3.33,3.33,0,0,1-2.2,1A2.19,2.19,0,0,1,10.92,10.56Zm4.26-.1V9.14c-1.59.22-2.11.67-2.11,1.24s.33.73.87.73A1.67,1.67,0,0,0,15.18,10.46Z" transform="translate(-1.17 -1.25)"/><path class="cls-1" d="M19.31,5.09h1.83l.16,1.33h.06a2.53,2.53,0,0,1,2.15-1.51,2.06,2.06,0,0,1,.9.15L24,7a3,3,0,0,0-.82-.12,1.88,1.88,0,0,0-1.67,1.4v4.38H19.31Z" transform="translate(-1.17 -1.25)"/><path class="cls-1" d="M24.84,8.88c0-2.48,1.54-4,3.14-4a2.48,2.48,0,0,1,1.85.79l-.08-1.15V2H32V12.66H30.17L30,11.91H30a3,3,0,0,1-2,.94C26.05,12.85,24.84,11.35,24.84,8.88Zm4.91,1.45V7.22a1.85,1.85,0,0,0-1.25-.48c-.73,0-1.36.68-1.36,2.12S27.65,11,28.52,11A1.43,1.43,0,0,0,29.75,10.33Z" transform="translate(-1.17 -1.25)"/><path class="cls-1" d="M36.74,7.75c0-3.3,2.18-5.22,4.69-5.22a4.17,4.17,0,0,1,3,1.3L43.24,5.27a2.49,2.49,0,0,0-1.76-.79C40.12,4.48,39,5.68,39,7.67s1,3.23,2.41,3.23A2.6,2.6,0,0,0,43.39,10l1.19,1.42a4.11,4.11,0,0,1-3.21,1.46C38.84,12.85,36.74,11.1,36.74,7.75Z" transform="translate(-1.17 -1.25)"/><path class="cls-1" d="M45.55,10.56c0-1.59,1.27-2.46,4.26-2.77a1.05,1.05,0,0,0-1.19-1.1,4.17,4.17,0,0,0-2,.69l-.79-1.47a6.15,6.15,0,0,1,3.23-1c1.94,0,3,1.11,3,3.42v4.33H50.23l-.16-.77H50a3.33,3.33,0,0,1-2.2,1A2.19,2.19,0,0,1,45.55,10.56Zm4.26-.1V9.14c-1.59.22-2.11.67-2.11,1.24s.33.73.87.73A1.67,1.67,0,0,0,49.81,10.46Z" transform="translate(-1.17 -1.25)"/><path class="cls-1" d="M53.94,5.09h1.83l.16.75H56a3.34,3.34,0,0,1,2.15-.93c1.83,0,3,1.51,3,3.85,0,2.6-1.55,4.09-3.19,4.09a2.66,2.66,0,0,1-1.8-.79l.07,1.19v2.22H53.94ZM58.8,8.78c0-1.36-.42-2-1.32-2a1.75,1.75,0,0,0-1.3.68v3.11a1.79,1.79,0,0,0,1.21.48C58.17,11,58.8,10.35,58.8,8.78Z" transform="translate(-1.17 -1.25)"/><path class="cls-1" d="M65.56,6.49a1.36,1.36,0,1,1,2.71,0,1.36,1.36,0,1,1-2.71,0Zm0,4.95a1.36,1.36,0,1,1,1.35,1.41A1.36,1.36,0,0,1,65.56,11.44Z" transform="translate(-1.17 -1.25)"/><path class="cls-1" d="M73,11.66l.59-.87a3.66,3.66,0,0,0,2.35,1,1.5,1.5,0,0,0,1.71-1.57c0-2.47-4.27-1.94-4.27-4.9a2.53,2.53,0,0,1,2.73-2.58,3.31,3.31,0,0,1,2.57,1.17l-.67.74a2.44,2.44,0,0,0-1.86-.87,1.42,1.42,0,0,0-1.54,1.47c0,2.22,4.27,1.61,4.27,4.89A2.66,2.66,0,0,1,76,12.85,4.55,4.55,0,0,1,73,11.66Zm2.6-10.41h.92v2h-.92Zm0,11.15h.92v1.94h-.92Z" transform="translate(-1.17 -1.25)"/><path class="cls-1" d="M80.21,11.51l.62-.82a3.27,3.27,0,0,0,2.45,1.11,2.09,2.09,0,0,0,2.13-2.21,2,2,0,0,0-2.07-2.14A2.7,2.7,0,0,0,81.67,8L81,7.62l.32-4.69H86.2V4H82.43L82.17,6.9a2.92,2.92,0,0,1,1.5-.41,2.8,2.8,0,0,1,3,3,3.19,3.19,0,0,1-3.27,3.31A4.24,4.24,0,0,1,80.21,11.51Z" transform="translate(-1.17 -1.25)"/><path class="cls-1" d="M88.09,7.76c0-3.26,1.17-5,3.12-5s3.11,1.75,3.11,5-1.17,5.09-3.11,5.09S88.09,11,88.09,7.76Zm5,0c0-2.85-.77-4-1.9-4s-1.91,1.15-1.91,4,.77,4.07,1.91,4.07S93.11,10.61,93.11,7.76Z" transform="translate(-1.17 -1.25)"/><path class="cls-1" d="M95.67,7.76c0-3.26,1.17-5,3.12-5s3.12,1.75,3.12,5-1.18,5.09-3.12,5.09S95.67,11,95.67,7.76Zm5,0c0-2.85-.77-4-1.9-4s-1.9,1.15-1.9,4,.77,4.07,1.9,4.07S100.69,10.61,100.69,7.76Z" transform="translate(-1.17 -1.25)"/><path class="cls-1" d="M106.3,7.76c0-3.26,1.18-5,3.12-5s3.12,1.75,3.12,5-1.18,5.09-3.12,5.09S106.3,11,106.3,7.76Zm5,0c0-2.85-.77-4-1.9-4s-1.9,1.15-1.9,4,.77,4.07,1.9,4.07S111.32,10.61,111.32,7.76Z" transform="translate(-1.17 -1.25)"/><path class="cls-1" d="M113.88,7.76c0-3.26,1.18-5,3.12-5s3.12,1.75,3.12,5S119,12.85,117,12.85,113.88,11,113.88,7.76Zm5,0c0-2.85-.77-4-1.9-4s-1.9,1.15-1.9,4,.77,4.07,1.9,4.07S118.9,10.61,118.9,7.76Z" transform="translate(-1.17 -1.25)"/><path class="cls-1" d="M121.46,7.76c0-3.26,1.18-5,3.12-5s3.12,1.75,3.12,5-1.17,5.09-3.12,5.09S121.46,11,121.46,7.76Zm5,0c0-2.85-.77-4-1.9-4s-1.9,1.15-1.9,4,.77,4.07,1.9,4.07S126.48,10.61,126.48,7.76Z" transform="translate(-1.17 -1.25)"/></g></g></svg>