<svg xmlns="http://www.w3.org/2000/svg" viewBox="0 0 183.49 11.16"><defs><style>.cls-1{fill:#fff;}</style></defs><g id="Layer_2" data-name="Layer 2"><g id="Layer_1-2" data-name="Layer 1"><path class="cls-1" d="M.88,6.05c0-.68,0-1.27-.05-1.81h.92l0,1.14h0A1.76,1.76,0,0,1,3.45,4.11a1.36,1.36,0,0,1,.29,0v1a1.94,1.94,0,0,0-.36,0A1.47,1.47,0,0,0,2,6.45a2.57,2.57,0,0,0-.05.5V10h-1Z" transform="translate(-0.83 -1.53)"/><path class="cls-1" d="M5.27,7.33a1.86,1.86,0,0,0,2,2,3.91,3.91,0,0,0,1.6-.3l.19.75a4.69,4.69,0,0,1-1.94.37A2.7,2.7,0,0,1,4.26,7.24c0-1.76,1-3.13,2.73-3.13A2.45,2.45,0,0,1,9.38,6.84a2.72,2.72,0,0,1,0,.49Zm3.09-.75A1.5,1.5,0,0,0,6.9,4.87,1.74,1.74,0,0,0,5.28,6.58Z" transform="translate(-0.83 -1.53)"/><path class="cls-1" d="M15.7,4.24c0,.41,0,.88,0,1.59V9.2a3.37,3.37,0,0,1-.83,2.66,3.12,3.12,0,0,1-2.11.69,3.7,3.7,0,0,1-1.94-.48l.27-.81a3.24,3.24,0,0,0,1.7.47c1.08,0,1.87-.57,1.87-2V9.05h0a2.08,2.08,0,0,1-1.85,1,2.61,2.61,0,0,1-2.47-2.84,2.78,2.78,0,0,1,2.62-3.08,1.93,1.93,0,0,1,1.81,1h0l0-.87ZM14.6,6.53a1.47,1.47,0,0,0-.06-.48,1.52,1.52,0,0,0-1.48-1.12c-1,0-1.73.85-1.73,2.2,0,1.14.59,2.09,1.72,2.09a1.54,1.54,0,0,0,1.47-1.09,2,2,0,0,0,.08-.56Z" transform="translate(-0.83 -1.53)"/><path class="cls-1" d="M18.51,2.61a.66.66,0,0,1-1.31,0,.66.66,0,1,1,1.31,0ZM17.33,10V4.24h1.05V10Z" transform="translate(-0.83 -1.53)"/><path class="cls-1" d="M20,9a2.86,2.86,0,0,0,1.4.41c.77,0,1.12-.37,1.12-.86s-.3-.77-1.07-1.06c-1.05-.38-1.55-1-1.55-1.65a1.8,1.8,0,0,1,2-1.7,2.77,2.77,0,0,1,1.42.36l-.26.77a2.27,2.27,0,0,0-1.19-.35c-.62,0-1,.36-1,.8s.34.69,1.1,1c1,.37,1.52.88,1.52,1.74,0,1-.8,1.75-2.17,1.75a3.33,3.33,0,0,1-1.63-.4Z" transform="translate(-0.83 -1.53)"/><path class="cls-1" d="M26.16,2.57V4.24h1.51V5H26.16V8.17c0,.72.2,1.13.79,1.13a1.79,1.79,0,0,0,.61-.08l.05.81a2.69,2.69,0,0,1-.94.14,1.47,1.47,0,0,1-1.14-.45,2.22,2.22,0,0,1-.41-1.51V5h-.9v-.8h.9V2.85Z" transform="translate(-0.83 -1.53)"/><path class="cls-1" d="M28.86,6.05c0-.68,0-1.27-.05-1.81h.93l0,1.14h0a1.76,1.76,0,0,1,1.62-1.27,1.36,1.36,0,0,1,.29,0v1a1.86,1.86,0,0,0-.36,0A1.47,1.47,0,0,0,30,6.45a2.6,2.6,0,0,0,0,.5V10H28.86Z" transform="translate(-0.83 -1.53)"/><path class="cls-1" d="M35.94,10l-.09-.73h0a2.16,2.16,0,0,1-1.78.87,1.66,1.66,0,0,1-1.77-1.67c0-1.4,1.25-2.17,3.49-2.16V6.23a1.2,1.2,0,0,0-1.32-1.34,2.85,2.85,0,0,0-1.52.43l-.24-.7a3.7,3.7,0,0,1,1.92-.51c1.77,0,2.2,1.21,2.2,2.38V8.66A9.59,9.59,0,0,0,36.89,10Zm-.16-3c-1.15,0-2.45.18-2.45,1.3a.92.92,0,0,0,1,1,1.46,1.46,0,0,0,1.42-1,1.32,1.32,0,0,0,.05-.33Z" transform="translate(-0.83 -1.53)"/><path class="cls-1" d="M39.73,2.57V4.24h1.51V5H39.73V8.17c0,.72.21,1.13.79,1.13a1.89,1.89,0,0,0,.62-.08l0,.81a2.69,2.69,0,0,1-.94.14,1.47,1.47,0,0,1-1.14-.45,2.22,2.22,0,0,1-.41-1.51V5h-.9v-.8h.9V2.85Z" transform="translate(-0.83 -1.53)"/><path class="cls-1" d="M43.61,2.61a.66.66,0,0,1-1.31,0A.64.64,0,0,1,43,2,.63.63,0,0,1,43.61,2.61ZM42.43,10V4.24h1V10Z" transform="translate(-0.83 -1.53)"/><path class="cls-1" d="M50.49,7.09a2.84,2.84,0,0,1-2.88,3.09,2.76,2.76,0,0,1-2.79-3A2.83,2.83,0,0,1,47.7,4.11,2.74,2.74,0,0,1,50.49,7.09Zm-4.6.07c0,1.27.73,2.23,1.76,2.23s1.77-1,1.77-2.27c0-1-.5-2.22-1.75-2.22S45.89,6.06,45.89,7.16Z" transform="translate(-0.83 -1.53)"/><path class="cls-1" d="M51.83,5.81c0-.6,0-1.09,0-1.57h.93l.06,1h0a2.14,2.14,0,0,1,1.92-1.09c.79,0,2,.48,2,2.47V10h-1V6.7c0-.94-.35-1.72-1.34-1.72A1.52,1.52,0,0,0,53,6.06a1.81,1.81,0,0,0-.07.49V10H51.83Z" transform="translate(-0.83 -1.53)"/><path class="cls-1" d="M65.17,9.83a4,4,0,0,1-1.67.34,2.76,2.76,0,0,1-2.89-3,3,3,0,0,1,3.12-3.1,3.38,3.38,0,0,1,1.46.31L65,5.23A2.71,2.71,0,0,0,63.72,5a2,2,0,0,0-2,2.19,2,2,0,0,0,2,2.17A3.05,3.05,0,0,0,65,9Z" transform="translate(-0.83 -1.53)"/><path class="cls-1" d="M66.41,1.53h1V10h-1Z" transform="translate(-0.83 -1.53)"/><path class="cls-1" d="M74.49,7.09a2.84,2.84,0,0,1-2.88,3.09,2.76,2.76,0,0,1-2.79-3A2.83,2.83,0,0,1,71.7,4.11,2.74,2.74,0,0,1,74.49,7.09Zm-4.6.07c0,1.27.73,2.23,1.76,2.23s1.77-1,1.77-2.27c0-1-.5-2.22-1.75-2.22S69.89,6.06,69.89,7.16Z" transform="translate(-0.83 -1.53)"/><path class="cls-1" d="M75.68,9a2.86,2.86,0,0,0,1.4.41c.77,0,1.12-.37,1.12-.86s-.3-.77-1.07-1.06c-1-.38-1.55-1-1.55-1.65a1.8,1.8,0,0,1,2-1.7A2.77,2.77,0,0,1,79,4.47l-.26.77a2.27,2.27,0,0,0-1.19-.35c-.62,0-1,.36-1,.8s.34.69,1.1,1c1,.37,1.52.88,1.52,1.74,0,1-.8,1.75-2.17,1.75a3.33,3.33,0,0,1-1.63-.4Z" transform="translate(-0.83 -1.53)"/><path class="cls-1" d="M81.17,7.33a1.86,1.86,0,0,0,2,2,3.91,3.91,0,0,0,1.6-.3L85,9.8a4.69,4.69,0,0,1-1.94.37,2.7,2.7,0,0,1-2.85-2.93c0-1.76,1-3.13,2.73-3.13a2.44,2.44,0,0,1,2.38,2.73,2.93,2.93,0,0,1,0,.49Zm3.09-.75A1.5,1.5,0,0,0,82.8,4.87a1.74,1.74,0,0,0-1.62,1.71Z" transform="translate(-0.83 -1.53)"/><path class="cls-1" d="M86.44,9a2.86,2.86,0,0,0,1.4.41C88.61,9.38,89,9,89,8.52s-.31-.77-1.08-1.06c-1-.38-1.54-1-1.54-1.65a1.8,1.8,0,0,1,2-1.7,2.79,2.79,0,0,1,1.42.36l-.27.77a2.24,2.24,0,0,0-1.19-.35c-.62,0-1,.36-1,.8s.34.69,1.1,1c1,.37,1.52.88,1.53,1.74,0,1-.8,1.75-2.17,1.75a3.27,3.27,0,0,1-1.63-.4Z" transform="translate(-0.83 -1.53)"/><path class="cls-1" d="M95.07,2.61a.64.64,0,0,1-.67.65.63.63,0,0,1-.64-.65.66.66,0,1,1,1.31,0ZM93.89,10V4.24h1V10Z" transform="translate(-0.83 -1.53)"/><path class="cls-1" d="M96.7,5.81c0-.6,0-1.09,0-1.57h.93l.06,1h0a2.13,2.13,0,0,1,1.92-1.09c.79,0,2,.48,2,2.47V10h-1V6.7c0-.94-.35-1.72-1.34-1.72a1.52,1.52,0,0,0-1.42,1.08,1.49,1.49,0,0,0-.07.49V10h-1Z" transform="translate(-0.83 -1.53)"/><path class="cls-1" d="M105.56,10V9.4l.82-.8c2-1.9,2.9-2.91,2.91-4.09A1.39,1.39,0,0,0,107.75,3a2.66,2.66,0,0,0-1.66.66l-.33-.74a3.41,3.41,0,0,1,2.2-.79,2.19,2.19,0,0,1,2.38,2.26c0,1.45-1,2.61-2.68,4.18l-.62.59v0h3.49V10Z" transform="translate(-0.83 -1.53)"/><path class="cls-1" d="M119.61,1.53v7c0,.51,0,1.09,0,1.49h-.94l0-1h0a2.12,2.12,0,0,1-2,1.14c-1.41,0-2.49-1.19-2.49-2.95,0-1.94,1.19-3.12,2.6-3.12a1.94,1.94,0,0,1,1.75.88h0V1.53Zm-1,5.07a2.38,2.38,0,0,0,0-.45A1.56,1.56,0,0,0,117,4.94c-1.09,0-1.74,1-1.74,2.23s.59,2.16,1.72,2.16a1.59,1.59,0,0,0,1.54-1.27,1.58,1.58,0,0,0,.06-.45Z" transform="translate(-0.83 -1.53)"/><path class="cls-1" d="M124.58,10l-.09-.73h0a2.16,2.16,0,0,1-1.78.87,1.66,1.66,0,0,1-1.77-1.67c0-1.4,1.25-2.17,3.49-2.16V6.23a1.19,1.19,0,0,0-1.32-1.34,2.81,2.81,0,0,0-1.51.43l-.24-.7a3.63,3.63,0,0,1,1.91-.51c1.77,0,2.21,1.21,2.21,2.38V8.66a9.68,9.68,0,0,0,.08,1.38Zm-.16-3c-1.14,0-2.45.18-2.45,1.3a.93.93,0,0,0,1,1,1.45,1.45,0,0,0,1.41-1,1,1,0,0,0,0-.33Z" transform="translate(-0.83 -1.53)"/><path class="cls-1" d="M127.44,4.24l1.26,3.43c.14.39.28.84.38,1.19h0c.1-.34.23-.79.37-1.21l1.14-3.41h1.12l-1.58,4.14c-.76,2-1.27,3-2,3.63a3,3,0,0,1-1.29.68l-.27-.88a2.68,2.68,0,0,0,.93-.52,3.36,3.36,0,0,0,.88-1.17.69.69,0,0,0,.08-.25.62.62,0,0,0-.07-.28l-2.14-5.35Z" transform="translate(-0.83 -1.53)"/><path class="cls-1" d="M132.49,9a2.82,2.82,0,0,0,1.39.41c.77,0,1.13-.37,1.13-.86s-.31-.77-1.08-1.06c-1.05-.38-1.54-1-1.54-1.65a1.8,1.8,0,0,1,2-1.7,2.77,2.77,0,0,1,1.42.36l-.26.77a2.3,2.3,0,0,0-1.19-.35c-.63,0-1,.36-1,.8s.34.69,1.1,1c1,.37,1.52.88,1.52,1.74,0,1-.8,1.75-2.17,1.75a3.3,3.3,0,0,1-1.63-.4Z" transform="translate(-0.83 -1.53)"/><path class="cls-1" d="M136.58,11.53a17.84,17.84,0,0,0,.71-2.88l1.18-.12a15.43,15.43,0,0,1-1.15,2.92Z" transform="translate(-0.83 -1.53)"/><path class="cls-1" d="M141.94,10V9.4l.83-.8c2-1.9,2.89-2.91,2.9-4.09A1.39,1.39,0,0,0,144.13,3a2.69,2.69,0,0,0-1.66.66l-.33-.74a3.43,3.43,0,0,1,2.2-.79,2.19,2.19,0,0,1,2.38,2.26c0,1.45-1,2.61-2.68,4.18l-.62.59v0h3.5V10Z" transform="translate(-0.83 -1.53)"/><path class="cls-1" d="M148.1,10V9.4l.82-.8c2-1.9,2.9-2.91,2.91-4.09A1.39,1.39,0,0,0,150.29,3a2.66,2.66,0,0,0-1.66.66l-.34-.74a3.46,3.46,0,0,1,2.21-.79,2.19,2.19,0,0,1,2.38,2.26c0,1.45-1,2.61-2.68,4.18l-.62.59v0h3.49V10Z" transform="translate(-0.83 -1.53)"/><path class="cls-1" d="M157.14,1.53h1.05V5.15h0A2.18,2.18,0,0,1,159,4.4a2.15,2.15,0,0,1,1.08-.29c.78,0,2,.48,2,2.48V10h-1V6.71c0-.94-.35-1.73-1.34-1.73A1.52,1.52,0,0,0,158.26,6a1.26,1.26,0,0,0-.07.5V10h-1.05Z" transform="translate(-0.83 -1.53)"/><path class="cls-1" d="M169.05,7.09a2.84,2.84,0,0,1-2.89,3.09,2.76,2.76,0,0,1-2.78-3,2.83,2.83,0,0,1,2.88-3.08A2.75,2.75,0,0,1,169.05,7.09Zm-4.6.07c0,1.27.73,2.23,1.76,2.23s1.76-1,1.76-2.27c0-1-.49-2.22-1.74-2.22S164.45,6.06,164.45,7.16Z" transform="translate(-0.83 -1.53)"/><path class="cls-1" d="M175.24,8.46c0,.6,0,1.13,0,1.58h-.94l0-.94h0a2.18,2.18,0,0,1-1.92,1.08c-.91,0-2-.51-2-2.55V4.24h1.05V7.45c0,1.1.34,1.86,1.3,1.86a1.54,1.54,0,0,0,1.39-1,1.49,1.49,0,0,0,.1-.54V4.24h1.05Z" transform="translate(-0.83 -1.53)"/><path class="cls-1" d="M177,6.05c0-.68,0-1.27-.05-1.81h.92l0,1.14h0a1.76,1.76,0,0,1,1.62-1.27,1.36,1.36,0,0,1,.29,0v1a1.86,1.86,0,0,0-.36,0,1.47,1.47,0,0,0-1.41,1.35,2.6,2.6,0,0,0,0,.5V10H177Z" transform="translate(-0.83 -1.53)"/><path class="cls-1" d="M180.77,9a2.89,2.89,0,0,0,1.4.41c.77,0,1.13-.37,1.13-.86s-.31-.77-1.08-1.06c-1.05-.38-1.54-1-1.54-1.65a1.8,1.8,0,0,1,2-1.7,2.79,2.79,0,0,1,1.42.36l-.27.77a2.24,2.24,0,0,0-1.19-.35c-.62,0-1,.36-1,.8s.34.69,1.1,1c1,.37,1.52.88,1.53,1.74,0,1-.8,1.75-2.17,1.75a3.3,3.3,0,0,1-1.63-.4Z" transform="translate(-0.83 -1.53)"/></g></g></svg>