<svg xmlns="http://www.w3.org/2000/svg" viewBox="0 0 158.92 10"><defs><style>.cls-1{fill:#fff;}</style></defs><g id="Layer_2" data-name="Layer 2"><g id="Layer_1-2" data-name="Layer 1"><path class="cls-1" d="M.91,2H5.26v.87H2V5.52H5v.86H2V10h-1Z" transform="translate(-0.91 -1.53)"/><path class="cls-1" d="M12.4,9.78a5.12,5.12,0,0,1-2.13.39,3.78,3.78,0,0,1-4-4.1A4,4,0,0,1,10.5,1.83a4.29,4.29,0,0,1,1.92.36L12.16,3a3.77,3.77,0,0,0-1.62-.33A3,3,0,0,0,7.38,6a2.93,2.93,0,0,0,3.1,3.24A4.27,4.27,0,0,0,12.19,9Z" transform="translate(-0.91 -1.53)"/><path class="cls-1" d="M13.71,2h4.36v.87H14.76V5.52h3v.86h-3V10h-1Z" transform="translate(-0.91 -1.53)"/><path class="cls-1" d="M19.42,8.77a3.68,3.68,0,0,0,1.87.52c1.06,0,1.69-.55,1.69-1.37s-.44-1.19-1.53-1.6C20.13,5.85,19.32,5.16,19.32,4a2.33,2.33,0,0,1,2.62-2.2,3.69,3.69,0,0,1,1.78.39l-.29.86A3.12,3.12,0,0,0,21.9,2.7c-1.11,0-1.53.66-1.53,1.21,0,.75.49,1.12,1.61,1.55C23.35,6,24,6.65,24,7.84s-.91,2.33-2.83,2.33a4.13,4.13,0,0,1-2.06-.53Z" transform="translate(-0.91 -1.53)"/><path class="cls-1" d="M72.91,2h4.35v.87H74V5.52H77v.86H74V10h-1Z" transform="translate(-0.91 -1.53)"/><path class="cls-1" d="M78.94,7.33a1.86,1.86,0,0,0,2,2,3.92,3.92,0,0,0,1.61-.3l.19.75a4.69,4.69,0,0,1-1.94.37,2.7,2.7,0,0,1-2.85-2.93c0-1.76,1-3.13,2.73-3.13A2.44,2.44,0,0,1,83,6.84a2.93,2.93,0,0,1,0,.49ZM82,6.57a1.5,1.5,0,0,0-1.46-1.7A1.73,1.73,0,0,0,79,6.57Z" transform="translate(-0.91 -1.53)"/><path class="cls-1" d="M84.31,10c0-.4,0-1,0-1.49v-7h1V5.17h0a2.15,2.15,0,0,1,2-1.06c1.44,0,2.45,1.2,2.45,2.95,0,2.09-1.32,3.12-2.61,3.12a2.1,2.1,0,0,1-2-1.09h0l0,.95Zm1.1-2.32a1.58,1.58,0,0,0,0,.38A1.63,1.63,0,0,0,87,9.34c1.11,0,1.77-.9,1.77-2.23,0-1.17-.61-2.17-1.74-2.17a1.68,1.68,0,0,0-1.59,1.3,1.87,1.87,0,0,0-.06.44Z" transform="translate(-0.91 -1.53)"/><path class="cls-1" d="M93.39,10V9.4l.83-.8c2-1.9,2.89-2.91,2.9-4.09A1.39,1.39,0,0,0,95.58,3a2.69,2.69,0,0,0-1.66.66l-.33-.74a3.41,3.41,0,0,1,2.2-.79,2.19,2.19,0,0,1,2.38,2.26c0,1.45-1,2.61-2.68,4.18l-.62.59v0h3.5V10Z" transform="translate(-0.91 -1.53)"/><path class="cls-1" d="M99.8,8.84a3.66,3.66,0,0,0,1.73.48c1.35,0,1.77-.86,1.77-1.51,0-1.1-1-1.56-2-1.56h-.59V5.46h.59c.77,0,1.74-.4,1.74-1.32,0-.62-.4-1.17-1.37-1.17a2.89,2.89,0,0,0-1.56.51l-.28-.76a3.71,3.71,0,0,1,2-.6c1.54,0,2.24.91,2.24,1.86a1.94,1.94,0,0,1-1.44,1.83v0a2,2,0,0,1,1.73,2c0,1.24-1,2.34-2.84,2.34a3.82,3.82,0,0,1-2-.54Z" transform="translate(-0.91 -1.53)"/><path class="cls-1" d="M105.36,11.52a16.72,16.72,0,0,0,.72-2.87l1.18-.12a15.43,15.43,0,0,1-1.15,2.92Z" transform="translate(-0.91 -1.53)"/><path class="cls-1" d="M113,3.23h0L111.65,4l-.21-.8,1.71-.91H114V10h-1Z" transform="translate(-0.91 -1.53)"/><path class="cls-1" d="M121.54,3.13h-3l-.3,2a3.48,3.48,0,0,1,.63,0,3.22,3.22,0,0,1,1.69.43,2.21,2.21,0,0,1,1.11,2,2.7,2.7,0,0,1-2.9,2.66,3.84,3.84,0,0,1-2-.48l.27-.81a3.5,3.5,0,0,0,1.67.44,1.72,1.72,0,0,0,1.84-1.7c0-1-.68-1.72-2.24-1.72a7.48,7.48,0,0,0-1.08.08l.5-3.74h3.73Z" transform="translate(-0.91 -1.53)"/><path class="cls-1" d="M123.13,5.19a.71.71,0,0,1,.72-.75.69.69,0,0,1,.7.75.7.7,0,0,1-.71.75A.71.71,0,0,1,123.13,5.19Zm0,4.24a.72.72,0,0,1,.72-.76.69.69,0,0,1,.7.76.7.7,0,0,1-.71.75A.71.71,0,0,1,123.13,9.43Z" transform="translate(-0.91 -1.53)"/><path class="cls-1" d="M128.79,10V7.92h-3.62V7.23l3.47-5h1.15V7.1h1.09v.82h-1.09V10Zm0-2.94V4.49c0-.41,0-.81,0-1.22h0c-.24.47-.43.8-.65,1.16l-1.9,2.65v0Z" transform="translate(-0.91 -1.53)"/><path class="cls-1" d="M136.87,6.07c0,2.64-1,4.11-2.71,4.11-1.52,0-2.56-1.43-2.58-4s1.13-4,2.71-4S136.87,3.58,136.87,6.07Zm-4.23.11c0,2,.62,3.18,1.58,3.18s1.59-1.26,1.59-3.25-.49-3.17-1.58-3.17C133.31,2.94,132.64,4.06,132.64,6.18Z" transform="translate(-0.91 -1.53)"/><path class="cls-1" d="M141.8,2V6.75c0,1.8.8,2.57,1.89,2.57s2-.79,2-2.57V2h1V6.68c0,2.48-1.3,3.5-3.06,3.5s-2.89-.95-2.89-3.46V2Z" transform="translate(-0.91 -1.53)"/><path class="cls-1" d="M150.06,2.84H147.6V2h6v.88h-2.47V10h-1.05Z" transform="translate(-0.91 -1.53)"/><path class="cls-1" d="M159.81,9.78a5.18,5.18,0,0,1-2.14.39,3.77,3.77,0,0,1-4-4.1,4,4,0,0,1,4.22-4.24,4.24,4.24,0,0,1,1.91.36l-.25.85a3.85,3.85,0,0,0-1.63-.33A3,3,0,0,0,154.79,6a2.93,2.93,0,0,0,3.09,3.24A4.32,4.32,0,0,0,159.6,9Z" transform="translate(-0.91 -1.53)"/></g></g></svg>