<svg xmlns="http://www.w3.org/2000/svg" viewBox="0 0 13.85 7.94"><defs><style>.cls-1{fill:#fff;}</style></defs><g id="Layer_2" data-name="Layer 2"><g id="Layer_1-2" data-name="Layer 1"><path class="cls-1" d="M.53,6.11c0-2.57.92-3.94,2.45-3.94S5.43,3.55,5.43,6.11s-.92,4-2.45,4S.53,8.67.53,6.11Zm3.94,0C4.47,3.87,3.87,3,3,3s-1.49.91-1.49,3.15.6,3.2,1.49,3.2S4.47,8.35,4.47,6.11Z" transform="translate(-0.53 -2.17)"/><path class="cls-1" d="M6.74,9.36a.72.72,0,0,1,.72-.76.75.75,0,0,1,0,1.5A.72.72,0,0,1,6.74,9.36Z" transform="translate(-0.53 -2.17)"/><path class="cls-1" d="M9.48,6.11c0-2.57.93-3.94,2.45-3.94s2.45,1.38,2.45,3.94-.92,4-2.45,4S9.48,8.67,9.48,6.11Zm3.95,0c0-2.24-.61-3.15-1.5-3.15s-1.49.91-1.49,3.15.6,3.2,1.49,3.2S13.43,8.35,13.43,6.11Z" transform="translate(-0.53 -2.17)"/></g></g></svg>