<svg xmlns="http://www.w3.org/2000/svg" viewBox="0 0 69.23 10.79"><defs><style>.cls-1{fill:#fff;}</style></defs><g id="Layer_2" data-name="Layer 2"><g id="Layer_1-2" data-name="Layer 1"><path class="cls-1" d="M7.73,6.49C7.67,5.37,7.59,4,7.6,3h0C7.29,4,7,5,6.55,6.07L5.12,10H4.33L3,6.14C2.63,5,2.32,4,2.09,3h0C2,4,2,5.36,1.91,6.57L1.69,10H.7L1.26,2H2.59L4,5.87c.33,1,.61,1.88.82,2.73h0c.21-.82.49-1.71.85-2.73L7.11,2H8.45L9,10h-1Z" transform="translate(-0.7 -1.9)"/><path class="cls-1" d="M11.85,2.6a.66.66,0,1,1-1.31,0A.64.64,0,0,1,11.2,2,.63.63,0,0,1,11.85,2.6ZM10.67,10V4.24h1.05V10Z" transform="translate(-0.7 -1.9)"/><path class="cls-1" d="M13.48,5.81c0-.6,0-1.09-.05-1.57h.93l.06,1h0a2.13,2.13,0,0,1,1.92-1.09c.79,0,2,.48,2,2.47V10H17.36V6.7C17.36,5.76,17,5,16,5A1.52,1.52,0,0,0,14.6,6.06a1.81,1.81,0,0,0-.07.49V10h-1Z" transform="translate(-0.7 -1.9)"/><path class="cls-1" d="M21.32,2.6a.64.64,0,0,1-.67.66A.63.63,0,0,1,20,2.6.64.64,0,0,1,20.67,2,.63.63,0,0,1,21.32,2.6ZM20.14,10V4.24h1.05V10Z" transform="translate(-0.7 -1.9)"/><path class="cls-1" d="M23,5.81c0-.6,0-1.09-.05-1.57h.91l.06.94h0a2,2,0,0,1,1.83-1.07,1.71,1.71,0,0,1,1.64,1.16h0A2.32,2.32,0,0,1,28,4.52a2,2,0,0,1,1.28-.41c.77,0,1.92.5,1.92,2.52V10h-1V6.76C30.21,5.64,29.79,5,29,5a1.38,1.38,0,0,0-1.26,1,1.84,1.84,0,0,0-.09.53V10h-1V6.56c0-.92-.41-1.59-1.21-1.59A1.45,1.45,0,0,0,24.06,6a1.46,1.46,0,0,0-.08.52V10H23Z" transform="translate(-0.7 -1.9)"/><path class="cls-1" d="M37.8,8.46c0,.6,0,1.12.05,1.58h-.93l-.06-.94h0a2.17,2.17,0,0,1-1.92,1.08c-.9,0-2-.51-2-2.55V4.24h1V7.45c0,1.1.34,1.85,1.29,1.85a1.54,1.54,0,0,0,1.4-1,1.74,1.74,0,0,0,.09-.54V4.24h1Z" transform="translate(-0.7 -1.9)"/><path class="cls-1" d="M39.57,5.81c0-.6,0-1.09,0-1.57h.91l.06.94h0a2,2,0,0,1,1.83-1.07A1.71,1.71,0,0,1,44,5.27h0a2.21,2.21,0,0,1,.65-.75,2,2,0,0,1,1.28-.41c.77,0,1.91.5,1.91,2.52V10h-1V6.76c0-1.12-.42-1.79-1.26-1.79a1.38,1.38,0,0,0-1.26,1,1.84,1.84,0,0,0-.09.53V10h-1V6.56c0-.92-.4-1.59-1.2-1.59A1.47,1.47,0,0,0,40.67,6a1.72,1.72,0,0,0-.08.52V10h-1Z" transform="translate(-0.7 -1.9)"/><path class="cls-1" d="M52.15,2.07a9.81,9.81,0,0,1,1.9-.17,3.32,3.32,0,0,1,2.22.58A1.72,1.72,0,0,1,57,3.91a1.92,1.92,0,0,1-1.37,1.78v0a2.07,2.07,0,0,1,1.67,2,2.12,2.12,0,0,1-.69,1.61,4,4,0,0,1-2.79.76c-.72,0-1.27-.06-1.62-.09Zm1,3.31h1c1.09,0,1.74-.58,1.74-1.36,0-.94-.71-1.32-1.77-1.32a4.12,4.12,0,0,0-.93.08Zm0,3.87a5.13,5.13,0,0,0,.88.05c1.09,0,2.08-.4,2.08-1.57s-.95-1.56-2.09-1.56h-.87Z" transform="translate(-0.7 -1.9)"/><path class="cls-1" d="M63.48,8.46c0,.6,0,1.12.05,1.58H62.6l-.06-.94h0a2.17,2.17,0,0,1-1.92,1.08c-.9,0-2-.51-2-2.55V4.24h1V7.45c0,1.1.34,1.85,1.29,1.85a1.54,1.54,0,0,0,1.4-1,1.74,1.74,0,0,0,.09-.54V4.24h1Z" transform="translate(-0.7 -1.9)"/><path class="cls-1" d="M65.63,4.24l1.26,3.43c.14.38.28.84.38,1.19h0c.1-.35.23-.79.37-1.21l1.14-3.41h1.12L68.34,8.38c-.75,2-1.26,3-2,3.63a3,3,0,0,1-1.29.68l-.27-.88a2.85,2.85,0,0,0,.93-.52,3.49,3.49,0,0,0,.88-1.17.68.68,0,0,0,.08-.26.81.81,0,0,0-.07-.27L64.48,4.24Z" transform="translate(-0.7 -1.9)"/></g></g></svg>