<svg xmlns="http://www.w3.org/2000/svg" viewBox="0 0 71.03 10.79"><defs><style>.cls-1{fill:#fff;}</style></defs><g id="Layer_2" data-name="Layer 2"><g id="Layer_1-2" data-name="Layer 1"><path class="cls-1" d="M7.73,6.49C7.67,5.37,7.59,4,7.6,3h0C7.29,4,7,5,6.55,6.07L5.12,10H4.34L3,6.14C2.63,5,2.32,4,2.09,3h0C2,4,2,5.36,1.91,6.57L1.69,10H.7L1.26,2H2.59L4,5.87c.33,1,.61,1.88.82,2.73h0c.21-.82.49-1.71.85-2.73L7.11,2H8.45L9,10h-1Z" transform="translate(-0.7 -1.9)"/><path class="cls-1" d="M13.81,10l-.09-.73h0a2.18,2.18,0,0,1-1.78.87,1.66,1.66,0,0,1-1.77-1.67c0-1.4,1.25-2.18,3.49-2.16V6.23a1.19,1.19,0,0,0-1.32-1.34,2.81,2.81,0,0,0-1.51.43l-.24-.7a3.63,3.63,0,0,1,1.91-.51c1.77,0,2.21,1.21,2.21,2.38V8.66A9.68,9.68,0,0,0,14.76,10Zm-.16-3c-1.14,0-2.45.18-2.45,1.3a.93.93,0,0,0,1,1,1.45,1.45,0,0,0,1.41-1,1.32,1.32,0,0,0,.05-.33Z" transform="translate(-0.7 -1.9)"/><path class="cls-1" d="M16.87,4.24l.83,1.25c.22.32.4.62.59.94h0c.19-.34.38-.64.58-.95l.81-1.24h1.15l-2,2.81,2,3H19.72l-.86-1.3c-.23-.34-.42-.66-.62-1h0c-.19.35-.39.66-.61,1L16.76,10H15.6l2.06-3-2-2.84Z" transform="translate(-0.7 -1.9)"/><path class="cls-1" d="M23.12,2.6a.64.64,0,0,1-.67.66.63.63,0,0,1-.64-.66.66.66,0,0,1,1.31,0ZM21.94,10V4.24h1V10Z" transform="translate(-0.7 -1.9)"/><path class="cls-1" d="M24.75,5.81c0-.6,0-1.09-.05-1.57h.91l.06.94h0a2,2,0,0,1,1.83-1.07,1.71,1.71,0,0,1,1.64,1.16h0a2.32,2.32,0,0,1,.65-.75,2,2,0,0,1,1.28-.41c.77,0,1.92.5,1.92,2.52V10H32V6.76C32,5.64,31.59,5,30.75,5a1.39,1.39,0,0,0-1.26,1,1.84,1.84,0,0,0-.09.53V10h-1V6.56C28.38,5.64,28,5,27.17,5A1.45,1.45,0,0,0,25.86,6a1.46,1.46,0,0,0-.08.52V10h-1Z" transform="translate(-0.7 -1.9)"/><path class="cls-1" d="M39.6,8.46c0,.6,0,1.12,0,1.58h-.93l-.06-.94h0a2.17,2.17,0,0,1-1.92,1.08c-.9,0-2-.51-2-2.55V4.24h1.05V7.45c0,1.1.34,1.86,1.29,1.86a1.55,1.55,0,0,0,1.4-1,1.74,1.74,0,0,0,.09-.54V4.24H39.6Z" transform="translate(-0.7 -1.9)"/><path class="cls-1" d="M41.37,5.81c0-.6,0-1.09,0-1.57h.91l.06.94h0a2,2,0,0,1,1.83-1.07,1.71,1.71,0,0,1,1.64,1.16h0a2.21,2.21,0,0,1,.65-.75,2,2,0,0,1,1.28-.41c.77,0,1.91.5,1.91,2.52V10h-1V6.76c0-1.12-.42-1.79-1.26-1.79a1.39,1.39,0,0,0-1.26,1,1.84,1.84,0,0,0-.09.53V10H45V6.56c0-.92-.4-1.59-1.2-1.59A1.47,1.47,0,0,0,42.47,6a1.72,1.72,0,0,0-.08.52V10h-1Z" transform="translate(-0.7 -1.9)"/><path class="cls-1" d="M54,2.07a9.81,9.81,0,0,1,1.9-.17,3.37,3.37,0,0,1,2.22.58,1.73,1.73,0,0,1,.68,1.44,1.92,1.92,0,0,1-1.37,1.77v0a2.07,2.07,0,0,1,1.67,2,2.12,2.12,0,0,1-.69,1.61,4,4,0,0,1-2.79.76c-.72,0-1.27-.06-1.62-.09Zm1,3.31h1C57,5.38,57.69,4.8,57.69,4c0-.94-.71-1.32-1.77-1.32a4.12,4.12,0,0,0-.93.08Zm0,3.87a5.13,5.13,0,0,0,.88.05C57,9.3,58,8.91,58,7.73s-1-1.56-2.09-1.56H55Z" transform="translate(-0.7 -1.9)"/><path class="cls-1" d="M65.28,8.46c0,.6,0,1.12,0,1.58H64.4l-.06-.94h0a2.17,2.17,0,0,1-1.92,1.08c-.9,0-2-.51-2-2.55V4.24h1.05V7.45c0,1.1.34,1.86,1.29,1.86a1.55,1.55,0,0,0,1.4-1,1.74,1.74,0,0,0,.09-.54V4.24h1Z" transform="translate(-0.7 -1.9)"/><path class="cls-1" d="M67.43,4.24l1.26,3.43c.14.39.28.84.38,1.19h0c.1-.35.23-.79.37-1.21l1.14-3.41h1.12L70.15,8.38c-.76,2-1.27,3-2,3.63a3,3,0,0,1-1.29.68l-.27-.88a2.68,2.68,0,0,0,.93-.52,3.36,3.36,0,0,0,.88-1.17.68.68,0,0,0,.08-.26.81.81,0,0,0-.07-.27L66.28,4.24Z" transform="translate(-0.7 -1.9)"/></g></g></svg>