<svg xmlns="http://www.w3.org/2000/svg" viewBox="0 0 88.84 8.7"><defs><style>.cls-1{fill:#bababa;}</style></defs><g id="Layer_2" data-name="Layer 2"><g id="Layer_1-2" data-name="Layer 1"><path class="cls-1" d="M5.72,6.07c0,2.64-1,4.11-2.71,4.11-1.52,0-2.55-1.43-2.58-4s1.13-4,2.71-4S5.72,3.58,5.72,6.07Zm-4.23.11c0,2,.63,3.18,1.58,3.18S4.66,8.1,4.66,6.11,4.18,2.94,3.08,2.94C2.16,2.94,1.49,4.06,1.49,6.18Z" transform="translate(-0.43 -1.83)"/><path class="cls-1" d="M8.69,10.52,12,1.83h.82L9.49,10.52Z" transform="translate(-0.43 -1.83)"/><path class="cls-1" d="M18.19,3.23h0L16.81,4l-.2-.8,1.7-.91h.9V10h-1Z" transform="translate(-0.43 -1.83)"/><path class="cls-1" d="M27.24,6.07c0,2.64-1,4.11-2.71,4.11C23,10.18,22,8.75,22,6.17s1.13-4,2.71-4S27.24,3.58,27.24,6.07ZM23,6.18c0,2,.62,3.18,1.58,3.18s1.59-1.26,1.59-3.25-.49-3.17-1.58-3.17C23.68,2.94,23,4.06,23,6.18Z" transform="translate(-0.43 -1.83)"/><path class="cls-1" d="M35.94,6.07c0,2.64-1,4.11-2.71,4.11-1.52,0-2.56-1.43-2.58-4s1.13-4,2.71-4S35.94,3.58,35.94,6.07Zm-4.23.11c0,2,.62,3.18,1.58,3.18s1.59-1.26,1.59-3.25-.49-3.17-1.58-3.17C32.38,2.94,31.71,4.06,31.71,6.18Z" transform="translate(-0.43 -1.83)"/><path class="cls-1" d="M42.1,6.07c0,2.64-1,4.11-2.72,4.11-1.52,0-2.55-1.43-2.58-4s1.13-4,2.72-4S42.1,3.58,42.1,6.07Zm-4.24.11c0,2,.63,3.18,1.59,3.18S41,8.1,41,6.11s-.49-3.17-1.59-3.17C38.54,2.94,37.86,4.06,37.86,6.18Z" transform="translate(-0.43 -1.83)"/><path class="cls-1" d="M48.25,6.07c0,2.64-1,4.11-2.71,4.11C44,10.18,43,8.75,43,6.17s1.13-4,2.71-4S48.25,3.58,48.25,6.07ZM44,6.18c0,2,.62,3.18,1.58,3.18s1.59-1.26,1.59-3.25-.49-3.17-1.58-3.17C44.69,2.94,44,4.06,44,6.18Z" transform="translate(-0.43 -1.83)"/><path class="cls-1" d="M57,6.07c0,2.64-1,4.11-2.71,4.11-1.52,0-2.56-1.43-2.58-4s1.13-4,2.71-4S57,3.58,57,6.07Zm-4.23.11c0,2,.62,3.18,1.58,3.18s1.59-1.26,1.59-3.25-.49-3.17-1.58-3.17C53.39,2.94,52.72,4.06,52.72,6.18Z" transform="translate(-0.43 -1.83)"/><path class="cls-1" d="M63.11,6.07c0,2.64-1,4.11-2.72,4.11-1.52,0-2.55-1.43-2.58-4s1.13-4,2.72-4S63.11,3.58,63.11,6.07Zm-4.23.11c0,2,.62,3.18,1.58,3.18S62,8.1,62,6.11s-.48-3.17-1.58-3.17C59.54,2.94,58.87,4.06,58.88,6.18Z" transform="translate(-0.43 -1.83)"/><path class="cls-1" d="M69.26,6.07c0,2.64-1,4.11-2.71,4.11C65,10.18,64,8.75,64,6.17s1.13-4,2.71-4S69.26,3.58,69.26,6.07ZM65,6.18c0,2,.62,3.18,1.58,3.18S68.2,8.1,68.2,6.11s-.49-3.17-1.58-3.17C65.7,2.94,65,4.06,65,6.18Z" transform="translate(-0.43 -1.83)"/><path class="cls-1" d="M74.2,2V10h-1V2Z" transform="translate(-0.43 -1.83)"/><path class="cls-1" d="M76,2.07a14.57,14.57,0,0,1,2.23-.17,4.64,4.64,0,0,1,3.27,1A3.71,3.71,0,0,1,82.65,5.8,4.31,4.31,0,0,1,81.49,9a5,5,0,0,1-3.58,1.17A14.72,14.72,0,0,1,76,10Zm1,7.15a7.93,7.93,0,0,0,1,0,3.09,3.09,0,0,0,3.44-3.43c0-1.9-1.06-3.11-3.26-3.11a6,6,0,0,0-1.23.11Z" transform="translate(-0.43 -1.83)"/><path class="cls-1" d="M84,2.07a10.74,10.74,0,0,1,2-.17,3.39,3.39,0,0,1,2.35.66A2,2,0,0,1,89,4.1a2.14,2.14,0,0,1-1.52,2.06v0a2,2,0,0,1,1.18,1.63A14,14,0,0,0,89.27,10H88.19a10.23,10.23,0,0,1-.53-1.93C87.42,7,87,6.57,86,6.54h-1V10H84Zm1,3.68h1.07c1.11,0,1.82-.61,1.82-1.54s-.76-1.5-1.86-1.5a4.37,4.37,0,0,0-1,.09Z" transform="translate(-0.43 -1.83)"/></g></g></svg>