<svg xmlns="http://www.w3.org/2000/svg" viewBox="0 0 592.74 136.52"><defs><style>.cls-1{fill:#fff;}.cls-2{fill:#71ee4f;}.cls-3{fill:none;stroke:#b3b3b3;stroke-miterlimit:10;stroke-width:0.5px;}</style></defs><g id="Layer_2" data-name="Layer 2"><g id="Layer_1-2" data-name="Layer 1"><path class="cls-1" d="M.53,11.41,1.82,9.86a4,4,0,0,0,2.45,1c.93,0,1.39-.37,1.39-1S5.1,9.12,4.23,8.76L2.94,8.21a2.91,2.91,0,0,1-2-2.71c0-1.65,1.47-3,3.54-3a4.57,4.57,0,0,1,3.2,1.31L6.54,5.25a3.27,3.27,0,0,0-2.07-.78c-.77,0-1.27.33-1.27.9s.65.83,1.52,1.17L6,7.06a2.74,2.74,0,0,1,2,2.7c0,1.65-1.38,3.08-3.75,3.08A5.52,5.52,0,0,1,.53,11.41Z" transform="translate(-0.38 -1.22)"/><path class="cls-1" d="M8.85,5.09h2.23L11.8,8.6c.13.74.22,1.48.34,2.25h.07c.13-.77.26-1.53.44-2.25l.83-3.51h1.95l.85,3.51c.18.74.31,1.48.47,2.25h.06c.14-.77.22-1.51.35-2.25l.72-3.51H20l-1.81,7.57H15.52l-.7-3c-.14-.71-.26-1.4-.4-2.22h-.06c-.13.82-.24,1.52-.39,2.22l-.66,3H10.74Z" transform="translate(-0.38 -1.22)"/><path class="cls-1" d="M20.81,10.56c0-1.59,1.27-2.46,4.26-2.77a1.05,1.05,0,0,0-1.2-1.1,4.14,4.14,0,0,0-2,.69l-.8-1.48a6.27,6.27,0,0,1,3.24-1c1.93,0,3,1.1,3,3.42v4.33H25.48l-.16-.77h-.05a3.34,3.34,0,0,1-2.21.95A2.17,2.17,0,0,1,20.81,10.56Zm4.26-.1V9.14c-1.6.22-2.11.67-2.11,1.24s.33.73.86.73A1.7,1.7,0,0,0,25.07,10.46Z" transform="translate(-0.38 -1.22)"/><path class="cls-1" d="M29.2,5.09H31l.16.75h0a3.39,3.39,0,0,1,2.16-.93c1.83,0,3,1.51,3,3.85,0,2.6-1.54,4.08-3.18,4.08a2.63,2.63,0,0,1-1.81-.79l.08,1.2v2.22H29.2Zm4.85,3.69c0-1.36-.42-2-1.31-2a1.75,1.75,0,0,0-1.3.68v3.11a1.79,1.79,0,0,0,1.21.48C33.43,11,34.05,10.35,34.05,8.78Z" transform="translate(-0.38 -1.22)"/><path class="cls-1" d="M41.05,2.72h3.58c2.11,0,3.84.73,3.84,3.09s-1.73,3.27-3.84,3.27H43.3v3.58H41.05Zm3.4,4.58c1.18,0,1.82-.51,1.82-1.49S45.63,4.5,44.45,4.5H43.3V7.3Zm-.23,1.19,1.56-1.44L49,12.66H46.44Z" transform="translate(-0.38 -1.22)"/><path class="cls-1" d="M49.75,10.56C49.75,9,51,8.1,54,7.79a1.06,1.06,0,0,0-1.2-1.1,4.14,4.14,0,0,0-2,.69L50,5.9a6.24,6.24,0,0,1,3.24-1c1.93,0,3,1.1,3,3.42v4.33H54.42l-.16-.77h0a3.34,3.34,0,0,1-2.21.95A2.17,2.17,0,0,1,49.75,10.56Zm4.26-.1V9.14c-1.6.22-2.12.67-2.12,1.24s.34.73.87.73A1.7,1.7,0,0,0,54,10.46Z" transform="translate(-0.38 -1.22)"/><path class="cls-1" d="M58.16,9.91V6.85h-1V5.18l1.16-.09.26-2h1.86v2h1.81V6.85H60.41v3c0,.86.39,1.2,1,1.2a2.3,2.3,0,0,0,.72-.14l.35,1.63a5.28,5.28,0,0,1-1.68.27C58.91,12.84,58.16,11.66,58.16,9.91Z" transform="translate(-0.38 -1.22)"/><path class="cls-1" d="M63,8.88a3.72,3.72,0,0,1,3.57-4c2.16,0,3.22,1.57,3.22,3.63a5.29,5.29,0,0,1-.09,1H65.16a1.83,1.83,0,0,0,2,1.6,3.16,3.16,0,0,0,1.64-.49L69.5,12a4.86,4.86,0,0,1-2.68.85A3.69,3.69,0,0,1,63,8.88Zm4.88-.83c0-.83-.36-1.43-1.26-1.43a1.49,1.49,0,0,0-1.47,1.43Z" transform="translate(-0.38 -1.22)"/><path class="cls-1" d="M131.44,6.49a1.36,1.36,0,1,1,2.71,0,1.36,1.36,0,1,1-2.71,0Zm0,4.95a1.36,1.36,0,1,1,1.35,1.4A1.34,1.34,0,0,1,131.44,11.44Z" transform="translate(-0.38 -1.22)"/><path class="cls-2" d="M139.33,11.62h2.23V4.45h-1.78V3.64a5.82,5.82,0,0,0,2.07-.71h1v8.69h2v1h-5.49Z" transform="translate(-0.38 -1.22)"/><path class="cls-2" d="M150.13,2.65h1.27v10h-1.27Z" transform="translate(-0.38 -1.22)"/><path class="cls-2" d="M153.56,7.66c0-3.23,1.94-5.2,4.6-5.2A3.86,3.86,0,0,1,161,3.7l-.69.83a2.85,2.85,0,0,0-2.16-1c-2,0-3.31,1.55-3.31,4.05s1.19,4.09,3.32,4.09a2.75,2.75,0,0,0,1.81-.58V8.53h-2.12V7.47h3.28v4.21a4.27,4.27,0,0,1-3.09,1.16C155.44,12.84,153.56,10.92,153.56,7.66Z" transform="translate(-0.38 -1.22)"/><path class="cls-2" d="M163.55,2.65h1.32l3.62,6.29L169.58,11h.06c-.07-1-.17-2.14-.17-3.19V2.65h1.21v10h-1.31l-3.63-6.3-1.08-2.07h-.06c.07,1,.16,2.08.16,3.13v5.24h-1.21Z" transform="translate(-0.38 -1.22)"/><path class="cls-2" d="M175.51,3.73h-3V2.65h7.33V3.73h-3v8.93h-1.27Z" transform="translate(-0.38 -1.22)"/><path class="cls-1" d="M183.8,5.52h6.55v.94H183.8Zm0,3.27h6.55v1H183.8Z" transform="translate(-0.38 -1.22)"/><path class="cls-2" d="M194.7,11.65l.59-.86a3.68,3.68,0,0,0,2.36,1,1.49,1.49,0,0,0,1.7-1.57c0-2.47-4.26-1.94-4.26-4.91a2.53,2.53,0,0,1,2.73-2.57,3.27,3.27,0,0,1,2.56,1.17l-.67.74a2.42,2.42,0,0,0-1.86-.87,1.41,1.41,0,0,0-1.53,1.47c0,2.22,4.26,1.61,4.26,4.88a2.65,2.65,0,0,1-2.93,2.7A4.6,4.6,0,0,1,194.7,11.65Zm2.6-10.4h.92v2h-.92Zm0,11.15h.92v1.94h-.92Z" transform="translate(-0.38 -1.22)"/><path class="cls-2" d="M202.17,7.76c0-3.26,1.18-5,3.12-5s3.12,1.75,3.12,5-1.18,5.08-3.12,5.08S202.17,11,202.17,7.76Zm5,0c0-2.85-.77-4-1.9-4s-1.9,1.15-1.9,4,.77,4.07,1.9,4.07S207.19,10.61,207.19,7.76Z" transform="translate(-0.38 -1.22)"/><path class="cls-2" d="M210.07,11.89a.91.91,0,1,1,1.82,0,.91.91,0,1,1-1.82,0Z" transform="translate(-0.38 -1.22)"/><path class="cls-2" d="M213.55,7.76c0-3.26,1.18-5,3.12-5s3.12,1.75,3.12,5-1.18,5.08-3.12,5.08S213.55,11,213.55,7.76Zm5,0c0-2.85-.77-4-1.9-4s-1.9,1.15-1.9,4,.77,4.07,1.9,4.07S218.57,10.61,218.57,7.76Z" transform="translate(-0.38 -1.22)"/><path class="cls-2" d="M221.07,11.92C224,9,225.65,7.25,225.65,5.67a1.72,1.72,0,0,0-1.85-1.9,2.86,2.86,0,0,0-2.07,1.17L221,4.23a3.82,3.82,0,0,1,3-1.48,2.7,2.7,0,0,1,2.92,2.86c0,1.83-1.68,3.64-4,6.06.53-.05,1.14-.09,1.64-.09h2.81v1.08h-6.28Z" transform="translate(-0.38 -1.22)"/><path class="cls-1" d="M232.49,1.22h.89V16.48h-.89Z" transform="translate(-0.38 -1.22)"/><path class="cls-2" d="M239,11.62h2.23V4.45h-1.77V3.64a5.89,5.89,0,0,0,2.07-.71h.95v8.69h2v1H239Z" transform="translate(-0.38 -1.22)"/><path class="cls-2" d="M249.82,2.65h1.28v10h-1.28Z" transform="translate(-0.38 -1.22)"/><path class="cls-2" d="M253.25,7.66c0-3.23,1.94-5.2,4.6-5.2a3.88,3.88,0,0,1,2.89,1.24l-.7.83a2.85,2.85,0,0,0-2.16-1c-2,0-3.31,1.55-3.31,4.05s1.19,4.09,3.32,4.09a2.75,2.75,0,0,0,1.81-.58V8.53h-2.12V7.47h3.28v4.21a4.27,4.27,0,0,1-3.09,1.16C255.13,12.84,253.25,10.92,253.25,7.66Z" transform="translate(-0.38 -1.22)"/><path class="cls-2" d="M263.25,2.65h1.31l3.63,6.29L269.27,11h.06c-.07-1-.16-2.14-.16-3.19V2.65h1.21v10h-1.32l-3.62-6.3-1.09-2.07h-.06c.07,1,.17,2.08.17,3.13v5.24h-1.21Z" transform="translate(-0.38 -1.22)"/><path class="cls-2" d="M275.2,3.73h-3V2.65h7.33V3.73h-3v8.93H275.2Z" transform="translate(-0.38 -1.22)"/><path class="cls-1" d="M284.23,5.24h1l.11.86h0a3.9,3.9,0,0,1,2.37-1c1.91,0,2.94,1.49,2.94,3.78,0,2.53-1.52,4-3.22,4a3.37,3.37,0,0,1-2.05-.85l0,1.29v2.51h-1.25Zm5.19,3.61c0-1.64-.56-2.73-2-2.73a3,3,0,0,0-2,1V11a2.92,2.92,0,0,0,1.81.77C288.51,11.79,289.42,10.68,289.42,8.85Z" transform="translate(-0.38 -1.22)"/><path class="cls-1" d="M292.14,9c0-2.41,1.63-3.9,3.34-3.9,1.89,0,3,1.36,3,3.48a4.49,4.49,0,0,1-.06.71h-5a2.46,2.46,0,0,0,2.47,2.59,3.18,3.18,0,0,0,1.84-.59l.45.83a4.4,4.4,0,0,1-2.45.76A3.55,3.55,0,0,1,292.14,9Zm5.19-.6c0-1.49-.67-2.3-1.83-2.3a2.28,2.28,0,0,0-2.13,2.3Z" transform="translate(-0.38 -1.22)"/><path class="cls-1" d="M300.26,5.24h1l.1,1.36h0a2.56,2.56,0,0,1,2.11-1.54,1.72,1.72,0,0,1,.79.15l-.23,1.1a2.09,2.09,0,0,0-.72-.12c-.63,0-1.37.45-1.88,1.71v4.76h-1.25Z" transform="translate(-0.38 -1.22)"/><path class="cls-2" d="M308,11.92c2.92-2.92,4.58-4.67,4.58-6.25a1.72,1.72,0,0,0-1.85-1.9,2.86,2.86,0,0,0-2.07,1.17l-.73-.71a3.83,3.83,0,0,1,3-1.48,2.7,2.7,0,0,1,2.92,2.86c0,1.83-1.68,3.64-4,6.06.53-.05,1.14-.09,1.64-.09h2.82v1.08H308Z" transform="translate(-0.38 -1.22)"/><path class="cls-2" d="M315.61,7.76c0-3.26,1.17-5,3.12-5s3.11,1.75,3.11,5-1.17,5.08-3.11,5.08S315.61,11,315.61,7.76Zm5,0c0-2.85-.77-4-1.9-4s-1.9,1.15-1.9,4,.76,4.07,1.9,4.07S320.63,10.61,320.63,7.76Z" transform="translate(-0.38 -1.22)"/><path class="cls-2" d="M323.19,7.76c0-3.26,1.17-5,3.12-5s3.12,1.75,3.12,5-1.18,5.08-3.12,5.08S323.19,11,323.19,7.76Zm5,0c0-2.85-.77-4-1.9-4s-1.9,1.15-1.9,4,.77,4.07,1.9,4.07S328.21,10.61,328.21,7.76Z" transform="translate(-0.38 -1.22)"/><path class="cls-2" d="M336.29,7.49l-2.72-4.84H335l1.36,2.56.78,1.45h.06c.27-.58.47-1,.71-1.45l1.33-2.56h1.34l-2.72,4.9,2.91,5.11h-1.4L337.88,10c-.26-.5-.54-1-.86-1.61H337c-.29.61-.54,1.11-.79,1.61l-1.45,2.69h-1.34Z" transform="translate(-0.38 -1.22)"/><path class="cls-2" d="M344.12,7.49,341.4,2.65h1.4l1.37,2.56c.25.46.46.87.78,1.45H345c.27-.58.46-1,.7-1.45l1.34-2.56h1.34l-2.73,4.9,2.92,5.11h-1.41L345.71,10c-.27-.5-.54-1-.86-1.61h-.06c-.29.61-.55,1.11-.8,1.61l-1.44,2.69H341.2Z" transform="translate(-0.38 -1.22)"/><path class="cls-2" d="M352,7.49l-2.73-4.84h1.41L352,5.21c.26.46.47.87.78,1.45h.06c.28-.58.47-1,.71-1.45l1.33-2.56h1.34l-2.72,4.9,2.92,5.11H355L353.53,10c-.26-.5-.53-1-.86-1.61h-.06c-.29.61-.54,1.11-.79,1.61l-1.45,2.69H349Z" transform="translate(-0.38 -1.22)"/><path class="cls-1" d="M1.31,41.89,2.6,40.35a4,4,0,0,0,2.44,1c.94,0,1.4-.37,1.4-1S5.87,39.6,5,39.24l-1.3-.55a2.89,2.89,0,0,1-2-2.71c0-1.65,1.47-3,3.54-3a4.62,4.62,0,0,1,3.2,1.3L7.31,35.74A3.24,3.24,0,0,0,5.25,35c-.78,0-1.27.32-1.27.89s.65.83,1.52,1.18l1.27.51a2.75,2.75,0,0,1,2,2.71c0,1.65-1.38,3.08-3.75,3.08A5.46,5.46,0,0,1,1.31,41.89Z" transform="translate(-0.38 -1.22)"/><path class="cls-1" d="M10.12,40.39v-3h-1V35.66l1.16-.08.26-2h1.86v2h1.81v1.76H12.37v3c0,.86.38,1.2,1,1.2a2.36,2.36,0,0,0,.72-.14l.35,1.62a5.24,5.24,0,0,1-1.68.28C10.87,43.33,10.12,42.15,10.12,40.39Z" transform="translate(-0.38 -1.22)"/><path class="cls-1" d="M15,41.05c0-1.6,1.27-2.46,4.26-2.78a1,1,0,0,0-1.19-1.09,4.25,4.25,0,0,0-2,.68l-.8-1.47a6.21,6.21,0,0,1,3.24-1c1.93,0,3,1.11,3,3.43v4.33H19.68l-.16-.78h-.05a3.33,3.33,0,0,1-2.21,1A2.18,2.18,0,0,1,15,41.05Zm4.26-.1V39.62c-1.59.22-2.11.68-2.11,1.25s.33.73.86.73A1.74,1.74,0,0,0,19.27,41Z" transform="translate(-0.38 -1.22)"/><path class="cls-1" d="M23.4,35.58h1.83l.16,1.32h.05a2.58,2.58,0,0,1,2.15-1.51,2.06,2.06,0,0,1,.91.16l-.38,1.93a3.36,3.36,0,0,0-.81-.12,1.88,1.88,0,0,0-1.67,1.4v4.39H23.4Z" transform="translate(-0.38 -1.22)"/><path class="cls-1" d="M29.77,40.39v-3h-1V35.66l1.16-.08.26-2H32v2h1.82v1.76H32v3c0,.86.39,1.2,1,1.2a2.3,2.3,0,0,0,.71-.14l.36,1.62a5.24,5.24,0,0,1-1.68.28C30.51,43.33,29.77,42.15,29.77,40.39Z" transform="translate(-0.38 -1.22)"/><path class="cls-1" d="M37.53,32.31H39L35.92,45.59H34.46Z" transform="translate(-0.38 -1.22)"/><path class="cls-1" d="M39.74,39.37a3.72,3.72,0,0,1,3.57-4c2.16,0,3.22,1.57,3.22,3.64a5.47,5.47,0,0,1-.09,1H41.91a1.82,1.82,0,0,0,2,1.6,3.08,3.08,0,0,0,1.64-.5l.74,1.36a4.94,4.94,0,0,1-2.68.85A3.69,3.69,0,0,1,39.74,39.37Zm4.88-.83c0-.84-.37-1.44-1.26-1.44a1.5,1.5,0,0,0-1.47,1.44Z" transform="translate(-0.38 -1.22)"/><path class="cls-1" d="M48.08,35.58h1.83l.16,1h.06a3.43,3.43,0,0,1,2.43-1.15c1.65,0,2.35,1.16,2.35,3.06v4.7H52.67V38.73c0-1.09-.3-1.43-.94-1.43a2,2,0,0,0-1.41.74v5.11H48.08Z" transform="translate(-0.38 -1.22)"/><path class="cls-1" d="M56.42,39.37c0-2.48,1.54-4,3.14-4a2.48,2.48,0,0,1,1.85.79L61.33,35V32.46h2.25V43.15H61.75l-.17-.75h0a3,3,0,0,1-2,.93C57.63,43.33,56.42,41.84,56.42,39.37Zm4.91,1.45V37.71a1.82,1.82,0,0,0-1.25-.48c-.73,0-1.36.67-1.36,2.11s.51,2.15,1.38,2.15A1.45,1.45,0,0,0,61.33,40.82Z" transform="translate(-0.38 -1.22)"/><path class="cls-1" d="M132.21,37a1.36,1.36,0,1,1,2.71,0,1.36,1.36,0,1,1-2.71,0Zm0,5a1.36,1.36,0,1,1,1.36,1.41A1.35,1.35,0,0,1,132.21,41.92Z" transform="translate(-0.38 -1.22)"/><path class="cls-1" d="M139.51,42.4c2.93-2.91,4.58-4.66,4.58-6.25a1.71,1.71,0,0,0-1.84-1.9,2.83,2.83,0,0,0-2.07,1.17l-.73-.71a3.83,3.83,0,0,1,3-1.48,2.71,2.71,0,0,1,2.92,2.87c0,1.82-1.68,3.64-4,6,.52,0,1.13-.08,1.64-.08h2.81v1.08h-6.29Z" transform="translate(-0.38 -1.22)"/><path class="cls-1" d="M146.89,42l.63-.82A3.29,3.29,0,0,0,150,42.29a1.81,1.81,0,0,0,2-1.79c0-1.15-.79-1.93-3.1-1.93v-1c2.06,0,2.76-.8,2.76-1.82A1.51,1.51,0,0,0,150,34.25a2.94,2.94,0,0,0-2.08,1l-.67-.79A4,4,0,0,1,150,33.23c1.7,0,2.92.9,2.92,2.47A2.4,2.4,0,0,1,151.19,38v.06a2.52,2.52,0,0,1,2.11,2.47c0,1.74-1.43,2.78-3.21,2.78A4.08,4.08,0,0,1,146.89,42Z" transform="translate(-0.38 -1.22)"/><path class="cls-1" d="M158.49,33.13h5.77v1.08h-4.5v3.38h3.82v1.08h-3.82v4.48h-1.27Z" transform="translate(-0.38 -1.22)"/><path class="cls-1" d="M165.14,39.45c0-2.42,1.63-3.9,3.34-3.9,1.89,0,3,1.36,3,3.48a4.6,4.6,0,0,1-.06.71h-5a2.47,2.47,0,0,0,2.47,2.59,3.25,3.25,0,0,0,1.84-.59l.45.82a4.32,4.32,0,0,1-2.45.77A3.55,3.55,0,0,1,165.14,39.45Zm5.19-.61c0-1.48-.67-2.29-1.83-2.29a2.27,2.27,0,0,0-2.13,2.29Z" transform="translate(-0.38 -1.22)"/><path class="cls-1" d="M174.42,42.38h0l-.12.77h-1V32.28h1.25v3l0,1.33a3.74,3.74,0,0,1,2.33-1c1.92,0,2.95,1.48,2.95,3.77,0,2.53-1.52,4-3.21,4A3.36,3.36,0,0,1,174.42,42.38Zm4-3c0-1.64-.56-2.74-1.95-2.74a3,3,0,0,0-2,1V41.5a2.85,2.85,0,0,0,1.81.77C177.55,42.27,178.45,41.17,178.45,39.34Z" transform="translate(-0.38 -1.22)"/><path class="cls-1" d="M181,45a2.07,2.07,0,0,0,1.38-1.89L182.25,42l.62.92a.79.79,0,0,1-.64.26.86.86,0,0,1-.91-.87.87.87,0,0,1,.93-.88c.67,0,1.07.56,1.07,1.47a3,3,0,0,1-2,2.86Z" transform="translate(-0.38 -1.22)"/><path class="cls-1" d="M188.34,42.1h2.23V34.94H188.8v-.81a6.1,6.1,0,0,0,2.07-.71h1V42.1h2v1h-5.5Z" transform="translate(-0.38 -1.22)"/><path class="cls-1" d="M195.92,42.1h2.23V34.94h-1.77v-.81a6,6,0,0,0,2.07-.71h1V42.1h2v1h-5.5Z" transform="translate(-0.38 -1.22)"/><path class="cls-1" d="M203.3,36.88a.91.91,0,1,1,.91.95A.92.92,0,0,1,203.3,36.88Zm0,5.5a.91.91,0,1,1,.91.95A.92.92,0,0,1,203.3,42.38Z" transform="translate(-0.38 -1.22)"/><path class="cls-1" d="M206.78,38.24c0-3.26,1.17-5,3.12-5S213,35,213,38.24s-1.18,5.09-3.12,5.09S206.78,41.51,206.78,38.24Zm5,0c0-2.85-.77-4-1.9-4s-1.9,1.15-1.9,4,.77,4.08,1.9,4.08S211.8,41.1,211.8,38.24Z" transform="translate(-0.38 -1.22)"/><path class="cls-1" d="M214.36,38.24c0-3.26,1.18-5,3.12-5s3.12,1.76,3.12,5-1.18,5.09-3.12,5.09S214.36,41.51,214.36,38.24Zm5,0c0-2.85-.77-4-1.9-4s-1.9,1.15-1.9,4,.77,4.08,1.9,4.08S219.38,41.1,219.38,38.24Z" transform="translate(-0.38 -1.22)"/><path class="cls-1" d="M225.11,41.22c0-1.61,1.4-2.42,4.56-2.77,0-1-.32-1.87-1.53-1.87a4.1,4.1,0,0,0-2.22.8l-.49-.86a5.47,5.47,0,0,1,2.92-1c1.81,0,2.57,1.2,2.57,3.05v4.55h-1l-.11-.89h0a3.93,3.93,0,0,1-2.46,1.07A2,2,0,0,1,225.11,41.22Zm4.56.12V39.28c-2.49.3-3.33.91-3.33,1.85s.57,1.19,1.3,1.19A3.07,3.07,0,0,0,229.67,41.34Z" transform="translate(-0.38 -1.22)"/><path class="cls-1" d="M233.26,35.73h1l.1,1.07h0a3.3,3.3,0,0,1,2.31-1.25A2,2,0,0,1,238.8,37a3.5,3.5,0,0,1,2.45-1.41c1.52,0,2.25,1,2.25,2.9v4.7h-1.25V38.61c0-1.38-.44-2-1.38-2A2.67,2.67,0,0,0,239,37.78v5.37h-1.26V38.61c0-1.38-.43-2-1.38-2a2.75,2.75,0,0,0-1.86,1.14v5.37h-1.25Z" transform="translate(-0.38 -1.22)"/><path class="cls-1" d="M248.34,38.84h3.5v1h-3.5Z" transform="translate(-0.38 -1.22)"/><path class="cls-1" d="M256.59,42.1h2.23V34.94h-1.77v-.81a6,6,0,0,0,2.07-.71h1V42.1h2v1h-5.5Z" transform="translate(-0.38 -1.22)"/><path class="cls-1" d="M263.71,38.65c0-3.91,1.77-5.42,3.71-5.42a3.1,3.1,0,0,1,2.34,1l-.69.78a2.14,2.14,0,0,0-1.6-.76c-1.4,0-2.57,1.11-2.57,4.37,0,2.39.77,3.69,2.17,3.69.95,0,1.69-.85,1.69-2.13s-.59-2.07-1.8-2.07a2.66,2.66,0,0,0-2.09,1.38l-.05-1a3.1,3.1,0,0,1,2.35-1.33c1.69,0,2.77,1,2.77,3a2.93,2.93,0,0,1-2.87,3.12C265.15,43.33,263.71,41.78,263.71,38.65Z" transform="translate(-0.38 -1.22)"/><path class="cls-1" d="M271.55,36.88a.91.91,0,1,1,.91.95A.92.92,0,0,1,271.55,36.88Zm0,5.5a.91.91,0,1,1,.91.95A.92.92,0,0,1,271.55,42.38Z" transform="translate(-0.38 -1.22)"/><path class="cls-1" d="M275,38.24c0-3.26,1.18-5,3.12-5s3.12,1.76,3.12,5-1.18,5.09-3.12,5.09S275,41.51,275,38.24Zm5,0c0-2.85-.77-4-1.9-4s-1.9,1.15-1.9,4,.77,4.08,1.9,4.08S280.05,41.1,280.05,38.24Z" transform="translate(-0.38 -1.22)"/><path class="cls-1" d="M282.61,38.24c0-3.26,1.18-5,3.12-5s3.12,1.76,3.12,5-1.18,5.09-3.12,5.09S282.61,41.51,282.61,38.24Zm5,0c0-2.85-.77-4-1.9-4s-1.9,1.15-1.9,4,.77,4.08,1.9,4.08S287.63,41.1,287.63,38.24Z" transform="translate(-0.38 -1.22)"/><path class="cls-1" d="M293.82,35.73h1l.11.86h0a3.87,3.87,0,0,1,2.36-1c1.92,0,2.94,1.48,2.94,3.78,0,2.52-1.51,4-3.21,4a3.38,3.38,0,0,1-2.06-.86l0,1.3v2.51h-1.26Zm5.2,3.61c0-1.64-.56-2.74-2-2.74a3,3,0,0,0-2,1V41.5a2.84,2.84,0,0,0,1.8.77C298.11,42.27,299,41.17,299,39.34Z" transform="translate(-0.38 -1.22)"/><path class="cls-1" d="M302.29,35.73h1l.1,1.07h0a3.3,3.3,0,0,1,2.31-1.25A2,2,0,0,1,307.83,37a3.5,3.5,0,0,1,2.45-1.41c1.52,0,2.25,1,2.25,2.9v4.7h-1.25V38.61c0-1.38-.44-2-1.38-2A2.69,2.69,0,0,0,308,37.78v5.37h-1.26V38.61c0-1.38-.43-2-1.38-2a2.71,2.71,0,0,0-1.85,1.14v5.37h-1.26Z" transform="translate(-0.38 -1.22)"/><path class="cls-1" d="M318.06,39V33.13h1.28v5.92c0,2.4,1,3.16,2.32,3.16s2.38-.76,2.38-3.16V33.13h1.22V39c0,3.21-1.55,4.32-3.6,4.32S318.06,42.22,318.06,39Z" transform="translate(-0.38 -1.22)"/><path class="cls-1" d="M330,34.21h-3V33.13h7.33v1.08h-3v8.94H330Z" transform="translate(-0.38 -1.22)"/><path class="cls-1" d="M335.17,38.15c0-3.23,1.91-5.2,4.45-5.2a3.73,3.73,0,0,1,2.75,1.23l-.7.83a2.7,2.7,0,0,0-2-.94c-1.89,0-3.15,1.55-3.15,4s1.2,4.09,3.1,4.09a3,3,0,0,0,2.32-1.12l.7.79a3.86,3.86,0,0,1-3.07,1.45C337,43.33,335.17,41.4,335.17,38.15Z" transform="translate(-0.38 -1.22)"/><path class="cls-1" d="M2.38,63.69H6c2.11,0,3.83.73,3.83,3.1S8.08,70.05,6,70.05H4.63v3.58H2.38Zm3.4,4.58c1.19,0,1.82-.51,1.82-1.48S7,65.47,5.78,65.47H4.63v2.8Zm-.22,1.19L7.11,68l3.17,5.61H7.77Z" transform="translate(-0.38 -1.22)"/><path class="cls-1" d="M11,69.85a3.72,3.72,0,0,1,3.57-4c2.15,0,3.22,1.57,3.22,3.63a5.29,5.29,0,0,1-.09,1H13.13a1.83,1.83,0,0,0,2,1.61,3.17,3.17,0,0,0,1.64-.5L17.47,73a4.9,4.9,0,0,1-2.68.86A3.69,3.69,0,0,1,11,69.85ZM15.84,69c0-.83-.37-1.43-1.26-1.43A1.49,1.49,0,0,0,13.11,69Z" transform="translate(-0.38 -1.22)"/><path class="cls-1" d="M18.68,74.93a1.76,1.76,0,0,1,1.08-1.52v-.06a1.47,1.47,0,0,1-.7-1.29,1.87,1.87,0,0,1,.85-1.42v-.06a2.43,2.43,0,0,1-1-2c0-1.82,1.5-2.74,3.13-2.74a3.9,3.9,0,0,1,1.18.18H26V67.7H24.75a2,2,0,0,1,.25,1c0,1.75-1.32,2.55-3,2.55a3.26,3.26,0,0,1-.92-.15.64.64,0,0,0-.27.56c0,.38.31.56,1.14.56H23.2c1.85,0,2.89.57,2.89,1.92,0,1.58-1.64,2.72-4.24,2.72C20.09,76.85,18.68,76.28,18.68,74.93Zm5.26-.41c0-.48-.41-.59-1.16-.59H22a3.81,3.81,0,0,1-1.06-.1,1,1,0,0,0-.41.75c0,.57.66.86,1.68.86S23.94,75,23.94,74.52Zm-.88-5.9c0-.81-.44-1.23-1-1.23s-1,.42-1,1.23.44,1.26,1,1.26S23.06,69.45,23.06,68.62Z" transform="translate(-0.38 -1.22)"/><path class="cls-1" d="M27.12,63.78A1.31,1.31,0,1,1,28.42,65,1.2,1.2,0,0,1,27.12,63.78Zm.17,2.28h2.25v7.57H27.29Z" transform="translate(-0.38 -1.22)"/><path class="cls-1" d="M30.83,72.76l1-1.4a3.29,3.29,0,0,0,2,.8c.66,0,1-.26,1-.65s-.75-.73-1.53-1-2-1-2-2.22c0-1.41,1.15-2.37,2.89-2.37a4.3,4.3,0,0,1,2.67,1l-1,1.35a2.77,2.77,0,0,0-1.6-.65c-.58,0-.86.23-.86.6s.71.67,1.49,1c1,.35,2,.89,2,2.28s-1.08,2.44-3.11,2.44A5,5,0,0,1,30.83,72.76Z" transform="translate(-0.38 -1.22)"/><path class="cls-1" d="M38.26,70.88V67.82h-1V66.15l1.15-.09.27-2H40.5v2h1.82v1.76H40.5v3c0,.86.39,1.21,1,1.21a2.3,2.3,0,0,0,.72-.15l.36,1.63a5.31,5.31,0,0,1-1.69.28C39,73.82,38.26,72.63,38.26,70.88Z" transform="translate(-0.38 -1.22)"/><path class="cls-1" d="M43.8,66.06h1.83l.16,1.33h.06A2.57,2.57,0,0,1,48,65.88a2.22,2.22,0,0,1,.9.15L48.53,68a3,3,0,0,0-.82-.12A1.88,1.88,0,0,0,46,69.25v4.38H43.8Z" transform="translate(-0.38 -1.22)"/><path class="cls-1" d="M49.09,71.53c0-1.59,1.27-2.46,4.27-2.77a1.06,1.06,0,0,0-1.2-1.1,4.14,4.14,0,0,0-2,.69l-.8-1.47a6.15,6.15,0,0,1,3.23-1c1.94,0,3,1.11,3,3.42v4.33H53.77l-.16-.77h-.06a3.31,3.31,0,0,1-2.2,1A2.19,2.19,0,0,1,49.09,71.53Zm4.27-.1V70.11c-1.6.22-2.12.67-2.12,1.24s.34.73.87.73A1.7,1.7,0,0,0,53.36,71.43Z" transform="translate(-0.38 -1.22)"/><path class="cls-1" d="M57.51,70.88V67.82h-1V66.15l1.16-.09.26-2h1.85v2h1.82v1.76H59.75v3c0,.86.39,1.21,1,1.21a2.36,2.36,0,0,0,.72-.15l.35,1.63a5.24,5.24,0,0,1-1.68.28C58.26,73.82,57.51,72.63,57.51,70.88Z" transform="translate(-0.38 -1.22)"/><path class="cls-1" d="M62.88,63.78A1.3,1.3,0,1,1,64.18,65,1.19,1.19,0,0,1,62.88,63.78Zm.17,2.28h2.24v7.57H63.05Z" transform="translate(-0.38 -1.22)"/><path class="cls-1" d="M66.82,69.85a3.7,3.7,0,1,1,3.69,4A3.71,3.71,0,0,1,66.82,69.85Zm5.08,0c0-1.31-.46-2.16-1.39-2.16s-1.39.85-1.39,2.16S69.58,72,70.51,72,71.9,71.16,71.9,69.85Z" transform="translate(-0.38 -1.22)"/><path class="cls-1" d="M75.73,66.06h1.83l.16,1h.06a3.46,3.46,0,0,1,2.43-1.14c1.64,0,2.35,1.16,2.35,3.05v4.7H80.31V69.22c0-1.09-.29-1.43-.94-1.43a1.9,1.9,0,0,0-1.4.74v5.1H75.73Z" transform="translate(-0.38 -1.22)"/><path class="cls-1" d="M132.65,67.46A1.35,1.35,0,1,1,134,68.87,1.35,1.35,0,0,1,132.65,67.46Zm0,5A1.35,1.35,0,1,1,134,73.82,1.36,1.36,0,0,1,132.65,72.41Z" transform="translate(-0.38 -1.22)"/><path class="cls-1" d="M140.71,63.62h5.77V64.7H142v3.37h3.82v1.08H142v4.48h-1.27Z" transform="translate(-0.38 -1.22)"/><path class="cls-1" d="M147.36,69.93c0-2.41,1.63-3.9,3.33-3.9,1.9,0,3,1.36,3,3.48a4.87,4.87,0,0,1-.05.72h-5a2.47,2.47,0,0,0,2.46,2.59,3.19,3.19,0,0,0,1.85-.6l.45.83a4.4,4.4,0,0,1-2.45.77A3.55,3.55,0,0,1,147.36,69.93Zm5.18-.6c0-1.49-.66-2.3-1.82-2.3a2.27,2.27,0,0,0-2.13,2.3Z" transform="translate(-0.38 -1.22)"/><path class="cls-1" d="M156.64,72.87h0l-.12.76h-1V62.76h1.25v3l0,1.33A3.75,3.75,0,0,1,159,66c1.92,0,2.95,1.49,2.95,3.78,0,2.53-1.52,4-3.22,4A3.33,3.33,0,0,1,156.64,72.87Zm4-3.05c0-1.63-.56-2.73-2-2.73a3,3,0,0,0-2,1V72a2.88,2.88,0,0,0,1.81.77C159.77,72.76,160.67,71.65,160.67,69.82Z" transform="translate(-0.38 -1.22)"/><path class="cls-1" d="M166.26,72.89c2.92-2.92,4.58-4.67,4.58-6.25a1.72,1.72,0,0,0-1.85-1.9,2.86,2.86,0,0,0-2.07,1.17l-.72-.71a3.8,3.8,0,0,1,3-1.48,2.7,2.7,0,0,1,2.92,2.86c0,1.83-1.68,3.64-4,6.06.52,0,1.13-.09,1.63-.09h2.82v1.08h-6.29Z" transform="translate(-0.38 -1.22)"/><path class="cls-1" d="M174.43,72.59h2.23V65.42h-1.77v-.8A6,6,0,0,0,177,63.9h1v8.69h2v1h-5.5Z" transform="translate(-0.38 -1.22)"/><path class="cls-1" d="M181.54,75.49a2,2,0,0,0,1.37-1.89l-.13-1.13.61.91a.75.75,0,0,1-.63.27.85.85,0,0,1-.91-.88.87.87,0,0,1,.93-.87c.67,0,1.06.55,1.06,1.47a3,3,0,0,1-2,2.85Z" transform="translate(-0.38 -1.22)"/><path class="cls-1" d="M188.87,72.59h2.23V65.42h-1.78v-.8a6,6,0,0,0,2.07-.72h1v8.69h2v1h-5.49Z" transform="translate(-0.38 -1.22)"/><path class="cls-1" d="M196.45,72.59h2.23V65.42H196.9v-.8A6,6,0,0,0,199,63.9h1v8.69h2v1h-5.49Z" transform="translate(-0.38 -1.22)"/><path class="cls-1" d="M203.82,67.36a.91.91,0,1,1,1.82,0,.91.91,0,1,1-1.82,0Zm0,5.51a.91.91,0,1,1,.91.95A.92.92,0,0,1,203.82,72.87Z" transform="translate(-0.38 -1.22)"/><path class="cls-1" d="M207.3,68.73c0-3.26,1.18-5,3.12-5s3.12,1.75,3.12,5-1.18,5.09-3.12,5.09S207.3,72,207.3,68.73Zm5,0c0-2.85-.77-4-1.9-4s-1.9,1.15-1.9,4,.77,4.07,1.9,4.07S212.32,71.58,212.32,68.73Z" transform="translate(-0.38 -1.22)"/><path class="cls-1" d="M214.88,68.73c0-3.26,1.18-5,3.12-5s3.12,1.75,3.12,5S220,73.82,218,73.82,214.88,72,214.88,68.73Zm5,0c0-2.85-.77-4-1.9-4s-1.9,1.15-1.9,4,.77,4.07,1.9,4.07S219.9,71.58,219.9,68.73Z" transform="translate(-0.38 -1.22)"/><path class="cls-1" d="M226.17,69.5V63.62h1.28v5.91c0,2.41,1,3.17,2.32,3.17s2.37-.76,2.37-3.17V63.62h1.23V69.5c0,3.21-1.56,4.32-3.6,4.32S226.17,72.71,226.17,69.5Z" transform="translate(-0.38 -1.22)"/><path class="cls-1" d="M238.14,64.7h-3V63.62h7.33V64.7h-3v8.93h-1.27Z" transform="translate(-0.38 -1.22)"/><path class="cls-1" d="M243.28,68.63c0-3.23,1.9-5.19,4.45-5.19a3.75,3.75,0,0,1,2.75,1.23l-.7.83a2.73,2.73,0,0,0-2-.94c-1.89,0-3.15,1.55-3.15,4s1.2,4.1,3.1,4.1A3,3,0,0,0,250,71.57l.7.8a3.86,3.86,0,0,1-3.08,1.45C245.15,73.82,243.28,71.89,243.28,68.63Z" transform="translate(-0.38 -1.22)"/><path class="cls-1" d="M257.94,69.32h3.5v1h-3.5Z" transform="translate(-0.38 -1.22)"/><path class="cls-1" d="M266.36,63.62h5.78V64.7h-4.5v3.37h3.82v1.08h-3.82v4.48h-1.28Z" transform="translate(-0.38 -1.22)"/><path class="cls-1" d="M273,69.93c0-2.41,1.63-3.9,3.33-3.9,1.9,0,3,1.36,3,3.48a3.73,3.73,0,0,1-.06.72h-5a2.47,2.47,0,0,0,2.46,2.59,3.19,3.19,0,0,0,1.85-.6l.45.83a4.4,4.4,0,0,1-2.45.77A3.55,3.55,0,0,1,273,69.93Zm5.18-.6c0-1.49-.66-2.3-1.82-2.3a2.27,2.27,0,0,0-2.13,2.3Z" transform="translate(-0.38 -1.22)"/><path class="cls-1" d="M282.3,72.87h0l-.12.76h-1V62.76h1.25v3l0,1.33a3.73,3.73,0,0,1,2.33-1c1.92,0,2.95,1.49,2.95,3.78,0,2.53-1.52,4-3.22,4A3.33,3.33,0,0,1,282.3,72.87Zm4-3.05c0-1.63-.56-2.73-2-2.73a3,3,0,0,0-2,1V72a2.88,2.88,0,0,0,1.81.77C285.42,72.76,286.33,71.65,286.33,69.82Z" transform="translate(-0.38 -1.22)"/><path class="cls-1" d="M291.92,72.89c2.92-2.92,4.58-4.67,4.58-6.25a1.72,1.72,0,0,0-1.85-1.9,2.86,2.86,0,0,0-2.07,1.17l-.73-.71a3.82,3.82,0,0,1,3-1.48,2.7,2.7,0,0,1,2.92,2.86c0,1.83-1.68,3.64-4,6.06.53,0,1.14-.09,1.64-.09h2.81v1.08h-6.28Z" transform="translate(-0.38 -1.22)"/><path class="cls-1" d="M299.29,72.44l.63-.82a3.33,3.33,0,0,0,2.49,1.15,1.81,1.81,0,0,0,2-1.78c0-1.16-.8-1.93-3.1-1.93v-1c2.06,0,2.76-.79,2.76-1.81a1.5,1.5,0,0,0-1.68-1.54,2.92,2.92,0,0,0-2.08,1l-.68-.8a4,4,0,0,1,2.8-1.21c1.69,0,2.91.9,2.91,2.47a2.39,2.39,0,0,1-1.77,2.31v.06A2.53,2.53,0,0,1,305.71,71c0,1.73-1.44,2.78-3.22,2.78A4.12,4.12,0,0,1,299.29,72.44Z" transform="translate(-0.38 -1.22)"/><path class="cls-1" d="M307.2,75.49a2,2,0,0,0,1.37-1.89l-.14-1.13.62.91a.77.77,0,0,1-.64.27.85.85,0,0,1-.9-.88.87.87,0,0,1,.93-.87c.66,0,1.06.55,1.06,1.47a3,3,0,0,1-2,2.85Z" transform="translate(-0.38 -1.22)"/><path class="cls-1" d="M314,68.73c0-3.26,1.17-5,3.12-5s3.12,1.75,3.12,5-1.18,5.09-3.12,5.09S314,72,314,68.73Zm5,0c0-2.85-.77-4-1.9-4s-1.9,1.15-1.9,4,.77,4.07,1.9,4.07S319,71.58,319,68.73Z" transform="translate(-0.38 -1.22)"/><path class="cls-1" d="M321.53,71.14a3.05,3.05,0,0,1,1.84-2.61v-.07A2.73,2.73,0,0,1,322,66.21a2.76,2.76,0,0,1,5.5.1,3.16,3.16,0,0,1-1.34,2.34v.07a2.81,2.81,0,0,1,1.69,2.5c0,1.46-1.25,2.6-3.13,2.6S321.53,72.69,321.53,71.14Zm5.13,0c0-1.26-1.23-1.71-2.64-2.27A2.61,2.61,0,0,0,322.66,71a1.93,1.93,0,0,0,2.09,1.85A1.73,1.73,0,0,0,326.66,71.18Zm-.23-4.81a1.62,1.62,0,0,0-1.69-1.72,1.5,1.5,0,0,0-1.58,1.56c0,1.17,1.08,1.66,2.24,2.12A2.65,2.65,0,0,0,326.43,66.37Z" transform="translate(-0.38 -1.22)"/><path class="cls-1" d="M329.48,67.36a.91.91,0,1,1,1.82,0,.91.91,0,1,1-1.82,0Zm0,5.51a.91.91,0,1,1,.91.95A.92.92,0,0,1,329.48,72.87Z" transform="translate(-0.38 -1.22)"/><path class="cls-1" d="M333,68.73c0-3.26,1.18-5,3.12-5s3.12,1.75,3.12,5-1.18,5.09-3.12,5.09S333,72,333,68.73Zm5,0c0-2.85-.77-4-1.9-4s-1.9,1.15-1.9,4,.77,4.07,1.9,4.07S338,71.58,338,68.73Z" transform="translate(-0.38 -1.22)"/><path class="cls-1" d="M340.54,68.73c0-3.26,1.18-5,3.12-5s3.12,1.75,3.12,5-1.18,5.09-3.12,5.09S340.54,72,340.54,68.73Zm5,0c0-2.85-.77-4-1.9-4s-1.9,1.15-1.9,4,.77,4.07,1.9,4.07S345.56,71.58,345.56,68.73Z" transform="translate(-0.38 -1.22)"/><path class="cls-1" d="M351.83,69.5V63.62h1.27v5.91c0,2.41,1,3.17,2.33,3.17s2.37-.76,2.37-3.17V63.62H359V69.5c0,3.21-1.55,4.32-3.59,4.32S351.83,72.71,351.83,69.5Z" transform="translate(-0.38 -1.22)"/><path class="cls-1" d="M363.79,64.7h-3V63.62h7.33V64.7h-3v8.93h-1.28Z" transform="translate(-0.38 -1.22)"/><path class="cls-1" d="M368.94,68.63c0-3.23,1.9-5.19,4.44-5.19a3.76,3.76,0,0,1,2.76,1.23l-.7.83a2.73,2.73,0,0,0-2-.94c-1.9,0-3.15,1.55-3.15,4s1.2,4.1,3.1,4.1a3,3,0,0,0,2.32-1.13l.7.8a3.89,3.89,0,0,1-3.08,1.45C370.81,73.82,368.94,71.89,368.94,68.63Z" transform="translate(-0.38 -1.22)"/><path class="cls-1" d="M2.58,94.17H8.85v1.89h-4v2.31H8.26v1.88H4.82v3.87H2.58Z" transform="translate(-0.38 -1.22)"/><path class="cls-1" d="M10,99.2C10,95.9,12.13,94,14.64,94a4.17,4.17,0,0,1,3,1.29l-1.18,1.44a2.53,2.53,0,0,0-1.76-.79c-1.36,0-2.44,1.2-2.44,3.2s.95,3.23,2.41,3.23a2.6,2.6,0,0,0,1.94-.93l1.19,1.41a4.11,4.11,0,0,1-3.21,1.46C12.05,104.3,10,102.55,10,99.2Z" transform="translate(-0.38 -1.22)"/><path class="cls-1" d="M19.3,94.17h6.27v1.89h-4v2.31H25v1.88H21.54v3.87H19.3Z" transform="translate(-0.38 -1.22)"/><path class="cls-1" d="M26.24,102.86l1.29-1.54a3.91,3.91,0,0,0,2.44,1c.94,0,1.4-.37,1.4-1s-.57-.83-1.44-1.18l-1.29-.55a2.91,2.91,0,0,1-2-2.72c0-1.64,1.48-3,3.55-3a4.62,4.62,0,0,1,3.2,1.3l-1.14,1.42a3.26,3.26,0,0,0-2.06-.78c-.78,0-1.27.32-1.27.89s.65.83,1.52,1.18l1.26.51a2.74,2.74,0,0,1,2,2.71c0,1.65-1.38,3.08-3.75,3.08A5.46,5.46,0,0,1,26.24,102.86Z" transform="translate(-0.38 -1.22)"/><path class="cls-1" d="M37.94,99.1c0-3.25,1.84-5.11,4.52-5.11S47,95.87,47,99.1s-1.84,5.2-4.52,5.2S37.94,102.35,37.94,99.1Zm6.73,0c0-2-.85-3.17-2.21-3.17s-2.21,1.18-2.21,3.17.85,3.26,2.21,3.26S44.67,101.1,44.67,99.1Z" transform="translate(-0.38 -1.22)"/><path class="cls-1" d="M48.66,96.55h1.83l.16.74h.06a3.33,3.33,0,0,1,2.15-.92c1.83,0,3,1.51,3,3.84,0,2.6-1.55,4.09-3.19,4.09a2.61,2.61,0,0,1-1.8-.79l.07,1.2v2.22H48.66Zm4.86,3.69c0-1.36-.42-2-1.32-2a1.75,1.75,0,0,0-1.3.68V102a1.84,1.84,0,0,0,1.21.48C52.89,102.47,53.52,101.81,53.52,100.24Z" transform="translate(-0.38 -1.22)"/><path class="cls-1" d="M57,100.34a3.72,3.72,0,0,1,3.57-4c2.16,0,3.23,1.56,3.23,3.63a4.49,4.49,0,0,1-.1,1H59.13a1.83,1.83,0,0,0,2,1.6,3.15,3.15,0,0,0,1.63-.49l.75,1.35a4.92,4.92,0,0,1-2.69.85A3.69,3.69,0,0,1,57,100.34Zm4.88-.83c0-.84-.36-1.44-1.26-1.44a1.5,1.5,0,0,0-1.47,1.44Z" transform="translate(-0.38 -1.22)"/><path class="cls-1" d="M65.3,96.55h1.83l.16,1h.06a3.44,3.44,0,0,1,2.43-1.14c1.65,0,2.35,1.16,2.35,3v4.7H69.89V99.71c0-1.09-.3-1.43-.94-1.43a1.91,1.91,0,0,0-1.4.73v5.11H65.3Z" transform="translate(-0.38 -1.22)"/><path class="cls-1" d="M73.36,103.24l1-1.39a3.25,3.25,0,0,0,1.95.79c.67,0,1-.25,1-.65s-.75-.72-1.53-1c-.93-.36-2-1-2-2.23s1.14-2.36,2.89-2.36a4.32,4.32,0,0,1,2.67.95l-1,1.35A2.84,2.84,0,0,0,76.71,98c-.58,0-.87.23-.87.61s.71.67,1.5,1c1,.36,2,.9,2,2.28s-1.09,2.44-3.12,2.44A4.89,4.89,0,0,1,73.36,103.24Z" transform="translate(-0.38 -1.22)"/><path class="cls-1" d="M132.84,98a1.36,1.36,0,1,1,1.35,1.41A1.36,1.36,0,0,1,132.84,98Zm0,4.94a1.36,1.36,0,1,1,1.35,1.41A1.35,1.35,0,0,1,132.84,102.89Z" transform="translate(-0.38 -1.22)"/><path class="cls-1" d="M140.9,94.1h5.77v1.08h-4.5v3.38H146v1.08h-3.82v4.48H140.9Z" transform="translate(-0.38 -1.22)"/><path class="cls-1" d="M147.55,100.42c0-2.42,1.63-3.9,3.34-3.9,1.89,0,3,1.36,3,3.48a4.6,4.6,0,0,1-.06.71h-5a2.47,2.47,0,0,0,2.47,2.59,3.25,3.25,0,0,0,1.84-.59l.45.82a4.32,4.32,0,0,1-2.45.77A3.55,3.55,0,0,1,147.55,100.42Zm5.19-.61c0-1.48-.67-2.29-1.83-2.29a2.28,2.28,0,0,0-2.13,2.29Z" transform="translate(-0.38 -1.22)"/><path class="cls-1" d="M156.83,103.35h0l-.12.77h-1V93.25h1.25v3l0,1.33a3.79,3.79,0,0,1,2.33-1c1.92,0,2.95,1.48,2.95,3.77,0,2.54-1.52,4-3.21,4A3.3,3.3,0,0,1,156.83,103.35Zm4-3c0-1.64-.56-2.74-2-2.74a3,3,0,0,0-2,1v3.88a2.87,2.87,0,0,0,1.81.78C160,103.25,160.86,102.14,160.86,100.31Z" transform="translate(-0.38 -1.22)"/><path class="cls-1" d="M166.45,103.38c2.93-2.92,4.58-4.67,4.58-6.26a1.71,1.71,0,0,0-1.84-1.89,2.81,2.81,0,0,0-2.07,1.16l-.73-.71a3.83,3.83,0,0,1,3-1.48,2.71,2.71,0,0,1,2.92,2.87c0,1.82-1.68,3.64-4,6.05.53,0,1.13-.08,1.63-.08h2.82v1.08h-6.29Z" transform="translate(-0.38 -1.22)"/><path class="cls-1" d="M173.83,102.93l.63-.82a3.33,3.33,0,0,0,2.48,1.15,1.81,1.81,0,0,0,2-1.79c0-1.15-.8-1.93-3.11-1.93v-1c2.06,0,2.76-.79,2.76-1.81a1.5,1.5,0,0,0-1.68-1.54,3,3,0,0,0-2.08,1l-.67-.79A4,4,0,0,1,177,94.2c1.69,0,2.91.9,2.91,2.47A2.41,2.41,0,0,1,178.13,99v.06a2.52,2.52,0,0,1,2.11,2.47c0,1.74-1.43,2.78-3.21,2.78A4.08,4.08,0,0,1,173.83,102.93Z" transform="translate(-0.38 -1.22)"/><path class="cls-1" d="M181.73,106a2,2,0,0,0,1.37-1.89L183,103l.61.92a.76.76,0,0,1-.63.26.85.85,0,0,1-.91-.87.87.87,0,0,1,.93-.88c.67,0,1.07.56,1.07,1.48a3,3,0,0,1-2,2.85Z" transform="translate(-0.38 -1.22)"/><path class="cls-1" d="M189.06,103.07h2.23V95.91h-1.78V95.1a5.75,5.75,0,0,0,2.07-.71h1v8.68h2v1.05h-5.49Z" transform="translate(-0.38 -1.22)"/><path class="cls-1" d="M195.82,103l.61-.82a3.34,3.34,0,0,0,2.46,1.11A2.09,2.09,0,0,0,201,101,2,2,0,0,0,199,98.9a2.71,2.71,0,0,0-1.67.6l-.66-.43.32-4.68h4.87v1.07H198l-.26,2.89a3,3,0,0,1,1.5-.4,2.8,2.8,0,0,1,3,3,3.18,3.18,0,0,1-3.27,3.3A4.27,4.27,0,0,1,195.82,103Z" transform="translate(-0.38 -1.22)"/><path class="cls-1" d="M204,97.85a.91.91,0,1,1,.91,1A.92.92,0,0,1,204,97.85Zm0,5.5a.91.91,0,1,1,.91,1A.92.92,0,0,1,204,103.35Z" transform="translate(-0.38 -1.22)"/><path class="cls-1" d="M211.46,97.6c0-.52,0-1.36.07-1.87h-.06c-.24.47-.52.89-.79,1.37l-2.28,3.33H214v1h-6.88v-.83l4.16-6.21h1.4v9.73h-1.19Z" transform="translate(-0.38 -1.22)"/><path class="cls-1" d="M215.08,99.22c0-3.27,1.17-5,3.12-5s3.12,1.76,3.12,5-1.18,5.08-3.12,5.08S215.08,102.48,215.08,99.22Zm5,0c0-2.86-.77-4-1.9-4s-1.9,1.15-1.9,4,.77,4.07,1.9,4.07S220.1,102.07,220.1,99.22Z" transform="translate(-0.38 -1.22)"/><path class="cls-1" d="M226.36,100V94.1h1.28V100c0,2.4,1,3.16,2.32,3.16s2.38-.76,2.38-3.16V94.1h1.22V100c0,3.22-1.55,4.32-3.6,4.32S226.36,103.2,226.36,100Z" transform="translate(-0.38 -1.22)"/><path class="cls-1" d="M238.33,95.18h-3V94.1h7.33v1.08h-3v8.94h-1.27Z" transform="translate(-0.38 -1.22)"/><path class="cls-1" d="M243.47,99.12c0-3.23,1.91-5.2,4.45-5.2a3.7,3.7,0,0,1,2.75,1.24L250,96a2.67,2.67,0,0,0-2-.95c-1.89,0-3.15,1.55-3.15,4s1.2,4.09,3.1,4.09a3,3,0,0,0,2.32-1.12l.7.8a3.88,3.88,0,0,1-3.07,1.44C245.34,104.3,243.47,102.37,243.47,99.12Z" transform="translate(-0.38 -1.22)"/><path class="cls-1" d="M255.7,99.88a12.73,12.73,0,0,1,2-6.93l.78.36a13.19,13.19,0,0,0,0,13.13l-.78.37A12.78,12.78,0,0,1,255.7,99.88Z" transform="translate(-0.38 -1.22)"/><path class="cls-1" d="M259.68,103.38c2.92-2.92,4.58-4.67,4.58-6.26a1.71,1.71,0,0,0-1.85-1.89,2.85,2.85,0,0,0-2.07,1.16l-.73-.71a3.86,3.86,0,0,1,3-1.48,2.71,2.71,0,0,1,2.92,2.87c0,1.82-1.68,3.64-4,6.05.53,0,1.14-.08,1.64-.08H266v1.08h-6.28Z" transform="translate(-0.38 -1.22)"/><path class="cls-1" d="M267.33,99.22c0-3.27,1.17-5,3.11-5s3.12,1.76,3.12,5-1.17,5.08-3.12,5.08S267.33,102.48,267.33,99.22Zm5,0c0-2.86-.76-4-1.9-4s-1.9,1.15-1.9,4,.77,4.07,1.9,4.07S272.34,102.07,272.34,99.22Z" transform="translate(-0.38 -1.22)"/><path class="cls-1" d="M275.49,96.7h1l.11,1.08h0A3.3,3.3,0,0,1,279,96.52a2,2,0,0,1,2,1.41,3.5,3.5,0,0,1,2.44-1.41c1.53,0,2.26,1,2.26,2.9v4.7h-1.26V99.58c0-1.38-.43-2-1.38-2a2.67,2.67,0,0,0-1.85,1.14v5.37H280V99.58c0-1.38-.44-2-1.38-2a2.73,2.73,0,0,0-1.86,1.14v5.37h-1.25Z" transform="translate(-0.38 -1.22)"/><path class="cls-1" d="M292.34,103.35h0l-.11.77h-1V93.25h1.26v3l0,1.33a3.77,3.77,0,0,1,2.33-1c1.91,0,2.94,1.48,2.94,3.77,0,2.54-1.51,4-3.21,4A3.3,3.3,0,0,1,292.34,103.35Zm4-3c0-1.64-.56-2.74-2-2.74a3,3,0,0,0-2,1v3.88a2.83,2.83,0,0,0,1.81.78C295.47,103.25,296.38,102.14,296.38,100.31Z" transform="translate(-0.38 -1.22)"/><path class="cls-1" d="M299.07,100.42c0-2.42,1.63-3.9,3.33-3.9,1.9,0,3,1.36,3,3.48a3.62,3.62,0,0,1-.06.71h-5a2.47,2.47,0,0,0,2.46,2.59,3.26,3.26,0,0,0,1.85-.59l.45.82a4.32,4.32,0,0,1-2.45.77A3.54,3.54,0,0,1,299.07,100.42Zm5.18-.61c0-1.48-.67-2.29-1.83-2.29a2.27,2.27,0,0,0-2.12,2.29Z" transform="translate(-0.38 -1.22)"/><path class="cls-1" d="M306.36,96.77l1.06-.07h2.77v1h-3.83Zm1-1.24c0-1.51.69-2.47,2.18-2.47a3.32,3.32,0,0,1,1.23.26l-.27,1a2,2,0,0,0-.84-.19c-.7,0-1,.49-1,1.44v8.59h-1.26Z" transform="translate(-0.38 -1.22)"/><path class="cls-1" d="M310.91,100.42c0-2.48,1.62-3.9,3.43-3.9s3.44,1.42,3.44,3.9-1.62,3.88-3.44,3.88S310.91,102.88,310.91,100.42Zm5.57,0c0-1.7-.86-2.86-2.14-2.86s-2.14,1.16-2.14,2.86.87,2.84,2.14,2.84S316.48,102.12,316.48,100.42Z" transform="translate(-0.38 -1.22)"/><path class="cls-1" d="M319.73,96.7h1l.11,1.35h0A2.55,2.55,0,0,1,323,96.52a1.72,1.72,0,0,1,.79.15l-.23,1.1a2.09,2.09,0,0,0-.72-.12c-.63,0-1.38.45-1.88,1.71v4.76h-1.25Z" transform="translate(-0.38 -1.22)"/><path class="cls-1" d="M324.32,100.42c0-2.42,1.62-3.9,3.33-3.9,1.89,0,3,1.36,3,3.48a3.62,3.62,0,0,1-.06.71h-5A2.47,2.47,0,0,0,328,103.3a3.28,3.28,0,0,0,1.85-.59l.45.82a4.32,4.32,0,0,1-2.45.77A3.54,3.54,0,0,1,324.32,100.42Zm5.18-.61c0-1.48-.67-2.29-1.83-2.29a2.27,2.27,0,0,0-2.12,2.29Z" transform="translate(-0.38 -1.22)"/><path class="cls-1" d="M335.7,101.83V97.72h-1.1v-1l1.16-.07.15-2.08h1V96.7h2v1h-2v4.13c0,.9.29,1.43,1.15,1.43a2.46,2.46,0,0,0,.84-.2l.24,1a4.45,4.45,0,0,1-1.37.27C336.24,104.3,335.7,103.3,335.7,101.83Z" transform="translate(-0.38 -1.22)"/><path class="cls-1" d="M340.64,93.25h1.26v3l0,1.53a3.52,3.52,0,0,1,2.46-1.23c1.57,0,2.27,1,2.27,2.9v4.7h-1.26V99.58c0-1.38-.41-2-1.4-2a2.81,2.81,0,0,0-2,1.14v5.37h-1.26Z" transform="translate(-0.38 -1.22)"/><path class="cls-1" d="M348.39,100.42c0-2.42,1.62-3.9,3.33-3.9,1.89,0,3,1.36,3,3.48a3.62,3.62,0,0,1-.06.71h-5a2.47,2.47,0,0,0,2.46,2.59,3.26,3.26,0,0,0,1.85-.59l.45.82a4.32,4.32,0,0,1-2.45.77A3.54,3.54,0,0,1,348.39,100.42Zm5.18-.61c0-1.48-.66-2.29-1.82-2.29a2.27,2.27,0,0,0-2.13,2.29Z" transform="translate(-0.38 -1.22)"/><path class="cls-1" d="M359,100.42c0-2.42,1.63-3.9,3.34-3.9,1.89,0,3,1.36,3,3.48a3.62,3.62,0,0,1-.06.71h-5a2.47,2.47,0,0,0,2.46,2.59,3.28,3.28,0,0,0,1.85-.59l.44.82a4.29,4.29,0,0,1-2.44.77A3.55,3.55,0,0,1,359,100.42Zm5.19-.61c0-1.48-.67-2.29-1.83-2.29a2.27,2.27,0,0,0-2.12,2.29Z" transform="translate(-0.38 -1.22)"/><path class="cls-1" d="M367.12,96.7h1l.11,1.07h0a3.55,3.55,0,0,1,2.49-1.25c1.56,0,2.26,1,2.26,2.9v4.7h-1.25V99.58c0-1.38-.42-2-1.4-2a2.82,2.82,0,0,0-2,1.14v5.37h-1.26Z" transform="translate(-0.38 -1.22)"/><path class="cls-1" d="M374.94,100.42c0-2.41,1.52-3.9,3.21-3.9a3,3,0,0,1,2.08.86l-.06-1.27V93.25h1.26v10.87h-1l-.1-.88h0A3.29,3.29,0,0,1,378,104.3C376.14,104.3,374.94,102.89,374.94,100.42Zm5.23,1.81V98.35a2.59,2.59,0,0,0-1.81-.78c-1.18,0-2.12,1.15-2.12,2.84s.73,2.84,2,2.84A2.55,2.55,0,0,0,380.17,102.23Z" transform="translate(-0.38 -1.22)"/><path class="cls-1" d="M383.26,106.44a13.19,13.19,0,0,0,0-13.13L384,93a12.9,12.9,0,0,1,0,13.86Z" transform="translate(-0.38 -1.22)"/><path class="cls-1" d="M1.72,124.66h3.4c2.07,0,3.67.57,3.67,2.46a2.29,2.29,0,0,1-1.31,2.15v.06a2.28,2.28,0,0,1,1.8,2.34c0,2-1.71,2.93-3.88,2.93H1.72Zm3.3,4c1.09,0,1.57-.46,1.57-1.18s-.51-1.07-1.56-1.07H4v2.25Zm.2,4.23c1.23,0,1.86-.44,1.86-1.34s-.62-1.23-1.86-1.23H4v2.57Z" transform="translate(-0.38 -1.22)"/><path class="cls-1" d="M10.41,132.5c0-1.59,1.27-2.45,4.26-2.77a1,1,0,0,0-1.19-1.09,4.15,4.15,0,0,0-2,.68l-.79-1.47a6.15,6.15,0,0,1,3.23-1c1.94,0,3,1.11,3,3.43v4.32H15.09l-.16-.77h-.06a3.33,3.33,0,0,1-2.2,1A2.19,2.19,0,0,1,10.41,132.5Zm4.26-.1v-1.32c-1.59.22-2.11.67-2.11,1.25s.33.72.87.72A1.67,1.67,0,0,0,14.67,132.4Z" transform="translate(-0.38 -1.22)"/><path class="cls-1" d="M18.13,133.73l1-1.4a3.29,3.29,0,0,0,1.95.8c.67,0,1-.26,1-.65s-.75-.73-1.53-1-2-1-2-2.23c0-1.41,1.14-2.37,2.89-2.37a4.33,4.33,0,0,1,2.67,1l-1,1.35a2.77,2.77,0,0,0-1.59-.65c-.58,0-.87.23-.87.6s.71.67,1.5,1c1,.35,2,.89,2,2.28s-1.08,2.44-3.11,2.44A5,5,0,0,1,18.13,133.73Z" transform="translate(-0.38 -1.22)"/><path class="cls-1" d="M25.12,130.82a3.72,3.72,0,0,1,3.57-4c2.15,0,3.22,1.57,3.22,3.63a5.29,5.29,0,0,1-.09,1H27.29a1.83,1.83,0,0,0,2,1.61,3.17,3.17,0,0,0,1.64-.5l.74,1.35a4.9,4.9,0,0,1-2.68.86A3.69,3.69,0,0,1,25.12,130.82ZM30,130c0-.83-.37-1.43-1.26-1.43A1.5,1.5,0,0,0,27.27,130Z" transform="translate(-0.38 -1.22)"/><path class="cls-1" d="M38.55,124.66h2.69l3.12,9.94H42l-1.3-5c-.28-1-.54-2.17-.81-3.21h-.06c-.24,1-.5,2.21-.78,3.21l-1.31,5h-2.3Zm-1.07,5.83h4.79v1.74H37.48Z" transform="translate(-0.38 -1.22)"/><path class="cls-1" d="M45.13,132.25v-8.34h2.24v8.43c0,.48.23.64.41.64a1,1,0,0,0,.27,0l.27,1.65a2.81,2.81,0,0,1-1.13.19C45.66,134.79,45.13,133.78,45.13,132.25Z" transform="translate(-0.38 -1.22)"/><path class="cls-1" d="M49.49,132.25v-8.34h2.25v8.43c0,.48.22.64.4.64a1,1,0,0,0,.28,0l.26,1.65a2.76,2.76,0,0,1-1.12.19C50,134.79,49.49,133.78,49.49,132.25Z" transform="translate(-0.38 -1.22)"/><path class="cls-1" d="M53.42,130.82a3.7,3.7,0,1,1,3.68,4A3.71,3.71,0,0,1,53.42,130.82Zm5.07,0c0-1.31-.46-2.16-1.39-2.16s-1.39.85-1.39,2.16S56.18,133,57.1,133,58.49,132.13,58.49,130.82Z" transform="translate(-0.38 -1.22)"/><path class="cls-1" d="M61.88,130.82a3.82,3.82,0,0,1,3.95-4,3.25,3.25,0,0,1,2.21.82L67,129.11a1.53,1.53,0,0,0-1-.45c-1.07,0-1.77.85-1.77,2.16s.72,2.16,1.7,2.16a2.26,2.26,0,0,0,1.36-.56l.88,1.47a3.76,3.76,0,0,1-2.49.9A3.65,3.65,0,0,1,61.88,130.82Z" transform="translate(-0.38 -1.22)"/><path class="cls-1" d="M69,132.5c0-1.59,1.27-2.45,4.26-2.77a1.05,1.05,0,0,0-1.2-1.09,4.11,4.11,0,0,0-2,.68l-.8-1.47a6.16,6.16,0,0,1,3.24-1c1.93,0,3,1.11,3,3.43v4.32H73.62l-.16-.77h0a3.35,3.35,0,0,1-2.21,1A2.18,2.18,0,0,1,69,132.5Zm4.26-.1v-1.32c-1.6.22-2.12.67-2.12,1.25s.34.72.87.72A1.7,1.7,0,0,0,73.21,132.4Z" transform="translate(-0.38 -1.22)"/><path class="cls-1" d="M77.36,131.85v-3.06h-1v-1.67l1.16-.09.26-2h1.86v2h1.81v1.76H79.61v3c0,.86.39,1.21,1,1.21a2.05,2.05,0,0,0,.72-.15l.35,1.63a5.24,5.24,0,0,1-1.68.28C78.11,134.79,77.36,133.61,77.36,131.85Z" transform="translate(-0.38 -1.22)"/><path class="cls-1" d="M82.73,124.75a1.31,1.31,0,1,1,1.3,1.18A1.2,1.2,0,0,1,82.73,124.75ZM82.9,127h2.25v7.57H82.9Z" transform="translate(-0.38 -1.22)"/><path class="cls-1" d="M86.67,130.82a3.7,3.7,0,1,1,3.69,4A3.72,3.72,0,0,1,86.67,130.82Zm5.08,0c0-1.31-.46-2.16-1.39-2.16s-1.39.85-1.39,2.16.46,2.16,1.39,2.16S91.75,132.13,91.75,130.82Z" transform="translate(-0.38 -1.22)"/><path class="cls-1" d="M95.58,127h1.83l.16,1h.06a3.46,3.46,0,0,1,2.43-1.14c1.65,0,2.35,1.16,2.35,3.05v4.7h-2.24v-4.41c0-1.09-.3-1.43-1-1.43a1.92,1.92,0,0,0-1.4.74v5.1H95.58Z" transform="translate(-0.38 -1.22)"/><path class="cls-1" d="M132,128.43a1.36,1.36,0,1,1,1.35,1.41A1.35,1.35,0,0,1,132,128.43Zm0,4.95a1.36,1.36,0,1,1,1.35,1.41A1.36,1.36,0,0,1,132,133.38Z" transform="translate(-0.38 -1.22)"/><path class="cls-2" d="M139.87,133.56h2.23v-7.17h-1.77v-.8a6.09,6.09,0,0,0,2.07-.72h1v8.69h2v1h-5.5Z" transform="translate(-0.38 -1.22)"/><path class="cls-2" d="M148.89,130.73l-2.24-3.54H148l1,1.62c.23.41.48.83.73,1.24h.06c.22-.41.44-.83.67-1.24l.9-1.62h1.31l-2.24,3.67,2.42,3.74h-1.36l-1.09-1.72c-.26-.45-.53-.9-.81-1.33h-.06c-.25.43-.49.88-.75,1.33l-1,1.72h-1.3Z" transform="translate(-0.38 -1.22)"/><path class="cls-1" d="M156.73,127.46h6.55v.94h-6.55Zm0,3.27h6.55v1h-6.55Z" transform="translate(-0.38 -1.22)"/><path class="cls-2" d="M167.64,133.6l.58-.87a3.65,3.65,0,0,0,2.36,1,1.49,1.49,0,0,0,1.71-1.57c0-2.47-4.27-1.93-4.27-4.9a2.53,2.53,0,0,1,2.73-2.58,3.27,3.27,0,0,1,2.56,1.17l-.67.74a2.42,2.42,0,0,0-1.85-.87,1.42,1.42,0,0,0-1.54,1.47c0,2.22,4.27,1.61,4.27,4.89a2.66,2.66,0,0,1-2.94,2.7A4.55,4.55,0,0,1,167.64,133.6Zm2.6-10.41h.91v2h-.91Zm0,11.15h.91v1.94h-.91Z" transform="translate(-0.38 -1.22)"/><path class="cls-2" d="M175.63,133.56h2.23v-7.17h-1.78v-.8a6.07,6.07,0,0,0,2.08-.72h1v8.69h2v1h-5.49Z" transform="translate(-0.38 -1.22)"/><path class="cls-2" d="M182.63,132.11a3.05,3.05,0,0,1,1.84-2.61v-.07a2.75,2.75,0,0,1-1.36-2.25,2.76,2.76,0,0,1,5.51.1,3.17,3.17,0,0,1-1.35,2.34v.07a2.82,2.82,0,0,1,1.69,2.5c0,1.46-1.25,2.6-3.13,2.6S182.63,133.66,182.63,132.11Zm5.13,0c0-1.26-1.23-1.71-2.63-2.27a2.61,2.61,0,0,0-1.36,2.12,1.92,1.92,0,0,0,2.08,1.85A1.72,1.72,0,0,0,187.76,132.15Zm-.23-4.81a1.62,1.62,0,0,0-1.69-1.72,1.5,1.5,0,0,0-1.58,1.56c0,1.17,1.08,1.66,2.25,2.12A2.63,2.63,0,0,0,187.53,127.34Z" transform="translate(-0.38 -1.22)"/><path class="cls-2" d="M190.27,129.7c0-3.26,1.17-5,3.11-5s3.12,1.75,3.12,5-1.17,5.09-3.12,5.09S190.27,133,190.27,129.7Zm5,0c0-2.85-.77-4-1.91-4s-1.9,1.15-1.9,4,.77,4.08,1.9,4.08S195.29,132.55,195.29,129.7Z" transform="translate(-0.38 -1.22)"/><path class="cls-2" d="M198.17,133.84a.91.91,0,1,1,.91.95A.92.92,0,0,1,198.17,133.84Z" transform="translate(-0.38 -1.22)"/><path class="cls-2" d="M201.76,133.76l.7-.79a2.12,2.12,0,0,0,1.6.77c1.4,0,2.57-1.11,2.57-4.37,0-2.39-.78-3.69-2.17-3.69-1,0-1.7.85-1.7,2.13s.6,2.07,1.8,2.07a2.67,2.67,0,0,0,2.1-1.38l0,1a3.1,3.1,0,0,1-2.35,1.33c-1.68,0-2.77-1-2.77-3a2.93,2.93,0,0,1,2.87-3.12c1.92,0,3.36,1.55,3.36,4.68,0,3.91-1.77,5.42-3.71,5.42A3.08,3.08,0,0,1,201.76,133.76Z" transform="translate(-0.38 -1.22)"/><path class="cls-2" d="M209.18,132.11A3.06,3.06,0,0,1,211,129.5v-.07a2.74,2.74,0,0,1-1.35-2.25,2.76,2.76,0,0,1,5.5.1,3.16,3.16,0,0,1-1.34,2.34v.07a2.82,2.82,0,0,1,1.69,2.5c0,1.46-1.26,2.6-3.13,2.6S209.18,133.66,209.18,132.11Zm5.13,0c0-1.26-1.23-1.71-2.64-2.27a2.61,2.61,0,0,0-1.36,2.12,1.93,1.93,0,0,0,2.09,1.85A1.72,1.72,0,0,0,214.31,132.15Zm-.23-4.81a1.62,1.62,0,0,0-1.69-1.72,1.5,1.5,0,0,0-1.58,1.56c0,1.17,1.07,1.66,2.24,2.12A2.65,2.65,0,0,0,214.08,127.34Z" transform="translate(-0.38 -1.22)"/><path class="cls-1" d="M220.44,130.36a12.78,12.78,0,0,1,2-6.93l.78.36a13.21,13.21,0,0,0,0,13.14l-.78.36A12.75,12.75,0,0,1,220.44,130.36Z" transform="translate(-0.38 -1.22)"/><path class="cls-1" d="M224.6,132.68c0-1.62,1.4-2.43,4.56-2.77,0-.95-.32-1.87-1.53-1.87a4.06,4.06,0,0,0-2.21.79l-.5-.86a5.47,5.47,0,0,1,2.92-1c1.81,0,2.57,1.21,2.57,3.05v4.55h-1l-.11-.88h0a4,4,0,0,1-2.45,1.07A2,2,0,0,1,224.6,132.68Zm4.56.11v-2.06c-2.49.3-3.33.91-3.33,1.86a1.14,1.14,0,0,0,1.3,1.19A3,3,0,0,0,229.16,132.79Z" transform="translate(-0.38 -1.22)"/><path class="cls-1" d="M232.75,127.19h1l.1.85h.05a3.93,3.93,0,0,1,2.36-1c1.92,0,2.94,1.49,2.94,3.78,0,2.53-1.52,4-3.21,4a3.41,3.41,0,0,1-2.06-.86l0,1.29v2.51h-1.26Zm5.19,3.6c0-1.63-.56-2.73-1.95-2.73a3.07,3.07,0,0,0-2,1V133a2.9,2.9,0,0,0,1.8.77C237,133.73,237.94,132.62,237.94,130.79Z" transform="translate(-0.38 -1.22)"/><path class="cls-1" d="M241.22,127.19h1l.11.85h0a4,4,0,0,1,2.37-1c1.91,0,2.94,1.49,2.94,3.78,0,2.53-1.52,4-3.21,4a3.41,3.41,0,0,1-2.06-.86l0,1.29v2.51h-1.25Zm5.19,3.6c0-1.63-.56-2.73-1.95-2.73a3.09,3.09,0,0,0-2,1V133a2.92,2.92,0,0,0,1.81.77C245.51,133.73,246.41,132.62,246.41,130.79Z" transform="translate(-0.38 -1.22)"/><path class="cls-1" d="M249.68,127.19h1l.11,1.35h0A2.55,2.55,0,0,1,253,127a1.59,1.59,0,0,1,.79.16l-.23,1.1a2.14,2.14,0,0,0-.72-.13c-.63,0-1.38.46-1.88,1.71v4.76h-1.26Z" transform="translate(-0.38 -1.22)"/><path class="cls-1" d="M254.27,130.9c0-2.47,1.62-3.9,3.44-3.9s3.44,1.43,3.44,3.9-1.62,3.89-3.44,3.89S254.27,133.36,254.27,130.9Zm5.58,0c0-1.69-.86-2.85-2.14-2.85s-2.14,1.16-2.14,2.85.87,2.84,2.14,2.84S259.85,132.6,259.85,130.9Z" transform="translate(-0.38 -1.22)"/><path class="cls-1" d="M264.22,130.73,262,127.19h1.36l1,1.62c.23.41.48.83.73,1.24h.06c.22-.41.44-.83.67-1.24l.9-1.62H268l-2.24,3.67,2.42,3.74h-1.36l-1.09-1.72c-.26-.45-.53-.9-.81-1.33h-.06c-.25.43-.49.88-.75,1.33l-1,1.72h-1.3Z" transform="translate(-0.38 -1.22)"/><path class="cls-1" d="M269,136.93a13.21,13.21,0,0,0,0-13.14l.78-.36a13,13,0,0,1,0,13.86Z" transform="translate(-0.38 -1.22)"/><line class="cls-3" y1="22.45" x2="592.74" y2="22.45"/><line class="cls-3" y1="51.45" x2="592.74" y2="51.45"/><line class="cls-3" y1="82.45" x2="592.74" y2="82.45"/><line class="cls-3" y1="112.45" x2="592.74" y2="112.45"/></g></g></svg>