<svg xmlns="http://www.w3.org/2000/svg" viewBox="0 0 20.95 7.84"><defs><style>.cls-1{fill:#79fb53;}</style></defs><g id="Layer_2" data-name="Layer 2"><g id="Layer_1-2" data-name="Layer 1"><path class="cls-1" d="M1,2.12H2.57L4,6c.17.5.33,1,.5,1.54h0C4.68,7,4.83,6.45,5,6L6.36,2.12H7.94V10H6.66V6.37c0-.72.11-1.77.18-2.49h0L6.15,5.7,4.87,9.22H4L2.74,5.7,2.12,3.88H2.07c.07.72.18,1.77.18,2.49V10H1Z" transform="translate(-1 -2.12)"/><path class="cls-1" d="M11.47,2.12H13.1L15.66,10H14.19L13,5.79c-.25-.83-.48-1.73-.71-2.59h0c-.22.87-.45,1.76-.7,2.59L10.34,10H8.92Zm-1,4.62h3.69V7.83H10.43Z" transform="translate(-1 -2.12)"/><path class="cls-1" d="M18,5.92l-2.09-3.8h1.55l.87,1.74c.19.36.35.72.59,1.2H19c.19-.48.35-.84.52-1.2l.83-1.74h1.48L19.73,6,22,10H20.41l-1-1.85c-.2-.4-.4-.8-.63-1.28h-.05c-.21.48-.39.88-.58,1.28L17.26,10H15.78Z" transform="translate(-1 -2.12)"/></g></g></svg>