<svg xmlns="http://www.w3.org/2000/svg" viewBox="0 0 138.4 8.65"><defs><style>.cls-1{fill:#fff;}</style></defs><g id="Layer_2" data-name="Layer 2"><g id="Layer_1-2" data-name="Layer 1"><path class="cls-1" d="M2,2V10h-1V2Z" transform="translate(-0.91 -1.53)"/><path class="cls-1" d="M3.78,2.07A14.54,14.54,0,0,1,6,1.9a4.62,4.62,0,0,1,3.27,1,3.68,3.68,0,0,1,1.15,2.9A4.31,4.31,0,0,1,9.25,9a5,5,0,0,1-3.57,1.17A17,17,0,0,1,3.78,10Zm1,7.15a6.65,6.65,0,0,0,1.06,0A3.1,3.1,0,0,0,9.32,5.84c0-1.9-1.07-3.11-3.27-3.11a6,6,0,0,0-1.23.11Z" transform="translate(-0.91 -1.53)"/><path class="cls-1" d="M18.68,5.92c0,2.77-1.69,4.26-3.75,4.26S11.3,8.52,11.3,6.07,12.88,1.83,15,1.83,18.68,3.52,18.68,5.92Zm-6.28.13c0,1.73.94,3.28,2.59,3.28S17.58,7.8,17.58,6c0-1.61-.84-3.29-2.58-3.29S12.4,4.28,12.4,6.05Z" transform="translate(-0.91 -1.53)"/><path class="cls-1" d="M25.77,10l-.1-.73h0a2.16,2.16,0,0,1-1.77.87A1.65,1.65,0,0,1,22.1,8.51c0-1.4,1.24-2.18,3.48-2.16V6.23a1.19,1.19,0,0,0-1.32-1.34,2.84,2.84,0,0,0-1.51.43l-.24-.7a3.63,3.63,0,0,1,1.91-.51c1.78,0,2.21,1.21,2.21,2.38V8.66A8.34,8.34,0,0,0,26.72,10Zm-.17-3c-1.14,0-2.45.18-2.45,1.3a.93.93,0,0,0,1,1,1.45,1.45,0,0,0,1.41-1,1,1,0,0,0,.05-.33Z" transform="translate(-0.91 -1.53)"/><path class="cls-1" d="M28.33,5.81c0-.6,0-1.09,0-1.57h.93l.06,1h0a2.12,2.12,0,0,1,1.91-1.09c.8,0,2.05.48,2.05,2.47V10H32.22V6.7c0-.94-.36-1.72-1.34-1.72a1.5,1.5,0,0,0-1.42,1.08,1.48,1.48,0,0,0-.08.49V10H28.33Z" transform="translate(-0.91 -1.53)"/><path class="cls-1" d="M40,1.53v7c0,.51,0,1.09,0,1.49h-.94l0-1h0a2.12,2.12,0,0,1-2,1.14c-1.41,0-2.49-1.19-2.49-2.95,0-1.94,1.2-3.12,2.61-3.12A1.94,1.94,0,0,1,38.93,5h0V1.53ZM39,6.6a2.35,2.35,0,0,0,0-.45,1.57,1.57,0,0,0-1.53-1.21c-1.09,0-1.75,1-1.75,2.23s.59,2.16,1.73,2.16A1.6,1.6,0,0,0,38.9,8.06,1.64,1.64,0,0,0,39,7.61Z" transform="translate(-0.91 -1.53)"/><path class="cls-1" d="M49.31,1.53v7c0,.51,0,1.09,0,1.49h-.94l-.05-1h0a2.12,2.12,0,0,1-2,1.14c-1.4,0-2.49-1.19-2.49-2.95,0-1.94,1.2-3.12,2.61-3.12A1.94,1.94,0,0,1,48.24,5h0V1.53ZM48.26,6.6a2.35,2.35,0,0,0,0-.45,1.57,1.57,0,0,0-1.53-1.21C45.6,4.94,45,5.9,45,7.17s.58,2.16,1.72,2.16a1.59,1.59,0,0,0,1.54-1.27,1.64,1.64,0,0,0,0-.45Z" transform="translate(-0.91 -1.53)"/><path class="cls-1" d="M52.25,2.6a.66.66,0,1,1-1.31,0A.64.64,0,0,1,51.6,2,.63.63,0,0,1,52.25,2.6ZM51.07,10V4.24h1V10Z" transform="translate(-0.91 -1.53)"/><path class="cls-1" d="M53.73,9a2.86,2.86,0,0,0,1.4.41c.77,0,1.13-.38,1.13-.86S56,7.75,55.18,7.46c-1-.38-1.54-1-1.54-1.65a1.79,1.79,0,0,1,2-1.7,2.77,2.77,0,0,1,1.42.36l-.26.77a2.27,2.27,0,0,0-1.19-.35c-.62,0-1,.36-1,.8s.34.69,1.1,1c1,.37,1.52.88,1.53,1.74,0,1-.8,1.75-2.17,1.75a3.3,3.3,0,0,1-1.63-.4Z" transform="translate(-0.91 -1.53)"/><path class="cls-1" d="M59.9,2.57V4.24h1.52V5H59.9V8.17c0,.72.21,1.13.8,1.13a1.87,1.87,0,0,0,.61-.08l0,.8a2.54,2.54,0,0,1-1,.15,1.45,1.45,0,0,1-1.13-.45,2.17,2.17,0,0,1-.41-1.51V5H58v-.8h.9V2.85Z" transform="translate(-0.91 -1.53)"/><path class="cls-1" d="M62.6,6.05c0-.68,0-1.27,0-1.81h.92l0,1.14h0a1.76,1.76,0,0,1,1.61-1.27,1.39,1.39,0,0,1,.3,0v1a1.94,1.94,0,0,0-.36,0A1.46,1.46,0,0,0,63.7,6.45a2.57,2.57,0,0,0-.05.5V10h-1Z" transform="translate(-0.91 -1.53)"/><path class="cls-1" d="M67.76,2.6a.64.64,0,0,1-.67.66.63.63,0,0,1-.64-.66.66.66,0,0,1,1.31,0ZM66.58,10V4.24h1V10Z" transform="translate(-0.91 -1.53)"/><path class="cls-1" d="M69.34,10c0-.39,0-1,0-1.49v-7h1.05V5.17h0a2.14,2.14,0,0,1,2-1.06c1.45,0,2.46,1.2,2.45,3,0,2.08-1.32,3.11-2.61,3.11a2.07,2.07,0,0,1-1.94-1.09h0l0,.95Zm1.09-2.32a1.58,1.58,0,0,0,0,.38,1.63,1.63,0,0,0,1.58,1.24c1.11,0,1.76-.9,1.76-2.23,0-1.17-.6-2.17-1.73-2.17a1.68,1.68,0,0,0-1.6,1.3,1.87,1.87,0,0,0-.06.44Z" transform="translate(-0.91 -1.53)"/><path class="cls-1" d="M81.06,8.46c0,.6,0,1.12,0,1.58h-.93l-.06-.94h0a2.17,2.17,0,0,1-1.92,1.08c-.9,0-2-.51-2-2.55V4.24h1V7.45c0,1.1.34,1.86,1.29,1.86a1.55,1.55,0,0,0,1.4-1A1.74,1.74,0,0,0,80,7.8V4.24h1Z" transform="translate(-0.91 -1.53)"/><path class="cls-1" d="M84.09,2.57V4.24h1.52V5H84.09V8.17c0,.72.21,1.13.8,1.13a1.87,1.87,0,0,0,.61-.08l0,.8a2.48,2.48,0,0,1-.94.15,1.46,1.46,0,0,1-1.14-.45,2.22,2.22,0,0,1-.41-1.51V5h-.9v-.8h.9V2.85Z" transform="translate(-0.91 -1.53)"/><path class="cls-1" d="M88,2.6a.64.64,0,0,1-.67.66.63.63,0,0,1-.64-.66A.66.66,0,0,1,88,2.6ZM86.8,10V4.24h1V10Z" transform="translate(-0.91 -1.53)"/><path class="cls-1" d="M94.86,7.09A2.84,2.84,0,0,1,92,10.18a2.77,2.77,0,0,1-2.79-3,2.84,2.84,0,0,1,2.88-3.08A2.75,2.75,0,0,1,94.86,7.09Zm-4.6.07c0,1.27.72,2.23,1.75,2.23s1.77-1,1.77-2.27c0-1-.49-2.22-1.75-2.22S90.26,6.06,90.26,7.16Z" transform="translate(-0.91 -1.53)"/><path class="cls-1" d="M96.19,5.81c0-.6,0-1.09,0-1.57h.94l.06,1h0a2.15,2.15,0,0,1,1.92-1.09c.8,0,2,.48,2,2.47V10h-1V6.7c0-.94-.36-1.72-1.34-1.72a1.52,1.52,0,0,0-1.43,1.08,1.81,1.81,0,0,0-.07.49V10h-1Z" transform="translate(-0.91 -1.53)"/><path class="cls-1" d="M110.65,7.09a2.84,2.84,0,0,1-2.89,3.09,2.77,2.77,0,0,1-2.79-3,2.84,2.84,0,0,1,2.88-3.08A2.75,2.75,0,0,1,110.65,7.09Zm-4.6.07c0,1.27.73,2.23,1.76,2.23s1.76-1,1.76-2.27c0-1-.49-2.22-1.75-2.22S106.05,6.06,106.05,7.16Z" transform="translate(-0.91 -1.53)"/><path class="cls-1" d="M112,5.81c0-.6,0-1.09,0-1.57h.93l.06,1h0a2.12,2.12,0,0,1,1.91-1.09c.8,0,2,.48,2,2.47V10h-1V6.7c0-.94-.35-1.72-1.34-1.72a1.52,1.52,0,0,0-1.42,1.08,1.48,1.48,0,0,0-.08.49V10h-1Z" transform="translate(-0.91 -1.53)"/><path class="cls-1" d="M121.22,2.07a9.84,9.84,0,0,1,1.91-.17,3.41,3.41,0,0,1,2.22.58A1.75,1.75,0,0,1,126,3.92a1.92,1.92,0,0,1-1.37,1.77v0a2.07,2.07,0,0,1,1.67,2,2.12,2.12,0,0,1-.69,1.61,4,4,0,0,1-2.79.76c-.72,0-1.27-.06-1.62-.09Zm1,3.31h1C124.31,5.38,125,4.8,125,4c0-.94-.71-1.32-1.77-1.32a4.12,4.12,0,0,0-.93.08Zm0,3.87a5.2,5.2,0,0,0,.88.05c1.09,0,2.08-.39,2.08-1.57s-1-1.56-2.09-1.56h-.87Z" transform="translate(-0.91 -1.53)"/><path class="cls-1" d="M127.59,8.77a3.67,3.67,0,0,0,1.86.53c1.07,0,1.7-.56,1.7-1.38s-.44-1.19-1.53-1.6c-1.32-.47-2.14-1.16-2.14-2.29a2.34,2.34,0,0,1,2.62-2.2,3.63,3.63,0,0,1,1.79.4l-.29.85a3.12,3.12,0,0,0-1.53-.38c-1.11,0-1.53.66-1.53,1.21,0,.75.49,1.12,1.61,1.55,1.37.54,2.06,1.19,2.06,2.38s-.92,2.33-2.83,2.33a4.2,4.2,0,0,1-2.07-.53Z" transform="translate(-0.91 -1.53)"/><path class="cls-1" d="M139.29,9.78a5.18,5.18,0,0,1-2.14.39,3.77,3.77,0,0,1-4-4.09,4,4,0,0,1,4.22-4.25,4.44,4.44,0,0,1,1.92.36l-.26.85a3.82,3.82,0,0,0-1.63-.33A3,3,0,0,0,134.27,6a2.93,2.93,0,0,0,3.1,3.24A4.27,4.27,0,0,0,139.08,9Z" transform="translate(-0.91 -1.53)"/></g></g></svg>