<svg xmlns="http://www.w3.org/2000/svg" viewBox="0 0 51.43 10.6"><defs><style>.cls-1{fill:#79fb53;}</style></defs><g id="Layer_2" data-name="Layer 2"><g id="Layer_1-2" data-name="Layer 1"><path class="cls-1" d="M2.06,2.6a.65.65,0,0,1-.68.66A.63.63,0,0,1,.75,2.6.64.64,0,0,1,1.4,2,.64.64,0,0,1,2.06,2.6ZM.88,10V4.24h1V10Z" transform="translate(-0.75 -1.95)"/><path class="cls-1" d="M3.68,5.81c0-.6,0-1.09,0-1.57h.93l.06,1h0A2.12,2.12,0,0,1,6.57,4.11c.8,0,2,.48,2,2.47V10h-1V6.7C7.57,5.76,7.22,5,6.23,5A1.52,1.52,0,0,0,4.81,6.06a1.48,1.48,0,0,0-.08.49V10H3.68Z" transform="translate(-0.75 -1.95)"/><path class="cls-1" d="M10.34,6.13c0-.74,0-1.34-.05-1.89h1l.06,1h0a2.28,2.28,0,0,1,2.06-1.12c1.4,0,2.46,1.18,2.46,2.94,0,2.1-1.28,3.13-2.64,3.13a2,2,0,0,1-1.78-.92h0v3.16H10.34Zm1.05,1.55a2,2,0,0,0,0,.43A1.62,1.62,0,0,0,13,9.35c1.12,0,1.77-.92,1.77-2.25C14.78,6,14.17,5,13.05,5a1.68,1.68,0,0,0-1.59,1.3,1.61,1.61,0,0,0-.07.43Z" transform="translate(-0.75 -1.95)"/><path class="cls-1" d="M17.17,6.05c0-.68,0-1.27-.05-1.81h.93l0,1.14h0a1.78,1.78,0,0,1,1.62-1.27,1.29,1.29,0,0,1,.29,0v1a1.79,1.79,0,0,0-.36,0,1.48,1.48,0,0,0-1.41,1.35,3.75,3.75,0,0,0,0,.5V10h-1Z" transform="translate(-0.75 -1.95)"/><path class="cls-1" d="M26.23,7.09a2.84,2.84,0,0,1-2.89,3.09,2.77,2.77,0,0,1-2.79-3,2.84,2.84,0,0,1,2.88-3.08A2.75,2.75,0,0,1,26.23,7.09Zm-4.6.07c0,1.27.73,2.23,1.76,2.23s1.76-1,1.76-2.27c0-1-.49-2.22-1.74-2.22S21.63,6.06,21.63,7.16Z" transform="translate(-0.75 -1.95)"/><path class="cls-1" d="M32.58,4.24c0,.41,0,.88,0,1.59V9.2a3.37,3.37,0,0,1-.82,2.65,3.12,3.12,0,0,1-2.12.7,3.66,3.66,0,0,1-1.93-.48l.26-.81a3.28,3.28,0,0,0,1.71.47c1.07,0,1.87-.57,1.87-2V9.05h0a2.07,2.07,0,0,1-1.84,1,2.59,2.59,0,0,1-2.47-2.83,2.77,2.77,0,0,1,2.61-3.08,1.92,1.92,0,0,1,1.81,1h0l0-.87Zm-1.1,2.29a1.82,1.82,0,0,0-.05-.48,1.54,1.54,0,0,0-1.49-1.12c-1,0-1.72.85-1.72,2.2,0,1.13.58,2.09,1.71,2.09A1.53,1.53,0,0,0,31.4,8.13a1.77,1.77,0,0,0,.08-.56Z" transform="translate(-0.75 -1.95)"/><path class="cls-1" d="M34.21,6.05c0-.68,0-1.27-.05-1.81h.93l0,1.14h0a1.78,1.78,0,0,1,1.62-1.27,1.29,1.29,0,0,1,.29,0v1a1.79,1.79,0,0,0-.36,0A1.48,1.48,0,0,0,35.3,6.45a3.75,3.75,0,0,0,0,.5V10h-1Z" transform="translate(-0.75 -1.95)"/><path class="cls-1" d="M38.61,7.33a1.85,1.85,0,0,0,2,2,3.92,3.92,0,0,0,1.61-.3l.18.75a4.63,4.63,0,0,1-1.93.37,2.71,2.71,0,0,1-2.86-2.93c0-1.76,1-3.13,2.73-3.13a2.44,2.44,0,0,1,2.39,2.73,2,2,0,0,1,0,.49Zm3.08-.75a1.49,1.49,0,0,0-1.45-1.71,1.73,1.73,0,0,0-1.62,1.71Z" transform="translate(-0.75 -1.95)"/><path class="cls-1" d="M43.88,9a2.86,2.86,0,0,0,1.4.41c.77,0,1.12-.38,1.12-.86s-.3-.77-1.07-1.06c-1-.38-1.55-1-1.54-1.65a1.79,1.79,0,0,1,2-1.7,2.77,2.77,0,0,1,1.42.36L47,5.24a2.27,2.27,0,0,0-1.19-.35c-.62,0-1,.36-1,.8s.34.69,1.1,1c1,.37,1.52.88,1.52,1.74,0,1-.8,1.75-2.17,1.75a3.33,3.33,0,0,1-1.63-.4Z" transform="translate(-0.75 -1.95)"/><path class="cls-1" d="M48.63,9a2.86,2.86,0,0,0,1.4.41c.77,0,1.13-.38,1.13-.86s-.31-.77-1.08-1.06c-1-.38-1.55-1-1.54-1.65a1.79,1.79,0,0,1,2-1.7A2.77,2.77,0,0,1,52,4.47l-.26.77a2.27,2.27,0,0,0-1.19-.35c-.62,0-1,.36-1,.8s.34.69,1.1,1c1,.37,1.52.88,1.52,1.74,0,1-.79,1.75-2.16,1.75a3.27,3.27,0,0,1-1.63-.4Z" transform="translate(-0.75 -1.95)"/></g></g></svg>