<svg xmlns="http://www.w3.org/2000/svg" viewBox="0 0 29.95 8.34"><defs><style>.cls-1{fill:#fff;}</style></defs><g id="Layer_2" data-name="Layer 2"><g id="Layer_1-2" data-name="Layer 1"><path class="cls-1" d="M.77,8.77a3.68,3.68,0,0,0,1.87.53c1.07,0,1.69-.56,1.69-1.38S3.9,6.73,2.81,6.32C1.49,5.85.67,5.16.67,4a2.33,2.33,0,0,1,2.62-2.2,3.67,3.67,0,0,1,1.78.4l-.29.85A3.12,3.12,0,0,0,3.25,2.7c-1.11,0-1.53.66-1.53,1.21,0,.75.5,1.12,1.61,1.55C4.7,6,5.39,6.65,5.39,7.84s-.91,2.33-2.83,2.33A4.13,4.13,0,0,1,.5,9.64Z" transform="translate(-0.5 -1.83)"/><path class="cls-1" d="M8,2.57V4.24H9.54V5H8V8.17c0,.72.21,1.13.8,1.13a1.83,1.83,0,0,0,.61-.08l.05.81a2.69,2.69,0,0,1-.94.14A1.46,1.46,0,0,1,7.4,9.72,2.22,2.22,0,0,1,7,8.21V5h-.9v-.8H7V2.85Z" transform="translate(-0.5 -1.83)"/><path class="cls-1" d="M14,10l-.1-.73h0a2.14,2.14,0,0,1-1.77.87,1.66,1.66,0,0,1-1.77-1.67c0-1.4,1.24-2.17,3.48-2.16V6.23a1.19,1.19,0,0,0-1.32-1.34,2.84,2.84,0,0,0-1.51.43l-.24-.7a3.63,3.63,0,0,1,1.91-.51c1.78,0,2.21,1.21,2.21,2.38V8.66A8.34,8.34,0,0,0,14.9,10Zm-.17-3c-1.14,0-2.45.18-2.45,1.3a.93.93,0,0,0,1,1,1.45,1.45,0,0,0,1.41-1,1,1,0,0,0,0-.33Z" transform="translate(-0.5 -1.83)"/><path class="cls-1" d="M17.73,2.57V4.24h1.52V5H17.73V8.17c0,.72.21,1.13.8,1.13a1.87,1.87,0,0,0,.61-.08l.05.81a2.73,2.73,0,0,1-.94.14,1.46,1.46,0,0,1-1.14-.45,2.22,2.22,0,0,1-.41-1.51V5h-.9v-.8h.9V2.85Z" transform="translate(-0.5 -1.83)"/><path class="cls-1" d="M25.29,8.46c0,.6,0,1.13.05,1.58H24.4l0-.94h0a2.18,2.18,0,0,1-1.92,1.08c-.91,0-2-.51-2-2.55V4.24h1.05V7.45c0,1.1.35,1.86,1.3,1.86a1.54,1.54,0,0,0,1.39-1,1.49,1.49,0,0,0,.1-.54V4.24h1.05Z" transform="translate(-0.5 -1.83)"/><path class="cls-1" d="M26.9,9a2.86,2.86,0,0,0,1.4.41c.77,0,1.13-.37,1.13-.86s-.31-.77-1.08-1.06c-1.05-.38-1.55-1-1.54-1.65a1.79,1.79,0,0,1,2-1.7,2.77,2.77,0,0,1,1.42.36L30,5.24a2.27,2.27,0,0,0-1.19-.35c-.62,0-1,.36-1,.8s.34.69,1.1,1c1,.37,1.52.88,1.52,1.74,0,1-.8,1.75-2.17,1.75a3.33,3.33,0,0,1-1.63-.4Z" transform="translate(-0.5 -1.83)"/></g></g></svg>