<svg xmlns="http://www.w3.org/2000/svg" viewBox="0 0 17.97 10.38"><defs><style>.cls-1{fill:#fff;}</style></defs><g id="Layer_2" data-name="Layer 2"><g id="Layer_1-2" data-name="Layer 1"><path class="cls-1" d="M1.08,2.09H3.41C5,2.09,6.12,2.63,6.12,4A1.73,1.73,0,0,1,5,5.73v0a1.82,1.82,0,0,1,1.6,1.89c0,1.55-1.22,2.3-3,2.3H1.08ZM3.24,5.44c1.34,0,1.9-.49,1.9-1.29S4.51,2.88,3.29,2.88H2.08V5.44Zm.21,3.73c1.34,0,2.14-.49,2.14-1.55S4.82,6.21,3.45,6.21H2.08v3Z" transform="translate(-1.08 -2.09)"/><path class="cls-1" d="M8,7.82V4.13H9V7.7c0,1.08.33,1.55,1.1,1.55.59,0,1-.3,1.56-1V4.13h1V10h-.81l-.08-.91h0a2.48,2.48,0,0,1-1.92,1C8.51,10.1,8,9.31,8,7.82Z" transform="translate(-1.08 -2.09)"/><path class="cls-1" d="M14,12.35l.2-.78a1.44,1.44,0,0,0,.44.08c.66,0,1.07-.52,1.31-1.25l.14-.43L13.73,4.13h1l1.18,3.23c.19.5.38,1.1.57,1.64h.05c.17-.53.33-1.13.49-1.64l1-3.23h1l-2.2,6.31c-.41,1.16-1,2-2.18,2A1.78,1.78,0,0,1,14,12.35Z" transform="translate(-1.08 -2.09)"/></g></g></svg>