<svg xmlns="http://www.w3.org/2000/svg" viewBox="0 0 28.58 8.22"><defs><style>.cls-1{fill:#fff;}</style></defs><g id="Layer_2" data-name="Layer 2"><g id="Layer_1-2" data-name="Layer 1"><path class="cls-1" d="M.53,10V9.4l.83-.8c2-1.9,2.9-2.91,2.9-4.09A1.38,1.38,0,0,0,2.73,3a2.66,2.66,0,0,0-1.66.66L.73,2.91a3.46,3.46,0,0,1,2.21-.79A2.19,2.19,0,0,1,5.32,4.38c0,1.45-1,2.61-2.69,4.18L2,9.15v0H5.51V10Z" transform="translate(-0.53 -1.9)"/><path class="cls-1" d="M9.61,2.07a9.81,9.81,0,0,1,1.9-.17,3.37,3.37,0,0,1,2.22.58,1.73,1.73,0,0,1,.68,1.44A1.92,1.92,0,0,1,13,5.69v0a2.07,2.07,0,0,1,1.67,2A2.12,2.12,0,0,1,14,9.36a4,4,0,0,1-2.79.76c-.72,0-1.27-.06-1.62-.09Zm1,3.31h1c1.09,0,1.74-.58,1.74-1.36,0-.94-.71-1.32-1.77-1.32a4.12,4.12,0,0,0-.93.08Zm0,3.87a5.2,5.2,0,0,0,.88.05c1.09,0,2.08-.39,2.08-1.57s-.95-1.56-2.09-1.56h-.87Z" transform="translate(-0.53 -1.9)"/><path class="cls-1" d="M16.11,10V2h1.15l2.59,4.09a22,22,0,0,1,1.44,2.63h0c-.1-1.08-.11-2.07-.11-3.32V2h1V10H21.13L18.56,6a27.56,27.56,0,0,1-1.51-2.71h0c.06,1,.08,2,.08,3.34V10Z" transform="translate(-0.53 -1.9)"/><path class="cls-1" d="M24,2.07a9.81,9.81,0,0,1,1.9-.17,3.37,3.37,0,0,1,2.22.58,1.73,1.73,0,0,1,.68,1.44,1.92,1.92,0,0,1-1.37,1.77v0a2.07,2.07,0,0,1,1.67,2,2.12,2.12,0,0,1-.69,1.61,4,4,0,0,1-2.79.76c-.72,0-1.27-.06-1.62-.09Zm1,3.31h1c1.09,0,1.74-.58,1.74-1.36C27.75,3.08,27,2.7,26,2.7a4.12,4.12,0,0,0-.93.08Zm0,3.87a5.13,5.13,0,0,0,.88.05C27,9.3,28,8.91,28,7.73s-1-1.56-2.09-1.56h-.87Z" transform="translate(-0.53 -1.9)"/></g></g></svg>