<svg xmlns="http://www.w3.org/2000/svg" viewBox="0 0 149.39 12.97"><defs><style>.cls-1{fill:#fff;}</style></defs><g id="Layer_2" data-name="Layer 2"><g id="Layer_1-2" data-name="Layer 1"><path class="cls-1" d="M3.12,4.6H.38V2.72H8.11V4.6H5.37v8.06H3.12Z" transform="translate(-0.38 -2.65)"/><path class="cls-1" d="M8.87,15.47l.4-1.71a2.1,2.1,0,0,0,.51.1,1.31,1.31,0,0,0,1.33-1l.11-.39L8.3,5.09h2.25l1.08,3.26c.22.69.4,1.4.6,2.14h.06c.17-.71.34-1.43.53-2.14l.92-3.26h2.15l-2.63,7.65c-.72,1.9-1.53,2.88-3.31,2.88A3.55,3.55,0,0,1,8.87,15.47Z" transform="translate(-0.38 -2.65)"/><path class="cls-1" d="M17.05,5.09h1.83l.16.75h.06a3.34,3.34,0,0,1,2.15-.93c1.84,0,3,1.51,3,3.85,0,2.6-1.55,4.08-3.19,4.08a2.61,2.61,0,0,1-1.8-.79l.07,1.2v2.22H17.05Zm4.86,3.69c0-1.36-.42-2-1.31-2a1.77,1.77,0,0,0-1.31.68v3.11A1.79,1.79,0,0,0,20.5,11C21.28,11,21.91,10.35,21.91,8.78Z" transform="translate(-0.38 -2.65)"/><path class="cls-1" d="M25.35,8.88a3.72,3.72,0,0,1,3.57-4c2.16,0,3.23,1.57,3.23,3.63a4.42,4.42,0,0,1-.1,1H27.53a1.83,1.83,0,0,0,2,1.61,3.2,3.2,0,0,0,1.64-.5L31.87,12a4.92,4.92,0,0,1-2.69.85A3.68,3.68,0,0,1,25.35,8.88Zm4.88-.83c0-.83-.36-1.43-1.26-1.43A1.5,1.5,0,0,0,27.5,8.05Z" transform="translate(-0.38 -2.65)"/><path class="cls-1" d="M98.81,6.49a1.36,1.36,0,1,1,2.71,0,1.36,1.36,0,1,1-2.71,0Zm0,4.95a1.36,1.36,0,1,1,1.36,1.4A1.36,1.36,0,0,1,98.81,11.44Z" transform="translate(-0.38 -2.65)"/><path class="cls-1" d="M106.87,2.65h3c2,0,3.45.69,3.45,2.45a2.19,2.19,0,0,1-1.46,2.17v.07a2.3,2.3,0,0,1,2,2.39c0,2-1.56,2.93-3.79,2.93h-3.2Zm2.76,4.26c1.7,0,2.41-.63,2.41-1.64,0-1.17-.8-1.61-2.35-1.61h-1.54V6.91Zm.26,4.74c1.71,0,2.72-.62,2.72-2s-1-1.79-2.72-1.79h-1.74v3.76Z" transform="translate(-0.38 -2.65)"/><path class="cls-1" d="M115.84,2.65h5.77V3.73h-4.49V6.86h3.79V7.94h-3.79v3.64h4.65v1.08h-5.93Z" transform="translate(-0.38 -2.65)"/><path class="cls-1" d="M123.88,2.65h2.86c2.25,0,3.76.75,3.76,2.95S129,8.69,126.8,8.69h-1.64v4h-1.28Zm2.76,5c1.75,0,2.59-.64,2.59-2.06s-.89-1.92-2.65-1.92h-1.42v4Z" transform="translate(-0.38 -2.65)"/><path class="cls-1" d="M131.28,8.35h3.5v1h-3.5Z" transform="translate(-0.38 -2.65)"/><path class="cls-1" d="M135.89,11.92c2.92-2.92,4.58-4.67,4.58-6.25a1.72,1.72,0,0,0-1.85-1.9,2.86,2.86,0,0,0-2.07,1.17l-.73-.71a3.83,3.83,0,0,1,3-1.48,2.7,2.7,0,0,1,2.92,2.86c0,1.83-1.68,3.64-4,6.06.53-.05,1.14-.09,1.64-.09h2.81v1.08h-6.28Z" transform="translate(-0.38 -2.65)"/><path class="cls-1" d="M143.54,7.76c0-3.26,1.17-5,3.12-5s3.11,1.75,3.11,5-1.17,5.08-3.11,5.08S143.54,11,143.54,7.76Zm5,0c0-2.85-.77-4-1.9-4s-1.91,1.15-1.91,4,.77,4.07,1.91,4.07S148.56,10.61,148.56,7.76Z" transform="translate(-0.38 -2.65)"/></g></g></svg>