<svg xmlns="http://www.w3.org/2000/svg" viewBox="0 0 22.36 8.06"><defs><style>.cls-1{fill:#71ee4f;}</style></defs><g id="Layer_2" data-name="Layer 2"><g id="Layer_1-2" data-name="Layer 1"><path class="cls-1" d="M3.76,10v-2H.23v-1L3.42,2.25H5.16V6.94h1V8.06h-1v2Zm0-3.1V4.82c0-.44,0-.89.05-1.35h0c-.25.49-.45.89-.69,1.32L1.65,6.92v0Z" transform="translate(-0.23 -2.12)"/><path class="cls-1" d="M11.9,3.47h-3L8.68,5a4.5,4.5,0,0,1,.56,0,3.43,3.43,0,0,1,1.89.5,2.23,2.23,0,0,1,1,2A2.85,2.85,0,0,1,9,10.18a4.49,4.49,0,0,1-2.07-.46L7.24,8.6A3.92,3.92,0,0,0,9,9a1.52,1.52,0,0,0,1.69-1.42c0-.89-.66-1.48-2.21-1.48a7.75,7.75,0,0,0-1.07.07l.51-3.93h4Z" transform="translate(-0.23 -2.12)"/><path class="cls-1" d="M17.22,4.43c0,1.64-1,2.48-2,2.48s-2-.84-2-2.35.84-2.44,2-2.44S17.22,3,17.22,4.43Zm-2.89.09c0,.89.31,1.56.89,1.56s.88-.63.88-1.58S15.86,3,15.22,3,14.33,3.64,14.33,4.52Zm.88,5.66,4.52-8.06h.84l-4.52,8.06ZM22.6,7.67c0,1.63-1,2.47-2,2.47s-2-.84-2-2.35.85-2.44,2-2.44S22.6,6.27,22.6,7.67Zm-2.9.08c0,.9.32,1.56.9,1.56s.87-.63.87-1.57-.24-1.56-.87-1.56S19.7,6.88,19.7,7.75Z" transform="translate(-0.23 -2.12)"/></g></g></svg>