<svg xmlns="http://www.w3.org/2000/svg" viewBox="0 0 11.77 11.77"><defs><style>.cls-1{fill:#79fb53;}</style></defs><g id="Layer_2" data-name="Layer 2"><g id="Layer_1-2" data-name="Layer 1"><path class="cls-1" d="M11.65,4.65a6.22,6.22,0,0,0-.92-2.11,5.77,5.77,0,0,0-1-1.1l-.36-.3h0C9.13,1,8.87.81,8.61.66A6.86,6.86,0,0,0,7.52.23L7.29.16A8.74,8.74,0,0,0,6.42,0a6.38,6.38,0,0,0-1.31,0A5.81,5.81,0,0,0,3.64.44a6,6,0,0,0-1,.52A6.26,6.26,0,0,0,2,1.45a5.93,5.93,0,0,0-.44.43L1.45,2h0c-.09.11-.19.22-.27.34A6,6,0,0,0,.31,4,6.08,6.08,0,0,0,0,5.67,6.47,6.47,0,0,0,.14,7.19a8,8,0,0,0,.27.87l.25.54h0L1,9.13a6.57,6.57,0,0,0,.5.65,6.72,6.72,0,0,0,.92.85l.15.1h0a6.21,6.21,0,0,0,1.22.65,6.68,6.68,0,0,0,.87.26,5.8,5.8,0,0,0,.92.12h.74a5.9,5.9,0,0,0,1.32-.24,5.91,5.91,0,0,0,2.16-1.21,6.17,6.17,0,0,0,1-1.15l0,0h0l0,0a5.75,5.75,0,0,0,.64-1.32c.09-.25.14-.5.21-.75s.07-.46.08-.7,0-.23,0-.35h0V5.7a7.5,7.5,0,0,0-.12-1ZM9.67,5,8.72,6l-1,1-1,1-1,1-.53.52a.5.5,0,0,1-.7,0L1.87,6.9a.48.48,0,0,1,0-.7l.7-.7a.5.5,0,0,1,.74,0L4.78,7s0,0,.09,0L8.25,3.6a.48.48,0,0,1,.68,0c.28.25.54.51.79.78a.44.44,0,0,1,.1.32A.45.45,0,0,1,9.67,5Z"/></g></g></svg>