<svg xmlns="http://www.w3.org/2000/svg" viewBox="0 0 117.28 13.83"><defs><style>.cls-1{fill:#fff;}</style></defs><g id="Layer_2" data-name="Layer 2"><g id="Layer_1-2" data-name="Layer 1"><path class="cls-1" d="M3.12,2.72H5.81l3.13,9.94H6.56l-1.3-5c-.28-1-.55-2.16-.81-3.2H4.39c-.24,1-.51,2.21-.79,3.2l-1.3,5H0ZM2.06,8.55H6.84v1.74H2.06Z" transform="translate(0 -1.79)"/><path class="cls-1" d="M9.39,8.88a3.81,3.81,0,0,1,3.94-4,3.29,3.29,0,0,1,2.21.81L14.48,7.17a1.5,1.5,0,0,0-1-.45c-1.08,0-1.77.85-1.77,2.16S12.41,11,13.38,11a2.31,2.31,0,0,0,1.37-.56l.87,1.46a3.76,3.76,0,0,1-2.49.9A3.64,3.64,0,0,1,9.39,8.88Z" transform="translate(0 -1.79)"/><path class="cls-1" d="M16.08,8.88a3.82,3.82,0,0,1,4-4,3.29,3.29,0,0,1,2.21.81L21.18,7.17a1.53,1.53,0,0,0-1-.45c-1.07,0-1.77.85-1.77,2.16S19.1,11,20.08,11a2.31,2.31,0,0,0,1.37-.56l.87,1.46a3.76,3.76,0,0,1-2.49.9A3.64,3.64,0,0,1,16.08,8.88Z" transform="translate(0 -1.79)"/><path class="cls-1" d="M22.78,8.88a3.72,3.72,0,0,1,3.57-4c2.16,0,3.23,1.57,3.23,3.63a4.42,4.42,0,0,1-.1,1H25a1.83,1.83,0,0,0,2,1.61,3.14,3.14,0,0,0,1.63-.5L29.3,12a4.92,4.92,0,0,1-2.69.85A3.68,3.68,0,0,1,22.78,8.88Zm4.88-.83c0-.83-.36-1.43-1.26-1.43a1.49,1.49,0,0,0-1.47,1.43Z" transform="translate(0 -1.79)"/><path class="cls-1" d="M30.45,11.79l1-1.4a3.29,3.29,0,0,0,2,.8c.66,0,.95-.26.95-.66s-.75-.72-1.53-1-2-1-2-2.22c0-1.41,1.14-2.37,2.89-2.37a4.3,4.3,0,0,1,2.67,1l-1,1.34a2.82,2.82,0,0,0-1.6-.64c-.58,0-.86.22-.86.6s.71.67,1.49.95c1,.36,2,.9,2,2.28s-1.08,2.44-3.11,2.44A5,5,0,0,1,30.45,11.79Z" transform="translate(0 -1.79)"/><path class="cls-1" d="M37.21,11.79l1-1.4a3.29,3.29,0,0,0,2,.8c.67,0,1-.26,1-.66s-.75-.72-1.53-1-2-1-2-2.22c0-1.41,1.14-2.37,2.89-2.37a4.33,4.33,0,0,1,2.67,1l-1,1.34a2.79,2.79,0,0,0-1.59-.64c-.58,0-.86.22-.86.6s.7.67,1.49.95c1,.36,2,.9,2,2.28s-1.08,2.44-3.11,2.44A5,5,0,0,1,37.21,11.79Z" transform="translate(0 -1.79)"/><path class="cls-1" d="M48,9.91V6.85H47V5.18l1.16-.09.26-2h1.86v2h1.81V6.85H50.24v3c0,.86.39,1.2,1,1.2a2.3,2.3,0,0,0,.72-.14l.35,1.63a5.28,5.28,0,0,1-1.68.27C48.74,12.84,48,11.66,48,9.91Z" transform="translate(0 -1.79)"/><path class="cls-1" d="M53.3,15.47l.4-1.71a2.1,2.1,0,0,0,.51.1,1.31,1.31,0,0,0,1.33-1l.11-.39L52.73,5.09H55l1.08,3.26c.23.69.4,1.4.6,2.14h.06c.17-.71.34-1.43.53-2.14l.92-3.26h2.15l-2.63,7.65c-.72,1.9-1.53,2.88-3.31,2.88A3.55,3.55,0,0,1,53.3,15.47Z" transform="translate(0 -1.79)"/><path class="cls-1" d="M61.48,5.09h1.83l.16.75h.06a3.34,3.34,0,0,1,2.16-.93c1.83,0,3,1.51,3,3.85,0,2.6-1.55,4.08-3.18,4.08a2.62,2.62,0,0,1-1.81-.79l.07,1.2v2.22H61.48Zm4.86,3.69c0-1.36-.42-2-1.31-2a1.77,1.77,0,0,0-1.31.68v3.11a1.79,1.79,0,0,0,1.21.48C65.71,11,66.34,10.35,66.34,8.78Z" transform="translate(0 -1.79)"/><path class="cls-1" d="M69.78,8.88a3.72,3.72,0,0,1,3.57-4c2.16,0,3.23,1.57,3.23,3.63a4.42,4.42,0,0,1-.1,1H72a1.83,1.83,0,0,0,2,1.61,3.2,3.2,0,0,0,1.64-.5L76.3,12a4.92,4.92,0,0,1-2.69.85A3.69,3.69,0,0,1,69.78,8.88Zm4.88-.83c0-.83-.36-1.43-1.26-1.43a1.5,1.5,0,0,0-1.47,1.43Z" transform="translate(0 -1.79)"/><path class="cls-1" d="M81.12,6.49a1.36,1.36,0,1,1,2.71,0,1.36,1.36,0,1,1-2.71,0Zm0,4.95a1.36,1.36,0,1,1,2.71,0,1.36,1.36,0,1,1-2.71,0Z" transform="translate(0 -1.79)"/><path class="cls-1" d="M89.07,11.17V1.79h1.25v9.47c0,.39.17.54.35.54a1.14,1.14,0,0,0,.28,0l.17,1a2.2,2.2,0,0,1-.73.11C89.46,12.84,89.07,12.25,89.07,11.17Z" transform="translate(0 -1.79)"/><path class="cls-1" d="M92.41,9c0-2.41,1.62-3.9,3.33-3.9,1.89,0,3,1.36,3,3.48a3.55,3.55,0,0,1-.06.71h-5a2.46,2.46,0,0,0,2.46,2.59A3.21,3.21,0,0,0,98,11.25l.45.83a4.4,4.4,0,0,1-2.45.76A3.54,3.54,0,0,1,92.41,9Zm5.18-.6c0-1.49-.67-2.3-1.83-2.3a2.27,2.27,0,0,0-2.12,2.3Z" transform="translate(0 -1.79)"/><path class="cls-1" d="M99.53,5.25h1.3l1.4,4.21c.22.72.46,1.48.68,2.19H103c.23-.71.47-1.47.69-2.19l1.4-4.21h1.23l-2.62,7.41h-1.46Z" transform="translate(0 -1.79)"/><path class="cls-1" d="M107.11,9c0-2.41,1.63-3.9,3.34-3.9,1.89,0,3,1.36,3,3.48a4.49,4.49,0,0,1-.06.71h-5a2.46,2.46,0,0,0,2.47,2.59,3.15,3.15,0,0,0,1.84-.59l.45.83a4.4,4.4,0,0,1-2.45.76A3.55,3.55,0,0,1,107.11,9Zm5.19-.6c0-1.49-.67-2.3-1.83-2.3a2.28,2.28,0,0,0-2.13,2.3Z" transform="translate(0 -1.79)"/><path class="cls-1" d="M115.23,11.17V1.79h1.26v9.47c0,.39.16.54.35.54a1.07,1.07,0,0,0,.27,0l.17,1a2.13,2.13,0,0,1-.72.11C115.62,12.84,115.23,12.25,115.23,11.17Z" transform="translate(0 -1.79)"/></g></g></svg>