<svg xmlns="http://www.w3.org/2000/svg" viewBox="0 0 28.17 8.22"><defs><style>.cls-1{fill:#bababa;}</style></defs><g id="Layer_2" data-name="Layer 2"><g id="Layer_1-2" data-name="Layer 1"><path class="cls-1" d="M5.72,6.07c0,2.64-1,4.11-2.71,4.11-1.52,0-2.55-1.43-2.58-4s1.13-4,2.71-4S5.72,3.58,5.72,6.07Zm-4.23.11c0,2,.63,3.18,1.58,3.18S4.66,8.1,4.66,6.11,4.18,2.94,3.08,2.94C2.16,2.94,1.49,4.06,1.49,6.18Z" transform="translate(-0.43 -1.96)"/><path class="cls-1" d="M14,10,13,8.26c-.42-.69-.68-1.13-.93-1.6h0c-.23.47-.47.9-.88,1.6L10.2,10H9L11.47,6,9.09,2H10.3l1.08,1.9c.29.52.52.93.74,1.37h0c.23-.48.44-.86.74-1.37L14,2h1.21L12.73,5.9,15.25,10Z" transform="translate(-0.43 -1.96)"/><path class="cls-1" d="M20.71,10l-1-1.78c-.42-.69-.67-1.13-.93-1.6h0c-.23.47-.46.9-.87,1.6l-1,1.78h-1.2L18.14,6,15.77,2H17l1.08,1.9c.3.52.52.93.75,1.37h0c.23-.48.44-.86.74-1.37L20.66,2h1.21L19.4,5.9,21.92,10Z" transform="translate(-0.43 -1.96)"/><path class="cls-1" d="M27.38,10l-1-1.78c-.43-.69-.68-1.13-.93-1.6h0c-.23.47-.46.9-.87,1.6l-1,1.78H22.34L24.82,6,22.44,2h1.2l1.08,1.9c.3.52.52.93.75,1.37h0c.23-.48.45-.86.74-1.37L27.33,2h1.21L26.07,5.9,28.6,10Z" transform="translate(-0.43 -1.96)"/></g></g></svg>