<svg xmlns="http://www.w3.org/2000/svg" viewBox="0 0 22.34 22.29"><defs><style>.cls-1{fill:#71ee4f;}</style></defs><g id="Layer_2" data-name="Layer 2"><g id="Layer_1-2" data-name="Layer 1"><path class="cls-1" d="M21.8,10.1a4.18,4.18,0,0,0-3-2.81,7.26,7.26,0,0,0-2.5-.22,4.84,4.84,0,0,0-3.46,1.76c-.16.19-.29.41-.45.63a.37.37,0,0,1,0-.26c0-.52,0-1,0-1.55,0-.21-.07-.25-.27-.25H8.13c-.2,0-.24.06-.24.25V22c0,.21.06.25.26.25h4.07c.23,0,.28-.06.28-.28q0-3.56,0-7.11A6.9,6.9,0,0,1,12.71,13a2.31,2.31,0,0,1,1.68-1.78,3.37,3.37,0,0,1,1.14-.09,2,2,0,0,1,1.9,1.44,6.19,6.19,0,0,1,.27,2c0,2.48,0,5,0,7.43,0,.2,0,.26.26.26h4.14c.22,0,.25-.07.25-.26,0-2.78,0-5.56,0-8.34A10.93,10.93,0,0,0,21.8,10.1Z"/><path class="cls-1" d="M.59,22.29H4.71c.22,0,.27-.05.27-.27,0-2.39,0-4.79,0-7.18s0-4.79,0-7.18c0-.21-.06-.26-.26-.26H.58c-.18,0-.22,0-.22.22V22.06C.36,22.25.41,22.29.59,22.29Z"/><path class="cls-1" d="M2.68,0A2.69,2.69,0,1,0,5.37,2.71,2.68,2.68,0,0,0,2.68,0Z"/></g></g></svg>