<svg xmlns="http://www.w3.org/2000/svg" viewBox="0 0 4.84 7.07"><defs><style>.cls-1{fill:#fff;}</style></defs><g id="Layer_2" data-name="Layer 2"><g id="Layer_1-2" data-name="Layer 1"><path class="cls-1" d="M4.84,5.4v-2a1.45,1.45,0,0,0,0-.36.76.76,0,0,0-.16-.34.8.8,0,0,0-.29-.22,2.4,2.4,0,0,0-1.19-.13h-.7c-.21,0-.42,0-.63,0H1.4s0,0-.06,0a1.49,1.49,0,0,0,0-.21,1.57,1.57,0,0,1,0-.23.58.58,0,0,1,0-.14,1.24,1.24,0,0,1,.12-.32,1,1,0,0,1,.27-.38A.75.75,0,0,1,2.1.91.81.81,0,0,1,2.87,1a1.06,1.06,0,0,1,.42.47l.25,0,.54,0A2.92,2.92,0,0,0,3.77.77a2.32,2.32,0,0,0-.49-.5L3,.12A1.42,1.42,0,0,0,2.16,0,1.57,1.57,0,0,0,1.54.3a2,2,0,0,0-.48.49s0,0,0,0a2.68,2.68,0,0,0-.4,1c0,.12,0,.24,0,.36s0,.13,0,.2,0,0,0,0A.87.87,0,0,0,.06,3l0,.11a4.71,4.71,0,0,0,0,.65V5.07A4.78,4.78,0,0,0,0,5.6,1.59,1.59,0,0,0,.18,6a1.9,1.9,0,0,0,.63.63h0a3,3,0,0,0,1.41.42A3.13,3.13,0,0,0,3.2,7,2.48,2.48,0,0,0,4.46,6.3a1.51,1.51,0,0,0,.29-.45,1.06,1.06,0,0,0,.09-.4S4.84,5.42,4.84,5.4Zm-1.73-1a.42.42,0,0,1,0,.15.63.63,0,0,1-.26.34s0,0,0,.06c0,.18,0,.36,0,.54,0,0,0,0,0,0H2.1s-.05,0-.05,0c0-.19,0-.37,0-.55a.05.05,0,0,0,0-.06.69.69,0,0,1-.07-1,.71.71,0,0,1,.28-.16.35.35,0,0,1,.14,0,.55.55,0,0,1,.18,0,.6.6,0,0,1,.31.15A.34.34,0,0,1,3,4a.59.59,0,0,1,.13.34A.33.33,0,0,1,3.11,4.44Z"/></g></g></svg>