<svg xmlns="http://www.w3.org/2000/svg" viewBox="0 0 105.84 10.89"><defs><style>.cls-1{fill:#fff;}</style></defs><g id="Layer_2" data-name="Layer 2"><g id="Layer_1-2" data-name="Layer 1"><path class="cls-1" d="M2.69,2.09H3.82L6.49,10H5.43L4.05,5.56c-.28-.88-.53-1.74-.78-2.65h0c-.25.91-.5,1.77-.78,2.65L1.05,10H0ZM1.43,6.76H5.06v.8H1.43Z" transform="translate(-0.03 -1.18)"/><path class="cls-1" d="M7.51,4.13h.82L8.41,5h0a2.56,2.56,0,0,1,1.82-1A1.53,1.53,0,0,1,11.87,5.1,2.72,2.72,0,0,1,13.79,4c1.2,0,1.77.79,1.77,2.28V10h-1V6.39c0-1.08-.35-1.55-1.09-1.55a2.15,2.15,0,0,0-1.46.9V10H11V6.39C11,5.31,10.7,4.84,10,4.84a2.17,2.17,0,0,0-1.46.9V10h-1Z" transform="translate(-0.03 -1.18)"/><path class="cls-1" d="M17,7.05a2.72,2.72,0,1,1,5.4,0,2.72,2.72,0,1,1-5.4,0Zm4.38,0c0-1.33-.68-2.24-1.68-2.24s-1.68.91-1.68,2.24.67,2.23,1.68,2.23S21.41,8.39,21.41,7.05Z" transform="translate(-0.03 -1.18)"/><path class="cls-1" d="M23.88,7.82V4.13h1V7.7c0,1.08.33,1.55,1.1,1.55.6,0,1-.3,1.56-1V4.13h1V10H27.7l-.08-.91h0a2.5,2.5,0,0,1-1.92,1C24.44,10.1,23.88,9.31,23.88,7.82Z" transform="translate(-0.03 -1.18)"/><path class="cls-1" d="M30.49,4.13h.82l.08.84h0a2.78,2.78,0,0,1,2-1c1.23,0,1.78.79,1.78,2.28V10h-1V6.39c0-1.08-.33-1.55-1.1-1.55a2.22,2.22,0,0,0-1.59.9V10h-1Z" transform="translate(-0.03 -1.18)"/><path class="cls-1" d="M37.23,8.16V4.93h-.87V4.19l.91-.06.12-1.63h.82V4.13h1.58v.8H38.21V8.17c0,.72.23,1.13.91,1.13a1.93,1.93,0,0,0,.66-.16l.19.75a3.57,3.57,0,0,1-1.08.21C37.65,10.1,37.23,9.32,37.23,8.16Z" transform="translate(-0.03 -1.18)"/><path class="cls-1" d="M43.51,6.63a10,10,0,0,1,1.58-5.45l.62.28a10,10,0,0,0-1.38,5.17,10,10,0,0,0,1.38,5.16l-.62.28A10,10,0,0,1,43.51,6.63Z" transform="translate(-0.03 -1.18)"/><path class="cls-1" d="M47.15,4.13H48L48,5h0a2.56,2.56,0,0,1,1.81-1A1.53,1.53,0,0,1,51.5,5.1,2.74,2.74,0,0,1,53.42,4c1.2,0,1.78.79,1.78,2.28V10h-1V6.39c0-1.08-.34-1.55-1.08-1.55a2.13,2.13,0,0,0-1.46.9V10h-1V6.39c0-1.08-.34-1.55-1.09-1.55a2.19,2.19,0,0,0-1.46.9V10h-1Z" transform="translate(-0.03 -1.18)"/><path class="cls-1" d="M56.73,8.45c0-1.27,1.1-1.91,3.58-2.18,0-.75-.25-1.47-1.2-1.47a3.28,3.28,0,0,0-1.74.62L57,4.75A4.26,4.26,0,0,1,59.28,4c1.42,0,2,.94,2,2.39V10h-.81l-.09-.7h0a3.11,3.11,0,0,1-1.93.84A1.58,1.58,0,0,1,56.73,8.45Zm3.58.09V6.92c-2,.23-2.61.71-2.61,1.46s.45.93,1,.93A2.36,2.36,0,0,0,60.31,8.54Z" transform="translate(-0.03 -1.18)"/><path class="cls-1" d="M64.23,6.92,62.47,4.13h1.07l.78,1.28c.18.32.38.65.57,1h0l.52-1,.72-1.28h1L65.44,7,67.35,10H66.28l-.86-1.35c-.21-.36-.42-.72-.64-1h0c-.2.33-.39.69-.59,1L63.36,10h-1Z" transform="translate(-0.03 -1.18)"/><path class="cls-1" d="M70.78,5A.71.71,0,1,1,72.2,5a.71.71,0,1,1-1.42,0Zm0,4.33a.71.71,0,1,1,1.42,0,.71.71,0,1,1-1.42,0Z" transform="translate(-0.03 -1.18)"/><path class="cls-1" d="M75.86,9.38c2.3-2.3,3.6-3.67,3.6-4.92A1.35,1.35,0,0,0,78,3a2.25,2.25,0,0,0-1.63.92l-.57-.56a3,3,0,0,1,2.32-1.16,2.13,2.13,0,0,1,2.3,2.25c0,1.43-1.32,2.86-3.13,4.76.42,0,.89-.07,1.29-.07H80.8V10H75.86Z" transform="translate(-0.03 -1.18)"/><path class="cls-1" d="M82.42,2.09h2.34c1.6,0,2.71.54,2.71,1.93a1.74,1.74,0,0,1-1.15,1.71v0a1.82,1.82,0,0,1,1.6,1.89c0,1.54-1.23,2.3-3,2.3H82.42Zm2.17,3.35c1.34,0,1.89-.5,1.89-1.29s-.63-1.27-1.85-1.27H83.42V5.44Zm.2,3.73c1.35,0,2.14-.49,2.14-1.55s-.76-1.41-2.14-1.41H83.42v3Z" transform="translate(-0.03 -1.18)"/><path class="cls-1" d="M89.48,2.09h1l2.85,5,.85,1.63h.05c-.05-.8-.13-1.68-.13-2.51V2.09h1V10h-1L91.2,5l-.85-1.63h0c0,.8.13,1.64.13,2.46V10h-1Z" transform="translate(-0.03 -1.18)"/><path class="cls-1" d="M97.24,2.09h2.34c1.6,0,2.71.54,2.71,1.93a1.74,1.74,0,0,1-1.15,1.71v0a1.82,1.82,0,0,1,1.6,1.89c0,1.54-1.23,2.3-3,2.3H97.24Zm2.17,3.35c1.34,0,1.89-.5,1.89-1.29s-.63-1.27-1.84-1.27H98.24V5.44Zm.2,3.73c1.35,0,2.14-.49,2.14-1.55S101,6.21,99.61,6.21H98.24v3Z" transform="translate(-0.03 -1.18)"/><path class="cls-1" d="M103.68,11.79a10,10,0,0,0,1.37-5.16,10,10,0,0,0-1.37-5.17l.61-.28a9.94,9.94,0,0,1,1.59,5.45,9.93,9.93,0,0,1-1.59,5.44Z" transform="translate(-0.03 -1.18)"/></g></g></svg>