<svg xmlns="http://www.w3.org/2000/svg" viewBox="0 0 67.45 12.26"><defs><style>.cls-1{fill:#fff;}</style></defs><g id="Layer_2" data-name="Layer 2"><g id="Layer_1-2" data-name="Layer 1"><path class="cls-1" d="M1.49,2.89H4.23c3.36,0,5.16,1.95,5.16,5.42s-1.8,5.5-5.1,5.5H1.49Zm2.63,9.78C6.68,12.67,8,11.07,8,8.31S6.68,4,4.12,4H2.88v8.64Z" transform="translate(-1.49 -1.75)"/><path class="cls-1" d="M11.83,9.78c0-2.64,1.78-4.26,3.64-4.26,2.06,0,3.23,1.48,3.23,3.8a4.25,4.25,0,0,1-.07.78H13.18a2.69,2.69,0,0,0,2.69,2.82,3.59,3.59,0,0,0,2-.64l.49.89A4.72,4.72,0,0,1,15.7,14C13.55,14,11.83,12.44,11.83,9.78Zm5.66-.66c0-1.63-.73-2.51-2-2.51a2.49,2.49,0,0,0-2.32,2.51Z" transform="translate(-1.49 -1.75)"/><path class="cls-1" d="M20.61,5.8l1.16-.08h3V6.84H20.61Zm1.1-1.36c0-1.64.75-2.69,2.37-2.69A3.62,3.62,0,0,1,25.42,2l-.29,1.05a2.19,2.19,0,0,0-.91-.21c-.77,0-1.14.53-1.14,1.58v9.36H21.71Z" transform="translate(-1.49 -1.75)"/><path class="cls-1" d="M27.18,12.19V2h1.36V12.29c0,.42.19.58.39.58a1.33,1.33,0,0,0,.3,0l.18,1a2,2,0,0,1-.79.13C27.6,14,27.18,13.36,27.18,12.19Z" transform="translate(-1.49 -1.75)"/><path class="cls-1" d="M31.75,11.71c0-1.76,1.52-2.64,5-3,0-1-.35-2-1.67-2a4.38,4.38,0,0,0-2.41.87l-.54-.94a5.92,5.92,0,0,1,3.18-1.06c2,0,2.81,1.31,2.81,3.33v5H37l-.12-1h0A4.32,4.32,0,0,1,34.12,14,2.2,2.2,0,0,1,31.75,11.71Zm5,.13V9.59c-2.71.33-3.63,1-3.63,2s.62,1.29,1.42,1.29A3.33,3.33,0,0,0,36.72,11.84Z" transform="translate(-1.49 -1.75)"/><path class="cls-1" d="M41.48,11.31V6.84H40.27v-1l1.27-.08.16-2.27h1.15V5.72H45V6.84H42.85v4.49c0,1,.32,1.57,1.25,1.57a2.69,2.69,0,0,0,.92-.22l.26,1a4.66,4.66,0,0,1-1.5.3C42.06,14,41.48,12.92,41.48,11.31Z" transform="translate(-1.49 -1.75)"/><path class="cls-1" d="M47.44,3.17a.95.95,0,0,1,1.89,0,.95.95,0,0,1-1.89,0Zm.25,2.55h1.37v8.09H47.69Z" transform="translate(-1.49 -1.75)"/><path class="cls-1" d="M52,9.78c0-2.7,1.76-4.26,3.75-4.26s3.75,1.56,3.75,4.26S57.75,14,55.77,14,52,12.46,52,9.78Zm6.08,0c0-1.86-.94-3.12-2.33-3.12s-2.34,1.26-2.34,3.12,1,3.09,2.34,3.09S58.1,11.63,58.1,9.78Z" transform="translate(-1.49 -1.75)"/><path class="cls-1" d="M62.47,5.72H63.6l.12,1.17h0a3.87,3.87,0,0,1,2.72-1.37c1.7,0,2.47,1.1,2.47,3.17v5.12H67.58v-5c0-1.5-.46-2.15-1.53-2.15A3.07,3.07,0,0,0,63.84,8v5.86H62.47Z" transform="translate(-1.49 -1.75)"/></g></g></svg>