<svg xmlns="http://www.w3.org/2000/svg" xmlns:xlink="http://www.w3.org/1999/xlink" viewBox="0 0 1535.22 1123.82"><defs><style>.cls-1{fill:#121111;opacity:0.76;}.cls-2{fill:none;stroke-miterlimit:10;stroke-width:4px;stroke:url(#linear-gradient);}</style><linearGradient id="linear-gradient" y1="560" x2="1533" y2="560" gradientUnits="userSpaceOnUse"><stop offset="0" stop-color="#79fb53"/><stop offset="1" stop-color="#33a400"/></linearGradient></defs><g id="Layer_2" data-name="Layer 2"><g id="Layer_1-2" data-name="Layer 1"><path class="cls-1" d="M1418.57,1123.82H122.86A116.65,116.65,0,0,1,6.22,1007.17V124.46A116.64,116.64,0,0,1,122.86,7.82H1418.57a116.65,116.65,0,0,1,116.65,116.64v882.71A116.66,116.66,0,0,1,1418.57,1123.82Z"/><path class="cls-2" d="M1414.35,1118H118.65A116.64,116.64,0,0,1,2,1001.35V118.65A116.64,116.64,0,0,1,118.65,2h1295.7A116.64,116.64,0,0,1,1531,118.65v882.7A116.64,116.64,0,0,1,1414.35,1118Z"/></g></g></svg>