<svg xmlns="http://www.w3.org/2000/svg" viewBox="0 0 65.99 11.72"><defs><style>.cls-1{fill:#fff;}</style></defs><g id="Layer_2" data-name="Layer 2"><g id="Layer_1-2" data-name="Layer 1"><path class="cls-1" d="M.86,8.36c0-3.52,2.08-5.67,4.85-5.67A4.08,4.08,0,0,1,8.71,4L8,4.94a3,3,0,0,0-2.22-1c-2.06,0-3.44,1.69-3.44,4.41s1.32,4.47,3.39,4.47a3.26,3.26,0,0,0,2.53-1.23l.76.88A4.2,4.2,0,0,1,5.62,14C2.9,14,.86,11.91.86,8.36Z" transform="translate(-0.86 -2.29)"/><path class="cls-1" d="M11.2,11.71c0-1.76,1.52-2.64,5-3,0-1-.35-2-1.67-2a4.44,4.44,0,0,0-2.42.87l-.53-.94a5.92,5.92,0,0,1,3.18-1.06c2,0,2.81,1.31,2.81,3.33v5H16.41l-.12-1h0A4.34,4.34,0,0,1,13.57,14,2.2,2.2,0,0,1,11.2,11.71Zm5,.13V9.59c-2.71.33-3.63,1-3.63,2s.62,1.29,1.42,1.29A3.35,3.35,0,0,0,16.17,11.84Z" transform="translate(-0.86 -2.29)"/><path class="cls-1" d="M20.92,5.72h1.13l.12,1.17h0a3.85,3.85,0,0,1,2.72-1.37c1.7,0,2.47,1.1,2.47,3.17v5.12H26v-5c0-1.5-.46-2.15-1.53-2.15A3.05,3.05,0,0,0,22.29,8v5.86H20.92Z" transform="translate(-0.86 -2.29)"/><path class="cls-1" d="M35.14,2.89h1.68l2.09,5.83c.26.75.51,1.52.78,2.28h.06c.27-.76.5-1.53.76-2.28l2.07-5.83h1.67V13.81H43v-6c0-1,.11-2.27.18-3.23h-.07L42.2,7.06l-2.05,5.65h-.93L37.16,7.06l-.87-2.49h-.07c.07,1,.18,2.28.18,3.23v6H35.14Z" transform="translate(-0.86 -2.29)"/><path class="cls-1" d="M47.69,3.17a.95.95,0,0,1,1.89,0,.95.95,0,0,1-1.89,0Zm.25,2.55h1.37v8.09H47.94Z" transform="translate(-0.86 -2.29)"/><path class="cls-1" d="M52.87,5.72H54l.12,1.17h0a3.87,3.87,0,0,1,2.72-1.37c1.7,0,2.47,1.1,2.47,3.17v5.12H58v-5c0-1.5-.46-2.15-1.53-2.15A3.05,3.05,0,0,0,54.24,8v5.86H52.87Z" transform="translate(-0.86 -2.29)"/><path class="cls-1" d="M63,11.31V6.84h-1.2v-1l1.27-.08.16-2.27h1.14V5.72h2.2V6.84h-2.2v4.49c0,1,.32,1.57,1.26,1.57a2.75,2.75,0,0,0,.92-.22l.26,1a4.66,4.66,0,0,1-1.5.3C63.63,14,63,12.92,63,11.31Z" transform="translate(-0.86 -2.29)"/></g></g></svg>