<svg xmlns="http://www.w3.org/2000/svg" viewBox="0 0 76.86 11.33"><defs><style>.cls-1{fill:#fff;}</style></defs><g id="Layer_2" data-name="Layer 2"><g id="Layer_1-2" data-name="Layer 1"><path class="cls-1" d="M.86,8.36c0-3.53,2.08-5.67,4.85-5.67A4.08,4.08,0,0,1,8.71,4L8,4.94a3,3,0,0,0-2.22-1c-2.06,0-3.44,1.69-3.44,4.41s1.32,4.47,3.39,4.47a3.26,3.26,0,0,0,2.53-1.23l.76.87A4.18,4.18,0,0,1,5.62,14C2.9,14,.86,11.91.86,8.36Z" transform="translate(-0.86 -2.69)"/><path class="cls-1" d="M11.2,11.71c0-1.76,1.52-2.64,5-3,0-1-.35-2-1.67-2a4.44,4.44,0,0,0-2.42.87l-.53-.94a5.92,5.92,0,0,1,3.18-1.06c2,0,2.81,1.31,2.81,3.33v5H16.41l-.12-1h0A4.3,4.3,0,0,1,13.57,14,2.2,2.2,0,0,1,11.2,11.71Zm5,.13V9.59c-2.71.33-3.63,1-3.63,2s.62,1.29,1.42,1.29A3.35,3.35,0,0,0,16.17,11.84Z" transform="translate(-0.86 -2.69)"/><path class="cls-1" d="M20.92,5.72h1.13l.12,1.17h0a3.85,3.85,0,0,1,2.72-1.37c1.7,0,2.47,1.1,2.47,3.16v5.13H26v-5c0-1.51-.46-2.15-1.53-2.15A3.05,3.05,0,0,0,22.29,8v5.86H20.92Z" transform="translate(-0.86 -2.69)"/><path class="cls-1" d="M35.14,2.89h3.12c2.45,0,4.1.82,4.1,3.21s-1.64,3.38-4,3.38h-1.8v4.33H35.14Zm3,5.46C40.06,8.35,41,7.66,41,6.1S40,4,38.09,4H36.53V8.35Z" transform="translate(-0.86 -2.69)"/><path class="cls-1" d="M44.05,11.71c0-1.76,1.52-2.64,5-3,0-1-.35-2-1.67-2a4.44,4.44,0,0,0-2.42.87l-.53-.94a5.92,5.92,0,0,1,3.18-1.06c2,0,2.81,1.31,2.81,3.33v5H49.26l-.12-1h0A4.25,4.25,0,0,1,46.42,14,2.2,2.2,0,0,1,44.05,11.71Zm5,.13V9.59c-2.71.33-3.63,1-3.63,2s.62,1.29,1.42,1.29A3.35,3.35,0,0,0,49,11.84Z" transform="translate(-0.86 -2.69)"/><path class="cls-1" d="M53.66,10.85V5.72H55v5c0,1.51.45,2.15,1.53,2.15.82,0,1.4-.41,2.16-1.36V5.72h1.37v8.09H59l-.12-1.27h0A3.42,3.42,0,0,1,56.13,14C54.43,14,53.66,12.91,53.66,10.85Z" transform="translate(-0.86 -2.69)"/><path class="cls-1" d="M62.76,12.89l.67-.9a3.68,3.68,0,0,0,2.39,1c1.06,0,1.59-.57,1.59-1.26s-1-1.2-1.85-1.54c-1.13-.41-2.41-1-2.41-2.33s1-2.3,2.79-2.3a4.06,4.06,0,0,1,2.51.91l-.65.88A3.07,3.07,0,0,0,66,6.59c-1,0-1.49.54-1.49,1.16s.88,1.06,1.8,1.4c1.17.44,2.47.92,2.47,2.46,0,1.31-1,2.4-3,2.4A4.81,4.81,0,0,1,62.76,12.89Z" transform="translate(-0.86 -2.69)"/><path class="cls-1" d="M70.86,9.78c0-2.64,1.77-4.26,3.63-4.26,2.07,0,3.23,1.48,3.23,3.8a4.34,4.34,0,0,1-.06.78H72.21a2.69,2.69,0,0,0,2.69,2.82,3.52,3.52,0,0,0,2-.65l.49.9a4.71,4.71,0,0,1-2.67.84C72.57,14,70.86,12.43,70.86,9.78Zm5.65-.67c0-1.62-.73-2.5-2-2.5a2.47,2.47,0,0,0-2.32,2.5Z" transform="translate(-0.86 -2.69)"/></g></g></svg>