<svg xmlns="http://www.w3.org/2000/svg" viewBox="0 0 67.74 11.33"><defs><style>.cls-1{fill:#fff;}</style></defs><g id="Layer_2" data-name="Layer 2"><g id="Layer_1-2" data-name="Layer 1"><path class="cls-1" d="M.86,8.36c0-3.53,2.08-5.67,4.85-5.67A4.08,4.08,0,0,1,8.71,4L8,4.94a3,3,0,0,0-2.22-1c-2.06,0-3.44,1.69-3.44,4.41s1.32,4.47,3.39,4.47a3.26,3.26,0,0,0,2.53-1.23l.76.87A4.18,4.18,0,0,1,5.62,14C2.9,14,.86,11.91.86,8.36Z" transform="translate(-0.86 -2.69)"/><path class="cls-1" d="M11.2,11.71c0-1.76,1.52-2.64,5-3,0-1-.35-2-1.67-2a4.44,4.44,0,0,0-2.42.87l-.53-.94a5.92,5.92,0,0,1,3.18-1.06c2,0,2.81,1.31,2.81,3.33v5H16.41l-.12-1h0A4.3,4.3,0,0,1,13.57,14,2.2,2.2,0,0,1,11.2,11.71Zm5,.13V9.59c-2.71.33-3.63,1-3.63,2s.62,1.3,1.42,1.3A3.35,3.35,0,0,0,16.17,11.84Z" transform="translate(-0.86 -2.69)"/><path class="cls-1" d="M20.92,5.72h1.13l.12,1.17h0a3.85,3.85,0,0,1,2.72-1.37c1.7,0,2.47,1.1,2.47,3.16v5.13H26v-5c0-1.51-.46-2.15-1.53-2.15A3.05,3.05,0,0,0,22.29,8v5.86H20.92Z" transform="translate(-0.86 -2.69)"/><path class="cls-1" d="M35.14,2.89h3.24c2.23,0,3.76.75,3.76,2.67a2.38,2.38,0,0,1-1.59,2.37V8a2.53,2.53,0,0,1,2.22,2.62c0,2.14-1.7,3.19-4.14,3.19H35.14Zm3,4.65c1.86,0,2.63-.69,2.63-1.8C40.78,4.47,39.9,4,38.21,4H36.53V7.54Zm.28,5.17c1.87,0,3-.67,3-2.15s-1.06-2-3-2h-1.9v4.11Z" transform="translate(-0.86 -2.69)"/><path class="cls-1" d="M45.52,10.85V5.72h1.37v5c0,1.51.46,2.15,1.53,2.15.83,0,1.4-.41,2.16-1.36V5.72H52v8.09H50.82l-.11-1.27h-.05A3.42,3.42,0,0,1,48,14C46.29,14,45.52,12.91,45.52,10.85Z" transform="translate(-0.86 -2.69)"/><path class="cls-1" d="M55.52,5.72h1.13l.11,1.47h.05a2.79,2.79,0,0,1,2.3-1.67,1.86,1.86,0,0,1,.86.17l-.25,1.2a2.22,2.22,0,0,0-.79-.14c-.68,0-1.5.5-2,1.87v5.19H55.52Z" transform="translate(-0.86 -2.69)"/><path class="cls-1" d="M62.12,5.72h1.13l.12,1.17h0a3.89,3.89,0,0,1,2.72-1.37c1.7,0,2.47,1.1,2.47,3.16v5.13H67.23v-5c0-1.51-.46-2.15-1.53-2.15A3.07,3.07,0,0,0,63.49,8v5.86H62.12Z" transform="translate(-0.86 -2.69)"/></g></g></svg>