<svg xmlns="http://www.w3.org/2000/svg" viewBox="0 0 53 53"><defs><style>.cls-1{fill:#01943f;}.cls-2{fill:#fff;}</style></defs><g id="Layer_2" data-name="Layer 2"><g id="Layer_1-2" data-name="Layer 1"><g id="logo-symbol"><path id="Path_168" data-name="Path 168" class="cls-1" d="M26.5,0A26.58,26.58,0,0,0,0,26.5H0A26.57,26.57,0,0,0,26.5,53h0A26.58,26.58,0,0,0,53,26.5h0A26.58,26.58,0,0,0,26.5,0Z"/><g id="Group_20" data-name="Group 20"><g id="Group_16" data-name="Group 16"><path id="Path_169" data-name="Path 169" class="cls-2" d="M20,18.21l.06,0,.64-.28V13.7a1.38,1.38,0,0,0-1.38-1.39H13.53V24.39A13.78,13.78,0,0,1,20,18.21Z"/></g><g id="Group_17" data-name="Group 17"><path id="Path_170" data-name="Path 170" class="cls-2" d="M25.8,25.56h1.28a3.36,3.36,0,0,0,3.36-3.35h0V18.6c-.69-.12-3.86-.18-4.59-.18A12.35,12.35,0,0,0,13.52,29.9q0,.44,0,.87c0,.29,0,.58,0,.86h0v7.68a1.38,1.38,0,0,0,1.39,1.38h5.74v-10a5.15,5.15,0,0,1,5.15-5.14Z"/></g><g id="Group_18" data-name="Group 18"><path id="Path_171" data-name="Path 171" class="cls-2" d="M33.06,34.79l-.06,0-.64.28v4.2a1.38,1.38,0,0,0,1.38,1.39h5.74V28.61A13.83,13.83,0,0,1,33.06,34.79Z"/></g><g id="Group_19" data-name="Group 19"><path id="Path_172" data-name="Path 172" class="cls-2" d="M39.48,21.37h0V13.69a1.38,1.38,0,0,0-1.39-1.38H32.35v10a5.14,5.14,0,0,1-5.14,5.14H25.92a3.35,3.35,0,0,0-3.36,3.35h0v3.6c.69.12,3.86.18,4.59.18h.24a12.22,12.22,0,0,0,5-1.15l0,0a12.32,12.32,0,0,0,7.08-10.32c0-.29,0-.57,0-.86S39.5,21.66,39.48,21.37Z"/></g></g></g></g></g></svg>