<svg xmlns="http://www.w3.org/2000/svg" viewBox="0 0 13.91 11.83"><defs><style>.cls-1{fill:#79fb53;}</style></defs><g id="Layer_2" data-name="Layer 2"><g id="Layer_1-2" data-name="Layer 1"><path class="cls-1" d="M10.27,11.83H12.9a1.3,1.3,0,0,0,.48-.11,1,1,0,0,0,.46-1.25h0l-.4-.68-.54-.89a1.62,1.62,0,0,1-.1-.18L12.39,8l-.54-.9L11.75,7c-.14-.22-.27-.44-.4-.66s-.44-.72-.65-1.08-.27-.44-.4-.66c-.23-.37-.45-.73-.66-1.1S9.37,3,9.24,2.8s-.44-.71-.65-1.08c-.14-.21-.27-.43-.4-.66L7.89.57A1,1,0,0,0,7,0H6.93a1.32,1.32,0,0,0-.47.13,1.09,1.09,0,0,0-.4.37c-.11.19-.22.38-.34.56a7.23,7.23,0,0,1-.4.66c-.21.37-.42.73-.65,1.08s-.26.45-.4.67l-.57,1-.09.14c-.12.22-.26.44-.4.66s-.34.58-.52.87l-.12.21c-.13.22-.26.44-.41.66l-.48.81L1.52,8c-.13.22-.26.45-.4.67S.7,9.43.47,9.78l-.4.67A1.12,1.12,0,0,0,0,11a1,1,0,0,0,.47.71l.05,0a1.58,1.58,0,0,0,.68.12h9.06ZM6.05,3.51a.91.91,0,0,1,.72-.76.92.92,0,0,1,1.12.91,1,1,0,0,1,0,.17.17.17,0,0,1,0,.07v3a.2.2,0,0,1,0,.07,1.41,1.41,0,0,1,0,.61.2.2,0,0,1,0,.08.91.91,0,0,1-1,.5A.87.87,0,0,1,6.43,8a.8.8,0,0,1-.31-.37.16.16,0,0,1,0-.09A.67.67,0,0,1,6,7.28V3.63A.25.25,0,0,1,6.05,3.51Zm.37,7.23a.88.88,0,0,1-.35-1s0,0,0,0a.85.85,0,0,1,.65-.59h0a.81.81,0,0,1,.41,0h0a.88.88,0,0,1,.64.57.78.78,0,0,1,0,.6.26.26,0,0,1-.07.15.68.68,0,0,1-.28.3A.92.92,0,0,1,6.42,10.74Z"/></g></g></svg>