<svg xmlns="http://www.w3.org/2000/svg" viewBox="0 0 976.36 51.63"><defs><style>.cls-1{fill:#121517;}.cls-2{fill:#fe0000;}.cls-3{fill:#fff;}</style></defs><g id="Layer_2" data-name="Layer 2"><g id="Layer_1-2" data-name="Layer 1"><rect class="cls-1" width="976.36" height="51.63" rx="6.17"/><path class="cls-2" d="M35.16,21.23A4.82,4.82,0,0,0,34,18.39a5.14,5.14,0,0,0-4.1-1.86c-2.95,0-5.9,0-8.86,0a4.79,4.79,0,0,0-1.36.23,5.12,5.12,0,0,0-2.4,1.61,4.9,4.9,0,0,0-1.19,3.09c0,1.51,0,3,0,4.54s0,2.93,0,4.4a5,5,0,0,0,1.36,3.42,5.09,5.09,0,0,0,3.87,1.69H30a5.06,5.06,0,0,0,1.09-.12,5.11,5.11,0,0,0,3.22-2.13,5,5,0,0,0,.91-2.9q0-2.82,0-5.64C35.19,23.57,35.24,22.4,35.16,21.23ZM27.7,26.17l2.58,2.56a1.38,1.38,0,1,1-1.78,2.12c-.91-.93-1.83-1.83-2.75-2.75-.09-.1-.14-.12-.25,0-.91.92-1.82,1.82-2.73,2.73a1.21,1.21,0,0,1-1.45.29,1.34,1.34,0,0,1-.88-1.23,1.36,1.36,0,0,1,.44-1.06l2.44-2.43c.09-.08.16-.17.25-.25s.08-.15,0-.23c-.9-.89-1.77-1.8-2.68-2.66a1.43,1.43,0,0,1,.59-2.39,1.27,1.27,0,0,1,1.3.36c.94.93,1.86,1.87,2.79,2.8l.08.07,2.85-2.86a1.17,1.17,0,0,1,1.37-.32,1.45,1.45,0,0,1,1,1.24,1.31,1.31,0,0,1-.47,1.08L27.7,25.89C27.59,26,27.59,26.06,27.7,26.17Z"/><path class="cls-3" d="M48.56,24.49l-2.31-4.72h1l1,2.17c.24.57.48,1.11.74,1.68h0c.27-.57.53-1.11.77-1.68l1-2.17h1l-2.32,4.72v3h-1Z"/><path class="cls-3" d="M51.91,24.63a2.66,2.66,0,1,1,5.28,0,2.66,2.66,0,1,1-5.28,0Zm4.28,0c0-1.31-.66-2.2-1.64-2.2s-1.65.89-1.65,2.2.67,2.18,1.65,2.18S56.19,25.93,56.19,24.63Z"/><path class="cls-3" d="M58.61,25.38V21.77h1v3.49c0,1.06.32,1.51,1.07,1.51.59,0,1-.29,1.53-1v-4h1v5.7h-.8l-.08-.89h0a2.43,2.43,0,0,1-1.89,1C59.15,27.61,58.61,26.84,58.61,25.38Z"/><path class="cls-3" d="M67,24.63c0-1.85,1.17-3,2.47-3a2.31,2.31,0,0,1,1.6.66l0-1v-2.2h1v8.36h-.79l-.09-.67h0a2.52,2.52,0,0,1-1.73.81C67.94,27.61,67,26.53,67,24.63ZM71,26V23a2,2,0,0,0-1.39-.59c-.91,0-1.64.88-1.64,2.18s.57,2.18,1.56,2.18A2,2,0,0,0,71,26Z"/><path class="cls-3" d="M73.51,24.63a2.67,2.67,0,1,1,5.29,0,2.66,2.66,0,1,1-5.29,0Zm4.29,0c0-1.31-.67-2.2-1.65-2.2s-1.64.89-1.64,2.2.66,2.18,1.64,2.18S77.8,25.93,77.8,24.63Z"/><path class="cls-3" d="M82.59,21.77h.8l.08.82h0a2.71,2.71,0,0,1,1.92-1c1.2,0,1.74.77,1.74,2.23v3.61h-1V24c0-1.06-.32-1.52-1.07-1.52a2.15,2.15,0,0,0-1.56.88v4.13h-1Z"/><path class="cls-3" d="M88.59,24.63a2.66,2.66,0,1,1,5.28,0,2.66,2.66,0,1,1-5.28,0Zm4.29,0c0-1.31-.67-2.2-1.65-2.2s-1.65.89-1.65,2.2.67,2.18,1.65,2.18S92.88,25.93,92.88,24.63Z"/><path class="cls-3" d="M95.34,25.71V22.55h-.85v-.73l.89-.05.12-1.6h.81v1.6h1.54v.78H96.31v3.17c0,.7.22,1.1.88,1.1a1.86,1.86,0,0,0,.65-.15l.19.73a3.5,3.5,0,0,1-1.06.21C95.75,27.61,95.34,26.84,95.34,25.71Z"/><path class="cls-3" d="M101.49,19.11h1V21.4l0,1.17a2.68,2.68,0,0,1,1.89-.94c1.2,0,1.74.77,1.74,2.23v3.61h-1V24c0-1.06-.32-1.52-1.08-1.52a2.17,2.17,0,0,0-1.56.88v4.13h-1Z"/><path class="cls-3" d="M107.52,26c0-1.24,1.07-1.86,3.5-2.13,0-.73-.25-1.44-1.18-1.44a3.14,3.14,0,0,0-1.7.61l-.38-.66a4.25,4.25,0,0,1,2.24-.74c1.4,0,2,.92,2,2.34v3.5h-.79l-.08-.68h0a3,3,0,0,1-1.88.82A1.55,1.55,0,0,1,107.52,26Zm3.5.09V24.49c-1.91.23-2.56.7-2.56,1.43s.44.91,1,.91A2.33,2.33,0,0,0,111,26.08Z"/><path class="cls-3" d="M113,21.77h1L115,25c.18.55.36,1.13.53,1.68h0l.52-1.68,1.08-3.24h1l-2,5.7H115Z"/><path class="cls-3" d="M118.79,24.63a2.75,2.75,0,0,1,2.57-3c1.45,0,2.27,1,2.27,2.67a2.88,2.88,0,0,1,0,.55h-3.84a1.89,1.89,0,0,0,1.89,2,2.47,2.47,0,0,0,1.42-.45l.35.63a3.34,3.34,0,0,1-1.89.59A2.72,2.72,0,0,1,118.79,24.63Zm4-.47c0-1.14-.51-1.77-1.41-1.77a1.75,1.75,0,0,0-1.63,1.77Z"/><path class="cls-3" d="M127,24.63a2.75,2.75,0,0,1,2.56-3c1.46,0,2.28,1,2.28,2.67a4,4,0,0,1,0,.55h-3.85a1.9,1.9,0,0,0,1.9,2,2.47,2.47,0,0,0,1.42-.45l.34.63a3.31,3.31,0,0,1-1.88.59A2.72,2.72,0,0,1,127,24.63Zm4-.47c0-1.14-.52-1.77-1.41-1.77a1.75,1.75,0,0,0-1.63,1.77Z"/><path class="cls-3" d="M133.2,21.77h.8l.08.82h0a2.73,2.73,0,0,1,1.92-1c1.2,0,1.74.77,1.74,2.23v3.61h-1V24c0-1.06-.32-1.52-1.07-1.52a2.17,2.17,0,0,0-1.56.88v4.13h-1Z"/><path class="cls-3" d="M139.2,24.63a2.67,2.67,0,1,1,5.29,0,2.66,2.66,0,1,1-5.29,0Zm4.29,0c0-1.31-.67-2.2-1.65-2.2s-1.64.89-1.64,2.2.66,2.18,1.64,2.18S143.49,25.93,143.49,24.63Z"/><path class="cls-3" d="M145.91,25.38V21.77h1v3.49c0,1.06.32,1.51,1.08,1.51.58,0,1-.29,1.53-1v-4h1v5.7h-.8l-.08-.89h0a2.43,2.43,0,0,1-1.88,1C146.45,27.61,145.91,26.84,145.91,25.38Z"/><path class="cls-3" d="M151.94,28.57a1.6,1.6,0,0,1,.83-1.29v-.05a1.06,1.06,0,0,1-.51-.94,1.33,1.33,0,0,1,.63-1.05v0a2,2,0,0,1-.74-1.53,2,2,0,0,1,2.14-2,2.35,2.35,0,0,1,.81.14h2v.74h-1.18a1.65,1.65,0,0,1,.47,1.17,2,2,0,0,1-2.09,2,2.1,2.1,0,0,1-.85-.19.81.81,0,0,0-.36.67c0,.36.23.62,1,.62h1.11c1.32,0,2,.42,2,1.36s-1.12,2-2.88,2C152.9,30.09,151.94,29.55,151.94,28.57Zm4.29-.3c0-.53-.4-.71-1.15-.71h-1a2.82,2.82,0,0,1-.74-.09,1.18,1.18,0,0,0-.58,1c0,.61.61,1,1.65,1S156.23,28.86,156.23,28.27Zm-.73-4.61a1.22,1.22,0,1,0-2.42,0,1.22,1.22,0,1,0,2.42,0Z"/><path class="cls-3" d="M158.28,19.11h1V21.4l0,1.17a2.69,2.69,0,0,1,1.9-.94c1.2,0,1.74.77,1.74,2.23v3.61h-1V24c0-1.06-.32-1.52-1.07-1.52a2.15,2.15,0,0,0-1.56.88v4.13h-1Z"/><path class="cls-3" d="M167.1,19.77h2.29c1.56,0,2.65.53,2.65,1.88a1.7,1.7,0,0,1-1.13,1.68v0a1.79,1.79,0,0,1,1.57,1.85c0,1.51-1.2,2.25-2.92,2.25H167.1Zm2.12,3.28c1.31,0,1.85-.49,1.85-1.27s-.61-1.23-1.8-1.23h-1.19v2.5Zm.2,3.64c1.32,0,2.1-.47,2.1-1.51s-.75-1.38-2.1-1.38h-1.34v2.89Z"/><path class="cls-3" d="M174,19.77h1l2.79,4.84.83,1.59h.05c-.05-.77-.12-1.64-.12-2.45v-4h.93v7.7h-1l-2.78-4.85L174.86,21h-.05c.05.78.12,1.6.12,2.41v4H174Z"/><path class="cls-3" d="M181.6,19.77h2.28c1.57,0,2.65.53,2.65,1.88a1.68,1.68,0,0,1-1.13,1.68v0A1.79,1.79,0,0,1,187,25.22c0,1.51-1.2,2.25-2.91,2.25H181.6Zm2.12,3.28c1.31,0,1.85-.49,1.85-1.27s-.62-1.23-1.81-1.23h-1.19v2.5Zm.2,3.64c1.31,0,2.09-.47,2.09-1.51s-.75-1.38-2.09-1.38h-1.35v2.89Z"/><path class="cls-3" d="M190.58,20a.67.67,0,0,1,1.33,0,.67.67,0,0,1-1.33,0Zm.17,1.8h1v5.7h-1Z"/><path class="cls-3" d="M193.64,21.77h.8l.08.82h0a2.69,2.69,0,0,1,1.91-1c1.2,0,1.74.77,1.74,2.23v3.61h-1V24c0-1.06-.32-1.52-1.08-1.52-.58,0-1,.3-1.56.88v4.13h-1Z"/><path class="cls-3" d="M201.83,29.81,202,29a1.43,1.43,0,0,0,.44.09c.64,0,1-.52,1.28-1.23l.13-.42-2.29-5.71h1l1.16,3.15c.18.5.37,1.08.56,1.61h0c.17-.52.33-1.1.48-1.61l1-3.15h.95l-2.15,6.17c-.41,1.13-1,2-2.14,2A1.91,1.91,0,0,1,201.83,29.81Z"/><path class="cls-3" d="M207.41,24.63a2.67,2.67,0,1,1,5.29,0,2.66,2.66,0,1,1-5.29,0Zm4.29,0c0-1.31-.66-2.2-1.64-2.2s-1.65.89-1.65,2.2.67,2.18,1.65,2.18S211.7,25.93,211.7,24.63Z"/><path class="cls-3" d="M214.12,25.38V21.77h1v3.49c0,1.06.32,1.51,1.07,1.51.59,0,1-.29,1.53-1v-4h1v5.7h-.79l-.08-.89h0a2.4,2.4,0,0,1-1.88,1C214.66,27.61,214.12,26.84,214.12,25.38Z"/><path class="cls-3" d="M220.58,21.77h.8l.08,1h0a2,2,0,0,1,1.62-1.17,1.39,1.39,0,0,1,.61.11l-.18.85a1.59,1.59,0,0,0-.55-.09c-.48,0-1.06.34-1.44,1.31v3.66h-1Z"/><path class="cls-3" d="M226.32,21.77h1l.84,3.29c.13.54.23,1.06.34,1.59h0q.18-.79.39-1.59l.88-3.29h.94l.89,3.29c.14.54.26,1.06.39,1.59h.05c.13-.53.23-1,.36-1.59l.83-3.29h.92l-1.53,5.7h-1.18l-.82-3.07c-.14-.54-.25-1.06-.39-1.64h0c-.13.58-.24,1.12-.4,1.66l-.8,3h-1.12Z"/><path class="cls-3" d="M235,26c0-1.24,1.07-1.86,3.5-2.13,0-.73-.25-1.44-1.18-1.44a3.14,3.14,0,0,0-1.7.61l-.38-.66a4.25,4.25,0,0,1,2.24-.74c1.4,0,2,.92,2,2.34v3.5h-.79l-.08-.68h0a3,3,0,0,1-1.88.82A1.55,1.55,0,0,1,235,26Zm3.5.09V24.49c-1.91.23-2.56.7-2.56,1.43s.44.91,1,.91A2.33,2.33,0,0,0,238.46,26.08Z"/><path class="cls-3" d="M241.22,26.32V19.11h1v7.28c0,.3.13.42.27.42a.68.68,0,0,0,.21,0l.13.74a1.55,1.55,0,0,1-.56.09C241.52,27.61,241.22,27.15,241.22,26.32Z"/><path class="cls-3" d="M244.22,26.32V19.11h1v7.28c0,.3.13.42.27.42a.64.64,0,0,0,.21,0l.13.74a1.53,1.53,0,0,1-.55.09C244.51,27.61,244.22,27.15,244.22,26.32Z"/><path class="cls-3" d="M246.78,24.63a2.75,2.75,0,0,1,2.57-3c1.45,0,2.27,1,2.27,2.67a2.88,2.88,0,0,1,0,.55h-3.84a1.89,1.89,0,0,0,1.89,2,2.47,2.47,0,0,0,1.42-.45l.35.63a3.33,3.33,0,0,1-1.88.59A2.73,2.73,0,0,1,246.78,24.63Zm4-.47c0-1.14-.51-1.77-1.4-1.77a1.76,1.76,0,0,0-1.64,1.77Z"/><path class="cls-3" d="M253.08,25.71V22.55h-.85v-.73l.89-.05.12-1.6h.81v1.6h1.54v.78h-1.54v3.17c0,.7.22,1.1.88,1.1a1.86,1.86,0,0,0,.65-.15l.18.73a3.38,3.38,0,0,1-1,.21C253.49,27.61,253.08,26.84,253.08,25.71Z"/><path class="cls-3" d="M259.39,25.71V22.55h-.84v-.73l.89-.05.11-1.6h.81v1.6h1.54v.78h-1.54v3.17c0,.7.22,1.1.88,1.1a1.81,1.81,0,0,0,.65-.15l.19.73a3.44,3.44,0,0,1-1.06.21C259.81,27.61,259.39,26.84,259.39,25.71Z"/><path class="cls-3" d="M262.6,24.63a2.67,2.67,0,1,1,5.29,0,2.66,2.66,0,1,1-5.29,0Zm4.29,0c0-1.31-.66-2.2-1.64-2.2s-1.65.89-1.65,2.2.67,2.18,1.65,2.18S266.89,25.93,266.89,24.63Z"/><path class="cls-3" d="M271.69,21.77h.8l.08.65h0a3,3,0,0,1,1.82-.79c1.47,0,2.26,1.14,2.26,2.9,0,1.95-1.17,3.08-2.47,3.08a2.58,2.58,0,0,1-1.58-.66l0,1v1.93h-1Zm4,2.77c0-1.26-.43-2.1-1.5-2.1a2.32,2.32,0,0,0-1.53.78v3a2.25,2.25,0,0,0,1.39.59C275,26.8,275.68,26,275.68,24.54Z"/><path class="cls-3" d="M277.78,24.63a2.75,2.75,0,0,1,2.56-3c1.46,0,2.28,1,2.28,2.67a2.79,2.79,0,0,1-.05.55h-3.84a1.9,1.9,0,0,0,1.9,2,2.52,2.52,0,0,0,1.42-.45l.34.63a3.33,3.33,0,0,1-1.88.59A2.72,2.72,0,0,1,277.78,24.63Zm4-.47c0-1.14-.51-1.77-1.4-1.77a1.76,1.76,0,0,0-1.64,1.77Z"/><path class="cls-3" d="M284,21.77h.8l.08,1h0a2,2,0,0,1,1.62-1.17,1.39,1.39,0,0,1,.61.11l-.18.85a1.59,1.59,0,0,0-.55-.09c-.48,0-1.06.34-1.44,1.31v3.66h-1Z"/><path class="cls-3" d="M287.48,21.82l.82-.05h2.13v.78h-2.95Zm.77-1c0-1.15.53-1.89,1.67-1.89a2.51,2.51,0,0,1,.95.2l-.2.73a1.59,1.59,0,0,0-.65-.14c-.54,0-.8.37-.8,1.11v6.6h-1Z"/><path class="cls-3" d="M291,24.63a2.67,2.67,0,1,1,5.29,0,2.66,2.66,0,1,1-5.29,0Zm4.29,0c0-1.31-.67-2.2-1.65-2.2s-1.64.89-1.64,2.2.66,2.18,1.64,2.18S295.27,25.93,295.27,24.63Z"/><path class="cls-3" d="M297.76,21.77h.8l.08,1h0a2,2,0,0,1,1.63-1.17,1.34,1.34,0,0,1,.6.11l-.18.85a1.59,1.59,0,0,0-.55-.09c-.48,0-1.06.34-1.44,1.31v3.66h-1Z"/><path class="cls-3" d="M301.83,21.77h.8l.08.82h0a2.49,2.49,0,0,1,1.77-1,1.51,1.51,0,0,1,1.58,1.08A2.67,2.67,0,0,1,308,21.63c1.17,0,1.73.77,1.73,2.23v3.61h-1V24c0-1.06-.34-1.52-1.06-1.52a2.05,2.05,0,0,0-1.43.88v4.13h-1V24c0-1.06-.34-1.52-1.06-1.52a2.11,2.11,0,0,0-1.43.88v4.13h-1Z"/><path class="cls-3" d="M314.08,25.71V22.55h-.85v-.73l.89-.05.12-1.6h.8v1.6h1.55v.78H315v3.17c0,.7.23,1.1.89,1.1a1.86,1.86,0,0,0,.65-.15l.18.73a3.39,3.39,0,0,1-1.06.21C314.49,27.61,314.08,26.84,314.08,25.71Z"/><path class="cls-3" d="M317.88,19.11h1V21.4l0,1.17a2.68,2.68,0,0,1,1.89-.94c1.2,0,1.74.77,1.74,2.23v3.61h-1V24c0-1.06-.32-1.52-1.08-1.52a2.17,2.17,0,0,0-1.56.88v4.13h-1Z"/><path class="cls-3" d="M324.08,20a.67.67,0,1,1,.67.62A.64.64,0,0,1,324.08,20Zm.18,1.8h1v5.7h-1Z"/><path class="cls-3" d="M326.52,26.82l.47-.64a2.59,2.59,0,0,0,1.69.68c.74,0,1.12-.4,1.12-.89s-.68-.84-1.31-1.08c-.8-.29-1.7-.68-1.7-1.65s.73-1.61,2-1.61a2.88,2.88,0,0,1,1.77.64l-.46.61a2.14,2.14,0,0,0-1.3-.5c-.72,0-1,.38-1,.82s.62.74,1.27,1c.82.31,1.73.65,1.73,1.74,0,.92-.73,1.69-2.08,1.69A3.38,3.38,0,0,1,326.52,26.82Z"/><path class="cls-3" d="M334.58,25.71V22.55h-.85v-.73l.89-.05.12-1.6h.81v1.6h1.54v.78h-1.54v3.17c0,.7.22,1.1.88,1.1a1.86,1.86,0,0,0,.65-.15l.18.73a3.38,3.38,0,0,1-1.05.21C335,27.61,334.58,26.84,334.58,25.71Z"/><path class="cls-3" d="M338.38,21.77h.8l.08,1h0a2,2,0,0,1,1.62-1.17,1.42,1.42,0,0,1,.61.11l-.18.85a1.67,1.67,0,0,0-.55-.09c-.49,0-1.06.34-1.45,1.31v3.66h-1Z"/><path class="cls-3" d="M341.82,26c0-1.24,1.07-1.86,3.5-2.13,0-.73-.25-1.44-1.18-1.44a3.14,3.14,0,0,0-1.7.61l-.38-.66a4.25,4.25,0,0,1,2.24-.74c1.39,0,2,.92,2,2.34v3.5h-.79l-.09-.68h0a3,3,0,0,1-1.88.82A1.55,1.55,0,0,1,341.82,26Zm3.5.09V24.49c-1.91.23-2.56.7-2.56,1.43s.44.91,1,.91A2.33,2.33,0,0,0,345.32,26.08Z"/><path class="cls-3" d="M348.08,21.77h.8l.08.82h0a2.71,2.71,0,0,1,1.92-1c1.2,0,1.74.77,1.74,2.23v3.61h-1V24c0-1.06-.32-1.52-1.07-1.52a2.15,2.15,0,0,0-1.56.88v4.13h-1Z"/><path class="cls-3" d="M353.87,26.82l.48-.64a2.54,2.54,0,0,0,1.68.68c.75,0,1.12-.4,1.12-.89s-.67-.84-1.3-1.08c-.8-.29-1.71-.68-1.71-1.65s.73-1.61,2-1.61a2.88,2.88,0,0,1,1.77.64l-.46.61a2.12,2.12,0,0,0-1.3-.5c-.72,0-1.05.38-1.05.82s.62.74,1.27,1c.82.31,1.74.65,1.74,1.74,0,.92-.74,1.69-2.08,1.69A3.41,3.41,0,0,1,353.87,26.82Z"/><path class="cls-3" d="M359.07,26c0-1.24,1.07-1.86,3.5-2.13,0-.73-.25-1.44-1.18-1.44a3.14,3.14,0,0,0-1.7.61l-.38-.66a4.25,4.25,0,0,1,2.24-.74c1.39,0,2,.92,2,2.34v3.5h-.79l-.09-.68h0a3,3,0,0,1-1.88.82A1.55,1.55,0,0,1,359.07,26Zm3.5.09V24.49c-1.91.23-2.56.7-2.56,1.43s.44.91,1,.91A2.33,2.33,0,0,0,362.57,26.08Z"/><path class="cls-3" d="M364.91,24.63a2.76,2.76,0,0,1,2.74-3,2.39,2.39,0,0,1,1.67.66l-.49.64a1.66,1.66,0,0,0-1.13-.5c-1,0-1.79.89-1.79,2.2s.71,2.18,1.76,2.18a2.1,2.1,0,0,0,1.34-.57l.42.65a2.82,2.82,0,0,1-1.85.72A2.68,2.68,0,0,1,364.91,24.63Z"/><path class="cls-3" d="M370.74,25.71V22.55h-.85v-.73l.89-.05.12-1.6h.8v1.6h1.55v.78H371.7v3.17c0,.7.23,1.1.88,1.1a1.77,1.77,0,0,0,.65-.15l.19.73a3.39,3.39,0,0,1-1.06.21C371.15,27.61,370.74,26.84,370.74,25.71Z"/><path class="cls-3" d="M374.36,20a.67.67,0,0,1,1.33,0,.67.67,0,0,1-1.33,0Zm.17,1.8h1v5.7h-1Z"/><path class="cls-3" d="M377,24.63a2.66,2.66,0,1,1,5.28,0,2.66,2.66,0,1,1-5.28,0Zm4.28,0c0-1.31-.66-2.2-1.64-2.2s-1.65.89-1.65,2.2.67,2.18,1.65,2.18S381.28,25.93,381.28,24.63Z"/><path class="cls-3" d="M383.78,21.77h.8l.08.82h0a2.71,2.71,0,0,1,1.91-1c1.21,0,1.75.77,1.75,2.23v3.61h-1V24c0-1.06-.32-1.52-1.08-1.52-.58,0-1,.3-1.55.88v4.13h-1Z"/><path class="cls-3" d="M390,26.88a.7.7,0,1,1,1.4,0,.7.7,0,1,1-1.4,0Z"/><path class="cls-3" d="M395.43,26.67h1.71V21.16h-1.36v-.62a4.67,4.67,0,0,0,1.59-.55h.74v6.68h1.54v.8h-4.22Z"/><path class="cls-3" d="M400.63,26.58l.47-.63a2.54,2.54,0,0,0,1.89.86,1.61,1.61,0,0,0,1.64-1.71A1.5,1.5,0,0,0,403,23.46a2.15,2.15,0,0,0-1.29.45l-.51-.32.25-3.6h3.74v.83h-2.89l-.2,2.22a2.27,2.27,0,0,1,1.15-.31,2.15,2.15,0,0,1,2.32,2.34,2.45,2.45,0,0,1-2.52,2.54A3.24,3.24,0,0,1,400.63,26.58Z"/><path class="cls-3" d="M406.72,28.9a1.58,1.58,0,0,0,1.06-1.46l-.1-.87.47.71a.61.61,0,0,1-.49.2.66.66,0,0,1-.7-.67.68.68,0,0,1,.72-.68c.51,0,.82.43.82,1.14A2.32,2.32,0,0,1,407,29.46Z"/><path class="cls-3" d="M409.61,23.7c0-2.51.9-3.85,2.4-3.85s2.4,1.35,2.4,3.85-.91,3.91-2.4,3.91S409.61,26.21,409.61,23.7Zm3.86,0c0-2.19-.59-3.08-1.46-3.08s-1.46.89-1.46,3.08.59,3.13,1.46,3.13S413.47,25.89,413.47,23.7Z"/><path class="cls-3" d="M415.44,23.7c0-2.51.91-3.85,2.4-3.85s2.4,1.35,2.4,3.85-.91,3.91-2.4,3.91S415.44,26.21,415.44,23.7Zm3.86,0c0-2.19-.59-3.08-1.46-3.08s-1.46.89-1.46,3.08.59,3.13,1.46,3.13S419.3,25.89,419.3,23.7Z"/><path class="cls-3" d="M421.27,23.7c0-2.51.91-3.85,2.4-3.85s2.4,1.35,2.4,3.85-.9,3.91-2.4,3.91S421.27,26.21,421.27,23.7Zm3.86,0c0-2.19-.59-3.08-1.46-3.08s-1.46.89-1.46,3.08.59,3.13,1.46,3.13S425.13,25.89,425.13,23.7Z"/><path class="cls-3" d="M430,19.77h2.28c1.57,0,2.65.53,2.65,1.88a1.69,1.69,0,0,1-1.12,1.68v0a1.78,1.78,0,0,1,1.56,1.85c0,1.51-1.2,2.25-2.91,2.25H430Zm2.12,3.28c1.31,0,1.85-.49,1.85-1.27s-.62-1.23-1.81-1.23H431v2.5Zm.2,3.64c1.31,0,2.09-.47,2.09-1.51s-.75-1.38-2.09-1.38H431v2.89Z"/><path class="cls-3" d="M436.89,19.77h1l2.79,4.84.83,1.59h.05c-.05-.77-.13-1.64-.13-2.45v-4h.93v7.7h-1l-2.79-4.85L437.74,21h-.05c.05.78.13,1.6.13,2.41v4h-.93Z"/><path class="cls-3" d="M444.48,19.77h2.29c1.56,0,2.64.53,2.64,1.88a1.69,1.69,0,0,1-1.12,1.68v0a1.79,1.79,0,0,1,1.57,1.85c0,1.51-1.2,2.25-2.92,2.25h-2.46Zm2.12,3.28c1.31,0,1.85-.49,1.85-1.27s-.61-1.23-1.8-1.23h-1.19v2.5Zm.2,3.64c1.32,0,2.09-.47,2.09-1.51s-.74-1.38-2.09-1.38h-1.34v2.89Z"/><path class="cls-3" d="M453.64,21.77h.79l.09,1h0a2,2,0,0,1,1.62-1.17,1.42,1.42,0,0,1,.61.11l-.18.85a1.69,1.69,0,0,0-.56-.09c-.48,0-1.05.34-1.44,1.31v3.66h-1Z"/><path class="cls-3" d="M457.17,24.63a2.75,2.75,0,0,1,2.56-3c1.46,0,2.28,1,2.28,2.67a2.79,2.79,0,0,1-.05.55h-3.84a1.9,1.9,0,0,0,1.9,2,2.5,2.5,0,0,0,1.42-.45l.34.63a3.33,3.33,0,0,1-1.88.59A2.72,2.72,0,0,1,457.17,24.63Zm4-.47c0-1.14-.52-1.77-1.41-1.77a1.76,1.76,0,0,0-1.64,1.77Z"/><path class="cls-3" d="M467,27.85l0-1a2.52,2.52,0,0,1-1.71.79c-1.43,0-2.35-1.08-2.35-3s1.16-3,2.46-3a2.31,2.31,0,0,1,1.63.68h0l.09-.54H468v8.11h-1ZM467,26V23a2,2,0,0,0-1.39-.59c-.91,0-1.64.88-1.64,2.18s.57,2.18,1.57,2.18A2,2,0,0,0,467,26Z"/><path class="cls-3" d="M469.85,25.38V21.77h1v3.49c0,1.06.32,1.51,1.08,1.51.58,0,1-.29,1.53-1v-4h1v5.7h-.8l-.08-.89h0a2.43,2.43,0,0,1-1.88,1C470.39,27.61,469.85,26.84,469.85,25.38Z"/><path class="cls-3" d="M476.13,20a.67.67,0,0,1,1.34,0,.67.67,0,0,1-1.34,0Zm.18,1.8h1v5.7h-1Z"/><path class="cls-3" d="M479.19,21.77h.8l.08,1h0a2,2,0,0,1,1.62-1.17,1.42,1.42,0,0,1,.61.11l-.18.85a1.69,1.69,0,0,0-.56-.09c-.48,0-1.05.34-1.44,1.31v3.66h-1Z"/><path class="cls-3" d="M482.73,24.63a2.75,2.75,0,0,1,2.56-3c1.46,0,2.28,1,2.28,2.67a2.79,2.79,0,0,1-.05.55h-3.84a1.9,1.9,0,0,0,1.9,2,2.52,2.52,0,0,0,1.42-.45l.34.63a3.33,3.33,0,0,1-1.88.59A2.72,2.72,0,0,1,482.73,24.63Zm4-.47c0-1.14-.51-1.77-1.4-1.77a1.76,1.76,0,0,0-1.64,1.77Z"/><path class="cls-3" d="M488.56,24.63c0-1.85,1.17-3,2.47-3a2.29,2.29,0,0,1,1.6.66l0-1v-2.2h1v8.36h-.8l-.08-.67h0a2.52,2.52,0,0,1-1.73.81C489.49,27.61,488.56,26.53,488.56,24.63Zm4,1.39V23a2,2,0,0,0-1.39-.59c-.91,0-1.64.88-1.64,2.18s.57,2.18,1.57,2.18A2,2,0,0,0,492.59,26Z"/><path class="cls-3" d="M495.28,26.88a.7.7,0,1,1,1.4,0,.7.7,0,1,1-1.4,0Z"/></g></g></svg>