<svg xmlns="http://www.w3.org/2000/svg" viewBox="0 0 125.23 12.68"><defs><style>.cls-1{fill:#fff;}</style></defs><g id="Layer_2" data-name="Layer 2"><g id="Layer_1-2" data-name="Layer 1"><path class="cls-1" d="M1.62,3.12h3.5c2.41,0,4.07.82,4.07,2.9A2.58,2.58,0,0,1,7.46,8.58v.08a2.72,2.72,0,0,1,2.4,2.82c0,2.32-1.83,3.46-4.47,3.46H1.62Zm3.25,5c2,0,2.84-.74,2.84-1.94,0-1.38-1-1.89-2.77-1.89H3.12V8.15Zm.31,5.6c2,0,3.21-.73,3.21-2.32S7.24,9.31,5.18,9.31H3.12v4.44Z" transform="translate(-1.62 -2.48)"/><path class="cls-1" d="M11.79,3.43a1,1,0,0,1,1-1,1,1,0,0,1,1,1,1,1,0,0,1-2.05,0Zm.27,2.76h1.48v8.75H12.06Z" transform="translate(-1.62 -2.48)"/><path class="cls-1" d="M16.49,6.19h1.22l.13,1.26h.05A4.16,4.16,0,0,1,20.82,6c1.85,0,2.67,1.19,2.67,3.42v5.55H22V9.59c0-1.63-.49-2.33-1.65-2.33A3.31,3.31,0,0,0,18,8.6v6.34H16.49Z" transform="translate(-1.62 -2.48)"/><path class="cls-1" d="M25.79,12.67c0-1.91,1.65-2.86,5.38-3.27,0-1.12-.38-2.21-1.81-2.21a4.83,4.83,0,0,0-2.61.94l-.58-1A6.42,6.42,0,0,1,29.61,6c2.14,0,3,1.42,3,3.6v5.37H31.42l-.12-1h-.05a4.62,4.62,0,0,1-2.89,1.27A2.38,2.38,0,0,1,25.79,12.67Zm5.38.13V10.37c-2.94.36-3.93,1.08-3.93,2.19s.68,1.4,1.54,1.4A3.61,3.61,0,0,0,31.17,12.8Z" transform="translate(-1.62 -2.48)"/><path class="cls-1" d="M35.41,6.19h1.22l.12,1.26h0A4.21,4.21,0,0,1,39.74,6c1.84,0,2.67,1.19,2.67,3.42v5.55H40.93V9.59c0-1.63-.49-2.33-1.65-2.33A3.29,3.29,0,0,0,36.89,8.6v6.34H35.41Z" transform="translate(-1.62 -2.48)"/><path class="cls-1" d="M44.6,10.58A4.26,4.26,0,0,1,48.81,6a3.68,3.68,0,0,1,2.56,1l-.75,1a2.54,2.54,0,0,0-1.74-.77c-1.59,0-2.75,1.36-2.75,3.37s1.1,3.34,2.71,3.34a3.09,3.09,0,0,0,2-.87l.65,1a4.23,4.23,0,0,1-2.83,1.12C46.38,15.16,44.6,13.47,44.6,10.58Z" transform="translate(-1.62 -2.48)"/><path class="cls-1" d="M52.43,10.58C52.43,7.73,54.35,6,56.37,6c2.23,0,3.49,1.61,3.49,4.11a5,5,0,0,1-.07.84H53.9A2.91,2.91,0,0,0,56.8,14a3.82,3.82,0,0,0,2.18-.7l.53,1a5.14,5.14,0,0,1-2.89.91C54.29,15.16,52.43,13.45,52.43,10.58Zm6.12-.72c0-1.75-.79-2.71-2.16-2.71a2.69,2.69,0,0,0-2.51,2.71Z" transform="translate(-1.62 -2.48)"/><path class="cls-1" d="M65.61,6.19h1.22L67,7.46H67A3.87,3.87,0,0,1,69.73,6a2.31,2.31,0,0,1,2.42,1.67A4.15,4.15,0,0,1,75,6c1.8,0,2.67,1.19,2.67,3.42v5.55H76.22V9.59c0-1.63-.52-2.33-1.63-2.33a3.2,3.2,0,0,0-2.2,1.34v6.34H70.91V9.59c0-1.63-.51-2.33-1.63-2.33A3.25,3.25,0,0,0,67.09,8.6v6.34H65.61Z" transform="translate(-1.62 -2.48)"/><path class="cls-1" d="M80,12.67c0-1.91,1.64-2.86,5.37-3.27,0-1.12-.37-2.21-1.8-2.21A4.8,4.8,0,0,0,81,8.13l-.58-1A6.39,6.39,0,0,1,83.81,6c2.13,0,3,1.42,3,3.6v5.37H85.62l-.12-1h0a4.64,4.64,0,0,1-2.9,1.27A2.38,2.38,0,0,1,80,12.67Zm5.37.13V10.37c-2.93.36-3.92,1.08-3.92,2.19A1.34,1.34,0,0,0,83,14,3.57,3.57,0,0,0,85.36,12.8Z" transform="translate(-1.62 -2.48)"/><path class="cls-1" d="M89.33,3.43a1,1,0,0,1,2,0,1,1,0,0,1-2,0Zm.27,2.76h1.48v8.75H89.6Z" transform="translate(-1.62 -2.48)"/><path class="cls-1" d="M94,6.19h1.22l.13,1.26h.05A4.17,4.17,0,0,1,98.37,6C100.21,6,101,7.16,101,9.39v5.55H99.56V9.59c0-1.63-.5-2.33-1.65-2.33a3.31,3.31,0,0,0-2.4,1.34v6.34H94Z" transform="translate(-1.62 -2.48)"/><path class="cls-1" d="M103.88,6.19h1.22l.13,1.26h0A4.16,4.16,0,0,1,108.21,6c1.84,0,2.67,1.19,2.67,3.42v5.55H109.4V9.59c0-1.63-.49-2.33-1.65-2.33a3.31,3.31,0,0,0-2.39,1.34v6.34h-1.48Z" transform="translate(-1.62 -2.48)"/><path class="cls-1" d="M113.07,10.58C113.07,7.73,115,6,117,6c2.23,0,3.49,1.61,3.49,4.11a5,5,0,0,1-.07.84h-5.89A2.91,2.91,0,0,0,117.45,14a3.77,3.77,0,0,0,2.17-.7l.53,1a5.14,5.14,0,0,1-2.89.91C114.93,15.16,113.07,13.45,113.07,10.58Zm6.12-.72c0-1.75-.79-2.71-2.16-2.71a2.69,2.69,0,0,0-2.51,2.71Z" transform="translate(-1.62 -2.48)"/><path class="cls-1" d="M122.73,12.23V7.39h-1.3V6.27l1.37-.08L123,3.73h1.24V6.19h2.37v1.2h-2.37v4.87c0,1.07.35,1.69,1.35,1.69a2.82,2.82,0,0,0,1-.24l.29,1.12a5.2,5.2,0,0,1-1.63.33C123.36,15.16,122.73,14,122.73,12.23Z" transform="translate(-1.62 -2.48)"/></g></g></svg>