<svg xmlns="http://www.w3.org/2000/svg" viewBox="0 0 117.71 13.04"><defs><style>.cls-1{fill:#fff;}</style></defs><g id="Layer_2" data-name="Layer 2"><g id="Layer_1-2" data-name="Layer 1"><path class="cls-1" d="M.76,13.4l.9-1a4.62,4.62,0,0,0,3.26,1.46c1.55,0,2.47-.77,2.47-1.92s-.86-1.59-2-2.08l-1.7-.74A3.33,3.33,0,0,1,1.33,6c0-1.8,1.57-3.13,3.72-3.13A4.87,4.87,0,0,1,8.53,4.37l-.8,1A3.76,3.76,0,0,0,5.05,4.23C3.72,4.23,2.84,4.9,2.84,6s1,1.57,2,2l1.68.73c1.37.59,2.44,1.4,2.44,3.16s-1.54,3.36-4,3.36A5.64,5.64,0,0,1,.76,13.4Z" transform="translate(-0.76 -2.11)"/><path class="cls-1" d="M10,6.19h1.52l1.3,5.05c.19.84.35,1.62.52,2.44h.07c.19-.82.38-1.62.59-2.44l1.35-5h1.45l1.37,5.05c.21.84.4,1.62.6,2.44h.08c.19-.82.35-1.6.54-2.44l1.27-5h1.41l-2.34,8.75H18l-1.26-4.7c-.21-.83-.38-1.64-.59-2.52H16c-.19.88-.37,1.71-.6,2.54l-1.23,4.68H12.48Z" transform="translate(-0.76 -2.11)"/><path class="cls-1" d="M23.74,3.43a1,1,0,0,1,2.05,0,1,1,0,0,1-2.05,0ZM24,6.19h1.48v8.75H24Z" transform="translate(-0.76 -2.11)"/><path class="cls-1" d="M28.7,12.23V7.39H27.4V6.27l1.37-.08.17-2.46h1.24V6.19h2.37v1.2H30.18v4.87c0,1.07.35,1.69,1.35,1.69a2.82,2.82,0,0,0,1-.24l.29,1.12a5.2,5.2,0,0,1-1.63.33C29.33,15.16,28.7,14,28.7,12.23Z" transform="translate(-0.76 -2.11)"/><path class="cls-1" d="M33.62,10.58A4.26,4.26,0,0,1,37.83,6a3.68,3.68,0,0,1,2.56,1l-.75,1a2.54,2.54,0,0,0-1.74-.77c-1.59,0-2.75,1.36-2.75,3.37s1.1,3.34,2.71,3.34a3.14,3.14,0,0,0,2.06-.87l.64,1a4.23,4.23,0,0,1-2.83,1.12C35.4,15.16,33.62,13.47,33.62,10.58Z" transform="translate(-0.76 -2.11)"/><path class="cls-1" d="M42.48,2.11H44V5.62l-.05,1.8A4.16,4.16,0,0,1,46.81,6c1.85,0,2.68,1.19,2.68,3.42v5.55H48V9.59c0-1.63-.5-2.33-1.66-2.33A3.31,3.31,0,0,0,44,8.6v6.34H42.48Z" transform="translate(-0.76 -2.11)"/><path class="cls-1" d="M56,3.12h1.55l4.28,7.43L63.12,13h.07c-.08-1.19-.19-2.53-.19-3.76V3.12h1.42V14.94H62.87L58.59,7.5,57.32,5.06h-.07c.07,1.2.19,2.46.19,3.7v6.18H56Z" transform="translate(-0.76 -2.11)"/><path class="cls-1" d="M66.87,10.58C66.87,7.73,68.79,6,70.8,6c2.23,0,3.49,1.61,3.49,4.11a5.08,5.08,0,0,1-.06.84h-5.9A2.92,2.92,0,0,0,71.24,14a3.82,3.82,0,0,0,2.18-.7l.53,1a5.17,5.17,0,0,1-2.89.91C68.72,15.16,66.87,13.45,66.87,10.58ZM73,9.86c0-1.75-.79-2.71-2.16-2.71a2.69,2.69,0,0,0-2.51,2.71Z" transform="translate(-0.76 -2.11)"/><path class="cls-1" d="M76.53,12.23V7.39H75.22V6.27l1.37-.08.18-2.46H78V6.19h2.37v1.2H78v4.87c0,1.07.34,1.69,1.35,1.69a2.93,2.93,0,0,0,1-.24l.28,1.12a5.14,5.14,0,0,1-1.62.33C77.16,15.16,76.53,14,76.53,12.23Z" transform="translate(-0.76 -2.11)"/><path class="cls-1" d="M81.3,6.19h1.52l1.3,5.05c.19.84.35,1.62.52,2.44h.07c.19-.82.38-1.62.59-2.44l1.36-5H88.1l1.37,5.05c.21.84.4,1.62.6,2.44h.08c.19-.82.35-1.6.54-2.44l1.27-5h1.42L91,14.94H89.22L88,10.24c-.21-.83-.38-1.64-.59-2.52H87.3c-.19.88-.37,1.71-.6,2.54l-1.23,4.68H83.74Z" transform="translate(-0.76 -2.11)"/><path class="cls-1" d="M94.55,10.58C94.55,7.66,96.46,6,98.61,6s4,1.69,4,4.61-1.91,4.58-4,4.58S94.55,13.47,94.55,10.58Zm6.58,0c0-2-1-3.37-2.52-3.37s-2.53,1.36-2.53,3.37,1,3.34,2.53,3.34S101.13,12.58,101.13,10.58Z" transform="translate(-0.76 -2.11)"/><path class="cls-1" d="M105,6.19h1.22l.13,1.59h0A3,3,0,0,1,108.84,6a2.08,2.08,0,0,1,.94.18l-.28,1.3a2.57,2.57,0,0,0-.85-.14c-.74,0-1.62.53-2.21,2v5.62H105Z" transform="translate(-0.76 -2.11)"/><path class="cls-1" d="M111.2,2.11h1.46V10.8h0l3.73-4.61h1.65l-2.94,3.52,3.32,5.23h-1.62l-2.55-4.21-1.64,1.91v2.3H111.2Z" transform="translate(-0.76 -2.11)"/></g></g></svg>