<svg xmlns="http://www.w3.org/2000/svg" viewBox="0 0 13.54 19.29"><defs><style>.cls-1{fill:none;stroke:#79fb53;stroke-miterlimit:10;}</style></defs><g id="Layer_2" data-name="Layer 2"><g id="Layer_1-2" data-name="Layer 1"><path class="cls-1" d="M13,14.6s0-.08,0-.13V8.9a.2.2,0,0,1,0-.13A2.23,2.23,0,0,0,11.77,6.9a.4.4,0,0,1-.27-.43,7,7,0,0,0-.27-1.88,6.72,6.72,0,0,0-1-2.1A5.55,5.55,0,0,0,9,1.2,5.72,5.72,0,0,0,8.25.81,3.59,3.59,0,0,0,6.08.57a4.1,4.1,0,0,0-1.6.7A5.49,5.49,0,0,0,3.25,2.54l-.07.11a7.13,7.13,0,0,0-1,2.62c-.06.3-.08.61-.12.91s0,.36,0,.53S2,6.78,2,6.8A2.35,2.35,0,0,0,.65,8.17l-.09.28a10.24,10.24,0,0,0-.05,1.66c0,1.17,0,2.33,0,3.49A9.11,9.11,0,0,0,.56,15,3.79,3.79,0,0,0,1,16a5,5,0,0,0,1.63,1.63l.05,0a7.61,7.61,0,0,0,3.65,1.09,9,9,0,0,0,2.48-.22A6.57,6.57,0,0,0,12,16.8a4.26,4.26,0,0,0,.77-1.16A3.41,3.41,0,0,0,13,14.6ZM8.53,12a1.11,1.11,0,0,1-.09.4,1.61,1.61,0,0,1-.68.88s0,.09,0,.14V14.8c0,.09,0,.11-.11.11H5.92c-.1,0-.11,0-.11-.12V13.37a.16.16,0,0,0-.08-.15,1.56,1.56,0,0,1-.47-.52,1.74,1.74,0,0,1,1-2.61A.93.93,0,0,1,6.64,10a.9.9,0,0,1,.46,0,1.56,1.56,0,0,1,.81.38,1,1,0,0,1,.29.32,1.5,1.5,0,0,1,.33.86A.63.63,0,0,1,8.53,12Zm1-5.33a.2.2,0,0,1-.13,0H4.11s-.1,0-.13,0,0-.35,0-.53.05-.41.09-.61a2.11,2.11,0,0,1,.09-.36h0a2.93,2.93,0,0,1,.3-.81,3,3,0,0,1,.71-1,2,2,0,0,1,.72-.45,2.1,2.1,0,0,1,2,.15A3.08,3.08,0,0,1,9.24,4.77h0a2,2,0,0,1,.11.35,6.34,6.34,0,0,1,.21,1.44S9.57,6.62,9.53,6.64Z"/></g></g></svg>