<svg xmlns="http://www.w3.org/2000/svg" viewBox="0 0 76.5 13.04"><defs><style>.cls-1{fill:#fff;}</style></defs><g id="Layer_2" data-name="Layer 2"><g id="Layer_1-2" data-name="Layer 1"><path class="cls-1" d="M4,3.12h1.7l4,11.82H8.15L6.09,8.34C5.66,7,5.28,5.72,4.9,4.36H4.83c-.37,1.37-.74,2.66-1.17,4l-2.08,6.6H.05Zm-1.89,7H7.59v1.2H2.15Z" transform="translate(-0.05 -2.11)"/><path class="cls-1" d="M9.88,6.19h1.53l1.65,5,.81,2.58h.07c.27-.83.55-1.73.81-2.58l1.66-5h1.45l-3.1,8.75H13Z" transform="translate(-0.05 -2.11)"/><path class="cls-1" d="M18.65,12.67c0-1.91,1.64-2.86,5.37-3.27,0-1.12-.38-2.21-1.81-2.21a4.77,4.77,0,0,0-2.6.94l-.58-1A6.38,6.38,0,0,1,22.46,6c2.14,0,3,1.42,3,3.6v5.37H24.28l-.13-1h0a4.64,4.64,0,0,1-2.9,1.27A2.38,2.38,0,0,1,18.65,12.67ZM24,12.8V10.37c-2.93.36-3.92,1.08-3.92,2.19s.67,1.4,1.53,1.4A3.59,3.59,0,0,0,24,12.8Z" transform="translate(-0.05 -2.11)"/><path class="cls-1" d="M28.26,13.18V2.11h1.48V13.29c0,.45.2.63.42.63a1.53,1.53,0,0,0,.32,0l.2,1.13a2.48,2.48,0,0,1-.85.14C28.72,15.16,28.26,14.45,28.26,13.18Z" transform="translate(-0.05 -2.11)"/><path class="cls-1" d="M32.31,12.67c0-1.91,1.64-2.86,5.37-3.27,0-1.12-.37-2.21-1.8-2.21a4.8,4.8,0,0,0-2.61.94l-.58-1A6.38,6.38,0,0,1,36.12,6c2.14,0,3.05,1.42,3.05,3.6v5.37H37.94l-.12-1h0a4.64,4.64,0,0,1-2.9,1.27A2.38,2.38,0,0,1,32.31,12.67Zm5.37.13V10.37c-2.93.36-3.92,1.08-3.92,2.19s.67,1.4,1.53,1.4A3.57,3.57,0,0,0,37.68,12.8Z" transform="translate(-0.05 -2.11)"/><path class="cls-1" d="M41.92,6.19h1.23l.12,1.26h0A4.19,4.19,0,0,1,46.26,6c1.84,0,2.67,1.19,2.67,3.42v5.55H47.45V9.59C47.45,8,47,7.26,45.8,7.26A3.31,3.31,0,0,0,43.4,8.6v6.34H41.92Z" transform="translate(-0.05 -2.11)"/><path class="cls-1" d="M51.12,10.58c0-2.92,2-4.61,4.21-4.61a3.7,3.7,0,0,1,2.56,1l-.76,1a2.53,2.53,0,0,0-1.73-.77c-1.59,0-2.75,1.36-2.75,3.37s1.1,3.34,2.71,3.34a3.09,3.09,0,0,0,2-.87l.64,1a4.21,4.21,0,0,1-2.83,1.12C52.89,15.16,51.12,13.47,51.12,10.58Z" transform="translate(-0.05 -2.11)"/><path class="cls-1" d="M60,2.11h1.48V5.62l-.06,1.8A4.18,4.18,0,0,1,64.31,6C66.15,6,67,7.16,67,9.39v5.55H65.5V9.59C65.5,8,65,7.26,63.85,7.26A3.31,3.31,0,0,0,61.46,8.6v6.34H60Z" transform="translate(-0.05 -2.11)"/><path class="cls-1" d="M69.12,10.58C69.12,7.73,71,6,73.05,6c2.24,0,3.5,1.61,3.5,4.11a5,5,0,0,1-.07.84h-5.9A2.92,2.92,0,0,0,73.49,14a3.82,3.82,0,0,0,2.18-.7l.53,1a5.17,5.17,0,0,1-2.89.91C71,15.16,69.12,13.45,69.12,10.58Zm6.12-.72c0-1.75-.79-2.71-2.16-2.71a2.69,2.69,0,0,0-2.51,2.71Z" transform="translate(-0.05 -2.11)"/></g></g></svg>