<svg xmlns="http://www.w3.org/2000/svg" viewBox="0 0 57.88 16.85"><defs><style>.cls-1{fill:#fff;}</style></defs><g id="Layer_2" data-name="Layer 2"><g id="Layer_1-2" data-name="Layer 1"><path class="cls-1" d="M1.62,3.12H5c2.65,0,4.43.89,4.43,3.48s-1.77,3.65-4.36,3.65H3.12v4.69H1.62ZM4.87,9C6.94,9,7.92,8.28,7.92,6.6s-1-2.26-3.12-2.26H3.12V9Z" transform="translate(-1.62 -2.11)"/><path class="cls-1" d="M10.58,10.58C10.58,7.66,12.49,6,14.64,6s4.05,1.69,4.05,4.61-1.91,4.58-4.05,4.58S10.58,13.47,10.58,10.58Zm6.58,0c0-2-1-3.37-2.52-3.37s-2.53,1.36-2.53,3.37,1,3.34,2.53,3.34S17.16,12.58,17.16,10.58Z" transform="translate(-1.62 -2.11)"/><path class="cls-1" d="M20.92,13.18V2.11H22.4V13.29c0,.45.2.63.41.63a1.44,1.44,0,0,0,.32,0L23.34,15a2.6,2.6,0,0,1-.86.14C21.37,15.16,20.92,14.45,20.92,13.18Z" transform="translate(-1.62 -2.11)"/><path class="cls-1" d="M24.63,18.53l.29-1.18a2.21,2.21,0,0,0,.67.13c1,0,1.61-.79,2-1.88l.2-.64L24.25,6.19h1.52L27.56,11c.27.76.57,1.66.85,2.47h.07c.25-.8.5-1.69.74-2.47l1.56-4.84h1.45l-3.3,9.47c-.62,1.74-1.52,3.05-3.27,3.05A2.8,2.8,0,0,1,24.63,18.53Z" transform="translate(-1.62 -2.11)"/><path class="cls-1" d="M33.25,16.62a2.48,2.48,0,0,1,1.28-2v-.07a1.63,1.63,0,0,1-.78-1.43,2.11,2.11,0,0,1,1-1.63v-.07a3,3,0,0,1-1.13-2.35A3.11,3.11,0,0,1,36.86,6a3.62,3.62,0,0,1,1.24.22h3V7.33h-1.8a2.5,2.5,0,0,1,.72,1.8,3,3,0,0,1-3.21,3,3.15,3.15,0,0,1-1.3-.29,1.26,1.26,0,0,0-.56,1c0,.56.36.95,1.54.95h1.7c2,0,3,.64,3,2.09,0,1.63-1.72,3-4.42,3C34.73,19,33.25,18.13,33.25,16.62Zm6.59-.46c0-.81-.61-1.08-1.76-1.08H36.57A5.32,5.32,0,0,1,35.43,15a1.82,1.82,0,0,0-.89,1.46c0,.94,1,1.54,2.54,1.54S39.84,17.08,39.84,16.16ZM38.72,9.09a1.87,1.87,0,1,0-3.72,0,1.87,1.87,0,1,0,3.72,0Z" transform="translate(-1.62 -2.11)"/><path class="cls-1" d="M42.08,10.58C42.08,7.66,44,6,46.14,6s4,1.69,4,4.61-1.91,4.58-4,4.58S42.08,13.47,42.08,10.58Zm6.58,0c0-2-1-3.37-2.52-3.37s-2.53,1.36-2.53,3.37,1,3.34,2.53,3.34S48.66,12.58,48.66,10.58Z" transform="translate(-1.62 -2.11)"/><path class="cls-1" d="M52.49,6.19h1.22l.13,1.26h0A4.16,4.16,0,0,1,56.82,6c1.85,0,2.67,1.19,2.67,3.42v5.55H58V9.59c0-1.63-.49-2.33-1.65-2.33A3.31,3.31,0,0,0,54,8.6v6.34H52.49Z" transform="translate(-1.62 -2.11)"/></g></g></svg>