<svg xmlns="http://www.w3.org/2000/svg" viewBox="0 0 19.28 19.28"><defs><style>.cls-1{fill:none;stroke:#fff;stroke-miterlimit:10;stroke-width:0.5px;}.cls-2{fill:#e6e6e6;}.cls-3{fill:gray;}.cls-4{fill:#b3b3b3;}</style></defs><g id="Layer_2" data-name="Layer 2"><g id="Layer_1-2" data-name="Layer 1"><path class="cls-1" d="M19,9.16v0c0-.16,0-.32-.05-.48A8.84,8.84,0,0,0,18,5.4,9.29,9.29,0,0,0,12.88.83,9,9,0,0,0,10.42.28a2.53,2.53,0,0,1-.38,0h-.8a.09.09,0,0,1-.07,0h0L8.65.3A9.41,9.41,0,0,0,1.39,5.16,9.37,9.37,0,0,0,.33,10.83a9.19,9.19,0,0,0,2.28,5,9.27,9.27,0,0,0,4.5,2.83A9.15,9.15,0,0,0,10.4,19a9.19,9.19,0,0,0,5.35-2.23,9.22,9.22,0,0,0,3-4.94A9.45,9.45,0,0,0,19,10.14a.36.36,0,0,1,0-.1V9.23S19,9.19,19,9.16Z"/><path class="cls-2" d="M5.55,9.75l.91-.4L9,8.22l.95-.42h0V2.62s0,.06-.07.09l-3.69,6Z"/><path class="cls-3" d="M10.7,8.14l-.76-.33a.57.57,0,0,0,0,.13v4.37l.11-.05,1.56-.91,2.63-1.52s.08,0,.09-.08l-.11,0Z"/><path class="cls-2" d="M5.89,10.79l-.32-.18a.15.15,0,0,0,0,.09l4.26,5.89s0,.06.06.07V13.14Z"/><path class="cls-4" d="M9.93,16.66a.23.23,0,0,0,.08-.09l4.25-5.89s0,0,0-.07L9.93,13.14Z"/></g></g></svg>