<svg xmlns="http://www.w3.org/2000/svg" viewBox="0 0 48.79 8.8"><defs><style>.cls-1{fill:#fff;}</style></defs><g id="Layer_2" data-name="Layer 2"><g id="Layer_1-2" data-name="Layer 1"><path class="cls-1" d="M5.65,9.74l.15-.31a.76.76,0,0,0,.32.08c.54,0,1-.5,1.38-1.26l.2-.39L6.94,3.29h.38l.44,2.82c.07.43.14.93.19,1.34H8l.7-1.34,1.52-2.82h.4L7.83,8.35c-.39.74-.91,1.49-1.73,1.49A1.12,1.12,0,0,1,5.65,9.74Z" transform="translate(-5.65 -1.04)"/><path class="cls-1" d="M10.72,6.12A2.74,2.74,0,0,1,13.1,3.17c.92,0,1.52.66,1.52,1.79A2.73,2.73,0,0,1,12.25,7.9C11.32,7.9,10.72,7.25,10.72,6.12ZM14.24,5c0-1-.43-1.5-1.17-1.5-1,0-2,1.17-2,2.56,0,1,.42,1.49,1.17,1.49A2.42,2.42,0,0,0,14.24,5Z" transform="translate(-5.65 -1.04)"/><path class="cls-1" d="M18.6,7.79h-.32l.1-.73h0a2.7,2.7,0,0,1-1.6.84,1,1,0,0,1-1.08-1.1,2.33,2.33,0,0,1,.08-.61l.58-2.9h.39l-.58,2.85a2.4,2.4,0,0,0-.08.58c0,.55.24.84.8.84a2.63,2.63,0,0,0,1.6-.95l.67-3.32h.38Z" transform="translate(-5.65 -1.04)"/><path class="cls-1" d="M21.19,3.29h.32l-.14.85h0a1.83,1.83,0,0,1,1.41-1,1.06,1.06,0,0,1,.41.08l-.15.37a.69.69,0,0,0-.36-.08c-.48,0-1,.46-1.46,1.27l-.59,3h-.39Z" transform="translate(-5.65 -1.04)"/><path class="cls-1" d="M25,7.79,26.38,1h.39l-.4,2-.19.92h0a2.78,2.78,0,0,1,1.67-.75c.79,0,1.31.57,1.31,1.63,0,1.73-1.2,3.1-2.44,3.1a1.29,1.29,0,0,1-1.16-.73h0l-.17.62Zm1.08-3.45-.49,2.41c.33.58.69.81,1.11.81,1.07,0,2.05-1.34,2.05-2.69,0-.9-.39-1.36-1-1.36A2.79,2.79,0,0,0,26.11,4.34Z" transform="translate(-5.65 -1.04)"/><path class="cls-1" d="M30,6.28c0-1.73,1.2-3.11,2.44-3.11a1.31,1.31,0,0,1,1.17.74h0l.17-.62h.33l-.91,4.5h-.32l.1-.71h0a2.37,2.37,0,0,1-1.66.82C30.53,7.9,30,7.34,30,6.28Zm3.08.31.47-2.26c-.33-.58-.69-.82-1.11-.82-1.07,0-2.05,1.34-2.05,2.7,0,.91.39,1.35,1,1.35A2.32,2.32,0,0,0,33.09,6.59Z" transform="translate(-5.65 -1.04)"/><path class="cls-1" d="M35,7.5a1.26,1.26,0,0,1,0-.29L36.27,1h.38l-1.23,6.2a.73.73,0,0,0,0,.18.12.12,0,0,0,.14.14.37.37,0,0,0,.15,0l0,.31a.75.75,0,0,1-.31.06A.38.38,0,0,1,35,7.5Z" transform="translate(-5.65 -1.04)"/><path class="cls-1" d="M37.13,6.28c0-1.73,1.2-3.11,2.45-3.11a1.3,1.3,0,0,1,1.16.74h0L41,3.29h.32l-.9,4.5H40l.1-.71h0a2.39,2.39,0,0,1-1.66.82C37.65,7.9,37.13,7.34,37.13,6.28Zm3.09.31.47-2.26c-.33-.58-.69-.82-1.12-.82-1.06,0-2,1.34-2,2.7,0,.91.39,1.35,1,1.35A2.33,2.33,0,0,0,40.22,6.59Z" transform="translate(-5.65 -1.04)"/><path class="cls-1" d="M43,3.29h.32l-.1.71h0a2.68,2.68,0,0,1,1.61-.83,1,1,0,0,1,1.07,1.1,2.28,2.28,0,0,1-.08.61l-.58,2.91h-.38l.58-2.85a3,3,0,0,0,.07-.59c0-.55-.24-.83-.8-.83a2.63,2.63,0,0,0-1.6.95l-.67,3.32H42Z" transform="translate(-5.65 -1.04)"/><path class="cls-1" d="M46.85,6.12a2.75,2.75,0,0,1,2.43-2.95,1.45,1.45,0,0,1,1.14.55L50.17,4a1.09,1.09,0,0,0-.92-.47,2.44,2.44,0,0,0-2,2.56c0,1,.41,1.49,1.25,1.49a1.9,1.9,0,0,0,1.16-.46l.2.28a2.3,2.3,0,0,1-1.41.52C47.47,7.9,46.85,7.26,46.85,6.12Z" transform="translate(-5.65 -1.04)"/><path class="cls-1" d="M53.09,3.17c1,0,1.35.68,1.35,1.6a3,3,0,0,1-.12.79H51.17c-.24,1.41.45,2,1.35,2a2.08,2.08,0,0,0,1.13-.43l.17.28a2.38,2.38,0,0,1-1.36.48,1.63,1.63,0,0,1-1.71-1.85A2.67,2.67,0,0,1,53.09,3.17ZM54,5.25a2.35,2.35,0,0,0,.06-.54c0-.6-.27-1.2-1-1.2a2.08,2.08,0,0,0-1.81,1.74Z" transform="translate(-5.65 -1.04)"/></g></g></svg>