<svg xmlns="http://www.w3.org/2000/svg" viewBox="0 0 437.56 34.46"><defs><style>.cls-1{fill:gray;}</style></defs><g id="Layer_2" data-name="Layer 2"><g id="Layer_1-2" data-name="Layer 1"><path class="cls-1" d="M3.53,2.46H1.16L1.26,2H6.5l-.1.45H4L2.58,9.74h-.5Z" transform="translate(0 -1.3)"/><path class="cls-1" d="M8,1.3h.49L7.85,4.42,7.7,5h0a3.39,3.39,0,0,1,2-1,1.22,1.22,0,0,1,1.35,1.38,3.06,3.06,0,0,1-.1.76L10.3,9.74H9.82l.72-3.57a3.29,3.29,0,0,0,.1-.73c0-.69-.3-1-1-1a3.35,3.35,0,0,0-2,1.18L6.8,9.74H6.32Z" transform="translate(0 -1.3)"/><path class="cls-1" d="M13.36,4.11h.49L12.71,9.74h-.48Zm.16-1.75A.51.51,0,0,1,14,1.83a.38.38,0,0,1,.39.41.5.5,0,0,1-.49.5A.37.37,0,0,1,13.52,2.36Z" transform="translate(0 -1.3)"/><path class="cls-1" d="M14.33,8.84l.34-.26a1.9,1.9,0,0,0,1.59.89A1.35,1.35,0,0,0,17.7,8.29c0-.45-.19-.75-1.07-1.22s-1.38-.93-1.38-1.51A1.67,1.67,0,0,1,17,4a2.09,2.09,0,0,1,1.55.69L18.27,5A1.63,1.63,0,0,0,17,4.38a1.21,1.21,0,0,0-1.29,1.1c0,.54.5.82,1,1.12,1.22.67,1.4,1.1,1.4,1.61a1.75,1.75,0,0,1-2,1.67A2.35,2.35,0,0,1,14.33,8.84Z" transform="translate(0 -1.3)"/><path class="cls-1" d="M22.7,4.11h.41L23,5H23A3.21,3.21,0,0,1,24.9,4a1.16,1.16,0,0,1,1.3,1.18A3.47,3.47,0,0,1,28.26,4a1.21,1.21,0,0,1,1.32,1.38,3.06,3.06,0,0,1-.1.76l-.73,3.64h-.48L29,6.17a3.87,3.87,0,0,0,.09-.73c0-.69-.3-1-1-1a3.32,3.32,0,0,0-1.87,1.18L25.4,9.74h-.48l.72-3.57a3.29,3.29,0,0,0,.1-.73c0-.69-.3-1-1-1a3.32,3.32,0,0,0-1.87,1.18l-.84,4.16h-.48Z" transform="translate(0 -1.3)"/><path class="cls-1" d="M33.7,4c1.22,0,1.69.84,1.69,2a3.14,3.14,0,0,1-.16,1H31.3C31,8.71,31.87,9.47,33,9.47a2.58,2.58,0,0,0,1.41-.55l.21.35a2.94,2.94,0,0,1-1.69.61,2,2,0,0,1-2.15-2.32C30.77,5.42,32.25,4,33.7,4Zm1.18,2.6a3.55,3.55,0,0,0,.06-.67c0-.76-.33-1.51-1.29-1.51a2.6,2.6,0,0,0-2.27,2.18Z" transform="translate(0 -1.3)"/><path class="cls-1" d="M36.32,7.85c0-2.17,1.5-3.89,3.06-3.89a1.61,1.61,0,0,1,1.45.92h.05l.21-.77h.41L40.36,9.74H40l.12-.9h0a3,3,0,0,1-2.08,1C37,9.88,36.32,9.17,36.32,7.85Zm3.86.39.59-2.83c-.42-.73-.87-1-1.4-1-1.33,0-2.56,1.68-2.56,3.37,0,1.14.49,1.69,1.26,1.69A2.9,2.9,0,0,0,40.18,8.24Z" transform="translate(0 -1.3)"/><path class="cls-1" d="M43.59,4.11H44L43.87,5h.05a3.31,3.31,0,0,1,2-1,1.21,1.21,0,0,1,1.34,1.38,3.06,3.06,0,0,1-.1.76l-.72,3.64H46l.73-3.57a3.87,3.87,0,0,0,.09-.73c0-.69-.29-1-1-1a3.3,3.3,0,0,0-2,1.18l-.84,4.16h-.48Z" transform="translate(0 -1.3)"/><path class="cls-1" d="M48,8.84l.34-.26a1.91,1.91,0,0,0,1.6.89,1.34,1.34,0,0,0,1.43-1.18c0-.45-.19-.75-1.07-1.22s-1.38-.93-1.38-1.51A1.67,1.67,0,0,1,50.66,4a2.09,2.09,0,0,1,1.55.69L51.9,5a1.63,1.63,0,0,0-1.26-.58,1.2,1.2,0,0,0-1.28,1.1c0,.54.49.82,1,1.12,1.22.67,1.41,1.1,1.41,1.61a1.76,1.76,0,0,1-2,1.67A2.36,2.36,0,0,1,48,8.84Z" transform="translate(0 -1.3)"/><path class="cls-1" d="M55.3,9.37A1.93,1.93,0,0,1,55.35,9L56.89,1.3h.48L55.83,9.05a1.16,1.16,0,0,0,0,.23c0,.11,0,.18.17.18a.39.39,0,0,0,.19-.05l0,.39a.9.9,0,0,1-.39.08A.46.46,0,0,1,55.3,9.37Z" transform="translate(0 -1.3)"/><path class="cls-1" d="M58,7.65C58,5.54,59.41,4,60.94,4c1.16,0,1.9.82,1.9,2.23,0,2.11-1.43,3.69-3,3.69C58.72,9.88,58,9.06,58,7.65Zm4.39-1.39c0-1.22-.53-1.87-1.46-1.87-1.21,0-2.45,1.46-2.45,3.2,0,1.22.53,1.87,1.46,1.87C61.12,9.46,62.36,8,62.36,6.26Z" transform="translate(0 -1.3)"/><path class="cls-1" d="M63.86,7.65A3.43,3.43,0,0,1,66.9,4a1.75,1.75,0,0,1,1.42.69L68,5a1.34,1.34,0,0,0-1.15-.58c-1.26,0-2.51,1.47-2.51,3.2,0,1.22.51,1.87,1.56,1.87a2.38,2.38,0,0,0,1.46-.59l.24.35a2.81,2.81,0,0,1-1.76.66A2,2,0,0,1,63.86,7.65Z" transform="translate(0 -1.3)"/><path class="cls-1" d="M70.57,1.3h.48L69.83,7.51h0l3.34-3.4h.59L71.57,6.39l1.36,3.35h-.5l-1.22-3L69.67,8.27l-.3,1.47h-.48Z" transform="translate(0 -1.3)"/><path class="cls-1" d="M76.37,7.85c0-2.17,1.5-3.89,3.06-3.89a1.62,1.62,0,0,1,1.45.92h0l.22-.77h.4L80.41,9.74H80l.12-.9h0a3,3,0,0,1-2.08,1C77,9.88,76.37,9.17,76.37,7.85Zm3.86.39.58-2.83c-.41-.73-.86-1-1.39-1-1.34,0-2.56,1.68-2.56,3.37,0,1.14.49,1.69,1.26,1.69A2.91,2.91,0,0,0,80.23,8.24Z" transform="translate(0 -1.3)"/><path class="cls-1" d="M83.64,4.11H84L83.92,5h0a3.26,3.26,0,0,1,1.88-1,1.16,1.16,0,0,1,1.3,1.18,3.48,3.48,0,0,1,2-1.18,1.21,1.21,0,0,1,1.32,1.38,3,3,0,0,1-.09.76l-.73,3.64h-.48l.72-3.57a3.29,3.29,0,0,0,.1-.73c0-.69-.3-1-1-1a3.32,3.32,0,0,0-1.87,1.18l-.84,4.16h-.48l.72-3.57a3.18,3.18,0,0,0,.09-.73c0-.69-.29-1-1-1a3.29,3.29,0,0,0-1.87,1.18L83,9.74h-.48Z" transform="translate(0 -1.3)"/><path class="cls-1" d="M91.73,7.65c0-2.11,1.44-3.69,3-3.69,1.16,0,1.9.82,1.9,2.23,0,2.11-1.43,3.69-3,3.69C92.48,9.88,91.73,9.06,91.73,7.65Zm4.39-1.39c0-1.22-.53-1.87-1.46-1.87-1.21,0-2.45,1.46-2.45,3.2,0,1.22.53,1.87,1.46,1.87C94.88,9.46,96.12,8,96.12,6.26Z" transform="translate(0 -1.3)"/><path class="cls-1" d="M101.58,9.74h-.41l.13-.92h0a3.29,3.29,0,0,1-2,1.06A1.22,1.22,0,0,1,97.9,8.5a3.12,3.12,0,0,1,.1-.76l.72-3.63h.49l-.73,3.57a3.87,3.87,0,0,0-.09.72c0,.69.29,1,1,1a3.28,3.28,0,0,0,2-1.19l.83-4.15h.48Z" transform="translate(0 -1.3)"/><path class="cls-1" d="M104.81,4.11h.4l-.12.89h0a3.35,3.35,0,0,1,2-1,1.21,1.21,0,0,1,1.34,1.38,3.06,3.06,0,0,1-.1.76l-.72,3.64h-.49l.73-3.57a3.87,3.87,0,0,0,.09-.73c0-.69-.29-1-1-1a3.3,3.3,0,0,0-2,1.18l-.84,4.16h-.48Z" transform="translate(0 -1.3)"/><path class="cls-1" d="M110,8.77a5,5,0,0,1,0-.57l.77-3.67H110l.07-.38.91,0,.39-1.61h.41l-.33,1.61H113l-.09.42h-1.52l-.77,3.7a3,3,0,0,0,0,.44c0,.52.19.79.8.79a1.51,1.51,0,0,0,.67-.2l.14.36a2,2,0,0,1-.91.26A1,1,0,0,1,110,8.77Z" transform="translate(0 -1.3)"/><path class="cls-1" d="M112.69,8.84l.34-.26a1.89,1.89,0,0,0,1.59.89,1.35,1.35,0,0,0,1.44-1.18c0-.45-.19-.75-1.07-1.22s-1.38-.93-1.38-1.51A1.66,1.66,0,0,1,115.39,4a2.12,2.12,0,0,1,1.55.69l-.31.31a1.64,1.64,0,0,0-1.26-.58,1.21,1.21,0,0,0-1.29,1.1c0,.54.5.82,1,1.12,1.21.67,1.4,1.1,1.4,1.61a1.75,1.75,0,0,1-2,1.67A2.35,2.35,0,0,1,112.69,8.84Z" transform="translate(0 -1.3)"/><path class="cls-1" d="M121.06,4.11h.41l-.13.89h0a3.21,3.21,0,0,1,1.87-1,1.16,1.16,0,0,1,1.3,1.18A3.47,3.47,0,0,1,126.62,4a1.21,1.21,0,0,1,1.32,1.38,3.06,3.06,0,0,1-.1.76l-.73,3.64h-.48l.72-3.57a3.29,3.29,0,0,0,.1-.73c0-.69-.3-1-1-1a3.32,3.32,0,0,0-1.87,1.18l-.84,4.16h-.48L124,6.17a3.29,3.29,0,0,0,.1-.73c0-.69-.3-1-1-1a3.32,3.32,0,0,0-1.87,1.18l-.84,4.16h-.48Z" transform="translate(0 -1.3)"/><path class="cls-1" d="M129.15,7.85c0-2.17,1.5-3.89,3.06-3.89a1.61,1.61,0,0,1,1.45.92h.05l.21-.77h.41L133.2,9.74h-.41l.13-.9h0a3,3,0,0,1-2.08,1C129.8,9.88,129.15,9.17,129.15,7.85Zm3.86.39.59-2.83c-.42-.73-.87-1-1.4-1-1.33,0-2.56,1.68-2.56,3.37,0,1.14.49,1.69,1.26,1.69A2.88,2.88,0,0,0,133,8.24Z" transform="translate(0 -1.3)"/><path class="cls-1" d="M133.9,12.17l.19-.38a.81.81,0,0,0,.4.09c.67,0,1.26-.61,1.72-1.56l.25-.49-1-5.72H136l.55,3.53c.09.54.17,1.16.24,1.68h.05c.27-.54.57-1.12.87-1.68l1.9-3.53h.5l-3.47,6.33c-.49.93-1.14,1.87-2.17,1.87A1.46,1.46,0,0,1,133.9,12.17Z" transform="translate(0 -1.3)"/><path class="cls-1" d="M142.42,7.65a3.44,3.44,0,0,1,3-3.69,1.75,1.75,0,0,1,1.42.69l-.31.32a1.34,1.34,0,0,0-1.14-.58c-1.27,0-2.52,1.47-2.52,3.2,0,1.22.52,1.87,1.56,1.87a2.36,2.36,0,0,0,1.46-.59l.24.35a2.81,2.81,0,0,1-1.76.66A2,2,0,0,1,142.42,7.65Z" transform="translate(0 -1.3)"/><path class="cls-1" d="M149.13,1.3h.49L149,4.42l-.16.59h0a3.39,3.39,0,0,1,2-1,1.21,1.21,0,0,1,1.34,1.38,3.06,3.06,0,0,1-.1.76l-.72,3.64H151l.72-3.57a3.29,3.29,0,0,0,.1-.73c0-.69-.29-1-1-1a3.3,3.3,0,0,0-2,1.18l-.84,4.16h-.48Z" transform="translate(0 -1.3)"/><path class="cls-1" d="M153.41,7.85c0-2.17,1.5-3.89,3.05-3.89a1.62,1.62,0,0,1,1.46.92h0l.22-.77h.4l-1.13,5.63H157l.13-.9h0a3,3,0,0,1-2.08,1C154.06,9.88,153.41,9.17,153.41,7.85Zm3.86.39.58-2.83c-.41-.73-.86-1-1.39-1-1.34,0-2.56,1.68-2.56,3.37,0,1.14.48,1.69,1.26,1.69A2.91,2.91,0,0,0,157.27,8.24Z" transform="translate(0 -1.3)"/><path class="cls-1" d="M160.68,4.11h.4L161,5h0a3.36,3.36,0,0,1,2-1,1.22,1.22,0,0,1,1.35,1.38,3.06,3.06,0,0,1-.1.76l-.73,3.64h-.48l.72-3.57a3.29,3.29,0,0,0,.1-.73c0-.69-.3-1-1-1a3.35,3.35,0,0,0-2,1.18L160,9.74h-.48Z" transform="translate(0 -1.3)"/><path class="cls-1" d="M165.1,11.68l.27-.36A2.47,2.47,0,0,0,167,12c1.1,0,1.72-.79,2-2l.29-1.32a3.06,3.06,0,0,1-2.09,1c-1,0-1.63-.7-1.63-2,0-2.09,1.49-3.8,3-3.8a1.62,1.62,0,0,1,1.45.92h.05l.21-.77h.41l-1.23,6.11A2.45,2.45,0,0,1,167,12.46,2.94,2.94,0,0,1,165.1,11.68Zm4.27-3.49L170,5.41c-.43-.73-.87-1-1.39-1-1.27,0-2.49,1.67-2.49,3.28,0,1.11.46,1.66,1.23,1.66A3.1,3.1,0,0,0,169.37,8.19Z" transform="translate(0 -1.3)"/><path class="cls-1" d="M174.6,4c1.22,0,1.69.84,1.69,2a3.45,3.45,0,0,1-.16,1H172.2c-.3,1.76.56,2.52,1.69,2.52a2.55,2.55,0,0,0,1.4-.55l.22.35a2.94,2.94,0,0,1-1.7.61,2,2,0,0,1-2.14-2.32C171.67,5.42,173.15,4,174.6,4Zm1.17,2.6a2.87,2.87,0,0,0,.07-.67c0-.76-.33-1.51-1.29-1.51a2.6,2.6,0,0,0-2.27,2.18Z" transform="translate(0 -1.3)"/><path class="cls-1" d="M184.18,3.75l.5-2.45h.48l-1.7,8.44h-.41l.13-.9h-.05a3,3,0,0,1-2.08,1c-1,0-1.64-.71-1.64-2,0-2.17,1.5-3.89,3.06-3.89a1.59,1.59,0,0,1,1.44.92H184Zm-.91,4.49.59-2.83c-.42-.73-.87-1-1.4-1-1.33,0-2.56,1.68-2.56,3.37,0,1.14.49,1.69,1.26,1.69A2.9,2.9,0,0,0,183.27,8.24Z" transform="translate(0 -1.3)"/><path class="cls-1" d="M189.54,9.74h-.41l.13-.92h0a3.29,3.29,0,0,1-2,1.06,1.21,1.21,0,0,1-1.34-1.38,3.07,3.07,0,0,1,.09-.76l.73-3.63h.48l-.72,3.57a3.29,3.29,0,0,0-.1.72c0,.69.3,1,1,1a3.28,3.28,0,0,0,2-1.19l.83-4.15h.49Z" transform="translate(0 -1.3)"/><path class="cls-1" d="M194.59,4c1.22,0,1.7.84,1.7,2a3.45,3.45,0,0,1-.16,1H192.2c-.31,1.76.56,2.52,1.68,2.52a2.55,2.55,0,0,0,1.41-.55l.21.35a2.91,2.91,0,0,1-1.69.61,2,2,0,0,1-2.15-2.32A3.34,3.34,0,0,1,194.59,4Zm1.18,2.6a3.53,3.53,0,0,0,.07-.67c0-.76-.34-1.51-1.29-1.51a2.59,2.59,0,0,0-2.27,2.18Z" transform="translate(0 -1.3)"/><path class="cls-1" d="M199.74,8.77a5,5,0,0,1,0-.57l.77-3.67h-.88l.07-.38.91,0,.39-1.61h.41l-.33,1.61h1.52l-.09.42H201l-.77,3.7a3,3,0,0,0,0,.44c0,.52.19.79.8.79a1.51,1.51,0,0,0,.67-.2l.14.36a2,2,0,0,1-.91.26A1,1,0,0,1,199.74,8.77Z" transform="translate(0 -1.3)"/><path class="cls-1" d="M202.8,7.65c0-2.11,1.44-3.69,3-3.69,1.16,0,1.9.82,1.9,2.23,0,2.11-1.43,3.69-3,3.69C203.55,9.88,202.8,9.06,202.8,7.65Zm4.39-1.39c0-1.22-.53-1.87-1.46-1.87-1.21,0-2.45,1.46-2.45,3.2,0,1.22.53,1.87,1.46,1.87C206,9.46,207.19,8,207.19,6.26Z" transform="translate(0 -1.3)"/><path class="cls-1" d="M215.68,3.75l.49-2.45h.49L215,9.74h-.41l.13-.9h0a3,3,0,0,1-2.08,1c-1,0-1.64-.71-1.64-2,0-2.17,1.5-3.89,3.05-3.89a1.61,1.61,0,0,1,1.45.92h0Zm-.91,4.49.58-2.83c-.41-.73-.86-1-1.39-1-1.34,0-2.56,1.68-2.56,3.37,0,1.14.48,1.69,1.26,1.69A2.91,2.91,0,0,0,214.77,8.24Z" transform="translate(0 -1.3)"/><path class="cls-1" d="M220,4c1.22,0,1.69.84,1.69,2a3.14,3.14,0,0,1-.16,1h-3.92c-.31,1.76.56,2.52,1.68,2.52a2.58,2.58,0,0,0,1.41-.55l.21.35a2.94,2.94,0,0,1-1.69.61,2,2,0,0,1-2.15-2.32C217.08,5.42,218.56,4,220,4Zm1.18,2.6a3.55,3.55,0,0,0,.06-.67c0-.76-.33-1.51-1.29-1.51a2.6,2.6,0,0,0-2.27,2.18Z" transform="translate(0 -1.3)"/><path class="cls-1" d="M222.61,7.65a3.43,3.43,0,0,1,3-3.69,1.77,1.77,0,0,1,1.43.69l-.32.32a1.33,1.33,0,0,0-1.14-.58c-1.27,0-2.51,1.47-2.51,3.2,0,1.22.51,1.87,1.56,1.87a2.36,2.36,0,0,0,1.45-.59l.25.35a2.83,2.83,0,0,1-1.76.66A2,2,0,0,1,222.61,7.65Z" transform="translate(0 -1.3)"/><path class="cls-1" d="M228.76,4.11h.49l-1.13,5.63h-.49Zm.16-1.75a.51.51,0,0,1,.49-.53.38.38,0,0,1,.39.41.5.5,0,0,1-.49.5A.37.37,0,0,1,228.92,2.36Z" transform="translate(0 -1.3)"/><path class="cls-1" d="M231.34,4.11h.41l-.13.89h0a3.21,3.21,0,0,1,1.88-1,1.15,1.15,0,0,1,1.29,1.18A3.47,3.47,0,0,1,236.9,4a1.21,1.21,0,0,1,1.32,1.38,3.06,3.06,0,0,1-.1.76l-.72,3.64h-.49l.73-3.57a3.87,3.87,0,0,0,.09-.73c0-.69-.29-1-1-1a3.32,3.32,0,0,0-1.87,1.18l-.83,4.16h-.49l.73-3.57a3.87,3.87,0,0,0,.09-.73c0-.69-.29-1-1-1a3.32,3.32,0,0,0-1.87,1.18l-.83,4.16h-.49Z" transform="translate(0 -1.3)"/><path class="cls-1" d="M239.43,7.85c0-2.17,1.51-3.89,3.06-3.89a1.63,1.63,0,0,1,1.46.92h0l.22-.77h.4l-1.13,5.63h-.41l.13-.9h0a3,3,0,0,1-2.07,1C240.09,9.88,239.43,9.17,239.43,7.85Zm3.86.39.59-2.83c-.42-.73-.87-1-1.39-1-1.34,0-2.57,1.68-2.57,3.37,0,1.14.49,1.69,1.26,1.69A2.88,2.88,0,0,0,243.29,8.24Z" transform="translate(0 -1.3)"/><path class="cls-1" d="M245.67,9.37a1.93,1.93,0,0,1,.05-.35l1.54-7.72h.48L246.2,9.05a1.16,1.16,0,0,0,0,.23c0,.11,0,.18.17.18a.39.39,0,0,0,.19-.05l0,.39a.9.9,0,0,1-.39.08A.47.47,0,0,1,245.67,9.37Z" transform="translate(0 -1.3)"/><path class="cls-1" d="M251.62,4.11H252l-.18,1.06h.05A2.31,2.31,0,0,1,253.66,4a1.4,1.4,0,0,1,.51.1l-.19.46a.92.92,0,0,0-.44-.1c-.6,0-1.32.58-1.83,1.59L251,9.74h-.48Z" transform="translate(0 -1.3)"/><path class="cls-1" d="M254.14,7.65c0-2.11,1.43-3.69,3-3.69,1.15,0,1.9.82,1.9,2.23,0,2.11-1.44,3.69-3,3.69C254.88,9.88,254.14,9.06,254.14,7.65Zm4.39-1.39c0-1.22-.53-1.87-1.46-1.87-1.21,0-2.45,1.46-2.45,3.2,0,1.22.53,1.87,1.46,1.87C257.29,9.46,258.53,8,258.53,6.26Z" transform="translate(0 -1.3)"/><path class="cls-1" d="M264,9.74h-.4l.12-.92h0a3.34,3.34,0,0,1-2,1.06,1.21,1.21,0,0,1-1.34-1.38,3.07,3.07,0,0,1,.09-.76l.73-3.63h.49l-.73,3.57a3.17,3.17,0,0,0-.09.72c0,.69.29,1,1,1a3.26,3.26,0,0,0,2-1.19l.84-4.15h.48Z" transform="translate(0 -1.3)"/><path class="cls-1" d="M267.21,4.11h.41l-.13.89h.05a3.36,3.36,0,0,1,2-1,1.21,1.21,0,0,1,1.34,1.38,3,3,0,0,1-.09.76l-.73,3.64h-.48l.72-3.57a3.29,3.29,0,0,0,.1-.73c0-.69-.3-1-1-1a3.35,3.35,0,0,0-2,1.18l-.83,4.16h-.48Z" transform="translate(0 -1.3)"/><path class="cls-1" d="M276.88,3.75l.5-2.45h.49l-1.71,8.44h-.41l.13-.9h-.05a3,3,0,0,1-2.07,1c-1,0-1.64-.71-1.64-2,0-2.17,1.5-3.89,3.05-3.89a1.62,1.62,0,0,1,1.45.92h0ZM276,8.24l.59-2.83c-.42-.73-.87-1-1.39-1-1.34,0-2.56,1.68-2.56,3.37,0,1.14.48,1.69,1.25,1.69A2.88,2.88,0,0,0,276,8.24Z" transform="translate(0 -1.3)"/><path class="cls-1" d="M279.4,4.11h.48l-1.13,5.63h-.48Zm.15-1.75a.51.51,0,0,1,.49-.53.39.39,0,0,1,.4.41.5.5,0,0,1-.49.5A.38.38,0,0,1,279.55,2.36Z" transform="translate(0 -1.3)"/><path class="cls-1" d="M282,4.11h.4l-.12.89h0a3.35,3.35,0,0,1,2-1,1.21,1.21,0,0,1,1.34,1.38,3.06,3.06,0,0,1-.1.76l-.72,3.64h-.49l.73-3.57a3.87,3.87,0,0,0,.09-.73c0-.69-.29-1-1-1a3.3,3.3,0,0,0-2,1.18l-.84,4.16h-.48Z" transform="translate(0 -1.3)"/><path class="cls-1" d="M286.4,11.68l.27-.36a2.49,2.49,0,0,0,1.67.71c1.1,0,1.72-.79,2-2l.28-1.32a3,3,0,0,1-2.09,1c-1,0-1.63-.7-1.63-2,0-2.09,1.49-3.8,3-3.8a1.63,1.63,0,0,1,1.45.92h0l.22-.77h.4l-1.23,6.11a2.45,2.45,0,0,1-2.44,2.24A3,3,0,0,1,286.4,11.68Zm4.27-3.49.58-2.78c-.43-.73-.86-1-1.39-1-1.27,0-2.49,1.67-2.49,3.28,0,1.11.46,1.66,1.23,1.66A3.1,3.1,0,0,0,290.67,8.19Z" transform="translate(0 -1.3)"/><path class="cls-1" d="M292.08,11.16a1.84,1.84,0,0,0,1.18-1.36V9.08l.29.59a.43.43,0,0,1-.35.15.39.39,0,0,1-.42-.41.55.55,0,0,1,.54-.56c.3,0,.45.24.45.57a2.3,2.3,0,0,1-1.58,2.09Z" transform="translate(0 -1.3)"/><path class="cls-1" d="M297.64,9.74l1.69-8.44h.48l-.5,2.45-.24,1.14h0A3.5,3.5,0,0,1,301.17,4c1,0,1.65.72,1.65,2,0,2.16-1.51,3.88-3.06,3.88A1.6,1.6,0,0,1,298.31,9h0l-.22.78ZM299,5.43l-.61,3c.42.73.87,1,1.4,1,1.33,0,2.56-1.67,2.56-3.37,0-1.12-.49-1.69-1.26-1.69A3.51,3.51,0,0,0,299,5.43Z" transform="translate(0 -1.3)"/><path class="cls-1" d="M307.79,9.74h-.41l.13-.92h-.05a3.29,3.29,0,0,1-2,1.06,1.21,1.21,0,0,1-1.34-1.38,3.07,3.07,0,0,1,.09-.76l.73-3.63h.48l-.72,3.57a3.17,3.17,0,0,0-.09.72c0,.69.29,1,1,1a3.29,3.29,0,0,0,2-1.19l.84-4.15h.48Z" transform="translate(0 -1.3)"/><path class="cls-1" d="M310.27,8.77a5,5,0,0,1,.05-.57l.77-3.67h-.88l.07-.38.91,0,.39-1.61H312l-.33,1.61h1.52l-.09.42h-1.52l-.77,3.7a3,3,0,0,0,0,.44c0,.52.19.79.8.79a1.51,1.51,0,0,0,.67-.2l.14.36a2,2,0,0,1-.91.26A1,1,0,0,1,310.27,8.77Z" transform="translate(0 -1.3)"/><path class="cls-1" d="M314.21,12.17l.18-.38a.83.83,0,0,0,.4.09c.67,0,1.26-.61,1.72-1.56l.25-.49-.95-5.72h.48l.55,3.53c.09.54.18,1.16.24,1.68h.05c.28-.54.58-1.12.88-1.68l1.9-3.53h.49l-3.47,6.33c-.49.93-1.14,1.87-2.17,1.87A1.38,1.38,0,0,1,314.21,12.17Z" transform="translate(0 -1.3)"/><path class="cls-1" d="M320.54,7.65c0-2.11,1.44-3.69,3-3.69,1.15,0,1.9.82,1.9,2.23,0,2.11-1.44,3.69-3,3.69C321.29,9.88,320.54,9.06,320.54,7.65Zm4.39-1.39c0-1.22-.52-1.87-1.46-1.87-1.2,0-2.44,1.46-2.44,3.2,0,1.22.53,1.87,1.46,1.87C323.7,9.46,324.93,8,324.93,6.26Z" transform="translate(0 -1.3)"/><path class="cls-1" d="M330.39,9.74H330l.12-.92h-.05a3.29,3.29,0,0,1-2,1.06,1.21,1.21,0,0,1-1.34-1.38,3.07,3.07,0,0,1,.09-.76l.73-3.63H328l-.72,3.57a3.17,3.17,0,0,0-.09.72c0,.69.29,1,1,1a3.29,3.29,0,0,0,2-1.19L331,4.11h.48Z" transform="translate(0 -1.3)"/><path class="cls-1" d="M335,4.11h.48l.29,3.68c0,.52.08,1,.11,1.53H336c.23-.51.44-1,.68-1.53l1.69-3.68h.58l.26,3.68c0,.52.06,1,.08,1.53h.05c.23-.51.44-1,.69-1.53l1.72-3.68h.47l-2.65,5.63h-.66l-.23-3.51c0-.54,0-1.15-.08-1.67h-.05c-.23.52-.48,1.13-.73,1.67l-1.61,3.51h-.65Z" transform="translate(0 -1.3)"/><path class="cls-1" d="M343.83,4.11h.49l-1.13,5.63h-.49ZM344,2.36a.51.51,0,0,1,.49-.53.38.38,0,0,1,.39.41.5.5,0,0,1-.49.5A.37.37,0,0,1,344,2.36Z" transform="translate(0 -1.3)"/><path class="cls-1" d="M345.38,9.37a1.93,1.93,0,0,1,.05-.35L347,1.3h.48l-1.54,7.75a1.16,1.16,0,0,0,0,.23c0,.11.05.18.17.18a.39.39,0,0,0,.19-.05l0,.39a1,1,0,0,1-.4.08A.47.47,0,0,1,345.38,9.37Z" transform="translate(0 -1.3)"/><path class="cls-1" d="M348.1,9.37c0-.08,0-.21,0-.35l1.54-7.72h.49l-1.55,7.75a1.16,1.16,0,0,0,0,.23.16.16,0,0,0,.17.18.37.37,0,0,0,.19-.05l0,.39a.93.93,0,0,1-.39.08A.47.47,0,0,1,348.1,9.37Z" transform="translate(0 -1.3)"/><path class="cls-1" d="M353,7.85C353,5.68,354.47,4,356,4a1.62,1.62,0,0,1,1.45.92h0l.22-.77h.4L357,9.74h-.4l.12-.9h0a3,3,0,0,1-2.08,1C353.62,9.88,353,9.17,353,7.85Zm3.86.39.58-2.83c-.41-.73-.86-1-1.39-1-1.34,0-2.56,1.68-2.56,3.37,0,1.14.49,1.69,1.26,1.69A2.91,2.91,0,0,0,356.83,8.24Z" transform="translate(0 -1.3)"/><path class="cls-1" d="M359.2,9.37c0-.08,0-.21.05-.35l1.54-7.72h.49l-1.54,7.75a.79.79,0,0,0,0,.23.16.16,0,0,0,.17.18.37.37,0,0,0,.19-.05l0,.39a.93.93,0,0,1-.39.08A.47.47,0,0,1,359.2,9.37Z" transform="translate(0 -1.3)"/><path class="cls-1" d="M362.16,4.11h.48l.29,3.68.12,1.53h0c.24-.51.45-1,.68-1.53l1.69-3.68H366l.26,3.68c0,.52.07,1,.09,1.53h0c.24-.51.44-1,.7-1.53l1.72-3.68h.47l-2.66,5.63H366l-.23-3.51c0-.54,0-1.15-.08-1.67h-.05c-.23.52-.48,1.13-.73,1.67L363.3,9.74h-.65Z" transform="translate(0 -1.3)"/><path class="cls-1" d="M369.88,7.85c0-2.17,1.5-3.89,3.06-3.89a1.62,1.62,0,0,1,1.45.92h0l.22-.77h.4l-1.13,5.63h-.4l.12-.9h0a3,3,0,0,1-2.08,1C370.53,9.88,369.88,9.17,369.88,7.85Zm3.86.39.58-2.83c-.41-.73-.86-1-1.39-1-1.34,0-2.56,1.68-2.56,3.37,0,1.14.49,1.69,1.26,1.69A2.91,2.91,0,0,0,373.74,8.24Z" transform="translate(0 -1.3)"/><path class="cls-1" d="M374.63,12.17l.18-.38a.85.85,0,0,0,.41.09c.66,0,1.25-.61,1.72-1.56l.24-.49-.95-5.72h.49l.54,3.53c.09.54.18,1.16.24,1.68h.05c.28-.54.58-1.12.88-1.68l1.9-3.53h.5l-3.48,6.33c-.49.93-1.13,1.87-2.17,1.87A1.38,1.38,0,0,1,374.63,12.17Z" transform="translate(0 -1.3)"/><path class="cls-1" d="M380.45,8.84l.34-.26a1.91,1.91,0,0,0,1.6.89,1.35,1.35,0,0,0,1.44-1.18c0-.45-.2-.75-1.08-1.22s-1.37-.93-1.37-1.51A1.66,1.66,0,0,1,383.15,4a2.13,2.13,0,0,1,1.56.69l-.32.31a1.63,1.63,0,0,0-1.26-.58,1.2,1.2,0,0,0-1.28,1.1c0,.54.49.82,1,1.12,1.22.67,1.41,1.1,1.41,1.61a1.76,1.76,0,0,1-2,1.67A2.38,2.38,0,0,1,380.45,8.84Z" transform="translate(0 -1.3)"/><path class="cls-1" d="M388.82,4.11h.41l-.18,1.06h.05A2.31,2.31,0,0,1,390.86,4a1.4,1.4,0,0,1,.51.1l-.19.46a.92.92,0,0,0-.44-.1c-.6,0-1.31.58-1.82,1.59l-.74,3.73h-.49Z" transform="translate(0 -1.3)"/><path class="cls-1" d="M394.25,4c1.22,0,1.69.84,1.69,2a3.45,3.45,0,0,1-.16,1h-3.93c-.3,1.76.56,2.52,1.69,2.52A2.58,2.58,0,0,0,395,8.92l.21.35a2.94,2.94,0,0,1-1.7.61,2,2,0,0,1-2.14-2.32C391.32,5.42,392.8,4,394.25,4Zm1.17,2.6a2.87,2.87,0,0,0,.07-.67c0-.76-.33-1.51-1.29-1.51a2.6,2.6,0,0,0-2.27,2.18Z" transform="translate(0 -1.3)"/><path class="cls-1" d="M397,8.77a3.45,3.45,0,0,1,.05-.57l.76-3.67H397l.07-.38.91,0,.39-1.61h.41l-.32,1.61h1.52l-.09.42h-1.53l-.76,3.7a3,3,0,0,0-.05.44c0,.52.19.79.8.79a1.55,1.55,0,0,0,.68-.2l.13.36a1.91,1.91,0,0,1-.9.26A1,1,0,0,1,397,8.77Z" transform="translate(0 -1.3)"/><path class="cls-1" d="M400.08,7.85c0-2.17,1.51-3.89,3.06-3.89a1.61,1.61,0,0,1,1.45.92h.05l.22-.77h.4l-1.13,5.63h-.41l.13-.9h-.05a3,3,0,0,1-2.07,1C400.74,9.88,400.08,9.17,400.08,7.85Zm3.86.39.59-2.83c-.42-.73-.87-1-1.4-1-1.33,0-2.56,1.68-2.56,3.37,0,1.14.49,1.69,1.26,1.69A2.88,2.88,0,0,0,403.94,8.24Z" transform="translate(0 -1.3)"/><path class="cls-1" d="M407.36,4.11h.48l-1.13,5.63h-.49Zm.15-1.75a.51.51,0,0,1,.49-.53.38.38,0,0,1,.39.41.49.49,0,0,1-.49.5A.37.37,0,0,1,407.51,2.36Z" transform="translate(0 -1.3)"/><path class="cls-1" d="M409.93,4.11h.41l-.13.89h.05a3.33,3.33,0,0,1,2-1,1.21,1.21,0,0,1,1.34,1.38,3,3,0,0,1-.09.76l-.73,3.64h-.48L413,6.17a3.29,3.29,0,0,0,.1-.73c0-.69-.3-1-1-1a3.35,3.35,0,0,0-2,1.18l-.83,4.16h-.49Z" transform="translate(0 -1.3)"/><path class="cls-1" d="M415.59,12.17l.19-.38a.83.83,0,0,0,.4.09c.67,0,1.26-.61,1.72-1.56l.25-.49-.95-5.72h.48l.55,3.53c.09.54.18,1.16.24,1.68h0c.27-.54.58-1.12.87-1.68l1.9-3.53h.5l-3.47,6.33c-.49.93-1.14,1.87-2.17,1.87A1.46,1.46,0,0,1,415.59,12.17Z" transform="translate(0 -1.3)"/><path class="cls-1" d="M421.93,7.65c0-2.11,1.44-3.69,3-3.69,1.16,0,1.91.82,1.91,2.23,0,2.11-1.44,3.69-3,3.69C422.68,9.88,421.93,9.06,421.93,7.65Zm4.39-1.39c0-1.22-.53-1.87-1.46-1.87-1.21,0-2.44,1.46-2.44,3.2,0,1.22.53,1.87,1.46,1.87C425.09,9.46,426.32,8,426.32,6.26Z" transform="translate(0 -1.3)"/><path class="cls-1" d="M431.78,9.74h-.41l.13-.92h-.05a3.29,3.29,0,0,1-2,1.06,1.21,1.21,0,0,1-1.34-1.38,3.07,3.07,0,0,1,.09-.76l.73-3.63h.48l-.72,3.57a3.29,3.29,0,0,0-.1.72c0,.69.3,1,1,1a3.28,3.28,0,0,0,2-1.19l.83-4.15h.49Z" transform="translate(0 -1.3)"/><path class="cls-1" d="M435,4.11h.41l-.18,1.06h.05A2.31,2.31,0,0,1,437.05,4a1.4,1.4,0,0,1,.51.1l-.19.46a.92.92,0,0,0-.44-.1c-.6,0-1.32.58-1.83,1.59l-.73,3.73h-.49Z" transform="translate(0 -1.3)"/><path class="cls-1" d="M0,32.31l.34-.26a1.91,1.91,0,0,0,1.6.89,1.35,1.35,0,0,0,1.44-1.18c0-.45-.2-.75-1.08-1.22S.92,29.61.92,29A1.66,1.66,0,0,1,2.7,27.44a2.08,2.08,0,0,1,1.55.68l-.31.31a1.63,1.63,0,0,0-1.26-.58A1.2,1.2,0,0,0,1.4,29c0,.54.49.82,1,1.13,1.22.66,1.41,1.09,1.41,1.6a1.76,1.76,0,0,1-2,1.67A2.38,2.38,0,0,1,0,32.31Z" transform="translate(0 -1.3)"/><path class="cls-1" d="M6.74,24.77h.48L6.59,27.9l-.16.58h.05a3.37,3.37,0,0,1,2-1,1.21,1.21,0,0,1,1.34,1.37,3.06,3.06,0,0,1-.1.76L9,33.21H8.55l.73-3.57a3.87,3.87,0,0,0,.09-.73c0-.69-.29-1-1-1a3.3,3.3,0,0,0-2,1.18l-.84,4.16H5.05Z" transform="translate(0 -1.3)"/><path class="cls-1" d="M11,31.32c0-2.17,1.5-3.88,3.06-3.88a1.61,1.61,0,0,1,1.45.91h0l.22-.77h.4l-1.13,5.63h-.4l.12-.9h0a3,3,0,0,1-2.08,1C11.66,33.35,11,32.64,11,31.32Zm3.86.39.58-2.83c-.41-.73-.86-1-1.39-1-1.34,0-2.56,1.68-2.56,3.37,0,1.14.49,1.69,1.26,1.69A2.91,2.91,0,0,0,14.87,31.71Z" transform="translate(0 -1.3)"/><path class="cls-1" d="M18.28,27.58h.4l-.17,1.06h0a2.29,2.29,0,0,1,1.76-1.2,1.38,1.38,0,0,1,.51.09l-.19.46a.94.94,0,0,0-.44-.09c-.6,0-1.32.57-1.83,1.58l-.74,3.73h-.48Z" transform="translate(0 -1.3)"/><path class="cls-1" d="M23.7,27.44c1.22,0,1.7.83,1.7,2a3.45,3.45,0,0,1-.16,1H21.31c-.31,1.77.56,2.52,1.68,2.52a2.55,2.55,0,0,0,1.41-.55l.21.35a2.91,2.91,0,0,1-1.69.61A2,2,0,0,1,20.77,31,3.33,3.33,0,0,1,23.7,27.44ZM24.88,30a3.53,3.53,0,0,0,.07-.67c0-.76-.34-1.51-1.29-1.51A2.61,2.61,0,0,0,21.38,30Z" transform="translate(0 -1.3)"/><path class="cls-1" d="M28.54,31.12c0-2.11,1.44-3.68,3-3.68,1.16,0,1.91.81,1.91,2.22,0,2.11-1.44,3.69-3,3.69C29.29,33.35,28.54,32.53,28.54,31.12Zm4.39-1.39c0-1.22-.53-1.87-1.46-1.87-1.21,0-2.45,1.46-2.45,3.2,0,1.22.53,1.87,1.46,1.87C31.69,32.93,32.93,31.46,32.93,29.73Z" transform="translate(0 -1.3)"/><path class="cls-1" d="M34.86,27.62l.76,0,.25-1.29c.24-1.11.81-1.66,1.55-1.66a1.58,1.58,0,0,1,.88.26l-.21.37a1.11,1.11,0,0,0-.67-.21c-.56,0-.93.56-1.06,1.24l-.26,1.29h1.23l-.09.42H36l-1,5.21h-.49l1-5.21h-.73Z" transform="translate(0 -1.3)"/><path class="cls-1" d="M40,32.24a5,5,0,0,1,.05-.57L40.82,28H40l.07-.38.91,0L41.31,26h.42l-.33,1.61h1.52l-.09.42H41.31l-.77,3.7a3,3,0,0,0,0,.44c0,.52.19.79.79.79a1.51,1.51,0,0,0,.68-.2l.14.36a2,2,0,0,1-.91.26A1,1,0,0,1,40,32.24Z" transform="translate(0 -1.3)"/><path class="cls-1" d="M44.83,24.77h.48l-.63,3.13-.16.58h0a3.37,3.37,0,0,1,2-1A1.21,1.21,0,0,1,48,28.81a3,3,0,0,1-.09.76l-.73,3.64h-.49l.73-3.57a3.18,3.18,0,0,0,.09-.73c0-.69-.29-1-1-1a3.3,3.3,0,0,0-2,1.18l-.84,4.16h-.48Z" transform="translate(0 -1.3)"/><path class="cls-1" d="M52,27.44c1.23,0,1.7.83,1.7,2a3.45,3.45,0,0,1-.16,1H49.61c-.3,1.77.56,2.52,1.69,2.52a2.55,2.55,0,0,0,1.4-.55l.22.35a2.94,2.94,0,0,1-1.7.61A2,2,0,0,1,49.08,31C49.08,28.89,50.56,27.44,52,27.44ZM53.18,30a2.87,2.87,0,0,0,.07-.67c0-.76-.33-1.51-1.29-1.51A2.6,2.6,0,0,0,49.69,30Z" transform="translate(0 -1.3)"/><path class="cls-1" d="M57.16,33.71l-.38,2h-.49l1.64-8.18h.41l-.13.8h0a3.43,3.43,0,0,1,2.07-.94c1,0,1.64.72,1.64,2,0,2.16-1.5,3.88-3,3.88a1.73,1.73,0,0,1-1.49-.91h0Zm1-4.79-.61,3a1.58,1.58,0,0,0,1.39,1c1.34,0,2.56-1.67,2.56-3.37,0-1.12-.48-1.69-1.25-1.69A3.41,3.41,0,0,0,58.14,28.92Z" transform="translate(0 -1.3)"/><path class="cls-1" d="M63,31.12c0-2.11,1.44-3.68,3-3.68,1.16,0,1.91.81,1.91,2.22,0,2.11-1.44,3.69-3,3.69C63.74,33.35,63,32.53,63,31.12Zm4.39-1.39c0-1.22-.53-1.87-1.46-1.87-1.21,0-2.44,1.46-2.44,3.2,0,1.22.53,1.87,1.46,1.87C66.15,32.93,67.38,31.46,67.38,29.73Z" transform="translate(0 -1.3)"/><path class="cls-1" d="M68.91,31.12c0-2.11,1.43-3.68,3-3.68,1.15,0,1.9.81,1.9,2.22,0,2.11-1.44,3.69-3,3.69C69.65,33.35,68.91,32.53,68.91,31.12Zm4.39-1.39c0-1.22-.53-1.87-1.46-1.87-1.21,0-2.45,1.46-2.45,3.2,0,1.22.53,1.87,1.46,1.87C72.06,32.93,73.3,31.46,73.3,29.73Z" transform="translate(0 -1.3)"/><path class="cls-1" d="M74.87,32.84c0-.08,0-.21,0-.35l1.54-7.72H77L75.4,32.52a1.16,1.16,0,0,0,0,.23c0,.11.05.18.17.18a.37.37,0,0,0,.19,0l0,.39a1,1,0,0,1-.39.08A.47.47,0,0,1,74.87,32.84Z" transform="translate(0 -1.3)"/><path class="cls-1" d="M77.29,32.94a.63.63,0,0,1,.57-.62c.25,0,.37.19.37.44a.59.59,0,0,1-.55.59A.38.38,0,0,1,77.29,32.94Z" transform="translate(0 -1.3)"/></g></g></svg>