<svg xmlns="http://www.w3.org/2000/svg" viewBox="0 0 18.24 18.24"><defs><style>.cls-1{fill:#32c570;}</style></defs><g id="Layer_2" data-name="Layer 2"><g id="Layer_1-2" data-name="Layer 1"><path class="cls-1" d="M18,7.2a9.36,9.36,0,0,0-1.42-3.27,8.82,8.82,0,0,0-1.53-1.7c-.18-.16-.37-.3-.56-.46h0A13.41,13.41,0,0,0,13.33,1,10.14,10.14,0,0,0,11.65.35l-.36-.1A10.24,10.24,0,0,0,9.94,0a9.74,9.74,0,0,0-2,0A9.07,9.07,0,0,0,5.64.69a8.68,8.68,0,0,0-1.51.79c-.35.23-.68.5-1,.76s-.46.43-.67.67l-.2.2h0c-.14.18-.29.35-.42.53A9.07,9.07,0,0,0,0,8.78a9.35,9.35,0,0,0,.22,2.36c.11.46.26.9.41,1.35l.39.84H1l.48.82c.25.34.5.68.78,1A9.76,9.76,0,0,0,3.7,16.46l.23.17h0a9.73,9.73,0,0,0,1.89,1A10.69,10.69,0,0,0,7.18,18a9.71,9.71,0,0,0,1.41.18l.25,0h0q.45,0,.9,0a8.82,8.82,0,0,0,2-.37,9.43,9.43,0,0,0,2.36-1.11,12.19,12.19,0,0,0,1-.76,8.58,8.58,0,0,0,1.56-1.79l0,0h0l0-.06a9.49,9.49,0,0,0,1-2.05c.13-.38.21-.78.32-1.16s.11-.72.13-1.08l0-.56h0V8.83A13,13,0,0,0,18,7.2ZM15,7.78,13.51,9.26c-.52.51-1,1-1.55,1.55l-1.6,1.59L8.82,13.94,8,14.75a.77.77,0,0,1-1.08,0l-4-4a.77.77,0,0,1,0-1.09L4,8.52a.78.78,0,0,1,1.15,0c.76.76,1.52,1.52,2.27,2.29.06.06.09,0,.15,0l5.23-5.23a.74.74,0,0,1,1.06,0c.42.38.82.79,1.21,1.21a.66.66,0,0,1,.16.49A.73.73,0,0,1,15,7.78Z"/></g></g></svg>