<svg xmlns="http://www.w3.org/2000/svg" viewBox="0 0 49.38 10.34"><defs><style>.cls-1{fill:#fff;}</style></defs><g id="Layer_2" data-name="Layer 2"><g id="Layer_1-2" data-name="Layer 1"><path class="cls-1" d="M1.08,2.51H3.35L4.84,6.59c.18.54.34,1.13.53,1.69h0c.19-.56.34-1.15.53-1.69L7.39,2.51H9.65v9.18H7.76V8.32c0-.9.17-2.23.27-3.12H8L7.22,7.37l-1.3,3.52H4.77L3.47,7.37,2.74,5.2H2.68c.1.89.27,2.22.27,3.12v3.37H1.08Z" transform="translate(-1.08 -1.51)"/><path class="cls-1" d="M11.32,9.75c0-1.47,1.17-2.27,3.94-2.56a1,1,0,0,0-1.11-1,3.89,3.89,0,0,0-1.85.63l-.73-1.36a5.69,5.69,0,0,1,3-.92c1.79,0,2.78,1,2.78,3.16v4H15.64L15.49,11h-.05a3.07,3.07,0,0,1-2,.89A2,2,0,0,1,11.32,9.75Zm3.94-.09V8.44c-1.48.2-2,.62-2,1.14s.31.68.81.68A1.62,1.62,0,0,0,15.26,9.66Z" transform="translate(-1.08 -1.51)"/><path class="cls-1" d="M18.9,2.6a1.21,1.21,0,0,1,2.4,0,1.21,1.21,0,0,1-2.4,0Zm.16,2.1h2.07v7H19.06Z" transform="translate(-1.08 -1.51)"/><path class="cls-1" d="M23,4.7h1.69l.15.89h.05a3.18,3.18,0,0,1,2.24-1.06c1.52,0,2.17,1.07,2.17,2.82v4.34H27.18V7.62c0-1-.27-1.32-.87-1.32A1.77,1.77,0,0,0,25,7v4.72H23Z" transform="translate(-1.08 -1.51)"/><path class="cls-1" d="M31,4.7h1.69l.15.89h0a3.21,3.21,0,0,1,2.25-1.06c1.52,0,2.17,1.07,2.17,2.82v4.34H35.24V7.62c0-1-.27-1.32-.87-1.32a1.81,1.81,0,0,0-1.3.67v4.72H31Z" transform="translate(-1.08 -1.51)"/><path class="cls-1" d="M38.65,8.2A3.44,3.44,0,0,1,42,4.53c2,0,3,1.45,3,3.36a4.58,4.58,0,0,1-.09.91H40.66a1.69,1.69,0,0,0,1.81,1.48A2.89,2.89,0,0,0,44,9.82l.69,1.25a4.52,4.52,0,0,1-2.48.79A3.41,3.41,0,0,1,38.65,8.2Zm4.51-.77c0-.77-.34-1.32-1.16-1.32a1.4,1.4,0,0,0-1.37,1.32Z" transform="translate(-1.08 -1.51)"/><path class="cls-1" d="M46.49,9.15V6.33h-1V4.78l1.07-.08.24-1.86h1.71V4.7h1.68V6.33H48.56V9.12c0,.79.36,1.11.91,1.11a1.94,1.94,0,0,0,.66-.13l.33,1.5a4.85,4.85,0,0,1-1.55.26C47.18,11.86,46.49,10.77,46.49,9.15Z" transform="translate(-1.08 -1.51)"/></g></g></svg>