<svg xmlns="http://www.w3.org/2000/svg" viewBox="0 0 55.18 10.2"><defs><style>.cls-1{fill:#79fb53;}</style></defs><g id="Layer_2" data-name="Layer 2"><g id="Layer_1-2" data-name="Layer 1"><path class="cls-1" d="M0,2.44H1.25l1.49,5c.32,1.09.55,2,.89,3.05h.06c.34-1.08.56-2,.89-3l1.48-5H7.25L4.32,11.69H3Z" transform="translate(0 -1.65)"/><path class="cls-1" d="M8.2,2.69A.74.74,0,0,1,9,1.94a.74.74,0,0,1,.79.75A.74.74,0,0,1,9,3.43.75.75,0,0,1,8.2,2.69Zm.21,2.15H9.57v6.85H8.41Z" transform="translate(0 -1.65)"/><path class="cls-1" d="M11.36,8.27a3.3,3.3,0,0,1,3.08-3.6c1.75,0,2.73,1.26,2.73,3.22a4,4,0,0,1-.05.65H12.51a2.27,2.27,0,0,0,2.27,2.39,3,3,0,0,0,1.71-.54l.41.76a4,4,0,0,1-2.26.71A3.28,3.28,0,0,1,11.36,8.27Zm4.79-.56c0-1.37-.62-2.11-1.69-2.11a2.09,2.09,0,0,0-2,2.11Z" transform="translate(0 -1.65)"/><path class="cls-1" d="M18.11,4.84h1.18l1,4c.15.65.27,1.26.41,1.91h.05c.15-.65.3-1.27.47-1.91l1.05-4h1.13l1.07,4c.17.65.32,1.26.48,1.91H25c.14-.65.27-1.26.42-1.91l1-4h1.1l-1.84,6.85H24.3L23.32,8c-.17-.65-.3-1.28-.47-2H22.8c-.15.69-.29,1.34-.47,2l-1,3.66H20Z" transform="translate(0 -1.65)"/><path class="cls-1" d="M31.85,10.31V1.65H33V10.4c0,.35.16.49.32.49a1,1,0,0,0,.26,0l.16.89a1.9,1.9,0,0,1-.67.11C32.21,11.86,31.85,11.3,31.85,10.31Z" transform="translate(0 -1.65)"/><path class="cls-1" d="M34.94,8.27c0-2.28,1.49-3.6,3.17-3.6S41.28,6,41.28,8.27a3.19,3.19,0,1,1-6.34,0Zm5.14,0c0-1.56-.79-2.63-2-2.63s-2,1.07-2,2.63.8,2.62,2,2.62S40.08,9.84,40.08,8.27Z" transform="translate(0 -1.65)"/><path class="cls-1" d="M42.57,8.27a3.32,3.32,0,0,1,3.29-3.6,2.84,2.84,0,0,1,2,.81l-.59.76a2,2,0,0,0-1.36-.6c-1.24,0-2.15,1.07-2.15,2.63s.86,2.62,2.12,2.62a2.46,2.46,0,0,0,1.61-.68L48,11a3.3,3.3,0,0,1-2.21.87C44,11.86,42.57,10.54,42.57,8.27Z" transform="translate(0 -1.65)"/><path class="cls-1" d="M49.5,1.65h1.14v6.8h0L53.6,4.84h1.28L52.59,7.59l2.59,4.1H53.92l-2-3.29L50.64,9.89v1.8H49.5Z" transform="translate(0 -1.65)"/></g></g></svg>