<svg xmlns="http://www.w3.org/2000/svg" viewBox="0 0 31.3 12.68"><defs><style>.cls-1{fill:#fff;}</style></defs><g id="Layer_2" data-name="Layer 2"><g id="Layer_1-2" data-name="Layer 1"><path class="cls-1" d="M3.11,10.37.46,6.19H2.07L3.24,8.11c.27.48.57,1,.86,1.46h.07L5,8.11,6,6.19H7.57L4.93,10.53l2.86,4.41H6.18l-1.29-2c-.3-.53-.62-1.07-.95-1.58H3.87c-.3.51-.59,1-.89,1.58l-1.18,2H.25Z" transform="translate(-0.25 -2.48)"/><path class="cls-1" d="M9.77,3.12h3c3.64,0,5.59,2.11,5.59,5.87s-1.95,5.95-5.52,5.95h-3Zm2.84,10.59c2.77,0,4.14-1.73,4.14-4.72s-1.37-4.63-4.14-4.63H11.27v9.35Z" transform="translate(-0.25 -2.48)"/><path class="cls-1" d="M20.16,12.67c0-1.91,1.64-2.86,5.37-3.27,0-1.12-.37-2.21-1.8-2.21a4.78,4.78,0,0,0-2.61.94l-.58-1A6.38,6.38,0,0,1,24,6C26.11,6,27,7.39,27,9.57v5.37H25.79l-.12-1h-.05a4.64,4.64,0,0,1-2.9,1.27A2.38,2.38,0,0,1,20.16,12.67Zm5.37.13V10.37c-2.93.36-3.92,1.08-3.92,2.19A1.34,1.34,0,0,0,23.14,14,3.57,3.57,0,0,0,25.53,12.8Z" transform="translate(-0.25 -2.48)"/><path class="cls-1" d="M29.5,3.43a1,1,0,0,1,2.05,0,1,1,0,0,1-2.05,0Zm.27,2.76h1.48v8.75H29.77Z" transform="translate(-0.25 -2.48)"/></g></g></svg>