<svg xmlns="http://www.w3.org/2000/svg" viewBox="0 0 170.21 8.01"><defs><style>.cls-1{fill:#fff;}</style></defs><g id="Layer_2" data-name="Layer 2"><g id="Layer_1-2" data-name="Layer 1"><path class="cls-1" d="M.64,5.85c0-2.45,1.33-4,3.19-4S7,3.4,7,5.85s-1.32,4-3.18,4S.64,8.3.64,5.85Zm5.81,0c0-2.15-1-3.49-2.62-3.49S1.21,3.7,1.21,5.85s1,3.54,2.62,3.54S6.45,8,6.45,5.85Z" transform="translate(-0.64 -1.87)"/><path class="cls-1" d="M9.6,6.79,7.84,4.11h.58l.91,1.43c.18.31.39.62.59.92H10c.2-.3.38-.61.59-.92l.87-1.43H12L10.22,6.84l1.91,2.9h-.57l-1-1.54c-.21-.35-.44-.7-.66-1H9.85c-.23.33-.43.68-.65,1l-1,1.54H7.69Z" transform="translate(-0.64 -1.87)"/><path class="cls-1" d="M13.46,2H14l3.25,5.45L18.16,9h0c0-.75-.06-1.5-.06-2.25V2h.51V9.74h-.57L14.83,4.29,14,2.74h0c0,.75.07,1.45.07,2.2v4.8h-.51Z" transform="translate(-0.64 -1.87)"/><path class="cls-1" d="M20.43,5.86c0-2.45,1.38-4,3.42-4A2.83,2.83,0,0,1,26,2.79l-.32.36a2.3,2.3,0,0,0-1.78-.79C22.09,2.36,21,3.71,21,5.85s1,3.54,2.8,3.54a2.56,2.56,0,0,0,1.73-.58V6.4H23.67V5.94H26V9a3,3,0,0,1-2.28.87C21.76,9.88,20.43,8.32,20.43,5.86Z" transform="translate(-0.64 -1.87)"/><path class="cls-1" d="M28,2h.54V5.4H32.7V2h.54V9.74H32.7V5.87H28.57V9.74H28Z" transform="translate(-0.64 -1.87)"/><path class="cls-1" d="M35.53,2h2.21c1.53,0,2.54.56,2.54,2s-1,2.14-2.54,2.14H36.07V9.74h-.54Zm2.06,3.72c1.37,0,2.13-.54,2.13-1.68S39,2.46,37.59,2.46H36.07V5.73Zm0,.3.52-.15,2.3,3.86H39.8Z" transform="translate(-0.64 -1.87)"/><path class="cls-1" d="M41.91,2h.54V9.74h-.54Z" transform="translate(-0.64 -1.87)"/><path class="cls-1" d="M44.73,2h.56l3.25,5.45L49.42,9h0c0-.75-.07-1.5-.07-2.25V2h.51V9.74h-.57L46.09,4.29l-.88-1.55h0c0,.75.06,1.45.06,2.2v4.8h-.5Z" transform="translate(-0.64 -1.87)"/><path class="cls-1" d="M52.19,2h.56L56,7.46,56.88,9h0c0-.75-.07-1.5-.07-2.25V2h.51V9.74H56.8L53.55,4.29l-.87-1.55h0c0,.75.07,1.45.07,2.2v4.8h-.51Z" transform="translate(-0.64 -1.87)"/><path class="cls-1" d="M61.33,2h.54l2.72,7.73H64L62.48,5.19c-.32-.92-.59-1.73-.86-2.67h0c-.27.94-.54,1.75-.86,2.67L59.15,9.74H58.6ZM59.85,6.63h3.47v.46H59.85Z" transform="translate(-0.64 -1.87)"/><path class="cls-1" d="M65.23,8.72l.34-.37a3.06,3.06,0,0,0,2.27,1c1.19,0,1.93-.63,1.93-1.55s-.63-1.28-1.39-1.62L67.2,5.7a2.13,2.13,0,0,1-1.56-1.93,2,2,0,0,1,2.24-1.9A3,3,0,0,1,70,2.79l-.31.36a2.48,2.48,0,0,0-1.85-.79c-1,0-1.7.54-1.7,1.38S67,5,67.52,5.23l1.17.52c.86.39,1.62.87,1.62,2.05a2.2,2.2,0,0,1-2.47,2.08A3.41,3.41,0,0,1,65.23,8.72Z" transform="translate(-0.64 -1.87)"/><path class="cls-1" d="M71.94,2H74c1.55,0,2.55.59,2.55,1.88a1.65,1.65,0,0,1-1.2,1.68v0a1.81,1.81,0,0,1,1.68,1.87c0,1.49-1.13,2.25-2.88,2.25H71.94Zm1.87,3.4C75.4,5.41,76,4.85,76,3.94c0-1.08-.75-1.48-2.16-1.48h-1.4v3ZM74,9.29c1.54,0,2.48-.56,2.48-1.8S75.62,5.85,74,5.85H72.48V9.29Z" transform="translate(-0.64 -1.87)"/><path class="cls-1" d="M78.19,6.93a2.68,2.68,0,0,1,2.57-3,2.33,2.33,0,0,1,1.65.7l-.3.36a1.94,1.94,0,0,0-1.34-.6,2.24,2.24,0,0,0-2,2.51c0,1.49.81,2.49,2,2.49a2.25,2.25,0,0,0,1.51-.65l.26.37a2.67,2.67,0,0,1-1.8.74C79.29,9.88,78.19,8.8,78.19,6.93Z" transform="translate(-0.64 -1.87)"/><path class="cls-1" d="M84,2h.56l3.26,5.45L88.68,9h0c0-.75-.07-1.5-.07-2.25V2h.51V9.74h-.56L85.35,4.29l-.87-1.55h0c0,.75.07,1.45.07,2.2v4.8H84Z" transform="translate(-0.64 -1.87)"/><path class="cls-1" d="M91,5.85c0-2.45,1.33-4,3.19-4s3.18,1.53,3.18,4-1.32,4-3.18,4S91,8.3,91,5.85Zm5.81,0c0-2.15-1.05-3.49-2.62-3.49S91.52,3.7,91.52,5.85s1,3.54,2.62,3.54S96.76,8,96.76,5.85Z" transform="translate(-0.64 -1.87)"/><path class="cls-1" d="M98.24,4.11h.56l1,3.64c.13.53.27,1,.38,1.51h0c.13-.5.27-1,.41-1.51l1-3.64h.61l1,3.64c.14.53.28,1,.41,1.51h.05c.14-.5.27-1,.41-1.51l1-3.64h.52L104.1,9.74h-.68l-1-3.5c-.16-.54-.27-1.06-.43-1.61h0c-.13.55-.27,1.09-.44,1.63l-1,3.48h-.63Z" transform="translate(-0.64 -1.87)"/><path class="cls-1" d="M106.57,6c0-2.49.81-3.86,2.24-3.86s2.24,1.37,2.24,3.86-.81,3.92-2.24,3.92S106.57,8.46,106.57,6Zm4,0c0-2.28-.67-3.41-1.71-3.41S107.1,3.68,107.1,6s.67,3.47,1.71,3.47S110.52,8.25,110.52,6Z" transform="translate(-0.64 -1.87)"/><path class="cls-1" d="M112.09,7.82a2.53,2.53,0,0,1,1.5-2.12v0a2.09,2.09,0,0,1-1.07-1.72,1.84,1.84,0,0,1,2-1.83,1.88,1.88,0,0,1,2,2A2.76,2.76,0,0,1,115.44,6V6a2.21,2.21,0,0,1,1.31,1.91,2.07,2.07,0,0,1-2.28,2A2.17,2.17,0,0,1,112.09,7.82Zm4.14.09c0-1.15-1.13-1.55-2.3-2a2.3,2.3,0,0,0-1.33,1.89,1.74,1.74,0,0,0,1.88,1.66A1.6,1.6,0,0,0,116.23,7.91ZM116,4.07a1.47,1.47,0,0,0-1.54-1.54A1.37,1.37,0,0,0,113,3.93c0,1.07,1,1.49,2,1.88A2.24,2.24,0,0,0,116,4.07Z" transform="translate(-0.64 -1.87)"/><path class="cls-1" d="M117.54,8.87l.3-.36a2.67,2.67,0,0,0,2.06.91,1.91,1.91,0,0,0,1.86-2,1.75,1.75,0,0,0-1.83-1.94,2.34,2.34,0,0,0-1.4.5l-.36-.22.27-3.51h3.47V2.7h-3l-.24,2.71A2.49,2.49,0,0,1,120,5a2.14,2.14,0,0,1,2.29,2.36,2.39,2.39,0,0,1-2.4,2.5A3.13,3.13,0,0,1,117.54,8.87Z" transform="translate(-0.64 -1.87)"/><path class="cls-1" d="M123.35,9.41c2.46-2.5,3.69-3.89,3.69-5.2a1.51,1.51,0,0,0-1.63-1.66,2.33,2.33,0,0,0-1.75,1l-.34-.32a2.81,2.81,0,0,1,2.14-1.11,2,2,0,0,1,2.11,2.1c0,1.49-1.36,2.92-3.44,5.13.41,0,.85-.05,1.26-.05h2.55v.46h-4.59Z" transform="translate(-0.64 -1.87)"/><path class="cls-1" d="M129.63,2h.54V6.3h0L133.93,2h.64l-2.46,2.86,2.81,4.87h-.63l-2.55-4.45-1.57,1.79V9.74h-.54Z" transform="translate(-0.64 -1.87)"/><path class="cls-1" d="M136.17,2h.77l1.61,4.53c.21.57.41,1.15.61,1.72h.05c.2-.57.39-1.15.59-1.72L141.41,2h.76V9.74h-.52V4.66c0-.63,0-1.45.07-2.09h-.05l-.6,1.72L139.4,8.9h-.46l-1.68-4.61-.61-1.72h-.05c0,.64.07,1.46.07,2.09V9.74h-.5Z" transform="translate(-0.64 -1.87)"/><path class="cls-1" d="M147.79,2.7h-4V2.24h4.61v.31a11.19,11.19,0,0,0-2.36,7.19h-.56A11.68,11.68,0,0,1,147.79,2.7Z" transform="translate(-0.64 -1.87)"/><path class="cls-1" d="M149.41,7.82a2.53,2.53,0,0,1,1.5-2.12v0a2.09,2.09,0,0,1-1.07-1.72,1.84,1.84,0,0,1,2-1.83,1.88,1.88,0,0,1,2,2A2.76,2.76,0,0,1,152.76,6V6a2.21,2.21,0,0,1,1.31,1.91,2.07,2.07,0,0,1-2.28,2A2.17,2.17,0,0,1,149.41,7.82Zm4.13.09c0-1.15-1.13-1.55-2.29-2a2.3,2.3,0,0,0-1.33,1.89,1.74,1.74,0,0,0,1.87,1.66A1.59,1.59,0,0,0,153.54,7.91Zm-.22-3.84a1.47,1.47,0,0,0-1.53-1.54,1.37,1.37,0,0,0-1.44,1.4c0,1.07,1,1.49,2,1.88A2.26,2.26,0,0,0,153.32,4.07Z" transform="translate(-0.64 -1.87)"/><path class="cls-1" d="M158.19,4.31c0-.35,0-.95.05-1.3h0c-.19.32-.4.6-.61.94l-2.2,3.11h4.43V7.5h-5.07V7.19l3.49-4.95h.46v7.5h-.51Z" transform="translate(-0.64 -1.87)"/><path class="cls-1" d="M161.17,9.28h1.76V3.07h-1.34V2.71A4.34,4.34,0,0,0,163,2.24h.42v7h1.63v.46h-3.91Z" transform="translate(-0.64 -1.87)"/><path class="cls-1" d="M166.37,6c0-2.49.81-3.86,2.24-3.86s2.24,1.37,2.24,3.86-.81,3.92-2.24,3.92S166.37,8.46,166.37,6Zm3.95,0c0-2.28-.67-3.41-1.71-3.41S166.9,3.68,166.9,6s.67,3.47,1.71,3.47S170.32,8.25,170.32,6Z" transform="translate(-0.64 -1.87)"/></g></g></svg>