<svg xmlns="http://www.w3.org/2000/svg" viewBox="0 0 436.33 60.12"><defs><style>.cls-1{fill:#fff;}</style></defs><g id="Layer_2" data-name="Layer 2"><g id="Layer_1-2" data-name="Layer 1"><path class="cls-1" d="M1.26,2.44H2.44v9.25H1.26Z" transform="translate(-0.34 -1.65)"/><path class="cls-1" d="M4.86,4.84h1l.09,1H6a3.28,3.28,0,0,1,2.3-1.16c1.44,0,2.09.93,2.09,2.68v4.34H9.18V7.5c0-1.28-.39-1.82-1.29-1.82A2.59,2.59,0,0,0,6,6.73v5H4.86Z" transform="translate(-0.34 -1.65)"/><path class="cls-1" d="M12.76,9.57V5.79h-1V4.91l1.07-.07L13,2.92h1V4.84h1.86v1H13.92v3.8c0,.84.27,1.32,1.06,1.32a2.33,2.33,0,0,0,.78-.18l.23.87a4.23,4.23,0,0,1-1.28.26C13.26,11.86,12.76,10.93,12.76,9.57Z" transform="translate(-0.34 -1.65)"/><path class="cls-1" d="M17.32,4.84h1l.1,1.25h0a2.37,2.37,0,0,1,1.95-1.42,1.61,1.61,0,0,1,.73.14l-.21,1a2,2,0,0,0-.67-.11c-.58,0-1.27.41-1.73,1.57v4.4H17.32Z" transform="translate(-0.34 -1.65)"/><path class="cls-1" d="M21.56,8.27c0-2.28,1.49-3.6,3.17-3.6S27.9,6,27.9,8.27a3.19,3.19,0,1,1-6.34,0Zm5.15,0c0-1.56-.8-2.63-2-2.63s-2,1.07-2,2.63.79,2.62,2,2.62S26.71,9.84,26.71,8.27Z" transform="translate(-0.34 -1.65)"/><path class="cls-1" d="M29.21,8.27c0-2.22,1.4-3.6,3-3.6a2.78,2.78,0,0,1,1.92.8L34,4.29V1.65H35.2v10h-1l-.1-.81h0a3,3,0,0,1-2.08,1C30.32,11.86,29.21,10.56,29.21,8.27ZM34,10V6.36a2.4,2.4,0,0,0-1.67-.71c-1.09,0-2,1-2,2.61s.68,2.62,1.88,2.62A2.37,2.37,0,0,0,34,10Z" transform="translate(-0.34 -1.65)"/><path class="cls-1" d="M37.42,9.18V4.84h1.16V9c0,1.28.39,1.82,1.29,1.82.7,0,1.19-.35,1.84-1.15V4.84h1.16v6.85h-1l-.1-1.07h0a2.92,2.92,0,0,1-2.26,1.24C38.07,11.86,37.42,10.93,37.42,9.18Z" transform="translate(-0.34 -1.65)"/><path class="cls-1" d="M44.67,8.27A3.32,3.32,0,0,1,48,4.67a2.84,2.84,0,0,1,2,.81l-.59.76A2,2,0,0,0,48,5.64c-1.24,0-2.15,1.07-2.15,2.63s.86,2.62,2.12,2.62a2.46,2.46,0,0,0,1.61-.68l.5.78a3.3,3.3,0,0,1-2.21.87C46.06,11.86,44.67,10.54,44.67,8.27Z" transform="translate(-0.34 -1.65)"/><path class="cls-1" d="M51.38,2.69a.8.8,0,0,1,1.6,0,.8.8,0,0,1-1.6,0Zm.22,2.15h1.15v6.85H51.6Z" transform="translate(-0.34 -1.65)"/><path class="cls-1" d="M55.06,4.84h1l.1,1h0a3.3,3.3,0,0,1,2.3-1.16c1.44,0,2.09.93,2.09,2.68v4.34H59.38V7.5c0-1.28-.38-1.82-1.29-1.82a2.61,2.61,0,0,0-1.87,1.05v5H55.06Z" transform="translate(-0.34 -1.65)"/><path class="cls-1" d="M62.24,13a1.91,1.91,0,0,1,1-1.54V11.4a1.27,1.27,0,0,1-.61-1.12A1.65,1.65,0,0,1,63.39,9V9a2.4,2.4,0,0,1-.89-1.84,2.43,2.43,0,0,1,2.57-2.44,2.91,2.91,0,0,1,1,.17h2.39v.89H67a2,2,0,0,1,.56,1.41,2.35,2.35,0,0,1-2.51,2.38,2.46,2.46,0,0,1-1-.24,1,1,0,0,0-.43.81c0,.44.28.75,1.19.75h1.34c1.59,0,2.39.5,2.39,1.63s-1.35,2.37-3.46,2.37C63.4,14.84,62.24,14.18,62.24,13Zm5.16-.36c0-.63-.48-.85-1.38-.85H64.84a3.62,3.62,0,0,1-.89-.1,1.44,1.44,0,0,0-.7,1.15c0,.74.75,1.2,2,1.2S67.4,13.36,67.4,12.64Zm-.87-5.53a1.46,1.46,0,1,0-2.91,0,1.46,1.46,0,1,0,2.91,0Z" transform="translate(-0.34 -1.65)"/><path class="cls-1" d="M76.25,3.44h-2.8v-1h6.77v1h-2.8v8.25H76.25Z" transform="translate(-0.34 -1.65)"/><path class="cls-1" d="M80.32,8.27a3.2,3.2,0,1,1,6.35,0,3.2,3.2,0,1,1-6.35,0Zm5.15,0c0-1.56-.8-2.63-2-2.63s-2,1.07-2,2.63.8,2.62,2,2.62S85.47,9.84,85.47,8.27Z" transform="translate(-0.34 -1.65)"/><path class="cls-1" d="M88.41,1.65h1.14v6.8h0l2.93-3.61h1.28L91.5,7.59l2.59,4.1H92.83l-2-3.29L89.55,9.89v1.8H88.41Z" transform="translate(-0.34 -1.65)"/><path class="cls-1" d="M94.62,8.27a3.3,3.3,0,0,1,3.07-3.6c1.75,0,2.74,1.26,2.74,3.22a3.06,3.06,0,0,1-.06.65H95.76A2.28,2.28,0,0,0,98,10.93a3,3,0,0,0,1.7-.54l.42.76a4.08,4.08,0,0,1-2.27.71A3.28,3.28,0,0,1,94.62,8.27Zm4.78-.56c0-1.37-.61-2.11-1.68-2.11a2.1,2.1,0,0,0-2,2.11Z" transform="translate(-0.34 -1.65)"/><path class="cls-1" d="M102.11,4.84h1l.1,1h0a3.3,3.3,0,0,1,2.3-1.16c1.44,0,2.09.93,2.09,2.68v4.34h-1.16V7.5c0-1.28-.38-1.82-1.29-1.82a2.61,2.61,0,0,0-1.87,1.05v5h-1.16Z" transform="translate(-0.34 -1.65)"/><path class="cls-1" d="M113,2.44h1.25l1.49,5c.33,1.09.55,2,.89,3.05h.06c.34-1.08.57-2,.89-3l1.48-5h1.19l-2.93,9.25H116Z" transform="translate(-0.34 -1.65)"/><path class="cls-1" d="M120.7,8.27a3.3,3.3,0,0,1,3.08-3.6c1.74,0,2.73,1.26,2.73,3.22a4,4,0,0,1-.05.65h-4.62a2.28,2.28,0,0,0,2.28,2.39,3,3,0,0,0,1.7-.54l.42.76a4,4,0,0,1-2.26.71A3.28,3.28,0,0,1,120.7,8.27Zm4.79-.56c0-1.37-.62-2.11-1.69-2.11a2.1,2.1,0,0,0-2,2.11Z" transform="translate(-0.34 -1.65)"/><path class="cls-1" d="M127.43,10.91l.57-.77a3.1,3.1,0,0,0,2,.81c.89,0,1.34-.47,1.34-1.06s-.81-1-1.56-1.3c-1-.35-2-.82-2-2s.88-1.95,2.36-1.95a3.46,3.46,0,0,1,2.13.77l-.55.74a2.63,2.63,0,0,0-1.56-.6c-.86,0-1.26.46-1.26,1s.74.9,1.52,1.18c1,.38,2.09.78,2.09,2.08,0,1.11-.89,2-2.5,2A4.17,4.17,0,0,1,127.43,10.91Z" transform="translate(-0.34 -1.65)"/><path class="cls-1" d="M134,9.57V5.79h-1V4.91l1.07-.07.14-1.92h1V4.84H137v1h-1.86v3.8c0,.84.27,1.32,1.06,1.32a2.33,2.33,0,0,0,.78-.18l.23.87a4.23,4.23,0,0,1-1.28.26C134.51,11.86,134,10.93,134,9.57Z" transform="translate(-0.34 -1.65)"/><path class="cls-1" d="M138.36,2.69a.8.8,0,0,1,1.6,0,.8.8,0,0,1-1.6,0Zm.21,2.15h1.16v6.85h-1.16Z" transform="translate(-0.34 -1.65)"/><path class="cls-1" d="M142,4.84h1l.1,1h0a3.28,3.28,0,0,1,2.29-1.16c1.45,0,2.09.93,2.09,2.68v4.34h-1.15V7.5c0-1.28-.39-1.82-1.3-1.82a2.63,2.63,0,0,0-1.87,1.05v5H142Z" transform="translate(-0.34 -1.65)"/><path class="cls-1" d="M149.22,13a1.9,1.9,0,0,1,1-1.54V11.4a1.27,1.27,0,0,1-.61-1.12A1.65,1.65,0,0,1,150.36,9V9a2.39,2.39,0,0,1-.88-1.84,2.43,2.43,0,0,1,2.57-2.44,2.9,2.9,0,0,1,1,.17h2.39v.89H154a2,2,0,0,1,.55,1.41,2.34,2.34,0,0,1-2.5,2.38,2.42,2.42,0,0,1-1-.24,1,1,0,0,0-.44.81c0,.44.28.75,1.2.75h1.33c1.59,0,2.39.5,2.39,1.63s-1.34,2.37-3.46,2.37C150.38,14.84,149.22,14.18,149.22,13Zm5.16-.36c0-.63-.48-.85-1.38-.85h-1.18a3.57,3.57,0,0,1-.89-.1,1.44,1.44,0,0,0-.7,1.15c0,.74.74,1.2,2,1.2S154.38,13.36,154.38,12.64Zm-.88-5.53a1.46,1.46,0,1,0-2.91,0,1.46,1.46,0,1,0,2.91,0Z" transform="translate(-0.34 -1.65)"/><path class="cls-1" d="M161.3,2.44h1.17v8.25h4v1H161.3Z" transform="translate(-0.34 -1.65)"/><path class="cls-1" d="M167.35,8.27a3.28,3.28,0,0,1,3.18-3.6c1.68,0,3.17,1.32,3.17,3.6a3.2,3.2,0,1,1-6.35,0Zm5.15,0c0-1.56-.8-2.63-2-2.63s-2,1.07-2,2.63.8,2.62,2,2.62S172.5,9.84,172.5,8.27Z" transform="translate(-0.34 -1.65)"/><path class="cls-1" d="M175,8.27a3.32,3.32,0,0,1,3.29-3.6,2.84,2.84,0,0,1,2,.81l-.59.76a2,2,0,0,0-1.36-.6c-1.24,0-2.15,1.07-2.15,2.63s.86,2.62,2.12,2.62a2.46,2.46,0,0,0,1.61-.68l.5.78a3.3,3.3,0,0,1-2.21.87C176.38,11.86,175,10.54,175,8.27Z" transform="translate(-0.34 -1.65)"/><path class="cls-1" d="M181.92,1.65h1.13v6.8h0L186,4.84h1.28L185,7.59l2.59,4.1h-1.27l-2-3.29-1.29,1.49v1.8h-1.13Z" transform="translate(-0.34 -1.65)"/><path class="cls-1" d="M188.68,2.69a.8.8,0,0,1,1.6,0,.8.8,0,0,1-1.6,0Zm.21,2.15h1.16v6.85h-1.16Z" transform="translate(-0.34 -1.65)"/><path class="cls-1" d="M192.35,4.84h1l.1,1h0a3.3,3.3,0,0,1,2.3-1.16c1.44,0,2.09.93,2.09,2.68v4.34h-1.16V7.5c0-1.28-.38-1.82-1.29-1.82a2.61,2.61,0,0,0-1.87,1.05v5h-1.16Z" transform="translate(-0.34 -1.65)"/><path class="cls-1" d="M199.54,13a1.9,1.9,0,0,1,1-1.54V11.4a1.27,1.27,0,0,1-.61-1.12A1.65,1.65,0,0,1,200.68,9V9a2.4,2.4,0,0,1-.89-1.84,2.43,2.43,0,0,1,2.57-2.44,2.91,2.91,0,0,1,1,.17h2.39v.89h-1.41a2,2,0,0,1,.56,1.41,2.35,2.35,0,0,1-2.51,2.38,2.46,2.46,0,0,1-1-.24,1,1,0,0,0-.43.81c0,.44.28.75,1.2.75h1.33c1.59,0,2.39.5,2.39,1.63s-1.35,2.37-3.46,2.37C200.69,14.84,199.54,14.18,199.54,13Zm5.16-.36c0-.63-.49-.85-1.38-.85h-1.19a3.62,3.62,0,0,1-.89-.1,1.43,1.43,0,0,0-.69,1.15c0,.74.74,1.2,2,1.2S204.7,13.36,204.7,12.64Zm-.88-5.53a1.46,1.46,0,1,0-2.91,0,1.46,1.46,0,1,0,2.91,0Z" transform="translate(-0.34 -1.65)"/><path class="cls-1" d="M211.61,2.44h2.64c2.08,0,3.47.7,3.47,2.73S216.33,8,214.31,8h-1.52v3.67h-1.18Zm2.55,4.63c1.62,0,2.39-.59,2.39-1.9s-.82-1.77-2.44-1.77h-1.32V7.07Z" transform="translate(-0.34 -1.65)"/><path class="cls-1" d="M218.63,8.27c0-2.28,1.49-3.6,3.17-3.6S225,6,225,8.27a3.19,3.19,0,1,1-6.34,0Zm5.15,0c0-1.56-.8-2.63-2-2.63s-2,1.07-2,2.63.79,2.62,2,2.62S223.78,9.84,223.78,8.27Z" transform="translate(-0.34 -1.65)"/><path class="cls-1" d="M226.26,8.27a3.2,3.2,0,1,1,6.35,0,3.2,3.2,0,1,1-6.35,0Zm5.15,0c0-1.56-.8-2.63-2-2.63s-2,1.07-2,2.63.8,2.62,2,2.62S231.41,9.84,231.41,8.27Z" transform="translate(-0.34 -1.65)"/><path class="cls-1" d="M234.35,10.31V1.65h1.16V10.4c0,.35.15.49.32.49a.91.91,0,0,0,.25,0l.16.89a1.81,1.81,0,0,1-.67.11C234.71,11.86,234.35,11.3,234.35,10.31Z" transform="translate(-0.34 -1.65)"/><path class="cls-1" d="M237.18,10.91l.57-.77a3.09,3.09,0,0,0,2,.81c.9,0,1.35-.47,1.35-1.06s-.81-1-1.57-1.3c-1-.35-2-.82-2-2s.88-1.95,2.36-1.95a3.48,3.48,0,0,1,2.13.77l-.55.74a2.66,2.66,0,0,0-1.57-.6c-.86,0-1.26.46-1.26,1s.75.9,1.52,1.18c1,.38,2.09.78,2.09,2.08,0,1.11-.88,2-2.5,2A4.14,4.14,0,0,1,237.18,10.91Z" transform="translate(-0.34 -1.65)"/><path class="cls-1" d="M243.6,11a.84.84,0,1,1,.84.88A.85.85,0,0,1,243.6,11Z" transform="translate(-0.34 -1.65)"/><path class="cls-1" d="M253.73,3.44h-2.8v-1h6.77v1h-2.79v8.25h-1.18Z" transform="translate(-0.34 -1.65)"/><path class="cls-1" d="M257.81,8.27c0-2.28,1.49-3.6,3.17-3.6s3.17,1.32,3.17,3.6a3.19,3.19,0,1,1-6.34,0Zm5.15,0c0-1.56-.8-2.63-2-2.63s-2,1.07-2,2.63.8,2.62,2,2.62S263,9.84,263,8.27Z" transform="translate(-0.34 -1.65)"/><path class="cls-1" d="M265.89,1.65H267v6.8h0L270,4.84h1.29L269,7.59l2.6,4.1h-1.27l-2-3.29L267,9.89v1.8h-1.14Z" transform="translate(-0.34 -1.65)"/><path class="cls-1" d="M272.1,8.27a3.3,3.3,0,0,1,3.08-3.6c1.74,0,2.73,1.26,2.73,3.22a4,4,0,0,1-.05.65h-4.61a2.27,2.27,0,0,0,2.27,2.39,3,3,0,0,0,1.7-.54l.42.76a4,4,0,0,1-2.26.71A3.28,3.28,0,0,1,272.1,8.27Zm4.79-.56c0-1.37-.62-2.11-1.69-2.11a2.09,2.09,0,0,0-2,2.11Z" transform="translate(-0.34 -1.65)"/><path class="cls-1" d="M279.59,4.84h1l.1,1h0A3.26,3.26,0,0,1,283,4.67c1.45,0,2.09.93,2.09,2.68v4.34h-1.15V7.5c0-1.28-.39-1.82-1.3-1.82a2.61,2.61,0,0,0-1.87,1.05v5h-1.16Z" transform="translate(-0.34 -1.65)"/><path class="cls-1" d="M291.65,10.31V1.65h1.16V10.4c0,.35.15.49.32.49a1,1,0,0,0,.26,0l.15.89a1.79,1.79,0,0,1-.66.11C292,11.86,291.65,11.3,291.65,10.31Z" transform="translate(-0.34 -1.65)"/><path class="cls-1" d="M294.73,8.27a3.2,3.2,0,1,1,6.35,0,3.2,3.2,0,1,1-6.35,0Zm5.15,0c0-1.56-.8-2.63-2-2.63s-2,1.07-2,2.63.8,2.62,2,2.62S299.88,9.84,299.88,8.27Z" transform="translate(-0.34 -1.65)"/><path class="cls-1" d="M302.37,8.27a3.32,3.32,0,0,1,3.29-3.6,2.84,2.84,0,0,1,2,.81l-.59.76a2,2,0,0,0-1.36-.6c-1.24,0-2.15,1.07-2.15,2.63s.86,2.62,2.12,2.62a2.46,2.46,0,0,0,1.61-.68l.5.78a3.32,3.32,0,0,1-2.21.87C303.75,11.86,302.37,10.54,302.37,8.27Z" transform="translate(-0.34 -1.65)"/><path class="cls-1" d="M309.3,1.65h1.13v6.8h0l2.92-3.61h1.29l-2.29,2.75,2.59,4.1h-1.27l-2-3.29-1.29,1.49v1.8H309.3Z" transform="translate(-0.34 -1.65)"/><path class="cls-1" d="M315.51,10.91l.57-.77a3.07,3.07,0,0,0,2,.81c.9,0,1.35-.47,1.35-1.06s-.81-1-1.57-1.3c-1-.35-2-.82-2-2s.87-1.95,2.36-1.95a3.48,3.48,0,0,1,2.13.77l-.56.74a2.6,2.6,0,0,0-1.56-.6c-.86,0-1.26.46-1.26,1s.75.9,1.52,1.18c1,.38,2.09.78,2.09,2.08,0,1.11-.88,2-2.5,2A4.14,4.14,0,0,1,315.51,10.91Z" transform="translate(-0.34 -1.65)"/><path class="cls-1" d="M326.1,9.91c0-1.49,1.28-2.24,4.2-2.55,0-.88-.3-1.73-1.41-1.73a3.78,3.78,0,0,0-2.05.73l-.45-.79a5,5,0,0,1,2.69-.9c1.67,0,2.38,1.11,2.38,2.82v4.2h-1l-.1-.82h0a3.69,3.69,0,0,1-2.27,1A1.86,1.86,0,0,1,326.1,9.91Zm4.2.11V8.12c-2.29.27-3.07.83-3.07,1.71s.53,1.09,1.2,1.09A2.82,2.82,0,0,0,330.3,10Z" transform="translate(-0.34 -1.65)"/><path class="cls-1" d="M333.62,4.84h.95l.1,1.25h0a2.37,2.37,0,0,1,2-1.42,1.64,1.64,0,0,1,.73.14l-.22,1a2,2,0,0,0-.66-.11c-.58,0-1.27.41-1.73,1.57v4.4h-1.16Z" transform="translate(-0.34 -1.65)"/><path class="cls-1" d="M337.85,8.27a3.31,3.31,0,0,1,3.08-3.6c1.75,0,2.73,1.26,2.73,3.22a4,4,0,0,1-.05.65H339a2.27,2.27,0,0,0,2.27,2.39,3,3,0,0,0,1.71-.54l.41.76a4,4,0,0,1-2.26.71A3.28,3.28,0,0,1,337.85,8.27Zm4.79-.56c0-1.37-.62-2.11-1.69-2.11a2.09,2.09,0,0,0-2,2.11Z" transform="translate(-0.34 -1.65)"/><path class="cls-1" d="M349.7,4.84h1l.09,1.25h0a2.37,2.37,0,0,1,1.95-1.42,1.64,1.64,0,0,1,.73.14l-.22,1a2,2,0,0,0-.66-.11c-.58,0-1.27.41-1.73,1.57v4.4H349.7Z" transform="translate(-0.34 -1.65)"/><path class="cls-1" d="M353.94,8.27A3.3,3.3,0,0,1,357,4.67c1.75,0,2.74,1.26,2.74,3.22a3.06,3.06,0,0,1-.06.65h-4.61a2.28,2.28,0,0,0,2.28,2.39,3,3,0,0,0,1.7-.54l.41.76a4,4,0,0,1-2.26.71A3.28,3.28,0,0,1,353.94,8.27Zm4.78-.56c0-1.37-.61-2.11-1.68-2.11a2.1,2.1,0,0,0-2,2.11Z" transform="translate(-0.34 -1.65)"/><path class="cls-1" d="M361.43,4.84h1l.09.79h0a3.63,3.63,0,0,1,2.19-1c1.76,0,2.71,1.38,2.71,3.49,0,2.33-1.4,3.7-3,3.7a3.09,3.09,0,0,1-1.9-.8l0,1.2v2.32h-1.16Zm4.79,3.33c0-1.51-.51-2.52-1.8-2.52a2.82,2.82,0,0,0-1.83.93v3.59a2.66,2.66,0,0,0,1.66.71C365.39,10.88,366.22,9.86,366.22,8.17Z" transform="translate(-0.34 -1.65)"/><path class="cls-1" d="M369.25,4.84h.95l.1,1.25h0a2.34,2.34,0,0,1,2-1.42,1.64,1.64,0,0,1,.73.14l-.22,1a2,2,0,0,0-.67-.11c-.57,0-1.26.41-1.73,1.57v4.4h-1.15Z" transform="translate(-0.34 -1.65)"/><path class="cls-1" d="M373.48,8.27a3.3,3.3,0,0,1,3.08-3.6c1.75,0,2.73,1.26,2.73,3.22a4,4,0,0,1-.05.65h-4.61a2.27,2.27,0,0,0,2.27,2.39,3,3,0,0,0,1.71-.54l.41.76a4,4,0,0,1-2.26.71A3.28,3.28,0,0,1,373.48,8.27Zm4.79-.56c0-1.37-.62-2.11-1.69-2.11a2.09,2.09,0,0,0-2,2.11Z" transform="translate(-0.34 -1.65)"/><path class="cls-1" d="M380.22,10.91l.57-.77a3.07,3.07,0,0,0,2,.81c.9,0,1.34-.47,1.34-1.06s-.8-1-1.56-1.3c-1-.35-2-.82-2-2s.87-1.95,2.36-1.95a3.48,3.48,0,0,1,2.13.77l-.56.74a2.6,2.6,0,0,0-1.56-.6c-.86,0-1.26.46-1.26,1s.75.9,1.52,1.18c1,.38,2.09.78,2.09,2.08,0,1.11-.88,2-2.5,2A4.14,4.14,0,0,1,380.22,10.91Z" transform="translate(-0.34 -1.65)"/><path class="cls-1" d="M386.37,8.27a3.3,3.3,0,0,1,3.07-3.6c1.75,0,2.74,1.26,2.74,3.22a3.06,3.06,0,0,1-.06.65h-4.61a2.28,2.28,0,0,0,2.28,2.39,3,3,0,0,0,1.7-.54l.42.76a4.08,4.08,0,0,1-2.27.71A3.28,3.28,0,0,1,386.37,8.27Zm4.78-.56c0-1.37-.61-2.11-1.68-2.11a2.1,2.1,0,0,0-2,2.11Z" transform="translate(-0.34 -1.65)"/><path class="cls-1" d="M393.86,4.84h1l.1,1h0a3.3,3.3,0,0,1,2.3-1.16c1.44,0,2.09.93,2.09,2.68v4.34h-1.16V7.5c0-1.28-.38-1.82-1.29-1.82A2.61,2.61,0,0,0,395,6.73v5h-1.16Z" transform="translate(-0.34 -1.65)"/><path class="cls-1" d="M401.77,9.57V5.79h-1V4.91l1.07-.07L402,2.92h1V4.84h1.86v1h-1.86v3.8c0,.84.27,1.32,1.06,1.32a2.28,2.28,0,0,0,.78-.18l.23.87a4.22,4.22,0,0,1-1.27.26C402.26,11.86,401.77,10.93,401.77,9.57Z" transform="translate(-0.34 -1.65)"/><path class="cls-1" d="M405.62,8.27a3.3,3.3,0,0,1,3.07-3.6c1.75,0,2.74,1.26,2.74,3.22a3.06,3.06,0,0,1-.06.65h-4.61A2.28,2.28,0,0,0,409,10.93a3,3,0,0,0,1.7-.54l.42.76a4.08,4.08,0,0,1-2.27.71A3.28,3.28,0,0,1,405.62,8.27Zm4.78-.56c0-1.37-.61-2.11-1.68-2.11a2.1,2.1,0,0,0-2,2.11Z" transform="translate(-0.34 -1.65)"/><path class="cls-1" d="M412.62,8.27c0-2.22,1.4-3.6,3-3.6a2.78,2.78,0,0,1,1.92.8l-.05-1.18V1.65h1.16v10h-.95l-.1-.81h0a3,3,0,0,1-2.08,1C413.73,11.86,412.62,10.56,412.62,8.27ZM417.45,10V6.36a2.4,2.4,0,0,0-1.67-.71c-1.09,0-2,1-2,2.61s.68,2.62,1.88,2.62A2.37,2.37,0,0,0,417.45,10Z" transform="translate(-0.34 -1.65)"/><path class="cls-1" d="M424.86,9.91c0-1.49,1.28-2.24,4.2-2.55,0-.88-.3-1.73-1.41-1.73a3.78,3.78,0,0,0-2,.73l-.45-.79a5,5,0,0,1,2.69-.9c1.67,0,2.38,1.11,2.38,2.82v4.2h-1l-.1-.82h0a3.64,3.64,0,0,1-2.26,1A1.86,1.86,0,0,1,424.86,9.91Zm4.2.11V8.12C426.77,8.39,426,9,426,9.83s.53,1.09,1.2,1.09A2.82,2.82,0,0,0,429.06,10Z" transform="translate(-0.34 -1.65)"/><path class="cls-1" d="M431.62,10.91l.57-.77a3.07,3.07,0,0,0,2,.81c.9,0,1.35-.47,1.35-1.06s-.81-1-1.57-1.3c-1-.35-2-.82-2-2s.88-1.95,2.36-1.95a3.48,3.48,0,0,1,2.13.77l-.56.74a2.6,2.6,0,0,0-1.56-.6c-.86,0-1.26.46-1.26,1s.75.9,1.52,1.18c1,.38,2.09.78,2.09,2.08,0,1.11-.88,2-2.5,2A4.14,4.14,0,0,1,431.62,10.91Z" transform="translate(-0.34 -1.65)"/><path class="cls-1" d="M.4,34.38,1,33.61a3.07,3.07,0,0,0,2,.81c.9,0,1.34-.47,1.34-1.06s-.8-1-1.56-1.3c-1-.35-2-.82-2-2s.87-1.95,2.36-1.95a3.48,3.48,0,0,1,2.13.77l-.56.74a2.6,2.6,0,0,0-1.56-.6c-.86,0-1.26.46-1.26,1s.74.9,1.52,1.18c1,.38,2.09.78,2.09,2.08,0,1.11-.88,2-2.5,2A4.09,4.09,0,0,1,.4,34.38Z" transform="translate(-0.34 -1.65)"/><path class="cls-1" d="M7.06,25.12H8.21v2.75l0,1.41a3.27,3.27,0,0,1,2.28-1.14c1.44,0,2.09.93,2.09,2.68v4.34H11.38V31c0-1.28-.39-1.82-1.3-1.82A2.63,2.63,0,0,0,8.21,30.2v5H7.06Z" transform="translate(-0.34 -1.65)"/><path class="cls-1" d="M14.29,33.38c0-1.49,1.29-2.24,4.21-2.55,0-.88-.3-1.73-1.42-1.73a3.77,3.77,0,0,0-2,.73L14.59,29a5,5,0,0,1,2.69-.9c1.67,0,2.37,1.11,2.37,2.82v4.2H18.7l-.1-.82h0a3.64,3.64,0,0,1-2.26,1A1.86,1.86,0,0,1,14.29,33.38Zm4.21.11v-1.9c-2.3.27-3.07.83-3.07,1.71s.52,1.09,1.2,1.09A2.84,2.84,0,0,0,18.5,33.49Z" transform="translate(-0.34 -1.65)"/><path class="cls-1" d="M21.81,28.31h1l.1,1.25h0a2.34,2.34,0,0,1,1.94-1.42,1.59,1.59,0,0,1,.73.14l-.21,1a2,2,0,0,0-.67-.11c-.58,0-1.27.41-1.73,1.57v4.4H21.81Z" transform="translate(-0.34 -1.65)"/><path class="cls-1" d="M26.05,31.74a3.3,3.3,0,0,1,3.08-3.6c1.74,0,2.73,1.26,2.73,3.22a4,4,0,0,1-.05.65H27.2a2.27,2.27,0,0,0,2.27,2.39,3,3,0,0,0,1.7-.54l.42.76a4,4,0,0,1-2.26.71A3.28,3.28,0,0,1,26.05,31.74Zm4.79-.56c0-1.37-.62-2.11-1.69-2.11a2.09,2.09,0,0,0-2,2.11Z" transform="translate(-0.34 -1.65)"/><path class="cls-1" d="M32.78,34.38l.58-.77a3.05,3.05,0,0,0,2,.81c.9,0,1.34-.47,1.34-1.06s-.81-1-1.56-1.3c-1-.35-2-.82-2-2s.87-1.95,2.36-1.95a3.5,3.5,0,0,1,2.13.77l-.56.74a2.6,2.6,0,0,0-1.56-.6c-.86,0-1.26.46-1.26,1s.74.9,1.52,1.18c1,.38,2.09.78,2.09,2.08,0,1.11-.89,2-2.5,2A4.14,4.14,0,0,1,32.78,34.38Z" transform="translate(-0.34 -1.65)"/><path class="cls-1" d="M43.72,31.74a3.2,3.2,0,1,1,6.35,0,3.2,3.2,0,1,1-6.35,0Zm5.15,0c0-1.56-.8-2.63-2-2.63s-2,1.07-2,2.63.8,2.62,2,2.62S48.87,33.31,48.87,31.74Z" transform="translate(-0.34 -1.65)"/><path class="cls-1" d="M51.1,28.38l1-.07h2.56v1H51.1ZM52,27.23c0-1.39.63-2.27,2-2.27a3,3,0,0,1,1.14.23l-.25.89a1.87,1.87,0,0,0-.77-.18c-.65,0-1,.45-1,1.34v7.92H52Z" transform="translate(-0.34 -1.65)"/><path class="cls-1" d="M60.31,33.38c0-1.49,1.29-2.24,4.21-2.55,0-.88-.3-1.73-1.42-1.73a3.77,3.77,0,0,0-2,.73L60.61,29a5,5,0,0,1,2.69-.9c1.67,0,2.37,1.11,2.37,2.82v4.2h-1l-.1-.82h0a3.64,3.64,0,0,1-2.26,1A1.86,1.86,0,0,1,60.31,33.38Zm4.21.11v-1.9c-2.3.27-3.07.83-3.07,1.71s.52,1.09,1.2,1.09A2.84,2.84,0,0,0,64.52,33.49Z" transform="translate(-0.34 -1.65)"/><path class="cls-1" d="M72.62,28.31h1l.09.79h0a3.63,3.63,0,0,1,2.19-1c1.76,0,2.71,1.38,2.71,3.49,0,2.33-1.4,3.7-3,3.7a3.09,3.09,0,0,1-1.9-.8l0,1.2v2.32H72.62Zm4.79,3.33c0-1.51-.51-2.52-1.8-2.52a2.82,2.82,0,0,0-1.83.93v3.59a2.66,2.66,0,0,0,1.67.71C76.58,34.35,77.41,33.33,77.41,31.64Z" transform="translate(-0.34 -1.65)"/><path class="cls-1" d="M79.93,31.74c0-2.28,1.49-3.6,3.17-3.6s3.17,1.32,3.17,3.6a3.19,3.19,0,1,1-6.34,0Zm5.14,0c0-1.56-.79-2.63-2-2.63s-2,1.07-2,2.63.8,2.62,2,2.62S85.07,33.31,85.07,31.74Z" transform="translate(-0.34 -1.65)"/><path class="cls-1" d="M87.56,31.74c0-2.28,1.49-3.6,3.17-3.6s3.17,1.32,3.17,3.6a3.19,3.19,0,1,1-6.34,0Zm5.15,0c0-1.56-.8-2.63-2-2.63s-2,1.07-2,2.63.79,2.62,2,2.62S92.71,33.31,92.71,31.74Z" transform="translate(-0.34 -1.65)"/><path class="cls-1" d="M95.64,33.78V25.12H96.8v8.75c0,.35.16.49.33.49a.94.94,0,0,0,.25,0l.16.89a1.9,1.9,0,0,1-.67.11C96,35.33,95.64,34.77,95.64,33.78Z" transform="translate(-0.34 -1.65)"/><path class="cls-1" d="M98.75,36.87A1.89,1.89,0,0,0,100,35.12l-.12-1,.57.85a.72.72,0,0,1-.59.24.78.78,0,0,1-.84-.81.81.81,0,0,1,.86-.81c.62,0,1,.52,1,1.37A2.78,2.78,0,0,1,99,37.55Z" transform="translate(-0.34 -1.65)"/><path class="cls-1" d="M107.32,26.16a.8.8,0,0,1,1.6,0,.8.8,0,0,1-1.6,0Zm.21,2.15h1.16v6.85h-1.16Z" transform="translate(-0.34 -1.65)"/><path class="cls-1" d="M111,28.31h1l.1,1h0a3.3,3.3,0,0,1,2.3-1.16c1.44,0,2.09.93,2.09,2.68v4.34h-1.16V31c0-1.28-.38-1.82-1.29-1.82a2.61,2.61,0,0,0-1.87,1.05v5H111Z" transform="translate(-0.34 -1.65)"/><path class="cls-1" d="M123.06,33.38c0-1.49,1.28-2.24,4.2-2.55,0-.88-.29-1.73-1.41-1.73a3.74,3.74,0,0,0-2,.73l-.46-.79a5,5,0,0,1,2.69-.9c1.67,0,2.38,1.11,2.38,2.82v4.2h-1l-.09-.82h0a3.69,3.69,0,0,1-2.27,1A1.86,1.86,0,0,1,123.06,33.38Zm4.2.11v-1.9c-2.29.27-3.07.83-3.07,1.71s.53,1.09,1.2,1.09A2.82,2.82,0,0,0,127.26,33.49Z" transform="translate(-0.34 -1.65)"/><path class="cls-1" d="M134.61,34.38l.57-.77a3.07,3.07,0,0,0,2,.81c.9,0,1.34-.47,1.34-1.06s-.8-1-1.56-1.3c-1-.35-2-.82-2-2s.87-1.95,2.36-1.95a3.48,3.48,0,0,1,2.13.77l-.56.74a2.6,2.6,0,0,0-1.56-.6c-.86,0-1.26.46-1.26,1s.75.9,1.52,1.18c1,.38,2.09.78,2.09,2.08,0,1.11-.88,2-2.5,2A4.09,4.09,0,0,1,134.61,34.38Z" transform="translate(-0.34 -1.65)"/><path class="cls-1" d="M141.05,26.16a.8.8,0,0,1,1.6,0,.8.8,0,0,1-1.6,0Zm.22,2.15h1.15v6.85h-1.15Z" transform="translate(-0.34 -1.65)"/><path class="cls-1" d="M144.73,28.31h1l.1,1h0A3.08,3.08,0,0,1,148,28.14a1.8,1.8,0,0,1,1.89,1.31,3.25,3.25,0,0,1,2.26-1.31c1.41,0,2.08.93,2.08,2.68v4.34H153V31c0-1.28-.41-1.82-1.28-1.82A2.5,2.5,0,0,0,150,30.2v5h-1.16V31c0-1.28-.41-1.82-1.28-1.82a2.54,2.54,0,0,0-1.71,1.05v5h-1.16Z" transform="translate(-0.34 -1.65)"/><path class="cls-1" d="M156.19,26.16a.8.8,0,0,1,1.6,0,.8.8,0,0,1-1.6,0Zm.21,2.15h1.16v6.85H156.4Z" transform="translate(-0.34 -1.65)"/><path class="cls-1" d="M159.87,33.78V25.12H161v8.75c0,.35.15.49.32.49a.91.91,0,0,0,.25,0l.16.89a1.81,1.81,0,0,1-.67.11C160.23,35.33,159.87,34.77,159.87,33.78Z" transform="translate(-0.34 -1.65)"/><path class="cls-1" d="M163,33.38c0-1.49,1.28-2.24,4.2-2.55,0-.88-.3-1.73-1.41-1.73a3.78,3.78,0,0,0-2.05.73l-.45-.79a5,5,0,0,1,2.69-.9c1.67,0,2.38,1.11,2.38,2.82v4.2h-1l-.1-.82h0a3.64,3.64,0,0,1-2.26,1A1.86,1.86,0,0,1,163,33.38Zm4.2.11v-1.9c-2.29.27-3.07.83-3.07,1.71s.53,1.09,1.2,1.09A2.82,2.82,0,0,0,167.24,33.49Z" transform="translate(-0.34 -1.65)"/><path class="cls-1" d="M170.56,28.31h.95l.1,1.25h0a2.37,2.37,0,0,1,1.95-1.42,1.64,1.64,0,0,1,.73.14l-.22,1a2,2,0,0,0-.66-.11c-.58,0-1.27.41-1.74,1.57v4.4h-1.15Z" transform="translate(-0.34 -1.65)"/><path class="cls-1" d="M179.41,28.31h1.19l1,4c.15.65.28,1.26.41,1.91h.06c.14-.65.29-1.27.46-1.91l1.06-4h1.13l1.07,4c.17.65.31,1.26.47,1.91h.06c.15-.65.27-1.26.42-1.91l1-4h1.1L187,35.16h-1.41l-1-3.68c-.17-.65-.3-1.28-.46-2h-.06c-.15.69-.29,1.34-.47,2l-1,3.66h-1.35Z" transform="translate(-0.34 -1.65)"/><path class="cls-1" d="M189.78,33.38c0-1.49,1.28-2.24,4.2-2.55,0-.88-.29-1.73-1.41-1.73a3.74,3.74,0,0,0-2,.73l-.46-.79a5,5,0,0,1,2.69-.9c1.67,0,2.38,1.11,2.38,2.82v4.2h-1l-.1-.82h0a3.69,3.69,0,0,1-2.27,1A1.86,1.86,0,0,1,189.78,33.38Zm4.2.11v-1.9c-2.29.27-3.07.83-3.07,1.71s.53,1.09,1.2,1.09A2.82,2.82,0,0,0,194,33.49Z" transform="translate(-0.34 -1.65)"/><path class="cls-1" d="M196.61,38l.23-.93a1.6,1.6,0,0,0,.52.11c.77,0,1.26-.62,1.54-1.47l.16-.51-2.75-6.86h1.2l1.39,3.79c.22.6.45,1.3.67,1.93h.06c.19-.62.38-1.32.57-1.93l1.22-3.79h1.14L200,35.72c-.49,1.36-1.19,2.39-2.57,2.39A2.34,2.34,0,0,1,196.61,38Z" transform="translate(-0.34 -1.65)"/><path class="cls-1" d="M208.86,33V29.26h-1v-.88l1.07-.07.13-1.92h1v1.92h1.86v1H210v3.8c0,.84.27,1.32,1.06,1.32a2.33,2.33,0,0,0,.78-.18l.22.87a4.1,4.1,0,0,1-1.27.26C209.36,35.33,208.86,34.4,208.86,33Z" transform="translate(-0.34 -1.65)"/><path class="cls-1" d="M212.72,31.74c0-2.28,1.49-3.6,3.17-3.6s3.17,1.32,3.17,3.6a3.19,3.19,0,1,1-6.34,0Zm5.14,0c0-1.56-.79-2.63-2-2.63s-2,1.07-2,2.63.8,2.62,2,2.62S217.86,33.31,217.86,31.74Z" transform="translate(-0.34 -1.65)"/><path class="cls-1" d="M225.16,33.38c0-1.49,1.29-2.24,4.21-2.55,0-.88-.3-1.73-1.41-1.73a3.78,3.78,0,0,0-2.05.73l-.45-.79a5,5,0,0,1,2.69-.9c1.67,0,2.38,1.11,2.38,2.82v4.2h-1l-.1-.82h0a3.64,3.64,0,0,1-2.26,1A1.86,1.86,0,0,1,225.16,33.38Zm4.21.11v-1.9c-2.3.27-3.07.83-3.07,1.71s.53,1.09,1.2,1.09A2.82,2.82,0,0,0,229.37,33.49Z" transform="translate(-0.34 -1.65)"/><path class="cls-1" d="M237.38,32.65V28.31h1.16V32.5c0,1.28.38,1.82,1.29,1.82.7,0,1.19-.35,1.83-1.15V28.31h1.16v6.85h-.95l-.1-1.07h0a2.94,2.94,0,0,1-2.26,1.24C238,35.33,237.38,34.4,237.38,32.65Z" transform="translate(-0.34 -1.65)"/><path class="cls-1" d="M245.13,28.31h1l.1,1h0a3.26,3.26,0,0,1,2.29-1.16c1.44,0,2.09.93,2.09,2.68v4.34h-1.16V31c0-1.28-.38-1.82-1.29-1.82a2.61,2.61,0,0,0-1.87,1.05v5h-1.16Z" transform="translate(-0.34 -1.65)"/><path class="cls-1" d="M252.62,26.16a.8.8,0,0,1,1.6,0,.8.8,0,0,1-1.6,0Zm.22,2.15H254v6.85h-1.15Z" transform="translate(-0.34 -1.65)"/><path class="cls-1" d="M255.54,34.38l.57-.77a3.09,3.09,0,0,0,2,.81c.9,0,1.35-.47,1.35-1.06s-.81-1-1.57-1.3c-1-.35-2-.82-2-2s.88-1.95,2.36-1.95a3.48,3.48,0,0,1,2.13.77l-.55.74a2.65,2.65,0,0,0-1.56-.6c-.87,0-1.26.46-1.26,1s.74.9,1.51,1.18c1,.38,2.09.78,2.09,2.08,0,1.11-.88,2-2.5,2A4.09,4.09,0,0,1,255.54,34.38Z" transform="translate(-0.34 -1.65)"/><path class="cls-1" d="M261.38,28.31h1.19l1,4c.15.65.28,1.26.41,1.91H264c.15-.65.3-1.27.47-1.91l1.06-4h1.13l1.07,4c.17.65.31,1.26.47,1.91h.06c.15-.65.27-1.26.42-1.91l1-4h1.1L269,35.16h-1.41l-1-3.68c-.17-.65-.3-1.28-.46-2h-.06c-.15.69-.29,1.34-.47,2l-1,3.66h-1.35Z" transform="translate(-0.34 -1.65)"/><path class="cls-1" d="M271.75,33.38c0-1.49,1.28-2.24,4.2-2.55,0-.88-.29-1.73-1.41-1.73a3.74,3.74,0,0,0-2,.73L272,29a5,5,0,0,1,2.69-.9c1.67,0,2.38,1.11,2.38,2.82v4.2h-1l-.1-.82h0a3.69,3.69,0,0,1-2.27,1A1.86,1.86,0,0,1,271.75,33.38Zm4.2.11v-1.9c-2.29.27-3.07.83-3.07,1.71s.53,1.09,1.2,1.09A2.82,2.82,0,0,0,276,33.49Z" transform="translate(-0.34 -1.65)"/><path class="cls-1" d="M279.27,28.31h1l.1.79h0a3.63,3.63,0,0,1,2.18-1c1.77,0,2.72,1.38,2.72,3.49,0,2.33-1.4,3.7-3,3.7a3.11,3.11,0,0,1-1.9-.8l0,1.2v2.32h-1.16Zm4.79,3.33c0-1.51-.52-2.52-1.8-2.52a2.82,2.82,0,0,0-1.83.93v3.59a2.66,2.66,0,0,0,1.66.71C283.23,34.35,284.06,33.33,284.06,31.64Z" transform="translate(-0.34 -1.65)"/><path class="cls-1" d="M291.81,28.31h1l.1.79h0a3.63,3.63,0,0,1,2.18-1c1.77,0,2.71,1.38,2.71,3.49,0,2.33-1.4,3.7-3,3.7a3.09,3.09,0,0,1-1.9-.8l0,1.2v2.32h-1.16Zm4.8,3.33c0-1.51-.52-2.52-1.81-2.52a2.84,2.84,0,0,0-1.83.93v3.59a2.69,2.69,0,0,0,1.67.71C295.77,34.35,296.61,33.33,296.61,31.64Z" transform="translate(-0.34 -1.65)"/><path class="cls-1" d="M299.12,31.74c0-2.28,1.49-3.6,3.17-3.6s3.17,1.32,3.17,3.6a3.19,3.19,0,1,1-6.34,0Zm5.15,0c0-1.56-.8-2.63-2-2.63s-2,1.07-2,2.63.8,2.62,2,2.62S304.27,33.31,304.27,31.74Z" transform="translate(-0.34 -1.65)"/><path class="cls-1" d="M306.75,31.74a3.2,3.2,0,1,1,6.35,0,3.2,3.2,0,1,1-6.35,0Zm5.15,0c0-1.56-.8-2.63-2-2.63s-2,1.07-2,2.63.8,2.62,2,2.62S311.9,33.31,311.9,31.74Z" transform="translate(-0.34 -1.65)"/><path class="cls-1" d="M314.84,33.78V25.12H316v8.75c0,.35.15.49.32.49a.91.91,0,0,0,.25,0l.16.89a1.81,1.81,0,0,1-.67.11C315.2,35.33,314.84,34.77,314.84,33.78Z" transform="translate(-0.34 -1.65)"/><path class="cls-1" d="M317.94,36.87a1.91,1.91,0,0,0,1.27-1.75l-.13-1,.57.85a.69.69,0,0,1-.58.24.78.78,0,0,1-.84-.81.81.81,0,0,1,.86-.81c.61,0,1,.52,1,1.37a2.79,2.79,0,0,1-1.85,2.63Z" transform="translate(-0.34 -1.65)"/><path class="cls-1" d="M326.3,33.38c0-1.49,1.28-2.24,4.2-2.55,0-.88-.29-1.73-1.41-1.73a3.74,3.74,0,0,0-2,.73l-.46-.79a5,5,0,0,1,2.69-.9c1.68,0,2.38,1.11,2.38,2.82v4.2h-1l-.09-.82h0a3.66,3.66,0,0,1-2.27,1A1.86,1.86,0,0,1,326.3,33.38Zm4.2.11v-1.9c-2.29.27-3.07.83-3.07,1.71s.53,1.09,1.2,1.09A2.82,2.82,0,0,0,330.5,33.49Z" transform="translate(-0.34 -1.65)"/><path class="cls-1" d="M333.82,33.78V25.12H335v8.75c0,.35.15.49.32.49a1,1,0,0,0,.26,0l.15.89a1.79,1.79,0,0,1-.66.11C334.18,35.33,333.82,34.77,333.82,33.78Z" transform="translate(-0.34 -1.65)"/><path class="cls-1" d="M337.41,33.78V25.12h1.16v8.75c0,.35.15.49.32.49a1,1,0,0,0,.26,0l.15.89a1.79,1.79,0,0,1-.66.11C337.77,35.33,337.41,34.77,337.41,33.78Z" transform="translate(-0.34 -1.65)"/><path class="cls-1" d="M340.49,31.74a3.2,3.2,0,1,1,6.35,0,3.2,3.2,0,1,1-6.35,0Zm5.15,0c0-1.56-.8-2.63-2-2.63s-2,1.07-2,2.63.8,2.62,2,2.62S345.64,33.31,345.64,31.74Z" transform="translate(-0.34 -1.65)"/><path class="cls-1" d="M347.76,28.31h1.18l1,4c.15.65.28,1.26.41,1.91h.05c.15-.65.3-1.27.47-1.91l1.06-4h1.13l1.06,4c.17.65.32,1.26.48,1.91h.06c.14-.65.27-1.26.42-1.91l1-4h1.1l-1.83,6.85H354l-1-3.68c-.17-.65-.3-1.28-.47-2h-.05c-.15.69-.29,1.34-.47,2l-1,3.66h-1.36Z" transform="translate(-0.34 -1.65)"/><path class="cls-1" d="M358.48,26.16a.8.8,0,0,1,1.6,0,.8.8,0,0,1-1.6,0Zm.21,2.15h1.16v6.85h-1.16Z" transform="translate(-0.34 -1.65)"/><path class="cls-1" d="M362.15,28.31h1l.1,1h0a3.26,3.26,0,0,1,2.29-1.16c1.44,0,2.09.93,2.09,2.68v4.34h-1.16V31c0-1.28-.38-1.82-1.29-1.82a2.61,2.61,0,0,0-1.87,1.05v5h-1.16Z" transform="translate(-0.34 -1.65)"/><path class="cls-1" d="M369.34,36.47a1.9,1.9,0,0,1,1-1.54v-.06a1.26,1.26,0,0,1-.61-1.12,1.65,1.65,0,0,1,.75-1.27v-.06a2.4,2.4,0,0,1-.89-1.84,2.43,2.43,0,0,1,2.57-2.44,2.91,2.91,0,0,1,1,.17h2.39v.89h-1.41a2,2,0,0,1,.56,1.41A2.35,2.35,0,0,1,372.16,33a2.46,2.46,0,0,1-1-.24,1,1,0,0,0-.43.81c0,.44.28.75,1.2.75h1.33c1.59,0,2.39.5,2.39,1.63s-1.35,2.37-3.46,2.37C370.49,38.31,369.34,37.65,369.34,36.47Zm5.16-.36c0-.63-.48-.85-1.38-.85h-1.19a3.62,3.62,0,0,1-.89-.1,1.45,1.45,0,0,0-.69,1.15c0,.74.74,1.2,2,1.2S374.5,36.83,374.5,36.11Zm-.88-5.53a1.46,1.46,0,1,0-2.91,0,1.46,1.46,0,1,0,2.91,0Z" transform="translate(-0.34 -1.65)"/><path class="cls-1" d="M381.32,33.38c0-1.49,1.28-2.24,4.2-2.55,0-.88-.29-1.73-1.41-1.73a3.74,3.74,0,0,0-2,.73l-.46-.79a5,5,0,0,1,2.69-.9c1.67,0,2.38,1.11,2.38,2.82v4.2h-1l-.1-.82h0a3.69,3.69,0,0,1-2.27,1A1.86,1.86,0,0,1,381.32,33.38Zm4.2.11v-1.9c-2.29.27-3.07.83-3.07,1.71s.53,1.09,1.2,1.09A2.82,2.82,0,0,0,385.52,33.49Z" transform="translate(-0.34 -1.65)"/><path class="cls-1" d="M388.84,33.78V25.12H390v8.75c0,.35.15.49.32.49a.91.91,0,0,0,.25,0l.16.89a1.81,1.81,0,0,1-.67.11C389.2,35.33,388.84,34.77,388.84,33.78Z" transform="translate(-0.34 -1.65)"/><path class="cls-1" d="M392.43,33.78V25.12h1.16v8.75c0,.35.15.49.32.49a.91.91,0,0,0,.25,0l.16.89a1.81,1.81,0,0,1-.67.11C392.79,35.33,392.43,34.77,392.43,33.78Z" transform="translate(-0.34 -1.65)"/><path class="cls-1" d="M400.92,25.91h5.32v1h-4.15v2.9h3.5v1h-3.5v3.36h4.29v1h-5.46Z" transform="translate(-0.34 -1.65)"/><path class="cls-1" d="M408.34,25.91h2.89c1.88,0,3.23.68,3.23,2.61s-1.35,2.73-3.23,2.73h-1.72v3.91h-1.17Zm2.72,4.39c1.44,0,2.23-.59,2.23-1.78s-.79-1.65-2.23-1.65h-1.55V30.3Zm-.06.63.92-.61,2.82,4.84h-1.33Z" transform="translate(-0.34 -1.65)"/><path class="cls-1" d="M415.81,30.54c0-3,1.76-4.79,4.1-4.79a3.43,3.43,0,0,1,2.55,1.14l-.65.76a2.5,2.5,0,0,0-1.88-.87c-1.74,0-2.9,1.43-2.9,3.73s1.11,3.78,2.86,3.78a2.78,2.78,0,0,0,2.14-1l.64.73a3.54,3.54,0,0,1-2.83,1.34C417.54,35.33,415.81,33.55,415.81,30.54Z" transform="translate(-0.34 -1.65)"/><path class="cls-1" d="M423.69,34.47c2.7-2.69,4.22-4.31,4.22-5.77a1.58,1.58,0,0,0-1.7-1.75A2.62,2.62,0,0,0,424.3,28l-.67-.66A3.53,3.53,0,0,1,426.35,26a2.49,2.49,0,0,1,2.7,2.64c0,1.69-1.55,3.36-3.67,5.59.49,0,1.05-.08,1.51-.08h2.6v1h-5.8Z" transform="translate(-0.34 -1.65)"/><path class="cls-1" d="M430.75,30.63c0-3,1.08-4.62,2.87-4.62s2.88,1.62,2.88,4.62-1.08,4.7-2.88,4.7S430.75,33.65,430.75,30.63Zm4.63,0c0-2.63-.71-3.69-1.76-3.69s-1.75,1.06-1.75,3.69.71,3.76,1.75,3.76S435.38,33.27,435.38,30.63Z" transform="translate(-0.34 -1.65)"/><path class="cls-1" d="M1.36,56.51V52.73h-1v-.88l1.07-.07.14-1.92h1v1.92H4.37v.95H2.52v3.8c0,.84.27,1.32,1.06,1.32a2.39,2.39,0,0,0,.78-.18l.22.87a4.1,4.1,0,0,1-1.27.26C1.85,58.8,1.36,57.87,1.36,56.51Z" transform="translate(-0.34 -1.65)"/><path class="cls-1" d="M5.21,55.21c0-2.28,1.49-3.6,3.17-3.6s3.17,1.32,3.17,3.6A3.27,3.27,0,0,1,8.38,58.8,3.27,3.27,0,0,1,5.21,55.21Zm5.15,0c0-1.56-.8-2.63-2-2.63s-2,1.07-2,2.63.79,2.62,2,2.62S10.36,56.78,10.36,55.21Z" transform="translate(-0.34 -1.65)"/><path class="cls-1" d="M13.29,48.59h1.14v6.8h0l2.92-3.61h1.29l-2.3,2.75,2.6,4.1H17.71l-2-3.29-1.29,1.49v1.8H13.29Z" transform="translate(-0.34 -1.65)"/><path class="cls-1" d="M19.5,55.21a3.3,3.3,0,0,1,3.08-3.6c1.75,0,2.73,1.26,2.73,3.22a4,4,0,0,1,0,.65H20.65a2.27,2.27,0,0,0,2.27,2.39,3,3,0,0,0,1.71-.54l.41.76a4,4,0,0,1-2.26.71A3.28,3.28,0,0,1,19.5,55.21Zm4.79-.56c0-1.37-.62-2.11-1.69-2.11a2.09,2.09,0,0,0-2,2.11Z" transform="translate(-0.34 -1.65)"/><path class="cls-1" d="M27,51.78H28l.1,1h0a3.28,3.28,0,0,1,2.3-1.16c1.44,0,2.09.93,2.09,2.68v4.34H31.32V54.44c0-1.27-.39-1.82-1.29-1.82a2.63,2.63,0,0,0-1.88,1.05v5H27Z" transform="translate(-0.34 -1.65)"/><path class="cls-1" d="M33.94,57.85l.57-.77a3.1,3.1,0,0,0,2,.82c.9,0,1.35-.48,1.35-1.07s-.81-1-1.57-1.3c-1-.35-2-.82-2-2s.88-2,2.36-2a3.48,3.48,0,0,1,2.13.77l-.55.74a2.65,2.65,0,0,0-1.56-.6c-.87,0-1.27.46-1.27,1s.75.9,1.52,1.19c1,.37,2.09.77,2.09,2.07,0,1.11-.88,2-2.5,2A4.09,4.09,0,0,1,33.94,57.85Z" transform="translate(-0.34 -1.65)"/><path class="cls-1" d="M43.2,49.63a.8.8,0,0,1,1.6,0,.8.8,0,0,1-1.6,0Zm.22,2.15h1.15v6.85H43.42Z" transform="translate(-0.34 -1.65)"/><path class="cls-1" d="M46.88,51.78h1l.09,1h0a3.28,3.28,0,0,1,2.3-1.16c1.44,0,2.09.93,2.09,2.68v4.34H51.2V54.44c0-1.27-.38-1.82-1.29-1.82A2.59,2.59,0,0,0,48,53.67v5H46.88Z" transform="translate(-0.34 -1.65)"/><path class="cls-1" d="M54.07,55.21a3.33,3.33,0,0,1,3.3-3.6,2.84,2.84,0,0,1,2,.81l-.59.76a2,2,0,0,0-1.36-.6c-1.24,0-2.15,1.07-2.15,2.63s.86,2.62,2.12,2.62A2.48,2.48,0,0,0,59,57.15l.5.78a3.32,3.32,0,0,1-2.21.87C55.46,58.8,54.07,57.48,54.07,55.21Z" transform="translate(-0.34 -1.65)"/><path class="cls-1" d="M61,57.25V48.59h1.16v8.75c0,.35.16.49.33.49a.94.94,0,0,0,.25,0l.16.89a1.9,1.9,0,0,1-.67.11C61.36,58.8,61,58.24,61,57.25Z" transform="translate(-0.34 -1.65)"/><path class="cls-1" d="M64.5,56.12V51.78h1.16V56c0,1.28.39,1.82,1.29,1.82.7,0,1.19-.35,1.84-1.15V51.78h1.15v6.85H69l-.1-1.07h0a2.92,2.92,0,0,1-2.26,1.24C65.15,58.8,64.5,57.87,64.5,56.12Z" transform="translate(-0.34 -1.65)"/><path class="cls-1" d="M71.77,55.21c0-2.22,1.4-3.6,3-3.6a2.78,2.78,0,0,1,1.92.8l-.05-1.18V48.59h1.16v10h-1l-.1-.81h0a3,3,0,0,1-2.07,1C72.88,58.8,71.77,57.5,71.77,55.21Zm4.83,1.68V53.3a2.42,2.42,0,0,0-1.67-.71c-1.1,0-2,1-2,2.61s.68,2.62,1.88,2.62A2.38,2.38,0,0,0,76.6,56.89Z" transform="translate(-0.34 -1.65)"/><path class="cls-1" d="M79.86,49.63a.8.8,0,0,1,1.6,0,.8.8,0,0,1-1.6,0Zm.21,2.15h1.16v6.85H80.07Z" transform="translate(-0.34 -1.65)"/><path class="cls-1" d="M83.53,51.78h1l.1,1h0a3.26,3.26,0,0,1,2.29-1.16c1.45,0,2.09.93,2.09,2.68v4.34H87.86V54.44c0-1.27-.39-1.82-1.3-1.82a2.61,2.61,0,0,0-1.87,1.05v5H83.53Z" transform="translate(-0.34 -1.65)"/><path class="cls-1" d="M90.72,59.94a1.9,1.9,0,0,1,1-1.54v-.06a1.26,1.26,0,0,1-.61-1.12A1.65,1.65,0,0,1,91.86,56v-.06A2.39,2.39,0,0,1,91,54.05a2.43,2.43,0,0,1,2.56-2.44,2.91,2.91,0,0,1,1,.17H96.9v.89H95.49a2,2,0,0,1,.56,1.41,2.35,2.35,0,0,1-2.51,2.38,2.24,2.24,0,0,1-1-.24,1,1,0,0,0-.44.81c0,.44.28.75,1.2.75h1.33c1.59,0,2.39.5,2.39,1.63s-1.34,2.37-3.46,2.37C91.87,61.78,90.72,61.12,90.72,59.94Zm5.16-.36c0-.63-.48-.85-1.38-.85H93.32a3.57,3.57,0,0,1-.89-.1,1.44,1.44,0,0,0-.7,1.15c0,.74.74,1.2,2,1.2S95.88,60.3,95.88,59.58ZM95,54.05a1.46,1.46,0,1,0-2.91,0,1.46,1.46,0,1,0,2.91,0Z" transform="translate(-0.34 -1.65)"/><path class="cls-1" d="M101.26,49.38h2.89c1.89,0,3.24.68,3.24,2.61s-1.35,2.73-3.24,2.73h-1.71v3.91h-1.18ZM104,53.77c1.43,0,2.23-.59,2.23-1.78s-.8-1.65-2.23-1.65h-1.55v3.43Zm-.07.63.92-.61,2.82,4.84h-1.33Z" transform="translate(-0.34 -1.65)"/><path class="cls-1" d="M108.51,55.21a3.31,3.31,0,0,1,3.08-3.6c1.75,0,2.73,1.26,2.73,3.22a4,4,0,0,1,0,.65h-4.61a2.27,2.27,0,0,0,2.27,2.39,3,3,0,0,0,1.71-.54l.41.76a4,4,0,0,1-2.26.71A3.28,3.28,0,0,1,108.51,55.21Zm4.79-.56c0-1.37-.62-2.11-1.69-2.11a2.09,2.09,0,0,0-2,2.11Z" transform="translate(-0.34 -1.65)"/><path class="cls-1" d="M117.08,57.92h0l-.11.71H116v-10h1.16v2.75l0,1.23a3.46,3.46,0,0,1,2.15-1c1.77,0,2.72,1.38,2.72,3.49,0,2.34-1.4,3.7-3,3.7A3.07,3.07,0,0,1,117.08,57.92Zm3.72-2.81c0-1.51-.51-2.52-1.8-2.52a2.78,2.78,0,0,0-1.83.93v3.59a2.62,2.62,0,0,0,1.66.71C120,57.82,120.8,56.8,120.8,55.11Z" transform="translate(-0.34 -1.65)"/><path class="cls-1" d="M123.17,56.85c0-1.49,1.29-2.24,4.21-2.55,0-.88-.3-1.73-1.42-1.73a3.77,3.77,0,0,0-2,.73l-.45-.79a5,5,0,0,1,2.69-.9c1.67,0,2.38,1.11,2.38,2.82v4.2h-1l-.1-.82h0a3.64,3.64,0,0,1-2.26,1A1.86,1.86,0,0,1,123.17,56.85Zm4.21.11v-1.9c-2.3.27-3.07.83-3.07,1.71s.53,1.09,1.2,1.09A2.84,2.84,0,0,0,127.38,57Z" transform="translate(-0.34 -1.65)"/><path class="cls-1" d="M129.94,57.85l.57-.77a3.08,3.08,0,0,0,2,.82c.9,0,1.34-.48,1.34-1.07s-.8-1-1.56-1.3c-1-.35-2-.82-2-2s.87-2,2.36-2a3.48,3.48,0,0,1,2.13.77l-.56.74a2.6,2.6,0,0,0-1.56-.6c-.86,0-1.26.46-1.26,1s.74.9,1.52,1.19c1,.37,2.09.77,2.09,2.07,0,1.11-.88,2-2.5,2A4.09,4.09,0,0,1,129.94,57.85Z" transform="translate(-0.34 -1.65)"/><path class="cls-1" d="M136.38,49.63a.8.8,0,0,1,1.6,0,.8.8,0,0,1-1.6,0Zm.22,2.15h1.15v6.85H136.6Z" transform="translate(-0.34 -1.65)"/><path class="cls-1" d="M140.06,51.78h1l.09,1h0a3.28,3.28,0,0,1,2.3-1.16c1.44,0,2.09.93,2.09,2.68v4.34h-1.16V54.44c0-1.27-.38-1.82-1.29-1.82a2.59,2.59,0,0,0-1.87,1.05v5h-1.16Z" transform="translate(-0.34 -1.65)"/><path class="cls-1" d="M147.24,59.94a1.91,1.91,0,0,1,1-1.54v-.06a1.27,1.27,0,0,1-.62-1.12,1.63,1.63,0,0,1,.76-1.27v-.06a2.37,2.37,0,0,1-.89-1.84,2.43,2.43,0,0,1,2.57-2.44,2.91,2.91,0,0,1,1,.17h2.38v.89H152a2,2,0,0,1,.56,1.41,2.35,2.35,0,0,1-2.51,2.38,2.31,2.31,0,0,1-1-.24,1,1,0,0,0-.44.81c0,.44.29.75,1.2.75h1.34c1.59,0,2.39.5,2.39,1.63s-1.35,2.37-3.46,2.37C148.4,61.78,147.24,61.12,147.24,59.94Zm5.16-.36c0-.63-.48-.85-1.38-.85h-1.18a3.62,3.62,0,0,1-.89-.1,1.44,1.44,0,0,0-.7,1.15c0,.74.75,1.2,2,1.2S152.4,60.3,152.4,59.58Zm-.87-5.53a1.46,1.46,0,1,0-2.91,0,1.46,1.46,0,1,0,2.91,0Z" transform="translate(-0.34 -1.65)"/><path class="cls-1" d="M157.25,56.85c0-1.49,1.29-2.24,4.21-2.55,0-.88-.3-1.73-1.42-1.73a3.77,3.77,0,0,0-2,.73l-.45-.79a5,5,0,0,1,2.69-.9c1.67,0,2.38,1.11,2.38,2.82v4.2h-1l-.1-.82h0a3.64,3.64,0,0,1-2.26,1A1.86,1.86,0,0,1,157.25,56.85Zm4.21.11v-1.9c-2.3.27-3.07.83-3.07,1.71s.53,1.09,1.2,1.09A2.84,2.84,0,0,0,161.46,57Z" transform="translate(-0.34 -1.65)"/><path class="cls-1" d="M164.77,51.78h1l.1,1h0a3.26,3.26,0,0,1,2.29-1.16c1.45,0,2.09.93,2.09,2.68v4.34H169.1V54.44c0-1.27-.39-1.82-1.3-1.82a2.61,2.61,0,0,0-1.87,1.05v5h-1.16Z" transform="translate(-0.34 -1.65)"/><path class="cls-1" d="M172,55.21c0-2.22,1.4-3.6,3-3.6a2.78,2.78,0,0,1,1.92.8l-.05-1.18V48.59H178v10h-1l-.1-.81h0a3.08,3.08,0,0,1-2.08,1C173.1,58.8,172,57.5,172,55.21Zm4.83,1.68V53.3a2.4,2.4,0,0,0-1.67-.71c-1.09,0-2,1-2,2.61s.68,2.62,1.88,2.62A2.37,2.37,0,0,0,176.82,56.89Z" transform="translate(-0.34 -1.65)"/><path class="cls-1" d="M183.22,49.38h2.31c2.84,0,4.37,1.66,4.37,4.59s-1.53,4.66-4.32,4.66h-2.36Zm2.22,8.28c2.16,0,3.24-1.35,3.24-3.69s-1.08-3.62-3.24-3.62h-1.05v7.31Z" transform="translate(-0.34 -1.65)"/><path class="cls-1" d="M191.26,55.21a3.3,3.3,0,0,1,3.08-3.6c1.74,0,2.73,1.26,2.73,3.22a4,4,0,0,1,0,.65h-4.61a2.27,2.27,0,0,0,2.27,2.39,3,3,0,0,0,1.7-.54l.42.76a4,4,0,0,1-2.26.71A3.28,3.28,0,0,1,191.26,55.21Zm4.79-.56c0-1.37-.62-2.11-1.69-2.11a2.09,2.09,0,0,0-2,2.11Z" transform="translate(-0.34 -1.65)"/><path class="cls-1" d="M198,51.85l1-.07h2.56v.95H198Zm.93-1.15c0-1.39.63-2.27,2-2.27a3,3,0,0,1,1.14.23l-.25.89a1.87,1.87,0,0,0-.77-.18c-.65,0-1,.45-1,1.34v7.92h-1.16Z" transform="translate(-0.34 -1.65)"/><path class="cls-1" d="M202.84,57.25V48.59H204v8.75c0,.35.15.49.32.49a.91.91,0,0,0,.25,0l.16.89a1.81,1.81,0,0,1-.67.11C203.2,58.8,202.84,58.24,202.84,57.25Z" transform="translate(-0.34 -1.65)"/><path class="cls-1" d="M206,56.85c0-1.49,1.29-2.24,4.21-2.55,0-.88-.3-1.73-1.41-1.73a3.78,3.78,0,0,0-2.05.73l-.45-.79a5,5,0,0,1,2.69-.9c1.67,0,2.38,1.11,2.38,2.82v4.2h-1l-.1-.82h0a3.64,3.64,0,0,1-2.26,1A1.86,1.86,0,0,1,206,56.85Zm4.21.11v-1.9c-2.29.27-3.07.83-3.07,1.71s.53,1.09,1.2,1.09A2.82,2.82,0,0,0,210.21,57Z" transform="translate(-0.34 -1.65)"/><path class="cls-1" d="M213.53,56.51V52.73h-1v-.88l1.07-.07.14-1.92h1v1.92h1.86v.95h-1.86v3.8c0,.84.27,1.32,1.06,1.32a2.33,2.33,0,0,0,.78-.18l.22.87a4.1,4.1,0,0,1-1.27.26C214,58.8,213.53,57.87,213.53,56.51Z" transform="translate(-0.34 -1.65)"/><path class="cls-1" d="M217.88,49.63a.8.8,0,0,1,1.6,0,.8.8,0,0,1-1.6,0Zm.21,2.15h1.16v6.85h-1.16Z" transform="translate(-0.34 -1.65)"/><path class="cls-1" d="M221,55.21a3.28,3.28,0,0,1,3.18-3.6c1.68,0,3.17,1.32,3.17,3.6a3.2,3.2,0,1,1-6.35,0Zm5.15,0c0-1.56-.8-2.63-2-2.63s-2,1.07-2,2.63.8,2.62,2,2.62S226.19,56.78,226.19,55.21Z" transform="translate(-0.34 -1.65)"/><path class="cls-1" d="M229.19,51.78h.95l.1,1h0a3.28,3.28,0,0,1,2.3-1.16c1.44,0,2.09.93,2.09,2.68v4.34h-1.16V54.44c0-1.27-.39-1.82-1.29-1.82a2.63,2.63,0,0,0-1.88,1.05v5h-1.15Z" transform="translate(-0.34 -1.65)"/><path class="cls-1" d="M236.47,56.85c0-1.49,1.28-2.24,4.2-2.55,0-.88-.29-1.73-1.41-1.73a3.78,3.78,0,0,0-2,.73l-.45-.79a5,5,0,0,1,2.69-.9c1.67,0,2.38,1.11,2.38,2.82v4.2h-1l-.1-.82h0a3.69,3.69,0,0,1-2.27,1A1.86,1.86,0,0,1,236.47,56.85Zm4.2.11v-1.9c-2.29.27-3.07.83-3.07,1.71s.53,1.09,1.2,1.09A2.82,2.82,0,0,0,240.67,57Z" transform="translate(-0.34 -1.65)"/><path class="cls-1" d="M244,51.78h.95L245,53h0A2.37,2.37,0,0,1,247,51.61a1.64,1.64,0,0,1,.73.14l-.22,1a2,2,0,0,0-.66-.11c-.58,0-1.27.41-1.73,1.57v4.4H244Z" transform="translate(-0.34 -1.65)"/><path class="cls-1" d="M248.54,61.44l.23-.92a1.92,1.92,0,0,0,.52.1c.77,0,1.26-.62,1.54-1.47l.16-.51-2.75-6.86h1.19l1.4,3.79.67,1.93h.05c.2-.62.39-1.32.58-1.93l1.22-3.79h1.13l-2.58,7.41c-.48,1.36-1.19,2.39-2.56,2.39A2.29,2.29,0,0,1,248.54,61.44Z" transform="translate(-0.34 -1.65)"/><path class="cls-1" d="M258.62,51.78h1l.09,1h0a3.08,3.08,0,0,1,2.13-1.16,1.8,1.8,0,0,1,1.89,1.31A3.25,3.25,0,0,1,266,51.61c1.41,0,2.08.93,2.08,2.68v4.34h-1.16V54.44c0-1.27-.4-1.82-1.27-1.82a2.54,2.54,0,0,0-1.72,1.05v5h-1.15V54.44c0-1.27-.41-1.82-1.28-1.82a2.54,2.54,0,0,0-1.71,1.05v5h-1.16Z" transform="translate(-0.34 -1.65)"/><path class="cls-1" d="M269.78,55.21a3.31,3.31,0,0,1,3.08-3.6c1.75,0,2.73,1.26,2.73,3.22a4,4,0,0,1,0,.65h-4.61a2.27,2.27,0,0,0,2.27,2.39,3,3,0,0,0,1.71-.54l.41.76a4,4,0,0,1-2.26.71A3.28,3.28,0,0,1,269.78,55.21Zm4.79-.56c0-1.37-.62-2.11-1.69-2.11a2.09,2.09,0,0,0-2,2.11Z" transform="translate(-0.34 -1.65)"/><path class="cls-1" d="M276.77,55.21a3.32,3.32,0,0,1,3.29-3.6,2.84,2.84,0,0,1,2,.81l-.59.76a2,2,0,0,0-1.36-.6c-1.24,0-2.15,1.07-2.15,2.63s.86,2.62,2.12,2.62a2.46,2.46,0,0,0,1.61-.68l.5.78a3.3,3.3,0,0,1-2.21.87C278.16,58.8,276.77,57.48,276.77,55.21Z" transform="translate(-0.34 -1.65)"/><path class="cls-1" d="M283.7,48.59h1.16v2.75l-.05,1.41a3.27,3.27,0,0,1,2.28-1.14c1.44,0,2.09.93,2.09,2.68v4.34H288V54.44c0-1.27-.39-1.82-1.29-1.82a2.59,2.59,0,0,0-1.87,1.05v5H283.7Z" transform="translate(-0.34 -1.65)"/><path class="cls-1" d="M290.93,56.85c0-1.49,1.29-2.24,4.21-2.55,0-.88-.3-1.73-1.42-1.73a3.77,3.77,0,0,0-2,.73l-.45-.79a5,5,0,0,1,2.69-.9c1.67,0,2.38,1.11,2.38,2.82v4.2h-1l-.1-.82h0a3.64,3.64,0,0,1-2.26,1A1.86,1.86,0,0,1,290.93,56.85Zm4.21.11v-1.9c-2.3.27-3.07.83-3.07,1.71s.53,1.09,1.2,1.09A2.84,2.84,0,0,0,295.14,57Z" transform="translate(-0.34 -1.65)"/><path class="cls-1" d="M298.46,51.78h1l.1,1h0a3.28,3.28,0,0,1,2.29-1.16c1.45,0,2.09.93,2.09,2.68v4.34h-1.15V54.44c0-1.27-.39-1.82-1.3-1.82a2.63,2.63,0,0,0-1.87,1.05v5h-1.15Z" transform="translate(-0.34 -1.65)"/><path class="cls-1" d="M306,49.63a.8.8,0,0,1,1.6,0,.8.8,0,0,1-1.6,0Zm.21,2.15h1.16v6.85h-1.16Z" transform="translate(-0.34 -1.65)"/><path class="cls-1" d="M308.86,57.85l.57-.77a3.11,3.11,0,0,0,2,.82c.89,0,1.34-.48,1.34-1.07s-.81-1-1.56-1.3c-1-.35-2.05-.82-2.05-2s.88-2,2.36-2a3.46,3.46,0,0,1,2.13.77l-.55.74a2.63,2.63,0,0,0-1.56-.6c-.86,0-1.26.46-1.26,1s.74.9,1.52,1.19c1,.37,2.09.77,2.09,2.07,0,1.11-.89,2-2.5,2A4.11,4.11,0,0,1,308.86,57.85Z" transform="translate(-0.34 -1.65)"/><path class="cls-1" d="M315.52,51.78h1l.1,1h0a3,3,0,0,1,2.13-1.16,1.81,1.81,0,0,1,1.89,1.31,3.23,3.23,0,0,1,2.25-1.31c1.41,0,2.09.93,2.09,2.68v4.34h-1.16V54.44c0-1.27-.4-1.82-1.28-1.82a2.5,2.5,0,0,0-1.71,1.05v5h-1.16V54.44c0-1.27-.4-1.82-1.27-1.82a2.54,2.54,0,0,0-1.72,1.05v5h-1.16Z" transform="translate(-0.34 -1.65)"/><path class="cls-1" d="M326.44,57.85l.57-.77a3.08,3.08,0,0,0,2,.82c.9,0,1.35-.48,1.35-1.07s-.81-1-1.57-1.3c-1-.35-2-.82-2-2s.87-2,2.36-2a3.48,3.48,0,0,1,2.13.77l-.56.74a2.6,2.6,0,0,0-1.56-.6c-.86,0-1.26.46-1.26,1s.75.9,1.52,1.19c1,.37,2.09.77,2.09,2.07,0,1.11-.88,2-2.5,2A4.09,4.09,0,0,1,326.44,57.85Z" transform="translate(-0.34 -1.65)"/><path class="cls-1" d="M336.12,56.51V52.73h-1v-.88l1.07-.07.14-1.92h1v1.92h1.86v.95h-1.86v3.8c0,.84.27,1.32,1.06,1.32a2.28,2.28,0,0,0,.78-.18l.23.87a4.22,4.22,0,0,1-1.27.26C336.61,58.8,336.12,57.87,336.12,56.51Z" transform="translate(-0.34 -1.65)"/><path class="cls-1" d="M340,55.21c0-2.28,1.49-3.6,3.17-3.6s3.17,1.32,3.17,3.6a3.19,3.19,0,1,1-6.34,0Zm5.14,0c0-1.56-.79-2.63-2-2.63s-2,1.07-2,2.63.8,2.62,2,2.62S345.11,56.78,345.11,55.21Z" transform="translate(-0.34 -1.65)"/><path class="cls-1" d="M351.94,57.92h0l-.11.71h-.92v-10H352v2.75l0,1.23a3.48,3.48,0,0,1,2.15-1c1.77,0,2.72,1.38,2.72,3.49,0,2.34-1.4,3.7-3,3.7A3.07,3.07,0,0,1,351.94,57.92Zm3.72-2.81c0-1.51-.51-2.52-1.8-2.52a2.8,2.8,0,0,0-1.83.93v3.59a2.62,2.62,0,0,0,1.66.71C354.83,57.82,355.66,56.8,355.66,55.11Z" transform="translate(-0.34 -1.65)"/><path class="cls-1" d="M358.15,55.21a3.3,3.3,0,0,1,3.07-3.6c1.75,0,2.74,1.26,2.74,3.22a3.06,3.06,0,0,1-.06.65h-4.61a2.28,2.28,0,0,0,2.28,2.39,3,3,0,0,0,1.7-.54l.42.76a4.08,4.08,0,0,1-2.27.71A3.28,3.28,0,0,1,358.15,55.21Zm4.78-.56c0-1.37-.61-2.11-1.68-2.11a2.1,2.1,0,0,0-2,2.11Z" transform="translate(-0.34 -1.65)"/><path class="cls-1" d="M367.7,57.85l.57-.77a3.08,3.08,0,0,0,2,.82c.9,0,1.35-.48,1.35-1.07s-.81-1-1.57-1.3c-1-.35-2-.82-2-2s.88-2,2.36-2a3.48,3.48,0,0,1,2.13.77l-.56.74a2.6,2.6,0,0,0-1.56-.6c-.86,0-1.26.46-1.26,1s.75.9,1.52,1.19c1,.37,2.09.77,2.09,2.07,0,1.11-.88,2-2.5,2A4.09,4.09,0,0,1,367.7,57.85Z" transform="translate(-0.34 -1.65)"/><path class="cls-1" d="M374.27,56.12V51.78h1.15V56c0,1.28.39,1.82,1.3,1.82.7,0,1.18-.35,1.83-1.15V51.78h1.16v6.85h-1l-.1-1.07h0a2.91,2.91,0,0,1-2.25,1.24C374.91,58.8,374.27,57.87,374.27,56.12Z" transform="translate(-0.34 -1.65)"/><path class="cls-1" d="M382,51.78h1l.1.79h0a3.63,3.63,0,0,1,2.18-1c1.77,0,2.72,1.38,2.72,3.49,0,2.34-1.4,3.7-3,3.7a3.11,3.11,0,0,1-1.9-.8l0,1.2v2.32H382Zm4.79,3.33c0-1.51-.52-2.52-1.8-2.52a2.82,2.82,0,0,0-1.83.93v3.59a2.66,2.66,0,0,0,1.66.71C386,57.82,386.81,56.8,386.81,55.11Z" transform="translate(-0.34 -1.65)"/><path class="cls-1" d="M389.83,51.78h1l.1.79h0a3.61,3.61,0,0,1,2.18-1c1.77,0,2.71,1.38,2.71,3.49,0,2.34-1.4,3.7-3,3.7A3.09,3.09,0,0,1,391,58l0,1.2v2.32h-1.16Zm4.8,3.33c0-1.51-.52-2.52-1.81-2.52a2.84,2.84,0,0,0-1.83.93v3.59a2.69,2.69,0,0,0,1.67.71C393.79,57.82,394.63,56.8,394.63,55.11Z" transform="translate(-0.34 -1.65)"/><path class="cls-1" d="M397.14,55.21c0-2.28,1.49-3.6,3.17-3.6s3.17,1.32,3.17,3.6a3.19,3.19,0,1,1-6.34,0Zm5.15,0c0-1.56-.8-2.63-2-2.63s-2,1.07-2,2.63.79,2.62,2,2.62S402.29,56.78,402.29,55.21Z" transform="translate(-0.34 -1.65)"/><path class="cls-1" d="M405.28,51.78h1l.1,1.25h0a2.37,2.37,0,0,1,1.95-1.42,1.61,1.61,0,0,1,.73.14l-.22,1a1.94,1.94,0,0,0-.66-.11c-.58,0-1.27.41-1.73,1.57v4.4h-1.16Z" transform="translate(-0.34 -1.65)"/><path class="cls-1" d="M410.37,56.51V52.73h-1v-.88l1.07-.07.14-1.92h1v1.92h1.85v.95h-1.85v3.8c0,.84.27,1.32,1.06,1.32a2.33,2.33,0,0,0,.78-.18l.22.87a4.1,4.1,0,0,1-1.27.26C410.86,58.8,410.37,57.87,410.37,56.51Z" transform="translate(-0.34 -1.65)"/><path class="cls-1" d="M414.22,55.21a3.3,3.3,0,0,1,3.08-3.6c1.74,0,2.73,1.26,2.73,3.22a4,4,0,0,1,0,.65h-4.61a2.27,2.27,0,0,0,2.27,2.39,3,3,0,0,0,1.7-.54l.42.76a4,4,0,0,1-2.26.71A3.28,3.28,0,0,1,414.22,55.21Zm4.79-.56c0-1.37-.62-2.11-1.69-2.11a2.09,2.09,0,0,0-2,2.11Z" transform="translate(-0.34 -1.65)"/><path class="cls-1" d="M421.23,55.21c0-2.22,1.4-3.6,3-3.6a2.78,2.78,0,0,1,1.92.8l-.05-1.18V48.59h1.16v10h-1l-.1-.81h0a3,3,0,0,1-2.07,1C422.34,58.8,421.23,57.5,421.23,55.21Zm4.83,1.68V53.3a2.42,2.42,0,0,0-1.67-.71c-1.1,0-2,1-2,2.61s.68,2.62,1.88,2.62A2.38,2.38,0,0,0,426.06,56.89Z" transform="translate(-0.34 -1.65)"/><path class="cls-1" d="M429.29,57.92a.84.84,0,1,1,.84.88A.85.85,0,0,1,429.29,57.92Z" transform="translate(-0.34 -1.65)"/></g></g></svg>