<svg xmlns="http://www.w3.org/2000/svg" viewBox="0 0 61.62 12.03"><defs><style>.cls-1{fill:gray;}</style></defs><g id="Layer_2" data-name="Layer 2"><g id="Layer_1-2" data-name="Layer 1"><path class="cls-1" d="M4.08,4.4H.5V3.12H9.15V4.4H5.58V14.94H4.08Z" transform="translate(-0.5 -3.12)"/><path class="cls-1" d="M9.29,10.58C9.29,7.73,11.21,6,13.22,6c2.23,0,3.49,1.61,3.49,4.11a4.12,4.12,0,0,1-.07.84H10.75A2.92,2.92,0,0,0,13.66,14a3.82,3.82,0,0,0,2.18-.7l.53,1a5.17,5.17,0,0,1-2.89.91C11.14,15.16,9.29,13.45,9.29,10.58Zm6.12-.72c0-1.75-.79-2.71-2.16-2.71a2.69,2.69,0,0,0-2.51,2.71Z" transform="translate(-0.5 -3.12)"/><path class="cls-1" d="M17.89,13.94l.73-1a4,4,0,0,0,2.59,1c1.15,0,1.72-.61,1.72-1.36,0-.9-1-1.3-2-1.66-1.23-.44-2.61-1.05-2.61-2.52S19.44,6,21.34,6a4.42,4.42,0,0,1,2.72,1l-.71.94a3.31,3.31,0,0,0-2-.77c-1.1,0-1.61.58-1.61,1.25,0,.83,1,1.15,1.94,1.52,1.27.48,2.67,1,2.67,2.65,0,1.42-1.13,2.61-3.19,2.61A5.28,5.28,0,0,1,17.89,13.94Z" transform="translate(-0.5 -3.12)"/><path class="cls-1" d="M26.31,12.23V7.39H25V6.27l1.36-.08.18-2.46h1.24V6.19h2.37v1.2H27.79v4.87c0,1.07.34,1.69,1.35,1.69a2.93,2.93,0,0,0,1-.24l.28,1.12a5.14,5.14,0,0,1-1.62.33C26.94,15.16,26.31,14,26.31,12.23Z" transform="translate(-0.5 -3.12)"/><path class="cls-1" d="M32.13,6.19h1.22l.13,1.26h.05A4.16,4.16,0,0,1,36.46,6c1.85,0,2.68,1.19,2.68,3.42v5.55H37.66V9.59c0-1.63-.5-2.33-1.66-2.33A3.31,3.31,0,0,0,33.61,8.6v6.34H32.13Z" transform="translate(-0.5 -3.12)"/><path class="cls-1" d="M41.33,10.58C41.33,7.73,43.25,6,45.26,6c2.23,0,3.49,1.61,3.49,4.11a5.08,5.08,0,0,1-.06.84h-5.9A2.92,2.92,0,0,0,45.7,14a3.82,3.82,0,0,0,2.18-.7l.53,1a5.17,5.17,0,0,1-2.89.91C43.18,15.16,41.33,13.45,41.33,10.58Zm6.12-.72c0-1.75-.79-2.71-2.16-2.71a2.69,2.69,0,0,0-2.51,2.71Z" transform="translate(-0.5 -3.12)"/><path class="cls-1" d="M51,12.23V7.39h-1.3V6.27l1.37-.08.18-2.46h1.24V6.19h2.37v1.2H52.47v4.87c0,1.07.34,1.69,1.35,1.69a2.93,2.93,0,0,0,1-.24l.28,1.12a5.14,5.14,0,0,1-1.62.33C51.62,15.16,51,14,51,12.23Z" transform="translate(-0.5 -3.12)"/><path class="cls-1" d="M55.66,13.94l.73-1A3.94,3.94,0,0,0,59,14c1.15,0,1.72-.61,1.72-1.36,0-.9-1-1.3-2-1.66-1.23-.44-2.61-1.05-2.61-2.52S57.2,6,59.1,6a4.42,4.42,0,0,1,2.72,1l-.71.94a3.31,3.31,0,0,0-2-.77c-1.11,0-1.61.58-1.61,1.25,0,.83,1,1.15,1.94,1.52,1.26.48,2.67,1,2.67,2.65,0,1.42-1.13,2.61-3.2,2.61A5.23,5.23,0,0,1,55.66,13.94Z" transform="translate(-0.5 -3.12)"/></g></g></svg>