<svg xmlns="http://www.w3.org/2000/svg" viewBox="0 0 116.07 15.3"><defs><style>.cls-1{fill:#fff;}</style></defs><g id="Layer_2" data-name="Layer 2"><g id="Layer_1-2" data-name="Layer 1"><path class="cls-1" d="M4.78,5.16H.59V3.67H10.74V5.16H6.54V17.53H4.78Z" transform="translate(-0.59 -2.49)"/><path class="cls-1" d="M10.9,12.41C10.9,9,13.14,7,15.65,7s4.76,2,4.76,5.4-2.24,5.38-4.76,5.38S10.9,15.81,10.9,12.41Zm7.72,0c0-2.35-1.2-3.95-3-3.95s-3,1.6-3,3.95,1.2,3.93,3,3.93S18.62,14.77,18.62,12.41Z" transform="translate(-0.59 -2.49)"/><path class="cls-1" d="M23,2.49h1.71V12.68h.06l4.38-5.41H31.1l-3.44,4.12,3.89,6.14h-1.9l-3-4.93-1.93,2.24v2.69H23Z" transform="translate(-0.59 -2.49)"/><path class="cls-1" d="M32.34,12.41C32.34,9.07,34.59,7,37,7c2.62,0,4.1,1.88,4.1,4.82a5.58,5.58,0,0,1-.08,1H34.05c.13,2.17,1.46,3.58,3.42,3.58A4.5,4.5,0,0,0,40,15.58l.62,1.14a6,6,0,0,1-3.39,1.07C34.52,17.79,32.34,15.79,32.34,12.41Zm7.17-.84c0-2.05-.92-3.17-2.53-3.17-1.44,0-2.73,1.16-2.94,3.17Z" transform="translate(-0.59 -2.49)"/><path class="cls-1" d="M43.58,7.27H45l.15,1.48h.06A4.85,4.85,0,0,1,48.66,7c2.16,0,3.13,1.4,3.13,4v6.5H50.06V11.25c0-1.91-.58-2.73-1.94-2.73-1,0-1.78.54-2.81,1.58v7.43H43.58Z" transform="translate(-0.59 -2.49)"/><path class="cls-1" d="M59.52,3.67h1.76V16h6v1.49H59.52Z" transform="translate(-0.59 -2.49)"/><path class="cls-1" d="M68.61,12.41C68.61,9,70.85,7,73.36,7s4.76,2,4.76,5.4-2.24,5.38-4.76,5.38S68.61,15.81,68.61,12.41Zm7.71,0c0-2.35-1.19-3.95-3-3.95s-3,1.6-3,3.95,1.2,3.93,3,3.93S76.32,14.77,76.32,12.41Z" transform="translate(-0.59 -2.49)"/><path class="cls-1" d="M80.05,12.41C80.05,9,82.37,7,85,7a4.34,4.34,0,0,1,3,1.21l-.89,1.15a3,3,0,0,0-2-.91c-1.86,0-3.22,1.6-3.22,3.95s1.29,3.93,3.17,3.93a3.73,3.73,0,0,0,2.41-1l.76,1.16a5,5,0,0,1-3.32,1.31C82.14,17.79,80.05,15.81,80.05,12.41Z" transform="translate(-0.59 -2.49)"/><path class="cls-1" d="M90.45,2.49h1.7V12.68h.06l4.38-5.41h1.93l-3.44,4.12L99,17.53h-1.9l-3-4.93-1.93,2.24v2.69h-1.7Z" transform="translate(-0.59 -2.49)"/><path class="cls-1" d="M99.76,12.41c0-3.34,2.25-5.4,4.62-5.4,2.61,0,4.09,1.88,4.09,4.82a5.58,5.58,0,0,1-.08,1h-6.91c.12,2.17,1.45,3.58,3.41,3.58a4.5,4.5,0,0,0,2.55-.82l.63,1.14a6,6,0,0,1-3.39,1.07C101.94,17.79,99.76,15.79,99.76,12.41Zm7.18-.84c0-2.05-.93-3.17-2.53-3.17-1.45,0-2.74,1.16-3,3.17Z" transform="translate(-0.59 -2.49)"/><path class="cls-1" d="M111,7.27h1.44l.14,1.87h.06A3.52,3.52,0,0,1,115.56,7a2.41,2.41,0,0,1,1.09.21l-.32,1.53a2.87,2.87,0,0,0-1-.17c-.86,0-1.9.62-2.59,2.36v6.59H111Z" transform="translate(-0.59 -2.49)"/></g></g></svg>