<svg xmlns="http://www.w3.org/2000/svg" viewBox="0 0 52.31 10.2"><defs><style>.cls-1{fill:#79fb53;}</style></defs><g id="Layer_2" data-name="Layer 2"><g id="Layer_1-2" data-name="Layer 1"><path class="cls-1" d="M1.26,2.44H2.48L5.82,8.26l1,1.91h.06c-.06-.93-.15-2-.15-2.94V2.44H7.84v9.25H6.63L3.29,5.87,2.29,4H2.23c.06.94.15,1.92.15,2.89v4.84H1.26Z" transform="translate(-1.26 -1.65)"/><path class="cls-1" d="M9.76,8.27a3.3,3.3,0,0,1,3.07-3.6c1.75,0,2.74,1.26,2.74,3.22a3.06,3.06,0,0,1-.06.65H10.9a2.28,2.28,0,0,0,2.28,2.39,3,3,0,0,0,1.7-.54l.42.76a4,4,0,0,1-2.26.71A3.28,3.28,0,0,1,9.76,8.27Zm4.78-.56c0-1.37-.61-2.11-1.68-2.11a2.1,2.1,0,0,0-2,2.11Z" transform="translate(-1.26 -1.65)"/><path class="cls-1" d="M16.5,4.84h1.19l1,4c.15.65.28,1.26.41,1.91h.06c.14-.65.29-1.27.46-1.91l1.06-4h1.13l1.07,4c.17.65.31,1.26.47,1.91h.06c.15-.65.28-1.26.42-1.91l1-4H26l-1.84,6.85H22.7L21.71,8c-.17-.65-.3-1.28-.46-2h-.06c-.15.69-.28,1.34-.47,2l-1,3.66H18.41Z" transform="translate(-1.26 -1.65)"/><path class="cls-1" d="M30.25,10.31V1.65h1.16V10.4c0,.35.15.49.32.49a.91.91,0,0,0,.25,0l.16.89a1.81,1.81,0,0,1-.67.11C30.61,11.86,30.25,11.3,30.25,10.31Z" transform="translate(-1.26 -1.65)"/><path class="cls-1" d="M33.33,8.27c0-2.28,1.49-3.6,3.17-3.6S39.67,6,39.67,8.27a3.19,3.19,0,1,1-6.34,0Zm5.15,0c0-1.56-.8-2.63-2-2.63s-2,1.07-2,2.63.8,2.62,2,2.62S38.48,9.84,38.48,8.27Z" transform="translate(-1.26 -1.65)"/><path class="cls-1" d="M41,8.27a3.32,3.32,0,0,1,3.3-3.6,2.85,2.85,0,0,1,2,.81l-.59.76a2,2,0,0,0-1.36-.6c-1.24,0-2.15,1.07-2.15,2.63s.86,2.62,2.12,2.62a2.43,2.43,0,0,0,1.6-.68l.51.78a3.35,3.35,0,0,1-2.22.87C42.35,11.86,41,10.54,41,8.27Z" transform="translate(-1.26 -1.65)"/><path class="cls-1" d="M47.89,1.65H49v6.8h0L52,4.84h1.29L51,7.59l2.6,4.1H52.31l-2-3.29L49,9.89v1.8H47.89Z" transform="translate(-1.26 -1.65)"/></g></g></svg>