<svg xmlns="http://www.w3.org/2000/svg" viewBox="0 0 121.97 12.29"><defs><style>.cls-1{fill:#fff;}</style></defs><g id="Layer_2" data-name="Layer 2"><g id="Layer_1-2" data-name="Layer 1"><path class="cls-1" d="M1.22,7.87V2.44H2.4V7.9c0,2.22.94,2.92,2.15,2.92s2.19-.7,2.19-2.92V2.44H7.87V7.87c0,3-1.44,4-3.32,4S1.22,10.84,1.22,7.87Z" transform="translate(-1.22 -1.65)"/><path class="cls-1" d="M10.24,4.84h1l.09,1h0a3.28,3.28,0,0,1,2.3-1.16c1.44,0,2.09.93,2.09,2.68v4.34H14.56V7.5c0-1.28-.39-1.82-1.29-1.82A2.59,2.59,0,0,0,11.4,6.73v5H10.24Z" transform="translate(-1.22 -1.65)"/><path class="cls-1" d="M17.94,1.65h1.14v6.8h0L22,4.84h1.28L21,7.59l2.59,4.1H22.36l-2-3.29L19.08,9.89v1.8H17.94Z" transform="translate(-1.22 -1.65)"/><path class="cls-1" d="M24.91,4.84h1l.1,1h0a3.3,3.3,0,0,1,2.3-1.16c1.44,0,2.09.93,2.09,2.68v4.34H29.23V7.5c0-1.28-.38-1.82-1.29-1.82a2.61,2.61,0,0,0-1.87,1.05v5H24.91Z" transform="translate(-1.22 -1.65)"/><path class="cls-1" d="M32.11,8.27c0-2.28,1.49-3.6,3.17-3.6S38.45,6,38.45,8.27a3.19,3.19,0,1,1-6.34,0Zm5.14,0c0-1.56-.79-2.63-2-2.63s-2,1.07-2,2.63.8,2.62,2,2.62S37.25,9.84,37.25,8.27Z" transform="translate(-1.22 -1.65)"/><path class="cls-1" d="M39.37,4.84h1.19l1,4c.15.65.28,1.26.41,1.91H42c.14-.65.29-1.27.46-1.91l1.06-4h1.13l1.07,4c.17.65.31,1.26.47,1.91h.06c.15-.65.27-1.26.42-1.91l1-4h1.1L47,11.69H45.57L44.58,8c-.17-.65-.3-1.28-.46-2h-.06c-.15.69-.29,1.34-.47,2l-1,3.66H41.28Z" transform="translate(-1.22 -1.65)"/><path class="cls-1" d="M50.3,4.84h1l.1,1h0a3.3,3.3,0,0,1,2.3-1.16c1.44,0,2.09.93,2.09,2.68v4.34H54.62V7.5c0-1.28-.38-1.82-1.29-1.82a2.61,2.61,0,0,0-1.87,1.05v5H50.3Z" transform="translate(-1.22 -1.65)"/><path class="cls-1" d="M63.57,1.69h.84L60.65,13.94h-.84Z" transform="translate(-1.22 -1.65)"/><path class="cls-1" d="M68.63,7.87V2.44h1.18V7.9c0,2.22.94,2.92,2.15,2.92s2.19-.7,2.19-2.92V2.44h1.13V7.87c0,3-1.44,4-3.32,4S68.63,10.84,68.63,7.87Z" transform="translate(-1.22 -1.65)"/><path class="cls-1" d="M77.65,4.84h1l.09,1h0A3.28,3.28,0,0,1,81,4.67c1.44,0,2.09.93,2.09,2.68v4.34H82V7.5c0-1.28-.39-1.82-1.29-1.82a2.59,2.59,0,0,0-1.87,1.05v5H77.65Z" transform="translate(-1.22 -1.65)"/><path class="cls-1" d="M85.35,1.65h1.14v6.8h0l2.92-3.61h1.28L88.44,7.59l2.6,4.1H89.77l-2-3.29L86.49,9.89v1.8H85.35Z" transform="translate(-1.22 -1.65)"/><path class="cls-1" d="M92.32,4.84h1l.1,1h0a3.3,3.3,0,0,1,2.3-1.16c1.44,0,2.09.93,2.09,2.68v4.34H96.64V7.5c0-1.28-.38-1.82-1.29-1.82a2.61,2.61,0,0,0-1.87,1.05v5H92.32Z" transform="translate(-1.22 -1.65)"/><path class="cls-1" d="M99.52,8.27c0-2.28,1.49-3.6,3.17-3.6s3.17,1.32,3.17,3.6a3.19,3.19,0,1,1-6.34,0Zm5.14,0c0-1.56-.79-2.63-2-2.63s-2,1.07-2,2.63.8,2.62,2,2.62S104.66,9.84,104.66,8.27Z" transform="translate(-1.22 -1.65)"/><path class="cls-1" d="M106.78,4.84H108l1,4c.15.65.28,1.26.41,1.91h.06c.14-.65.29-1.27.46-1.91l1.06-4h1.13l1.07,4c.17.65.31,1.26.47,1.91h.06c.15-.65.27-1.26.42-1.91l1-4h1.1l-1.83,6.85H113L112,8c-.17-.65-.3-1.28-.46-2h-.06c-.15.69-.29,1.34-.47,2l-1,3.66h-1.35Z" transform="translate(-1.22 -1.65)"/><path class="cls-1" d="M117.71,4.84h1l.1,1h0a3.3,3.3,0,0,1,2.3-1.16c1.44,0,2.09.93,2.09,2.68v4.34H122V7.5c0-1.28-.38-1.82-1.29-1.82a2.61,2.61,0,0,0-1.87,1.05v5h-1.16Z" transform="translate(-1.22 -1.65)"/></g></g></svg>