<svg xmlns="http://www.w3.org/2000/svg" viewBox="0 0 16.42 10.96"><defs><style>.cls-1{fill:#fafafa;}</style></defs><g id="Layer_2" data-name="Layer 2"><g id="Layer_1-2" data-name="Layer 1"><path class="cls-1" d="M8.94,10.92a8.92,8.92,0,0,0,5.76-3,12,12,0,0,0,1.68-2.31s0,0,0,0v-.1c-.07,0-.08-.1-.11-.15a11.35,11.35,0,0,0-3.84-4.07A7.94,7.94,0,0,0,8.72,0s-.05,0-.06,0h-.1A1.26,1.26,0,0,1,8,0H7.69l0,0a3.33,3.33,0,0,1-.54.07A8.42,8.42,0,0,0,2.85,2,12,12,0,0,0,0,5.41l0,0v.1a.84.84,0,0,1,.12.23,9.11,9.11,0,0,0,5,4.65,8.56,8.56,0,0,0,2.4.5s.09,0,.11,0h.16a1.56,1.56,0,0,1,.68,0h.17C8.76,10.9,8.85,10.93,8.94,10.92Zm-.72-2A3.34,3.34,0,0,1,4.8,5.48,3.35,3.35,0,0,1,8.23,2.06a3.35,3.35,0,0,1,3.41,3.42A3.34,3.34,0,0,1,8.22,8.9Z"/><path class="cls-1" d="M8.26,3.43a2.05,2.05,0,1,0,2,2.06A2.07,2.07,0,0,0,8.26,3.43Z"/></g></g></svg>