<svg xmlns="http://www.w3.org/2000/svg" viewBox="0 0 138.26 13.04"><defs><style>.cls-1{fill:#fff;}</style></defs><g id="Layer_2" data-name="Layer 2"><g id="Layer_1-2" data-name="Layer 1"><path class="cls-1" d="M1.62,3.12H8.43V4.4H3.12V8.1H7.6V9.37H3.12v4.3H8.61v1.27h-7Z" transform="translate(-1.62 -2.11)"/><path class="cls-1" d="M10.79,12.23V7.39H9.49V6.27l1.37-.08L11,3.73h1.24V6.19h2.37v1.2H12.27v4.87c0,1.07.35,1.69,1.35,1.69a2.82,2.82,0,0,0,1-.24l.29,1.12a5.2,5.2,0,0,1-1.63.33C11.42,15.16,10.79,14,10.79,12.23Z" transform="translate(-1.62 -2.11)"/><path class="cls-1" d="M16.61,2.11H18.1V5.62L18,7.42A4.18,4.18,0,0,1,21,6c1.84,0,2.67,1.19,2.67,3.42v5.55H22.14V9.59c0-1.63-.49-2.33-1.65-2.33A3.28,3.28,0,0,0,18.1,8.6v6.34H16.61Z" transform="translate(-1.62 -2.11)"/><path class="cls-1" d="M25.76,10.58C25.76,7.73,27.68,6,29.69,6c2.23,0,3.49,1.61,3.49,4.11a4.12,4.12,0,0,1-.07.84H27.22A2.92,2.92,0,0,0,30.13,14a3.77,3.77,0,0,0,2.17-.7l.54,1a5.17,5.17,0,0,1-2.89.91C27.61,15.16,25.76,13.45,25.76,10.58Zm6.12-.72c0-1.75-.79-2.71-2.16-2.71a2.69,2.69,0,0,0-2.51,2.71Z" transform="translate(-1.62 -2.11)"/><path class="cls-1" d="M35.33,6.19h1.23l.12,1.59h0A3,3,0,0,1,39.22,6a2,2,0,0,1,.93.18l-.27,1.3A2.57,2.57,0,0,0,39,7.31c-.74,0-1.62.53-2.22,2v5.62H35.33Z" transform="translate(-1.62 -2.11)"/><path class="cls-1" d="M40.75,10.58C40.75,7.73,42.67,6,44.68,6c2.24,0,3.5,1.61,3.5,4.11a5,5,0,0,1-.07.84h-5.9A2.92,2.92,0,0,0,45.12,14a3.82,3.82,0,0,0,2.18-.7l.53,1a5.17,5.17,0,0,1-2.89.91C42.61,15.16,40.75,13.45,40.75,10.58Zm6.12-.72c0-1.75-.79-2.71-2.16-2.71A2.69,2.69,0,0,0,42.2,9.86Z" transform="translate(-1.62 -2.11)"/><path class="cls-1" d="M50.21,11.73V6.19h1.48v5.35c0,1.63.49,2.33,1.65,2.33.9,0,1.52-.44,2.35-1.47V6.19h1.48v8.75H55.94l-.12-1.37h0a3.71,3.71,0,0,1-2.89,1.59C51,15.16,50.21,14,50.21,11.73Z" transform="translate(-1.62 -2.11)"/><path class="cls-1" d="M60.12,6.19h1.22l.13,1.27h.05A3.87,3.87,0,0,1,64.24,6a2.31,2.31,0,0,1,2.42,1.67A4.15,4.15,0,0,1,69.54,6c1.8,0,2.67,1.19,2.67,3.42v5.55H70.73V9.59c0-1.63-.52-2.33-1.63-2.33A3.2,3.2,0,0,0,66.9,8.6v6.34H65.42V9.59c0-1.63-.51-2.33-1.63-2.33A3.25,3.25,0,0,0,61.6,8.6v6.34H60.12Z" transform="translate(-1.62 -2.11)"/><path class="cls-1" d="M78.64,6.19h1.23L80,7.46H80A3.87,3.87,0,0,1,82.76,6a2.31,2.31,0,0,1,2.42,1.67A4.15,4.15,0,0,1,88.07,6c1.79,0,2.66,1.19,2.66,3.42v5.55H89.25V9.59c0-1.63-.52-2.33-1.63-2.33A3.17,3.17,0,0,0,85.43,8.6v6.34H84V9.59c0-1.63-.52-2.33-1.63-2.33a3.24,3.24,0,0,0-2.2,1.34v6.34H78.64Z" transform="translate(-1.62 -2.11)"/><path class="cls-1" d="M93,12.67c0-1.91,1.65-2.86,5.38-3.27,0-1.12-.38-2.21-1.81-2.21A4.83,4.83,0,0,0,94,8.13l-.58-1A6.42,6.42,0,0,1,96.84,6c2.13,0,3,1.42,3,3.6v5.37H98.65l-.12-1h0a4.62,4.62,0,0,1-2.89,1.27A2.38,2.38,0,0,1,93,12.67Zm5.38.13V10.37c-2.94.36-3.93,1.08-3.93,2.19S95.15,14,96,14A3.61,3.61,0,0,0,98.4,12.8Z" transform="translate(-1.62 -2.11)"/><path class="cls-1" d="M102.37,3.43a1,1,0,0,1,2,0,1,1,0,0,1-2,0Zm.26,2.76h1.49v8.75h-1.49Z" transform="translate(-1.62 -2.11)"/><path class="cls-1" d="M107.06,6.19h1.23l.12,1.26h0A4.19,4.19,0,0,1,111.4,6c1.84,0,2.67,1.19,2.67,3.42v5.55h-1.48V9.59c0-1.63-.49-2.33-1.65-2.33a3.31,3.31,0,0,0-2.4,1.34v6.34h-1.48Z" transform="translate(-1.62 -2.11)"/><path class="cls-1" d="M116.91,6.19h1.22l.13,1.26h0A4.16,4.16,0,0,1,121.24,6c1.85,0,2.67,1.19,2.67,3.42v5.55h-1.48V9.59c0-1.63-.49-2.33-1.65-2.33a3.31,3.31,0,0,0-2.39,1.34v6.34h-1.48Z" transform="translate(-1.62 -2.11)"/><path class="cls-1" d="M126.1,10.58C126.1,7.73,128,6,130,6c2.23,0,3.49,1.61,3.49,4.11a4.12,4.12,0,0,1-.07.84h-5.89A2.91,2.91,0,0,0,130.48,14a3.77,3.77,0,0,0,2.17-.7l.54,1a5.2,5.2,0,0,1-2.9.91C128,15.16,126.1,13.45,126.1,10.58Zm6.12-.72c0-1.75-.79-2.71-2.16-2.71a2.69,2.69,0,0,0-2.51,2.71Z" transform="translate(-1.62 -2.11)"/><path class="cls-1" d="M135.76,12.23V7.39h-1.3V6.27l1.37-.08L136,3.73h1.23V6.19h2.38v1.2h-2.38v4.87c0,1.07.35,1.69,1.36,1.69a2.82,2.82,0,0,0,1-.24l.29,1.12a5.19,5.19,0,0,1-1.62.33C136.39,15.16,135.76,14,135.76,12.23Z" transform="translate(-1.62 -2.11)"/></g></g></svg>