<svg xmlns="http://www.w3.org/2000/svg" viewBox="0 0 64.97 10.2"><defs><style>.cls-1{fill:#fff;}</style></defs><g id="Layer_2" data-name="Layer 2"><g id="Layer_1-2" data-name="Layer 1"><path class="cls-1" d="M.62,7.16c0-3,1.09-4.62,2.88-4.62S6.38,4.16,6.38,7.16s-1.09,4.7-2.88,4.7S.62,10.17.62,7.16Zm4.63,0c0-2.63-.71-3.69-1.75-3.69S1.75,4.53,1.75,7.16s.71,3.76,1.75,3.76S5.25,9.8,5.25,7.16Z" transform="translate(-0.62 -1.65)"/><path class="cls-1" d="M11,7.87V2.44h1.18V7.9c0,2.22.94,2.92,2.14,2.92s2.19-.7,2.19-2.92V2.44h1.13V7.87c0,3-1.43,4-3.32,4S11,10.84,11,7.87Z" transform="translate(-0.62 -1.65)"/><path class="cls-1" d="M20.05,4.84h1l.1,1h0a3.26,3.26,0,0,1,2.29-1.16c1.44,0,2.09.93,2.09,2.68v4.34H24.37V7.5c0-1.28-.38-1.82-1.29-1.82a2.61,2.61,0,0,0-1.87,1.05v5H20.05Z" transform="translate(-0.62 -1.65)"/><path class="cls-1" d="M27.76,1.65h1.13v6.8h0l2.92-3.61h1.29L30.85,7.59l2.59,4.1H32.17l-2-3.29L28.89,9.89v1.8H27.76Z" transform="translate(-0.62 -1.65)"/><path class="cls-1" d="M34.73,4.84h1l.1,1h0a3.28,3.28,0,0,1,2.3-1.16c1.44,0,2.09.93,2.09,2.68v4.34H39.05V7.5c0-1.28-.39-1.82-1.29-1.82a2.63,2.63,0,0,0-1.88,1.05v5H34.73Z" transform="translate(-0.62 -1.65)"/><path class="cls-1" d="M41.92,8.27a3.2,3.2,0,1,1,6.35,0,3.2,3.2,0,1,1-6.35,0Zm5.15,0c0-1.56-.8-2.63-2-2.63s-2,1.07-2,2.63.8,2.62,2,2.62S47.07,9.84,47.07,8.27Z" transform="translate(-0.62 -1.65)"/><path class="cls-1" d="M49.19,4.84h1.18l1,4c.15.65.27,1.26.4,1.91h.06c.15-.65.3-1.27.47-1.91l1-4H54.5l1.07,4c.17.65.32,1.26.48,1.91h.05c.15-.65.28-1.26.43-1.91l1-4h1.1l-1.84,6.85H55.38L54.39,8c-.16-.65-.29-1.28-.46-2h0c-.15.69-.29,1.34-.47,2l-1,3.66H51.09Z" transform="translate(-0.62 -1.65)"/><path class="cls-1" d="M60.12,4.84h1l.1,1h0a3.28,3.28,0,0,1,2.3-1.16c1.44,0,2.09.93,2.09,2.68v4.34H64.44V7.5c0-1.28-.39-1.82-1.29-1.82a2.63,2.63,0,0,0-1.88,1.05v5H60.12Z" transform="translate(-0.62 -1.65)"/></g></g></svg>