<svg xmlns="http://www.w3.org/2000/svg" viewBox="0 0 65.36 9.69"><defs><style>.cls-1{fill:none;stroke:#1a1e21;stroke-miterlimit:10;}.cls-2{fill:#1a1e21;}</style></defs><g id="Layer_2" data-name="Layer 2"><g id="Layer_1-2" data-name="Layer 1"><polyline class="cls-1" points="4.59 1.61 8.45 5.48 4.59 9.34"/><polyline class="cls-1" points="8.45 5.48 0.5 5.48 0.5 0"/><path class="cls-2" d="M15.81,2.07H17.4l2.5,7.67H18.46L17.29,5.66c-.24-.82-.47-1.69-.69-2.53h-.05c-.21.85-.43,1.71-.68,2.53L14.69,9.74H13.3Zm-1,4.52H18.4V7.66H14.78Z" transform="translate(0 -1.4)"/><path class="cls-2" d="M20.38,6.86c0-1.87,1.18-3,2.44-3a2.11,2.11,0,0,1,1.51.63l0-.93V1.45h1.35V9.74h-1.1l-.11-.62h0a2.45,2.45,0,0,1-1.64.76C21.31,9.88,20.38,8.76,20.38,6.86Zm3.9,1.26V5.43A1.7,1.7,0,0,0,23.11,5c-.73,0-1.34.7-1.34,1.9s.48,1.91,1.31,1.91A1.51,1.51,0,0,0,24.28,8.12Z" transform="translate(0 -1.4)"/><path class="cls-2" d="M27,6.86c0-1.87,1.18-3,2.44-3A2.11,2.11,0,0,1,31,4.47l-.05-.93V1.45h1.35V9.74h-1.1L31,9.12h0a2.4,2.4,0,0,1-1.63.76C27.93,9.88,27,8.76,27,6.86Zm3.9,1.26V5.43A1.7,1.7,0,0,0,29.73,5c-.73,0-1.34.7-1.34,1.9s.48,1.91,1.31,1.91A1.51,1.51,0,0,0,30.9,8.12Z" transform="translate(0 -1.4)"/><path class="cls-2" d="M37.94,2.07h1.59L42,9.74H40.59L39.42,5.66C39.18,4.84,39,4,38.73,3.13h0c-.21.85-.43,1.71-.68,2.53L36.83,9.74H35.44Zm-1,4.52h3.62V7.66H36.91Z" transform="translate(0 -1.4)"/><path class="cls-2" d="M45.14,8.26V1.45h1.35V8.33c0,.33.16.45.3.45a.64.64,0,0,0,.21,0l.17,1a1.84,1.84,0,0,1-.72.12C45.49,9.88,45.14,9.26,45.14,8.26Z" transform="translate(0 -1.4)"/><path class="cls-2" d="M47.94,6.86a2.75,2.75,0,1,1,5.48,0,2.75,2.75,0,1,1-5.48,0Zm4.09,0c0-1.15-.5-1.92-1.35-1.92s-1.35.77-1.35,1.92.51,1.92,1.35,1.92S52,8,52,6.86Z" transform="translate(0 -1.4)"/><path class="cls-2" d="M54.38,6.86a2.85,2.85,0,0,1,2.9-3A2.48,2.48,0,0,1,59,4.48l-.66.88a1.38,1.38,0,0,0-.95-.42c-.93,0-1.58.77-1.58,1.92s.64,1.92,1.53,1.92a1.91,1.91,0,0,0,1.2-.5l.55.89a2.86,2.86,0,0,1-1.89.71A2.75,2.75,0,0,1,54.38,6.86Z" transform="translate(0 -1.4)"/><path class="cls-2" d="M60.19,1.45h1.32V6.63h0L63.68,4h1.48l-2,2.34,2.17,3.42H63.89l-1.48-2.5-.9,1V9.74H60.19Z" transform="translate(0 -1.4)"/></g></g></svg>