<svg xmlns="http://www.w3.org/2000/svg" viewBox="0 0 40.42 6.86"><defs><style>.cls-1{fill:#fff;}</style></defs><g id="Layer_2" data-name="Layer 2"><g id="Layer_1-2" data-name="Layer 1"><path class="cls-1" d="M3.32,4.77c0-2,.65-3.09,1.79-3.09s1.8,1.1,1.8,3.09S6.26,7.9,5.11,7.9,3.32,6.77,3.32,4.77Zm3.16,0C6.48,2.94,6,2,5.11,2s-1.37.9-1.37,2.73.54,2.77,1.37,2.77S6.48,6.6,6.48,4.77Z" transform="translate(-3.32 -1.04)"/><path class="cls-1" d="M10.16,1.61h1.43c1.9,0,2.81,1.2,2.81,3.07s-.91,3.11-2.8,3.11H10.16Zm1.38,5.82C13.22,7.43,14,6.29,14,4.68S13.22,2,11.54,2h-.95V7.43Z" transform="translate(-3.32 -1.04)"/><path class="cls-1" d="M15.4,5.55a2.16,2.16,0,0,1,2-2.38c1.07,0,1.73.76,1.73,2.09a2,2,0,0,1,0,.34H15.83a1.76,1.76,0,0,0,1.69,2,2.06,2.06,0,0,0,1.21-.4l.17.31a2.47,2.47,0,0,1-1.42.44A2.12,2.12,0,0,1,15.4,5.55Zm3.3-.3c0-1.15-.52-1.72-1.33-1.72a1.69,1.69,0,0,0-1.55,1.72Z" transform="translate(-3.32 -1.04)"/><path class="cls-1" d="M19.93,5.55A2.15,2.15,0,0,1,22,3.17a1.85,1.85,0,0,1,1.32.56L23.07,4A1.55,1.55,0,0,0,22,3.54a1.79,1.79,0,0,0-1.63,2c0,1.18.65,2,1.63,2A1.77,1.77,0,0,0,23.2,7l.22.29A2.18,2.18,0,0,1,22,7.9,2.08,2.08,0,0,1,19.93,5.55Z" transform="translate(-3.32 -1.04)"/><path class="cls-1" d="M24.37,1.83a.38.38,0,0,1,.75,0,.38.38,0,0,1-.75,0Zm.16,1.46h.41v4.5h-.41Z" transform="translate(-3.32 -1.04)"/><path class="cls-1" d="M26.68,3.29H27l0,.69h0a2.14,2.14,0,0,1,1.43-.81,1.17,1.17,0,0,1,1.24.92,2.25,2.25,0,0,1,1.53-.92c.9,0,1.35.57,1.35,1.73V7.79h-.41V5c0-1-.32-1.41-1-1.41a1.94,1.94,0,0,0-1.35.84v3.4h-.42V5c0-1-.32-1.41-1-1.41a2,2,0,0,0-1.35.84v3.4h-.41Z" transform="translate(-3.32 -1.04)"/><path class="cls-1" d="M34,6.67c0-1,.9-1.48,2.9-1.7,0-.69-.17-1.43-1.06-1.43a2.43,2.43,0,0,0-1.43.53l-.2-.31a3,3,0,0,1,1.68-.59c1.07,0,1.43.78,1.43,1.74V7.79H37l-.05-.58h0a2.66,2.66,0,0,1-1.6.69A1.17,1.17,0,0,1,34,6.67Zm2.9.15V5.29C35,5.5,34.4,5.93,34.4,6.65a.84.84,0,0,0,1,.89A2.37,2.37,0,0,0,36.88,6.82Z" transform="translate(-3.32 -1.04)"/><path class="cls-1" d="M38.91,7.19V1h.41v6.2c0,.2.09.3.2.3l.17,0,.07.34a1.14,1.14,0,0,1-.3,0C39.1,7.9,38.91,7.68,38.91,7.19Z" transform="translate(-3.32 -1.04)"/><path class="cls-1" d="M40.57,7.28l.24-.3a2.08,2.08,0,0,0,1.44.57c.7,0,1.07-.41,1.07-.89s-.58-.81-1.1-1c-.68-.24-1.44-.52-1.44-1.29s.52-1.2,1.46-1.2a2.09,2.09,0,0,1,1.28.47l-.22.3a1.68,1.68,0,0,0-1.07-.41c-.71,0-1,.4-1,.82s.53.71,1.07.91c.7.27,1.47.5,1.47,1.37A1.34,1.34,0,0,1,42.23,7.9,2.63,2.63,0,0,1,40.57,7.28Z" transform="translate(-3.32 -1.04)"/></g></g></svg>