<svg xmlns="http://www.w3.org/2000/svg" xmlns:xlink="http://www.w3.org/1999/xlink" viewBox="0 0 61.48 38.29"><defs><style>.cls-1{fill:url(#linear-gradient);}</style><linearGradient id="linear-gradient" x1="1256.13" y1="-6793.37" x2="1176.83" y2="-6766.56" gradientTransform="translate(1216.8 -6748.05) rotate(180)" gradientUnits="userSpaceOnUse"><stop offset="0" stop-color="#121111"/><stop offset="0.12" stop-color="#141612"/><stop offset="0.25" stop-color="#1a2416"/><stop offset="0.39" stop-color="#243b1d"/><stop offset="0.54" stop-color="#325b26"/><stop offset="0.7" stop-color="#448431"/><stop offset="0.85" stop-color="#59b63f"/><stop offset="1" stop-color="#71ee4f"/></linearGradient></defs><g id="Layer_2" data-name="Layer 2"><g id="Layer_1-2" data-name="Layer 1"><path class="cls-1" d="M60.9,0l.06,0a.8.8,0,0,1,.47,1l-5.26,14a.81.81,0,0,1-.88.5L41.22,13l-5,13.38a.79.79,0,0,1-.88.5L21.26,24.39l-5,13.39a.8.8,0,0,1-.88.5L.65,35.63A.8.8,0,0,1,0,34.71a.79.79,0,0,1,.92-.63L15,36.61l5-13.39a.81.81,0,0,1,.88-.5L35,25.25l5-13.38a.78.78,0,0,1,.88-.5L54.92,13.9,60,.51A.79.79,0,0,1,60.9,0Z"/></g></g></svg>