<svg xmlns="http://www.w3.org/2000/svg" xmlns:xlink="http://www.w3.org/1999/xlink" viewBox="0 0 62.17 38.72"><defs><style>.cls-1{fill:url(#linear-gradient);}</style><linearGradient id="linear-gradient" x1="101.93" y1="-7.1" x2="21.74" y2="20" gradientUnits="userSpaceOnUse"><stop offset="0" stop-color="#121111"/><stop offset="0.12" stop-color="#141612"/><stop offset="0.25" stop-color="#1a2416"/><stop offset="0.39" stop-color="#243b1d"/><stop offset="0.54" stop-color="#325b26"/><stop offset="0.7" stop-color="#448431"/><stop offset="0.85" stop-color="#59b63f"/><stop offset="1" stop-color="#71ee4f"/></linearGradient></defs><g id="Layer_2" data-name="Layer 2"><g id="Layer_1-2" data-name="Layer 1"><path class="cls-1" d="M.59,38.69l-.07,0a.81.81,0,0,1-.47-1L5.37,23.48a.79.79,0,0,1,.89-.5l14.22,2.55L25.56,12a.8.8,0,0,1,.89-.51l14.22,2.56L45.75.52A.8.8,0,0,1,46.64,0L61.51,2.69a.8.8,0,0,1-.28,1.57L47,1.7,41.93,15.23a.8.8,0,0,1-.89.51L26.82,13.18,21.74,26.71a.79.79,0,0,1-.89.51L6.63,24.67,1.55,38.2A.8.8,0,0,1,.59,38.69Z"/></g></g></svg>