<svg xmlns="http://www.w3.org/2000/svg" xmlns:xlink="http://www.w3.org/1999/xlink" viewBox="0 0 319.25 494.65"><defs><style>.cls-1,.cls-16,.cls-17,.cls-24{fill:#71ee4f;}.cls-2{fill:#333433;stroke:#71ee4f;}.cls-14,.cls-2{stroke-miterlimit:10;}.cls-12,.cls-15,.cls-3,.cls-4,.cls-9{fill:#fff;}.cls-17,.cls-4,.cls-9{font-size:16px;}.cls-12,.cls-15,.cls-16,.cls-17,.cls-30,.cls-4,.cls-9{font-family:AvenirNext-DemiBold, Avenir Next;font-weight:300;}.cls-5{letter-spacing:-0.1em;}.cls-6{letter-spacing:-0.01em;}.cls-7{letter-spacing:0em;}.cls-8{letter-spacing:-0.01em;}.cls-9{letter-spacing:-0.05em;}.cls-10{fill:#525252;}.cls-11,.cls-30{fill:#bababa;}.cls-12,.cls-15{font-size:8.62px;}.cls-12{letter-spacing:0.05em;}.cls-13{letter-spacing:0.04em;}.cls-14{fill:none;stroke:url(#linear-gradient);}.cls-15{letter-spacing:0.05em;}.cls-16{font-size:21px;}.cls-18{letter-spacing:-0.05em;}.cls-19{letter-spacing:-0.03em;}.cls-20{letter-spacing:0em;}.cls-21{letter-spacing:-0.01em;}.cls-22{letter-spacing:-0.02em;}.cls-23{letter-spacing:-0.03em;}.cls-24{font-size:22.95px;font-family:Konnect-SemiBold, Konnect;font-weight:600;}.cls-25{letter-spacing:0em;}.cls-26{letter-spacing:-0.04em;}.cls-27{letter-spacing:0.01em;}.cls-28{letter-spacing:0.01em;}.cls-29{letter-spacing:-0.03em;}.cls-30{font-size:14.35px;}.cls-31{letter-spacing:-0.01em;}</style><linearGradient id="linear-gradient" x1="85.43" y1="155.47" x2="159.5" y2="155.47" gradientTransform="translate(244.93 310.94) rotate(-180)" gradientUnits="userSpaceOnUse"><stop offset="0" stop-color="#79fb53"/><stop offset="1" stop-color="#33a400"/></linearGradient></defs><g id="Layer_2" data-name="Layer 2"><g id="Layer_1-2" data-name="Layer 1"><path class="cls-1" d="M165.46,105.22a4.2,4.2,0,0,0-3-2.81,7.34,7.34,0,0,0-2.51-.22,4.92,4.92,0,0,0-3.46,1.76c-.16.2-.29.41-.45.64a.39.39,0,0,1-.05-.27c0-.51,0-1,0-1.54,0-.21-.07-.26-.27-.25h-3.92c-.2,0-.24.06-.24.24v14.4c0,.21.07.25.26.25,1.36,0,2.71,0,4.07,0,.23,0,.28-.07.28-.29,0-2.37,0-4.74,0-7.11a7.22,7.22,0,0,1,.21-1.91,2.31,2.31,0,0,1,1.68-1.78,3.67,3.67,0,0,1,1.14-.1,2,2,0,0,1,1.9,1.44,6.25,6.25,0,0,1,.27,2.06v7.42c0,.2,0,.27.25.27q2.07,0,4.14,0c.22,0,.25-.08.25-.27,0-2.78,0-5.55,0-8.33A11,11,0,0,0,165.46,105.22Z"/><path class="cls-1" d="M144.25,117.42c1.37,0,2.75,0,4.12,0,.22,0,.27-.06.27-.27,0-2.4,0-4.79,0-7.19s0-4.78,0-7.18c0-.2-.06-.26-.26-.25h-4.14c-.18,0-.22,0-.22.22v14.44C144,117.37,144.07,117.42,144.25,117.42Z"/><path class="cls-1" d="M146.35,95.13A2.69,2.69,0,1,0,149,97.84,2.68,2.68,0,0,0,146.35,95.13Z"/><path class="cls-1" d="M114.88,100.26,102.61,105l-5.1,2a2.58,2.58,0,0,0-.81.45.48.48,0,0,0,.09.85,2.07,2.07,0,0,0,.46.2c1.17.37,2.33.77,3.52,1.08a1.19,1.19,0,0,1,1,1,2.07,2.07,0,0,0,.1.33c.48,1.47,1,2.94,1.43,4.41a.47.47,0,0,0,.48.37,1.13,1.13,0,0,0,.88-.35c.7-.68,1.41-1.35,2.1-2,.15-.15.23-.17.41,0,1.39,1,2.8,2.08,4.19,3.11a1.76,1.76,0,0,0,.62.29.81.81,0,0,0,1-.43,2.74,2.74,0,0,0,.23-.72q1.32-6.27,2.65-12.53c.13-.6.29-1.19.35-1.71C116.23,100.35,115.66,100,114.88,100.26Zm-2.24,3.21-1.23,1.12-7,6.29a.72.72,0,0,0-.24.5c-.08,1-.17,1.93-.26,2.89,0,.06,0,.12-.07.17l-.78-2.4c-.26-.78-.51-1.56-.77-2.34,0-.16,0-.24.11-.32l9.59-6a1.06,1.06,0,0,1,.47-.19.24.24,0,0,1,.27.07C112.81,103.32,112.71,103.4,112.64,103.47Z"/><path class="cls-1" d="M68.86,102.87A3.77,3.77,0,0,0,67.14,101a11.24,11.24,0,0,0-3.57-1.28c-.44-.07-.44-.07-.61.26-.09.16,0,.2.13.24a10.89,10.89,0,0,1,1.92.66,8.82,8.82,0,0,1,2.48,1.7,15.18,15.18,0,0,0-14.86,0,9.76,9.76,0,0,1,4.5-2.41c.06,0,.13,0,.15-.07s-.26-.46-.39-.44a10.3,10.3,0,0,0-4.61,1.8,1.21,1.21,0,0,0-.43.44c-.18.34-.37.67-.53,1A26.65,26.65,0,0,0,49,112.64a.27.27,0,0,0,.09.24,8.35,8.35,0,0,0,2.25,1.76,10.09,10.09,0,0,0,4,1.15c.08,0,.16,0,.22-.05.25-.35.51-.68.78-1a10.69,10.69,0,0,1-2.3-1.13,8.26,8.26,0,0,1-1.91-1.7,11.59,11.59,0,0,0,2.59,1.45,14.1,14.1,0,0,0,5.49,1,15.47,15.47,0,0,0,3.25-.35,11.86,11.86,0,0,0,4.3-1.89s.08-.1.16,0a10.15,10.15,0,0,1-4.14,2.69c.23.31.46.58.66.88a.42.42,0,0,0,.46.21,10.8,10.8,0,0,0,2.39-.49,8.82,8.82,0,0,0,3.77-2.39.39.39,0,0,0,.11-.32,32,32,0,0,0-.38-3.25A25.32,25.32,0,0,0,68.86,102.87ZM58,110.21a1.62,1.62,0,0,1-2.44,0,2.23,2.23,0,0,1,.2-3.08,1.66,1.66,0,0,1,2.54.55,2.28,2.28,0,0,1,.27,1.08A2.11,2.11,0,0,1,58,110.21Zm6.45.12a1.64,1.64,0,0,1-2.58-.55,2.23,2.23,0,0,1,.27-2.49,1.6,1.6,0,0,1,2.4-.08A2.21,2.21,0,0,1,64.45,110.33Z"/><path class="cls-1" d="M21.24,102.14a4.46,4.46,0,0,0,1.86-2.37.15.15,0,0,0-.1,0,9.31,9.31,0,0,1-2.6,1,.14.14,0,0,1-.14-.06,4.29,4.29,0,0,0-2.84-1.3h-.56a4.29,4.29,0,0,0-3.54,2.27,4.14,4.14,0,0,0-.49,2.7,1.37,1.37,0,0,0,.05.28c0,.07,0,.1-.07.09l-.71-.06a12.33,12.33,0,0,1-7.22-3.44,10.45,10.45,0,0,1-.9-1s-.07-.07-.11,0a4.29,4.29,0,0,0-.54,2.4A4.34,4.34,0,0,0,5.18,106l.06,0a4.1,4.1,0,0,1-1-.16,4.53,4.53,0,0,1-1-.39,4.39,4.39,0,0,0,3.45,4.34,4.28,4.28,0,0,1-1.92.07,4.39,4.39,0,0,0,4,3,8.79,8.79,0,0,1-6.39,1.81,12.31,12.31,0,0,0,6.29,1.94h.76a12.8,12.8,0,0,0,3.92-.71,11.53,11.53,0,0,0,4.14-2.55,12.7,12.7,0,0,0,3.55-6,12.29,12.29,0,0,0,.4-3.41.43.43,0,0,1,.19-.41,8.73,8.73,0,0,0,1.92-2,.12.12,0,0,1,.06-.08h0a9.2,9.2,0,0,1-1.78.56A3.74,3.74,0,0,1,21.24,102.14Z"/><circle class="cls-2" cx="275.75" cy="43.5" r="43"/><rect class="cls-1" x="2.09" y="143.83" width="73.07" height="22.96" rx="10.53" transform="translate(77.24 310.61) rotate(180)"/><path class="cls-3" d="M2.91,189.65H4v7.2H7.41v.88H2.91Z"/><path class="cls-3" d="M13.62,194.78a2.84,2.84,0,0,1-2.88,3.08,2.76,2.76,0,0,1-2.79-3,2.83,2.83,0,0,1,2.88-3.07A2.74,2.74,0,0,1,13.62,194.78Zm-4.6.06c0,1.28.73,2.23,1.76,2.23s1.77-.94,1.77-2.26c0-1-.49-2.22-1.75-2.22S9,193.74,9,194.84Z"/><path class="cls-3" d="M15,193.74c0-.69,0-1.27-.05-1.81h.93l0,1.14h0a1.76,1.76,0,0,1,1.62-1.27,1.29,1.29,0,0,1,.29,0v1a1.86,1.86,0,0,0-.36,0,1.47,1.47,0,0,0-1.41,1.35,2.56,2.56,0,0,0,0,.49v3.1H15Z"/><path class="cls-3" d="M19.36,195a1.85,1.85,0,0,0,2,2,3.92,3.92,0,0,0,1.61-.3l.18.75a4.63,4.63,0,0,1-1.93.37,2.71,2.71,0,0,1-2.86-2.93c0-1.76,1-3.13,2.73-3.13a2.45,2.45,0,0,1,2.39,2.73,2,2,0,0,1,0,.49Zm3.08-.76a1.49,1.49,0,0,0-1.45-1.7,1.72,1.72,0,0,0-1.62,1.7Z"/><path class="cls-3" d="M24.78,193.5c0-.61,0-1.09-.05-1.57h.92l.05.94h0a2,2,0,0,1,1.83-1.07A1.71,1.71,0,0,1,29.2,193h0a2.32,2.32,0,0,1,.65-.75,2,2,0,0,1,1.28-.41c.78,0,1.92.5,1.92,2.52v3.41H32v-3.28c0-1.12-.42-1.79-1.26-1.79a1.38,1.38,0,0,0-1.26,1,1.74,1.74,0,0,0-.08.53v3.59h-1v-3.48c0-.92-.41-1.59-1.21-1.59a1.45,1.45,0,0,0-1.31,1.06,1.42,1.42,0,0,0-.08.52v3.49h-1Z"/><path class="cls-3" d="M39.65,190.29A.65.65,0,0,1,39,191a.63.63,0,0,1-.63-.66.66.66,0,1,1,1.31,0Zm-1.18,7.44v-5.8h1.05v5.8Z"/><path class="cls-3" d="M41.27,193.82c0-.74,0-1.34,0-1.89h.94l.06,1h0a2.26,2.26,0,0,1,2.06-1.12c1.4,0,2.46,1.18,2.46,2.94,0,2.09-1.28,3.12-2.64,3.12a2,2,0,0,1-1.78-.91h0v3.16h-1Zm1,1.55a2,2,0,0,0,0,.43A1.62,1.62,0,0,0,44,197c1.11,0,1.76-.92,1.76-2.25,0-1.16-.61-2.15-1.72-2.15a1.68,1.68,0,0,0-1.6,1.3,2.14,2.14,0,0,0-.07.43Z"/><path class="cls-3" d="M48,196.66a2.89,2.89,0,0,0,1.4.41c.77,0,1.13-.38,1.13-.86s-.31-.78-1.08-1.07c-1-.37-1.54-.94-1.54-1.64a1.8,1.8,0,0,1,2-1.7,2.79,2.79,0,0,1,1.42.36l-.27.76a2.25,2.25,0,0,0-1.19-.34c-.62,0-1,.36-1,.8s.34.69,1.1,1c1,.37,1.52.87,1.53,1.74,0,1-.8,1.75-2.17,1.75a3.3,3.3,0,0,1-1.63-.41Z"/><path class="cls-3" d="M57.7,196.14c0,.61,0,1.13,0,1.59h-.93l-.06-.95h0a2.18,2.18,0,0,1-1.92,1.08c-.91,0-2-.51-2-2.54v-3.39h1v3.21c0,1.1.34,1.85,1.29,1.85a1.54,1.54,0,0,0,1.4-1,1.86,1.86,0,0,0,.1-.55v-3.55h1Z"/><path class="cls-3" d="M59.47,193.5c0-.61,0-1.09,0-1.57h.92l0,.94h0a2,2,0,0,1,1.83-1.07A1.71,1.71,0,0,1,63.89,193h0a2.34,2.34,0,0,1,.66-.75,1.92,1.92,0,0,1,1.27-.41c.78,0,1.92.5,1.92,2.52v3.41h-1v-3.28c0-1.12-.42-1.79-1.26-1.79a1.38,1.38,0,0,0-1.26,1,1.74,1.74,0,0,0-.08.53v3.59h-1v-3.48c0-.92-.41-1.59-1.21-1.59a1.45,1.45,0,0,0-1.31,1.06,1.42,1.42,0,0,0-.08.52v3.49h-1Z"/><path class="cls-3" d="M78.16,189.22v7c0,.51,0,1.09,0,1.49h-.94l0-1h0a2.12,2.12,0,0,1-2,1.13,2.65,2.65,0,0,1-2.49-2.94c0-1.94,1.2-3.12,2.61-3.12a1.94,1.94,0,0,1,1.75.88h0v-3.46Zm-1,5.07a2.3,2.3,0,0,0-.05-.45,1.55,1.55,0,0,0-1.53-1.21c-1.09,0-1.74,1-1.74,2.23s.58,2.16,1.72,2.16a1.59,1.59,0,0,0,1.54-1.27,1.63,1.63,0,0,0,.06-.45Z"/><path class="cls-3" d="M85.18,194.78a2.85,2.85,0,0,1-2.89,3.08,2.76,2.76,0,0,1-2.79-3,2.83,2.83,0,0,1,2.88-3.07A2.75,2.75,0,0,1,85.18,194.78Zm-4.6.06c0,1.28.73,2.23,1.75,2.23s1.77-.94,1.77-2.26c0-1-.49-2.22-1.75-2.22S80.58,193.74,80.58,194.84Z"/><path class="cls-3" d="M86.51,189.22h1v8.51h-1Z"/><path class="cls-3" d="M94.6,194.78a2.85,2.85,0,0,1-2.89,3.08,2.76,2.76,0,0,1-2.79-3,2.83,2.83,0,0,1,2.88-3.07A2.75,2.75,0,0,1,94.6,194.78Zm-4.6.06c0,1.28.72,2.23,1.75,2.23s1.77-.94,1.77-2.26c0-1-.49-2.22-1.75-2.22S90,193.74,90,194.84Z"/><path class="cls-3" d="M95.93,193.74c0-.69,0-1.27-.05-1.81h.93l0,1.14h0a1.76,1.76,0,0,1,1.61-1.27,1.29,1.29,0,0,1,.29,0v1a1.79,1.79,0,0,0-.36,0A1.48,1.48,0,0,0,97,194.14a3.74,3.74,0,0,0,0,.49v3.1h-1Z"/><path class="cls-3" d="M103.39,196.66a2.86,2.86,0,0,0,1.4.41c.77,0,1.13-.38,1.13-.86s-.31-.78-1.08-1.07c-1-.37-1.55-.94-1.54-1.64a1.79,1.79,0,0,1,2-1.7,2.77,2.77,0,0,1,1.42.36l-.26.76a2.28,2.28,0,0,0-1.19-.34c-.62,0-1,.36-1,.8s.34.69,1.1,1c1,.37,1.52.87,1.52,1.74,0,1-.8,1.75-2.17,1.75a3.33,3.33,0,0,1-1.63-.41Z"/><path class="cls-3" d="M109.47,190.29a.66.66,0,1,1-1.31,0,.65.65,0,0,1,.66-.66A.63.63,0,0,1,109.47,190.29Zm-1.18,7.44v-5.8h1v5.8Z"/><path class="cls-3" d="M112.37,190.26v1.67h1.51v.8h-1.51v3.13c0,.72.2,1.13.79,1.13a2.08,2.08,0,0,0,.61-.08l0,.8a2.65,2.65,0,0,1-.94.15,1.47,1.47,0,0,1-1.14-.45,2.22,2.22,0,0,1-.41-1.51v-3.17h-.9v-.8h.9v-1.4Z"/><path class="cls-3" d="M122,197.73l-.09-.73h0a2.18,2.18,0,0,1-1.78.86,1.65,1.65,0,0,1-1.77-1.66c0-1.41,1.24-2.18,3.49-2.16v-.13a1.19,1.19,0,0,0-1.33-1.33A2.84,2.84,0,0,0,119,193l-.24-.7a3.67,3.67,0,0,1,1.92-.51c1.77,0,2.2,1.21,2.2,2.37v2.17a9.74,9.74,0,0,0,.09,1.39Zm-.16-3c-1.15,0-2.45.18-2.45,1.3a.93.93,0,0,0,1,1,1.46,1.46,0,0,0,1.42-1,1.32,1.32,0,0,0,0-.33Z"/><path class="cls-3" d="M124.54,193.5c0-.61,0-1.09-.05-1.57h.92l0,.94h0a2,2,0,0,1,1.83-1.07A1.71,1.71,0,0,1,129,193h0a2.34,2.34,0,0,1,.66-.75,1.94,1.94,0,0,1,1.27-.41c.78,0,1.92.5,1.92,2.52v3.41h-1v-3.28c0-1.12-.42-1.79-1.26-1.79a1.38,1.38,0,0,0-1.26,1,1.74,1.74,0,0,0-.08.53v3.59h-1v-3.48c0-.92-.41-1.59-1.21-1.59a1.46,1.46,0,0,0-1.31,1.06,1.67,1.67,0,0,0-.08.52v3.49h-1Z"/><path class="cls-3" d="M135.14,195a1.85,1.85,0,0,0,2,2,3.92,3.92,0,0,0,1.61-.3l.18.75a4.63,4.63,0,0,1-1.93.37,2.71,2.71,0,0,1-2.86-2.93c0-1.76,1-3.13,2.73-3.13a2.45,2.45,0,0,1,2.39,2.73,2,2,0,0,1,0,.49Zm3.08-.76a1.49,1.49,0,0,0-1.45-1.7,1.72,1.72,0,0,0-1.62,1.7Z"/><path class="cls-3" d="M141.82,190.26v1.67h1.52v.8h-1.52v3.13c0,.72.21,1.13.8,1.13a2.19,2.19,0,0,0,.61-.08l.05.8a2.65,2.65,0,0,1-.94.15,1.46,1.46,0,0,1-1.14-.45,2.22,2.22,0,0,1-.41-1.51v-3.17h-.9v-.8h.9v-1.4Z"/><path class="cls-3" d="M143.81,199.21a16.72,16.72,0,0,0,.72-2.87l1.18-.12a15,15,0,0,1-1.15,2.91Z"/><path class="cls-3" d="M154.8,197.52a4,4,0,0,1-1.67.34,2.76,2.76,0,0,1-2.89-3,3,3,0,0,1,3.11-3.09,3.4,3.4,0,0,1,1.47.31l-.23.81a2.57,2.57,0,0,0-1.24-.28,2.19,2.19,0,0,0,0,4.37,3.05,3.05,0,0,0,1.29-.28Z"/><path class="cls-3" d="M161.21,194.78a2.84,2.84,0,0,1-2.88,3.08,2.76,2.76,0,0,1-2.79-3,2.83,2.83,0,0,1,2.88-3.07A2.74,2.74,0,0,1,161.21,194.78Zm-4.59.06c0,1.28.72,2.23,1.75,2.23s1.77-.94,1.77-2.26c0-1-.49-2.22-1.75-2.22S156.62,193.74,156.62,194.84Z"/><path class="cls-3" d="M162.55,193.5c0-.61,0-1.09-.05-1.57h.94l.05.95h0a2.15,2.15,0,0,1,1.92-1.08c.8,0,2.05.48,2.05,2.47v3.46h-1.05v-3.34c0-.94-.36-1.73-1.34-1.73a1.53,1.53,0,0,0-1.43,1.09,1.75,1.75,0,0,0-.07.49v3.49h-1Z"/><path class="cls-3" d="M169.06,196.66a2.86,2.86,0,0,0,1.4.41c.77,0,1.13-.38,1.13-.86s-.31-.78-1.08-1.07c-1-.37-1.54-.94-1.54-1.64a1.79,1.79,0,0,1,2-1.7,2.81,2.81,0,0,1,1.43.36l-.27.76a2.25,2.25,0,0,0-1.19-.34c-.62,0-1,.36-1,.8s.34.69,1.1,1c1,.37,1.52.87,1.53,1.74,0,1-.8,1.75-2.17,1.75a3.27,3.27,0,0,1-1.63-.41Z"/><path class="cls-3" d="M174.55,195a1.86,1.86,0,0,0,2,2,4,4,0,0,0,1.61-.3l.18.75a4.65,4.65,0,0,1-1.94.37,2.7,2.7,0,0,1-2.85-2.93c0-1.76,1-3.13,2.73-3.13a2.45,2.45,0,0,1,2.39,2.73,2.72,2.72,0,0,1,0,.49Zm3.09-.76a1.49,1.49,0,0,0-1.45-1.7,1.72,1.72,0,0,0-1.62,1.7Z"/><path class="cls-3" d="M184.11,197.52a3.91,3.91,0,0,1-1.66.34,2.77,2.77,0,0,1-2.9-3,3,3,0,0,1,3.12-3.09,3.47,3.47,0,0,1,1.47.31l-.24.81a2.53,2.53,0,0,0-1.23-.28,2,2,0,0,0-2,2.2,2,2,0,0,0,2,2.17,3.05,3.05,0,0,0,1.29-.28Z"/><path class="cls-3" d="M186.77,190.26v1.67h1.52v.8h-1.52v3.13c0,.72.21,1.13.8,1.13a2.19,2.19,0,0,0,.61-.08l0,.8a2.65,2.65,0,0,1-.94.15,1.46,1.46,0,0,1-1.14-.45,2.22,2.22,0,0,1-.41-1.51v-3.17h-.9v-.8h.9v-1.4Z"/><path class="cls-3" d="M190,195a1.85,1.85,0,0,0,2,2,3.92,3.92,0,0,0,1.61-.3l.18.75a4.63,4.63,0,0,1-1.93.37,2.71,2.71,0,0,1-2.86-2.93c0-1.76,1-3.13,2.73-3.13a2.44,2.44,0,0,1,2.39,2.73,2,2,0,0,1,0,.49Zm3.08-.76a1.49,1.49,0,0,0-1.45-1.7,1.72,1.72,0,0,0-1.62,1.7Z"/><path class="cls-3" d="M196.68,190.26v1.67h1.52v.8h-1.52v3.13c0,.72.21,1.13.8,1.13a2.13,2.13,0,0,0,.61-.08l0,.8a2.65,2.65,0,0,1-.94.15,1.46,1.46,0,0,1-1.14-.45,2.22,2.22,0,0,1-.41-1.51v-3.17h-.9v-.8h.9v-1.4Z"/><path class="cls-3" d="M204.24,196.14c0,.61,0,1.13,0,1.59h-.93l-.06-.95h0a2.16,2.16,0,0,1-1.92,1.08c-.91,0-2-.51-2-2.54v-3.39h1.05v3.21c0,1.1.35,1.85,1.3,1.85a1.52,1.52,0,0,0,1.39-1,1.58,1.58,0,0,0,.1-.55v-3.55h1.05Z"/><path class="cls-3" d="M206,193.74c0-.69,0-1.27-.05-1.81h.93l0,1.14h0a1.76,1.76,0,0,1,1.62-1.27,1.29,1.29,0,0,1,.29,0v1a1.86,1.86,0,0,0-.36,0,1.48,1.48,0,0,0-1.41,1.35,2.56,2.56,0,0,0,0,.49v3.1H206Z"/><path class="cls-3" d="M216.82,197.73l-.09-.73h0a2.16,2.16,0,0,1-1.77.86,1.66,1.66,0,0,1-1.78-1.66c0-1.41,1.25-2.18,3.49-2.16v-.13a1.19,1.19,0,0,0-1.32-1.33,2.81,2.81,0,0,0-1.51.43l-.24-.7a3.63,3.63,0,0,1,1.91-.51c1.78,0,2.21,1.21,2.21,2.37v2.17a8.47,8.47,0,0,0,.09,1.39Zm-.16-3c-1.14,0-2.45.18-2.45,1.3a.93.93,0,0,0,1,1,1.45,1.45,0,0,0,1.41-1,1,1,0,0,0,0-.33Z"/><path class="cls-3" d="M224.4,189.22v7c0,.51,0,1.09,0,1.49h-.94l-.06-1h0a2.13,2.13,0,0,1-2,1.13,2.65,2.65,0,0,1-2.49-2.94c0-1.94,1.19-3.12,2.61-3.12a1.94,1.94,0,0,1,1.75.88h0v-3.46Zm-1.05,5.07a2.28,2.28,0,0,0,0-.45,1.56,1.56,0,0,0-1.53-1.21c-1.1,0-1.75,1-1.75,2.23s.59,2.16,1.73,2.16a1.6,1.6,0,0,0,1.54-1.27,2.14,2.14,0,0,0,0-.45Z"/><path class="cls-3" d="M227.34,190.29a.66.66,0,1,1-1.31,0,.65.65,0,0,1,.66-.66A.63.63,0,0,1,227.34,190.29Zm-1.18,7.44v-5.8h1.05v5.8Z"/><path class="cls-3" d="M229,193.82c0-.74,0-1.34-.05-1.89h.94l.06,1h0A2.26,2.26,0,0,1,232,191.8c1.41,0,2.46,1.18,2.46,2.94,0,2.09-1.28,3.12-2.63,3.12A2,2,0,0,1,230,197h0v3.16h-1Zm1,1.55a2,2,0,0,0,.05.43,1.62,1.62,0,0,0,1.58,1.24c1.12,0,1.76-.92,1.76-2.25,0-1.16-.61-2.15-1.72-2.15a1.68,1.68,0,0,0-1.6,1.3,2.14,2.14,0,0,0-.07.43Z"/><path class="cls-3" d="M237,190.29a.65.65,0,1,1-1.3,0,.64.64,0,0,1,.65-.66A.63.63,0,0,1,237,190.29Zm-1.17,7.44v-5.8h1v5.8Z"/><path class="cls-3" d="M238.45,196.66a2.89,2.89,0,0,0,1.4.41c.77,0,1.13-.38,1.13-.86s-.31-.78-1.08-1.07c-1.05-.37-1.54-.94-1.54-1.64a1.8,1.8,0,0,1,2-1.7,2.77,2.77,0,0,1,1.42.36l-.26.76a2.31,2.31,0,0,0-1.19-.34c-.63,0-1,.36-1,.8s.35.69,1.11,1c1,.37,1.51.87,1.52,1.74,0,1-.8,1.75-2.17,1.75a3.3,3.3,0,0,1-1.63-.41Z"/><path class="cls-3" d="M247.49,197.52a3.91,3.91,0,0,1-1.66.34,2.77,2.77,0,0,1-2.9-3,3,3,0,0,1,3.12-3.09,3.47,3.47,0,0,1,1.47.31l-.24.81a2.53,2.53,0,0,0-1.23-.28,2.19,2.19,0,0,0,0,4.37,3.05,3.05,0,0,0,1.29-.28Z"/><path class="cls-3" d="M249.91,190.29a.66.66,0,1,1-1.31,0,.65.65,0,0,1,.66-.66A.63.63,0,0,1,249.91,190.29Zm-1.18,7.44v-5.8h1.05v5.8Z"/><path class="cls-3" d="M251.54,193.5c0-.61,0-1.09,0-1.57h.93l.06.95h0a2.15,2.15,0,0,1,1.92-1.08c.8,0,2,.48,2,2.47v3.46h-1.05v-3.34c0-.94-.35-1.73-1.34-1.73a1.53,1.53,0,0,0-1.42,1.09,1.75,1.75,0,0,0-.07.49v3.49h-1.05Z"/><path class="cls-3" d="M263.2,191.93c0,.41,0,.88,0,1.59v3.37a3.38,3.38,0,0,1-.83,2.65,3.14,3.14,0,0,1-2.12.7,3.76,3.76,0,0,1-1.93-.48l.26-.81a3.31,3.31,0,0,0,1.71.46c1.08,0,1.87-.56,1.87-2v-.65h0a2,2,0,0,1-1.84,1,2.59,2.59,0,0,1-2.47-2.84,2.78,2.78,0,0,1,2.62-3.07,1.94,1.94,0,0,1,1.81,1h0l0-.87Zm-1.09,2.28a1.73,1.73,0,0,0-.06-.47,1.53,1.53,0,0,0-1.48-1.12c-1,0-1.73.85-1.73,2.2,0,1.13.59,2.09,1.72,2.09a1.54,1.54,0,0,0,1.46-1.09,1.77,1.77,0,0,0,.09-.56Z"/><path class="cls-3" d="M269.18,195a1.86,1.86,0,0,0,2,2,3.91,3.91,0,0,0,1.6-.3l.19.75a4.69,4.69,0,0,1-1.94.37,2.7,2.7,0,0,1-2.85-2.93c0-1.76,1-3.13,2.73-3.13a2.44,2.44,0,0,1,2.38,2.73,2.93,2.93,0,0,1,0,.49Zm3.09-.76a1.49,1.49,0,0,0-1.46-1.7,1.74,1.74,0,0,0-1.62,1.7Z"/><path class="cls-3" d="M274.6,189.22h1v8.51h-1Z"/><path class="cls-3" d="M278.61,190.29a.66.66,0,1,1-1.31,0,.65.65,0,0,1,.66-.66A.63.63,0,0,1,278.61,190.29Zm-1.18,7.44v-5.8h1.05v5.8Z"/><path class="cls-3" d="M281.51,190.26v1.67H283v.8h-1.51v3.13c0,.72.21,1.13.8,1.13a2.19,2.19,0,0,0,.61-.08l.05.8a2.76,2.76,0,0,1-1,.15,1.49,1.49,0,0,1-1.14-.45,2.22,2.22,0,0,1-.41-1.51v-3.17h-.89v-.8h.89v-1.4Z"/><path class="cls-3" d="M283.5,199.21a17.7,17.7,0,0,0,.72-2.87l1.17-.12a14.42,14.42,0,0,1-1.15,2.91Z"/><path class="cls-3" d="M290.2,196.66a2.82,2.82,0,0,0,1.39.41c.77,0,1.13-.38,1.13-.86s-.31-.78-1.08-1.07c-1-.37-1.54-.94-1.54-1.64a1.8,1.8,0,0,1,2-1.7,2.77,2.77,0,0,1,1.42.36l-.26.76a2.31,2.31,0,0,0-1.19-.34c-.63,0-1,.36-1,.8s.34.69,1.1,1c1,.37,1.52.87,1.52,1.74,0,1-.8,1.75-2.17,1.75a3.3,3.3,0,0,1-1.63-.41Z"/><path class="cls-3" d="M295.69,195a1.85,1.85,0,0,0,2,2,3.92,3.92,0,0,0,1.61-.3l.18.75a4.63,4.63,0,0,1-1.93.37,2.71,2.71,0,0,1-2.86-2.93c0-1.76,1-3.13,2.73-3.13a2.44,2.44,0,0,1,2.39,2.73,2,2,0,0,1,0,.49Zm3.08-.76a1.49,1.49,0,0,0-1.45-1.7,1.72,1.72,0,0,0-1.62,1.7Z"/><path class="cls-3" d="M306.11,189.22v7c0,.51,0,1.09.05,1.49h-.94l-.05-1h0a2.11,2.11,0,0,1-2,1.13,2.65,2.65,0,0,1-2.49-2.94c0-1.94,1.19-3.12,2.6-3.12a1.94,1.94,0,0,1,1.75.88h0v-3.46Zm-1,5.07a2.3,2.3,0,0,0-.05-.45,1.55,1.55,0,0,0-1.53-1.21c-1.09,0-1.74,1-1.74,2.23s.59,2.16,1.72,2.16a1.59,1.59,0,0,0,1.54-1.27,1.63,1.63,0,0,0,.06-.45Z"/><path class="cls-3" d="M7.88,206.22v7c0,.51,0,1.09,0,1.49H7l0-1h0a2.12,2.12,0,0,1-2,1.13,2.65,2.65,0,0,1-2.49-2.94c0-1.94,1.2-3.12,2.61-3.12a1.94,1.94,0,0,1,1.75.88h0v-3.46Zm-1,5.07a2.28,2.28,0,0,0,0-.45,1.55,1.55,0,0,0-1.53-1.21c-1.09,0-1.74,1-1.74,2.23S4.1,214,5.24,214a1.59,1.59,0,0,0,1.54-1.27,1.64,1.64,0,0,0,0-.45Z"/><path class="cls-3" d="M14.9,211.78A2.84,2.84,0,0,1,12,214.86a2.76,2.76,0,0,1-2.79-3,2.83,2.83,0,0,1,2.88-3.07A2.75,2.75,0,0,1,14.9,211.78Zm-4.6.06c0,1.28.73,2.23,1.75,2.23s1.77-.94,1.77-2.26c0-1-.49-2.22-1.75-2.22S10.3,210.74,10.3,211.84Z"/><path class="cls-3" d="M21.79,212a1.86,1.86,0,0,0,2,2,3.92,3.92,0,0,0,1.61-.3l.19.75a4.69,4.69,0,0,1-1.94.37,2.7,2.7,0,0,1-2.85-2.93c0-1.76,1-3.13,2.73-3.13a2.44,2.44,0,0,1,2.38,2.73,2.93,2.93,0,0,1,0,.49Zm3.09-.76a1.5,1.5,0,0,0-1.46-1.7,1.74,1.74,0,0,0-1.62,1.7Z"/><path class="cls-3" d="M28.39,207.29a.66.66,0,1,1-1.31,0,.65.65,0,0,1,.66-.66A.63.63,0,0,1,28.39,207.29Zm-1.18,7.44v-5.8h1.05v5.8Z"/><path class="cls-3" d="M34.87,213.14c0,.61,0,1.13.05,1.59H34l-.06-.95h0A2.16,2.16,0,0,1,32,214.86c-.91,0-2-.51-2-2.54v-3.39H31v3.21c0,1.1.35,1.85,1.3,1.85a1.52,1.52,0,0,0,1.39-1,1.58,1.58,0,0,0,.1-.55v-3.55h1Z"/><path class="cls-3" d="M36.48,213.66a2.86,2.86,0,0,0,1.4.41c.77,0,1.13-.38,1.13-.86s-.31-.78-1.08-1.07c-1-.37-1.54-.94-1.54-1.64a1.79,1.79,0,0,1,2-1.7,2.77,2.77,0,0,1,1.42.36l-.26.76a2.28,2.28,0,0,0-1.19-.34c-.62,0-1,.36-1,.8s.34.69,1.1,1c1,.37,1.52.87,1.53,1.74,0,1-.8,1.75-2.17,1.75a3.27,3.27,0,0,1-1.63-.41Z"/><path class="cls-3" d="M41.38,210.5c0-.61,0-1.09,0-1.57h.91l.06.94h0a2,2,0,0,1,1.83-1.07A1.71,1.71,0,0,1,45.8,210h0a2.21,2.21,0,0,1,.65-.75,2,2,0,0,1,1.28-.41c.77,0,1.91.5,1.91,2.52v3.41h-1v-3.28c0-1.12-.41-1.79-1.26-1.79a1.37,1.37,0,0,0-1.25,1,1.73,1.73,0,0,0-.09.53v3.59H45v-3.48c0-.92-.41-1.59-1.2-1.59a1.47,1.47,0,0,0-1.32,1.06,1.67,1.67,0,0,0-.08.52v3.49h-1Z"/><path class="cls-3" d="M56.64,211.78a2.84,2.84,0,0,1-2.88,3.08,2.76,2.76,0,0,1-2.79-3,2.83,2.83,0,0,1,2.88-3.07A2.74,2.74,0,0,1,56.64,211.78Zm-4.6.06c0,1.28.73,2.23,1.76,2.23s1.77-.94,1.77-2.26c0-1-.5-2.22-1.75-2.22S52,210.74,52,211.84Z"/><path class="cls-3" d="M63,206.22v7c0,.51,0,1.09,0,1.49h-.93l-.06-1h0a2.14,2.14,0,0,1-2,1.13,2.65,2.65,0,0,1-2.49-2.94c0-1.94,1.19-3.12,2.6-3.12a1.94,1.94,0,0,1,1.75.88h0v-3.46Zm-1,5.07a1.73,1.73,0,0,0-.05-.45,1.54,1.54,0,0,0-1.52-1.21c-1.1,0-1.75,1-1.75,2.23s.59,2.16,1.72,2.16a1.61,1.61,0,0,0,1.55-1.27,2.14,2.14,0,0,0,.05-.45Z"/><path class="cls-3" d="M71,207.26v1.67h1.52v.8H71v3.13c0,.72.21,1.13.8,1.13a2.19,2.19,0,0,0,.61-.08l0,.8a2.7,2.7,0,0,1-.94.15,1.46,1.46,0,0,1-1.14-.45A2.22,2.22,0,0,1,70,212.9v-3.17h-.9v-.8H70v-1.4Z"/><path class="cls-3" d="M74.22,212a1.85,1.85,0,0,0,2,2,3.92,3.92,0,0,0,1.61-.3l.18.75a4.63,4.63,0,0,1-1.93.37,2.71,2.71,0,0,1-2.86-2.93c0-1.76,1-3.13,2.73-3.13a2.45,2.45,0,0,1,2.39,2.73,2,2,0,0,1,0,.49Zm3.08-.76a1.49,1.49,0,0,0-1.45-1.7,1.72,1.72,0,0,0-1.62,1.7Z"/><path class="cls-3" d="M79.64,210.5c0-.61,0-1.09,0-1.57h.92l0,.94h0a2,2,0,0,1,1.83-1.07A1.71,1.71,0,0,1,84.06,210h0a2.23,2.23,0,0,1,.66-.75A1.92,1.92,0,0,1,86,208.8c.78,0,1.92.5,1.92,2.52v3.41h-1v-3.28c0-1.12-.42-1.79-1.26-1.79a1.38,1.38,0,0,0-1.26,1,1.74,1.74,0,0,0-.08.53v3.59h-1v-3.48c0-.92-.41-1.59-1.21-1.59a1.45,1.45,0,0,0-1.31,1.06,1.42,1.42,0,0,0-.08.52v3.49h-1Z"/><path class="cls-3" d="M89.64,210.82c0-.74,0-1.34,0-1.89h1l.06,1h0a2.26,2.26,0,0,1,2.06-1.12c1.4,0,2.46,1.18,2.46,2.94,0,2.09-1.28,3.12-2.64,3.12a2,2,0,0,1-1.78-.91h0v3.16h-1Zm1,1.55a2,2,0,0,0,0,.43A1.62,1.62,0,0,0,92.31,214c1.12,0,1.77-.92,1.77-2.25,0-1.16-.61-2.15-1.73-2.15a1.68,1.68,0,0,0-1.59,1.3,1.61,1.61,0,0,0-.07.43Z"/><path class="cls-3" d="M101.73,211.78a2.84,2.84,0,0,1-2.88,3.08,2.76,2.76,0,0,1-2.79-3,2.83,2.83,0,0,1,2.88-3.07A2.74,2.74,0,0,1,101.73,211.78Zm-4.59.06c0,1.28.72,2.23,1.75,2.23s1.77-.94,1.77-2.26c0-1-.49-2.22-1.75-2.22S97.14,210.74,97.14,211.84Z"/><path class="cls-3" d="M103.07,210.74c0-.69,0-1.27,0-1.81H104l0,1.14h0a1.77,1.77,0,0,1,1.62-1.27,1.29,1.29,0,0,1,.29,0v1a1.79,1.79,0,0,0-.36,0,1.48,1.48,0,0,0-1.41,1.35,2.56,2.56,0,0,0,0,.49v3.1h-1.05Z"/><path class="cls-3" d="M113.14,207.29a.66.66,0,1,1-1.31,0,.65.65,0,0,1,.66-.66A.63.63,0,0,1,113.14,207.29ZM112,214.73v-5.8H113v5.8Z"/><path class="cls-3" d="M114.77,210.5c0-.61,0-1.09,0-1.57h.93l.06.95h0a2.15,2.15,0,0,1,1.92-1.08c.8,0,2,.48,2,2.47v3.46h-1v-3.34c0-.94-.35-1.73-1.34-1.73a1.53,1.53,0,0,0-1.42,1.09,1.75,1.75,0,0,0-.07.49v3.49h-1Z"/><path class="cls-3" d="M125.57,214.52a4,4,0,0,1-1.67.34,2.76,2.76,0,0,1-2.89-3,3,3,0,0,1,3.11-3.09,3.4,3.4,0,0,1,1.47.31l-.23.81a2.57,2.57,0,0,0-1.24-.28,2.19,2.19,0,0,0,0,4.37,3.05,3.05,0,0,0,1.29-.28Z"/><path class="cls-3" d="M128,207.29a.65.65,0,0,1-.68.66.63.63,0,0,1-.63-.66.66.66,0,1,1,1.31,0Zm-1.18,7.44v-5.8h1v5.8Z"/><path class="cls-3" d="M134.62,206.22v7c0,.51,0,1.09,0,1.49h-.94l0-1h0a2.12,2.12,0,0,1-2,1.13,2.65,2.65,0,0,1-2.49-2.94c0-1.94,1.2-3.12,2.61-3.12a1.94,1.94,0,0,1,1.75.88h0v-3.46Zm-1.05,5.07a2.28,2.28,0,0,0,0-.45,1.56,1.56,0,0,0-1.53-1.21c-1.09,0-1.75,1-1.75,2.23S130.84,214,132,214a1.6,1.6,0,0,0,1.54-1.27,1.64,1.64,0,0,0,0-.45Z"/><path class="cls-3" d="M137.56,207.29a.66.66,0,1,1-1.31,0,.65.65,0,0,1,.66-.66A.63.63,0,0,1,137.56,207.29Zm-1.18,7.44v-5.8h1.05v5.8Z"/><path class="cls-3" d="M144.2,206.22v7c0,.51,0,1.09,0,1.49h-.93l-.06-1h0a2.14,2.14,0,0,1-2,1.13,2.65,2.65,0,0,1-2.49-2.94c0-1.94,1.19-3.12,2.6-3.12a1.94,1.94,0,0,1,1.75.88h0v-3.46Zm-1,5.07a1.73,1.73,0,0,0-.05-.45,1.54,1.54,0,0,0-1.52-1.21c-1.1,0-1.75,1-1.75,2.23s.59,2.16,1.72,2.16a1.61,1.61,0,0,0,1.55-1.27,2.14,2.14,0,0,0,.05-.45Z"/><path class="cls-3" d="M150.81,213.14c0,.61,0,1.13.05,1.59h-.94l0-.95h0a2.16,2.16,0,0,1-1.92,1.08c-.91,0-2-.51-2-2.54v-3.39H147v3.21c0,1.1.35,1.85,1.3,1.85a1.53,1.53,0,0,0,1.39-1,1.58,1.58,0,0,0,.1-.55v-3.55h1.05Z"/><path class="cls-3" d="M152.57,210.5c0-.61,0-1.09,0-1.57h.93l.06.95h0a2.15,2.15,0,0,1,1.92-1.08c.8,0,2,.48,2,2.47v3.46h-1.05v-3.34c0-.94-.35-1.73-1.34-1.73a1.53,1.53,0,0,0-1.42,1.09,1.75,1.75,0,0,0-.07.49v3.49h-1.05Z"/><path class="cls-3" d="M160.45,207.26v1.67H162v.8h-1.51v3.13c0,.72.21,1.13.8,1.13a2.19,2.19,0,0,0,.61-.08l0,.8a2.76,2.76,0,0,1-.95.15,1.49,1.49,0,0,1-1.14-.45,2.22,2.22,0,0,1-.41-1.51v-3.17h-.89v-.8h.89v-1.4Z"/><path class="cls-3" d="M173,213.14c0,.61,0,1.13.05,1.59h-.93l-.06-.95h0a2.16,2.16,0,0,1-1.92,1.08c-.91,0-2-.51-2-2.54v-3.39h1v3.21c0,1.1.35,1.85,1.3,1.85a1.54,1.54,0,0,0,1.4-1,1.86,1.86,0,0,0,.09-.55v-3.55H173Z"/><path class="cls-3" d="M176,207.26v1.67h1.51v.8H176v3.13c0,.72.21,1.13.8,1.13a2.19,2.19,0,0,0,.61-.08l.05.8a2.76,2.76,0,0,1-1,.15,1.49,1.49,0,0,1-1.14-.45,2.22,2.22,0,0,1-.4-1.51v-3.17h-.9v-.8h.9v-1.4Z"/><path class="cls-3" d="M183.67,206.22h1.05v8.51h-1.05Z"/><path class="cls-3" d="M189.72,214.73l-.09-.73h0a2.14,2.14,0,0,1-1.77.86,1.65,1.65,0,0,1-1.77-1.66c0-1.41,1.24-2.18,3.48-2.16v-.13a1.19,1.19,0,0,0-1.32-1.33,2.84,2.84,0,0,0-1.51.43l-.24-.7a3.67,3.67,0,0,1,1.92-.51c1.77,0,2.2,1.21,2.2,2.37v2.17a9.74,9.74,0,0,0,.09,1.39Zm-.16-3c-1.15,0-2.45.18-2.45,1.3a.93.93,0,0,0,1,1,1.43,1.43,0,0,0,1.41-1,1,1,0,0,0,.06-.33Z"/><path class="cls-3" d="M192.24,214.73c0-.4,0-1,0-1.49v-7h1v3.64h0a2.15,2.15,0,0,1,2-1.06c1.44,0,2.45,1.2,2.44,2.95,0,2.08-1.31,3.11-2.61,3.11a2.1,2.1,0,0,1-1.94-1.08h0l0,.95Zm1.09-2.32a1.58,1.58,0,0,0,0,.38A1.63,1.63,0,0,0,195,214c1.11,0,1.76-.9,1.76-2.23,0-1.16-.6-2.16-1.73-2.16a1.7,1.7,0,0,0-1.6,1.3,1.78,1.78,0,0,0-.06.43Z"/><path class="cls-3" d="M204.38,211.78a2.84,2.84,0,0,1-2.89,3.08,2.76,2.76,0,0,1-2.79-3,2.83,2.83,0,0,1,2.88-3.07A2.75,2.75,0,0,1,204.38,211.78Zm-4.6.06c0,1.28.73,2.23,1.76,2.23s1.76-.94,1.76-2.26c0-1-.49-2.22-1.74-2.22S199.78,210.74,199.78,211.84Z"/><path class="cls-3" d="M205.71,210.74c0-.69,0-1.27-.05-1.81h.93l0,1.14h0a1.76,1.76,0,0,1,1.61-1.27,1.39,1.39,0,0,1,.3,0v1a1.94,1.94,0,0,0-.36,0,1.48,1.48,0,0,0-1.42,1.35,3.74,3.74,0,0,0,0,.49v3.1h-1Z"/><path class="cls-3" d="M210.11,212a1.85,1.85,0,0,0,2,2,3.92,3.92,0,0,0,1.61-.3l.19.75a4.69,4.69,0,0,1-1.94.37,2.7,2.7,0,0,1-2.85-2.93c0-1.76,1-3.13,2.73-3.13a2.44,2.44,0,0,1,2.38,2.73,2.93,2.93,0,0,1,0,.49Zm3.09-.76a1.5,1.5,0,0,0-1.46-1.7,1.73,1.73,0,0,0-1.62,1.7Z"/><path class="cls-3" d="M221.09,212a1.85,1.85,0,0,0,2,2,3.92,3.92,0,0,0,1.61-.3l.18.75a4.63,4.63,0,0,1-1.93.37,2.71,2.71,0,0,1-2.86-2.93c0-1.76,1-3.13,2.73-3.13a2.44,2.44,0,0,1,2.39,2.73,2.93,2.93,0,0,1,0,.49Zm3.08-.76a1.49,1.49,0,0,0-1.45-1.7,1.72,1.72,0,0,0-1.62,1.7Z"/><path class="cls-3" d="M227.78,207.26v1.67h1.51v.8h-1.51v3.13c0,.72.2,1.13.79,1.13a2.08,2.08,0,0,0,.61-.08l0,.8a2.65,2.65,0,0,1-.94.15,1.47,1.47,0,0,1-1.14-.45,2.22,2.22,0,0,1-.41-1.51v-3.17h-.9v-.8h.9v-1.4Z"/><path class="cls-3" d="M240.45,206.22v7c0,.51,0,1.09.05,1.49h-.94l-.05-1h0a2.12,2.12,0,0,1-2,1.13,2.65,2.65,0,0,1-2.49-2.94c0-1.94,1.2-3.12,2.61-3.12a1.94,1.94,0,0,1,1.75.88h0v-3.46Zm-1,5.07a2.3,2.3,0,0,0,0-.45,1.55,1.55,0,0,0-1.53-1.21c-1.09,0-1.74,1-1.74,2.23s.58,2.16,1.72,2.16a1.59,1.59,0,0,0,1.54-1.27,1.63,1.63,0,0,0,.06-.45Z"/><path class="cls-3" d="M247.47,211.78a2.84,2.84,0,0,1-2.89,3.08,2.76,2.76,0,0,1-2.79-3,2.83,2.83,0,0,1,2.88-3.07A2.75,2.75,0,0,1,247.47,211.78Zm-4.6.06c0,1.28.73,2.23,1.75,2.23s1.77-.94,1.77-2.26c0-1-.49-2.22-1.75-2.22S242.87,210.74,242.87,211.84Z"/><path class="cls-3" d="M248.8,206.22h1v8.51h-1Z"/><path class="cls-3" d="M256.89,211.78a2.84,2.84,0,0,1-2.89,3.08,2.76,2.76,0,0,1-2.79-3,2.83,2.83,0,0,1,2.88-3.07A2.75,2.75,0,0,1,256.89,211.78Zm-4.6.06c0,1.28.73,2.23,1.75,2.23s1.77-.94,1.77-2.26c0-1-.49-2.22-1.75-2.22S252.29,210.74,252.29,211.84Z"/><path class="cls-3" d="M258.22,210.74c0-.69,0-1.27-.05-1.81h.93l0,1.14h0a1.76,1.76,0,0,1,1.61-1.27,1.23,1.23,0,0,1,.29,0v1a1.75,1.75,0,0,0-.35,0,1.48,1.48,0,0,0-1.42,1.35,3.74,3.74,0,0,0,0,.49v3.1h-1Z"/><path class="cls-3" d="M262.62,212a1.85,1.85,0,0,0,2,2,3.92,3.92,0,0,0,1.61-.3l.18.75a4.63,4.63,0,0,1-1.93.37,2.71,2.71,0,0,1-2.86-2.93c0-1.76,1-3.13,2.73-3.13a2.44,2.44,0,0,1,2.39,2.73,2,2,0,0,1,0,.49Zm3.08-.76a1.49,1.49,0,0,0-1.45-1.7,1.72,1.72,0,0,0-1.62,1.7Z"/><path class="cls-3" d="M273,210.5c0-.61,0-1.09-.05-1.57h.91l.06.94h0a2,2,0,0,1,1.83-1.07,1.71,1.71,0,0,1,1.64,1.16h0a2.32,2.32,0,0,1,.65-.75,2,2,0,0,1,1.28-.41c.77,0,1.91.5,1.91,2.52v3.41h-1v-3.28c0-1.12-.41-1.79-1.25-1.79a1.38,1.38,0,0,0-1.26,1,1.73,1.73,0,0,0-.09.53v3.59h-1v-3.48c0-.92-.41-1.59-1.21-1.59a1.45,1.45,0,0,0-1.31,1.06,1.42,1.42,0,0,0-.08.52v3.49h-1Z"/><path class="cls-3" d="M286.23,214.73l-.09-.73h0a2.14,2.14,0,0,1-1.77.86,1.65,1.65,0,0,1-1.77-1.66c0-1.41,1.24-2.18,3.48-2.16v-.13a1.19,1.19,0,0,0-1.32-1.33,2.84,2.84,0,0,0-1.51.43l-.24-.7a3.67,3.67,0,0,1,1.92-.51c1.77,0,2.2,1.21,2.2,2.37v2.17a9.74,9.74,0,0,0,.09,1.39Zm-.16-3c-1.15,0-2.45.18-2.45,1.3a.93.93,0,0,0,1,1,1.46,1.46,0,0,0,1.42-1,1.32,1.32,0,0,0,.05-.33Z"/><path class="cls-3" d="M293.8,208.93c0,.41-.05.88-.05,1.59v3.37a3.38,3.38,0,0,1-.82,2.65,3.16,3.16,0,0,1-2.12.7,3.76,3.76,0,0,1-1.93-.48l.26-.81a3.29,3.29,0,0,0,1.71.46c1.07,0,1.87-.56,1.87-2v-.65h0a2.05,2.05,0,0,1-1.84,1,2.59,2.59,0,0,1-2.47-2.84A2.77,2.77,0,0,1,291,208.8a1.92,1.92,0,0,1,1.81,1h0l0-.87Zm-1.1,2.28a1.74,1.74,0,0,0-.05-.47,1.54,1.54,0,0,0-1.49-1.12c-1,0-1.72.85-1.72,2.2,0,1.13.58,2.09,1.71,2.09a1.54,1.54,0,0,0,1.47-1.09,1.77,1.77,0,0,0,.08-.56Z"/><path class="cls-3" d="M295.43,210.5c0-.61,0-1.09,0-1.57h.93l.06.95h0a2.14,2.14,0,0,1,1.91-1.08c.8,0,2.05.48,2.05,2.47v3.46h-1.05v-3.34c0-.94-.36-1.73-1.34-1.73a1.51,1.51,0,0,0-1.42,1.09,1.44,1.44,0,0,0-.08.49v3.49h-1.05Z"/><path class="cls-3" d="M305.31,214.73l-.09-.73h0a2.14,2.14,0,0,1-1.77.86,1.65,1.65,0,0,1-1.77-1.66c0-1.41,1.24-2.18,3.48-2.16v-.13a1.19,1.19,0,0,0-1.32-1.33,2.84,2.84,0,0,0-1.51.43l-.24-.7a3.67,3.67,0,0,1,1.92-.51c1.77,0,2.2,1.21,2.2,2.37v2.17a9.74,9.74,0,0,0,.09,1.39Zm-.16-3c-1.15,0-2.45.18-2.45,1.3a.93.93,0,0,0,1,1,1.46,1.46,0,0,0,1.42-1,1.32,1.32,0,0,0,0-.33Z"/><path class="cls-3" d="M6.09,231.73,6,231H6a2.18,2.18,0,0,1-1.78.86,1.65,1.65,0,0,1-1.77-1.66c0-1.41,1.25-2.18,3.49-2.16v-.13a1.19,1.19,0,0,0-1.32-1.33,2.81,2.81,0,0,0-1.51.43l-.24-.7a3.63,3.63,0,0,1,1.91-.51C6.52,225.8,7,227,7,228.17v2.17A9.83,9.83,0,0,0,7,231.73Zm-.16-3c-1.14,0-2.45.18-2.45,1.3a.93.93,0,0,0,1,1,1.45,1.45,0,0,0,1.41-1,1,1,0,0,0,0-.33Z"/><path class="cls-3" d="M8.66,223.22H9.71v8.51H8.66Z"/><path class="cls-3" d="M12.67,224.29a.66.66,0,1,1-1.31,0,.65.65,0,0,1,.66-.66A.63.63,0,0,1,12.67,224.29Zm-1.18,7.44v-5.8h1v5.8Z"/><path class="cls-3" d="M18.26,230.84h0a2.07,2.07,0,0,1-1.89,1,2.64,2.64,0,0,1-2.46-2.93c0-2.18,1.4-3.13,2.63-3.13a1.9,1.9,0,0,1,1.78,1h0l0-.87h1c0,.48,0,1,0,1.59v6.59h-1Zm0-2.56a1.61,1.61,0,0,0-1.56-1.65c-1.1,0-1.76.93-1.76,2.23S15.5,231,16.66,231a1.57,1.57,0,0,0,1.51-1.14,1.48,1.48,0,0,0,.09-.51Z"/><path class="cls-3" d="M25.91,230.14c0,.61,0,1.13.05,1.59H25l-.05-.95h0A2.16,2.16,0,0,1,23,231.86c-.91,0-2-.51-2-2.54v-3.39h1.05v3.21c0,1.1.34,1.85,1.3,1.85a1.53,1.53,0,0,0,1.39-1,1.58,1.58,0,0,0,.1-.55v-3.55h1.05Z"/><path class="cls-3" d="M30.89,231.73l-.1-.73h0a2.16,2.16,0,0,1-1.77.86,1.66,1.66,0,0,1-1.78-1.66c0-1.41,1.25-2.18,3.49-2.16v-.13a1.19,1.19,0,0,0-1.32-1.33,2.84,2.84,0,0,0-1.51.43l-.24-.7a3.63,3.63,0,0,1,1.91-.51c1.78,0,2.21,1.21,2.21,2.37v2.17a8.47,8.47,0,0,0,.09,1.39Zm-.17-3c-1.14,0-2.45.18-2.45,1.3a.93.93,0,0,0,1,1,1.45,1.45,0,0,0,1.41-1,1,1,0,0,0,0-.33Z"/><path class="cls-3" d="M33.2,231.11a.72.72,0,0,1,.72-.76.76.76,0,1,1-.72.76Z"/><path class="cls-3" d="M39.56,223.65v4.79c0,1.8.8,2.57,1.89,2.57s2-.8,2-2.57v-4.79h1.05v4.71c0,2.49-1.3,3.5-3.06,3.5s-2.89-.94-2.89-3.45v-4.76Z"/><path class="cls-3" d="M47.57,224.26v1.67h1.52v.8H47.57v3.13c0,.72.21,1.13.8,1.13a2.19,2.19,0,0,0,.61-.08l.05.8a2.7,2.7,0,0,1-.94.15,1.46,1.46,0,0,1-1.14-.45,2.22,2.22,0,0,1-.41-1.51v-3.17h-.9v-.8h.9v-1.4Z"/><path class="cls-3" d="M53.41,229a1.86,1.86,0,0,0,2,2,3.91,3.91,0,0,0,1.6-.3l.19.75a4.69,4.69,0,0,1-1.94.37,2.7,2.7,0,0,1-2.85-2.93c0-1.76,1-3.13,2.73-3.13a2.44,2.44,0,0,1,2.38,2.73,2.93,2.93,0,0,1,0,.49Zm3.09-.76a1.49,1.49,0,0,0-1.46-1.7,1.74,1.74,0,0,0-1.62,1.7Z"/><path class="cls-3" d="M58.83,227.5c0-.61,0-1.09,0-1.57h.93l.06.95h0a2.15,2.15,0,0,1,1.92-1.08c.8,0,2.05.48,2.05,2.47v3.46H62.72v-3.34c0-.94-.36-1.73-1.34-1.73A1.53,1.53,0,0,0,60,227.75a1.75,1.75,0,0,0-.07.49v3.49H58.83Z"/><path class="cls-3" d="M66.67,224.29a.66.66,0,1,1-1.31,0,.65.65,0,0,1,.66-.66A.63.63,0,0,1,66.67,224.29Zm-1.18,7.44v-5.8h1.05v5.8Z"/><path class="cls-3" d="M68.3,227.5c0-.61,0-1.09,0-1.57h.92l.06.94h0a2,2,0,0,1,1.84-1.07A1.71,1.71,0,0,1,72.72,227h0a2.34,2.34,0,0,1,.66-.75,2,2,0,0,1,1.28-.41c.77,0,1.91.5,1.91,2.52v3.41h-1v-3.28c0-1.12-.41-1.79-1.26-1.79a1.37,1.37,0,0,0-1.25,1,1.73,1.73,0,0,0-.09.53v3.59h-1v-3.48c0-.92-.41-1.59-1.2-1.59a1.47,1.47,0,0,0-1.32,1.06,1.67,1.67,0,0,0-.08.52v3.49h-1Z"/><path class="cls-3" d="M84.07,231.73,84,231h0a2.14,2.14,0,0,1-1.77.86,1.65,1.65,0,0,1-1.77-1.66c0-1.41,1.24-2.18,3.48-2.16v-.13a1.19,1.19,0,0,0-1.32-1.33,2.84,2.84,0,0,0-1.51.43l-.24-.7a3.67,3.67,0,0,1,1.92-.51c1.77,0,2.2,1.21,2.2,2.37v2.17a8.47,8.47,0,0,0,.09,1.39Zm-.17-3c-1.14,0-2.44.18-2.44,1.3a.93.93,0,0,0,1,1,1.44,1.44,0,0,0,1.41-1,1,1,0,0,0,.05-.33Z"/><path class="cls-3" d="M91.64,223.22v7c0,.51,0,1.09,0,1.49h-.94l0-1h0a2.12,2.12,0,0,1-2,1.13,2.65,2.65,0,0,1-2.49-2.94c0-1.94,1.2-3.12,2.61-3.12a1.94,1.94,0,0,1,1.75.88h0v-3.46Zm-1,5.07a2.28,2.28,0,0,0,0-.45A1.55,1.55,0,0,0,89,226.63c-1.09,0-1.74,1-1.74,2.23S87.86,231,89,231a1.59,1.59,0,0,0,1.54-1.27,1.64,1.64,0,0,0,0-.45Z"/><path class="cls-3" d="M96,227.5c0-.61,0-1.09,0-1.57h.92l.05.94h0a2,2,0,0,1,1.83-1.07,1.71,1.71,0,0,1,1.64,1.16h0a2.34,2.34,0,0,1,.66-.75,1.94,1.94,0,0,1,1.27-.41c.78,0,1.92.5,1.92,2.52v3.41h-1v-3.28c0-1.12-.42-1.79-1.26-1.79a1.38,1.38,0,0,0-1.26,1,1.74,1.74,0,0,0-.08.53v3.59h-1v-3.48c0-.92-.41-1.59-1.21-1.59a1.46,1.46,0,0,0-1.31,1.06,1.67,1.67,0,0,0-.08.52v3.49H96Z"/><path class="cls-3" d="M107.14,224.29a.65.65,0,0,1-.68.66.63.63,0,0,1-.63-.66.66.66,0,1,1,1.31,0ZM106,231.73v-5.8H107v5.8Z"/><path class="cls-3" d="M108.76,227.5c0-.61,0-1.09,0-1.57h.93l.06.95h0a2.14,2.14,0,0,1,1.91-1.08c.8,0,2,.48,2,2.47v3.46h-1v-3.34c0-.94-.35-1.73-1.34-1.73a1.53,1.53,0,0,0-1.42,1.09,1.44,1.44,0,0,0-.08.49v3.49h-1Z"/><path class="cls-3" d="M116.6,224.29a.64.64,0,0,1-.67.66.62.62,0,0,1-.63-.66.65.65,0,1,1,1.3,0Zm-1.18,7.44v-5.8h1v5.8Z"/><path class="cls-3" d="M118.23,227.5c0-.61,0-1.09,0-1.57h.92l.06.94h0A2,2,0,0,1,121,225.8a1.71,1.71,0,0,1,1.63,1.16h0a2.21,2.21,0,0,1,.65-.75,2,2,0,0,1,1.28-.41c.77,0,1.91.5,1.91,2.52v3.41h-1v-3.28c0-1.12-.41-1.79-1.26-1.79a1.37,1.37,0,0,0-1.25,1,1.73,1.73,0,0,0-.09.53v3.59h-1v-3.48c0-.92-.41-1.59-1.2-1.59a1.47,1.47,0,0,0-1.32,1.06,1.67,1.67,0,0,0-.08.52v3.49h-1Z"/><path class="cls-3" d="M131.19,225.93l1.14,3.25c.19.54.34,1,.47,1.5h0c.14-.48.3-1,.49-1.5l1.13-3.25h1.11l-2.28,5.8h-1l-2.21-5.8Z"/><path class="cls-3" d="M137,229a1.85,1.85,0,0,0,2,2,3.92,3.92,0,0,0,1.61-.3l.18.75a4.63,4.63,0,0,1-1.93.37,2.71,2.71,0,0,1-2.86-2.93c0-1.76,1-3.13,2.73-3.13a2.44,2.44,0,0,1,2.39,2.73,2,2,0,0,1,0,.49Zm3.08-.76a1.49,1.49,0,0,0-1.45-1.7,1.72,1.72,0,0,0-1.62,1.7Z"/><path class="cls-3" d="M142.45,227.5c0-.61,0-1.09,0-1.57h.93l.06.95h0a2.14,2.14,0,0,1,1.92-1.08c.79,0,2,.48,2,2.47v3.46h-1v-3.34c0-.94-.35-1.73-1.34-1.73a1.53,1.53,0,0,0-1.42,1.09,1.75,1.75,0,0,0-.07.49v3.49h-1.05Z"/><path class="cls-3" d="M150.29,224.29a.64.64,0,0,1-.67.66.63.63,0,0,1-.64-.66.65.65,0,0,1,.66-.66A.64.64,0,0,1,150.29,224.29Zm-1.18,7.44v-5.8h1v5.8Z"/><path class="cls-3" d="M155.13,231.73,155,231h0a2.18,2.18,0,0,1-1.78.86,1.65,1.65,0,0,1-1.77-1.66c0-1.41,1.25-2.18,3.49-2.16v-.13a1.19,1.19,0,0,0-1.32-1.33,2.81,2.81,0,0,0-1.51.43l-.24-.7a3.63,3.63,0,0,1,1.91-.51c1.77,0,2.21,1.21,2.21,2.37v2.17a9.83,9.83,0,0,0,.08,1.39Zm-.16-3c-1.14,0-2.45.18-2.45,1.3a.93.93,0,0,0,1,1,1.46,1.46,0,0,0,1.42-1,1.32,1.32,0,0,0,.05-.33Z"/><path class="cls-3" d="M157.7,227.5c0-.61,0-1.09,0-1.57h.92l.05.94h0a2,2,0,0,1,1.83-1.07,1.71,1.71,0,0,1,1.64,1.16h0a2.34,2.34,0,0,1,.66-.75,1.94,1.94,0,0,1,1.27-.41c.78,0,1.92.5,1.92,2.52v3.41h-1v-3.28c0-1.12-.41-1.79-1.26-1.79a1.37,1.37,0,0,0-1.25,1,1.73,1.73,0,0,0-.09.53v3.59h-1v-3.48c0-.92-.41-1.59-1.21-1.59a1.46,1.46,0,0,0-1.31,1.06,1.67,1.67,0,0,0-.08.52v3.49h-1Z"/><path class="cls-3" d="M167,233.21a17.7,17.7,0,0,0,.72-2.87l1.17-.12a14.42,14.42,0,0,1-1.15,2.91Z"/><text class="cls-4" transform="translate(2.73 282.39)"><tspan class="cls-5">T</tspan><tspan x="7.55" y="0">otal </tspan><tspan class="cls-6" x="39.84" y="0">R</tspan><tspan class="cls-7" x="49.71" y="0">aise</tspan></text><text class="cls-4" transform="translate(2.57 313.41)"><tspan class="cls-8">S</tspan><tspan x="9.09" y="0">ta</tspan><tspan class="cls-6" x="23.33" y="0">r</tspan><tspan class="cls-7" x="28.96" y="0">ts</tspan></text><text class="cls-9" transform="translate(2.36 342.41)">P<tspan class="cls-7" x="9.02" y="0">rice</tspan></text><rect class="cls-10" y="394.58" width="305" height="11" rx="5.5"/><path class="cls-3" d="M2.78,381.29c0-.68,0-1.27,0-1.81h.93l0,1.14h0a1.76,1.76,0,0,1,1.61-1.27,1.39,1.39,0,0,1,.3,0v1a1.94,1.94,0,0,0-.36,0,1.48,1.48,0,0,0-1.42,1.35,3.75,3.75,0,0,0,0,.5v3.09H2.78Z"/><path class="cls-3" d="M7.18,382.57a1.85,1.85,0,0,0,2,2,3.92,3.92,0,0,0,1.61-.3L11,385a4.69,4.69,0,0,1-1.94.37,2.7,2.7,0,0,1-2.85-2.93c0-1.76,1-3.13,2.73-3.13a2.44,2.44,0,0,1,2.38,2.73,2.93,2.93,0,0,1,0,.49Zm3.09-.75a1.5,1.5,0,0,0-1.46-1.71,1.73,1.73,0,0,0-1.62,1.71Z"/><path class="cls-3" d="M17.61,379.48c0,.41-.05.89-.05,1.59v3.37a3.37,3.37,0,0,1-.83,2.65,3.08,3.08,0,0,1-2.11.7,3.67,3.67,0,0,1-1.94-.48l.26-.81a3.31,3.31,0,0,0,1.71.47c1.08,0,1.87-.57,1.87-2v-.64h0a2,2,0,0,1-1.84,1,2.6,2.6,0,0,1-2.47-2.83,2.78,2.78,0,0,1,2.62-3.08,1.94,1.94,0,0,1,1.81,1h0l0-.87Zm-1.1,2.29a1.8,1.8,0,0,0-.06-.48A1.52,1.52,0,0,0,15,380.17c-1,0-1.73.85-1.73,2.2,0,1.13.59,2.09,1.72,2.09a1.55,1.55,0,0,0,1.47-1.09,2,2,0,0,0,.08-.56Z"/><path class="cls-3" d="M20.42,377.84a.65.65,0,0,1-.68.66.63.63,0,0,1-.63-.66.66.66,0,0,1,1.31,0Zm-1.18,7.44v-5.8h1.05v5.8Z"/><path class="cls-3" d="M21.9,384.21a2.82,2.82,0,0,0,1.39.41c.77,0,1.13-.37,1.13-.86s-.31-.77-1.08-1.06c-1.05-.38-1.54-.95-1.54-1.65a1.8,1.8,0,0,1,2-1.7,2.77,2.77,0,0,1,1.42.36l-.26.77a2.3,2.3,0,0,0-1.19-.35c-.63,0-1,.36-1,.8s.34.69,1.1,1c1,.37,1.52.88,1.52,1.74,0,1-.8,1.75-2.17,1.75a3.3,3.3,0,0,1-1.63-.4Z"/><path class="cls-3" d="M28.06,377.81v1.67h1.52v.8H28.06v3.13c0,.72.21,1.13.8,1.13a1.87,1.87,0,0,0,.61-.08l.05.8a2.48,2.48,0,0,1-.94.15,1.46,1.46,0,0,1-1.14-.45,2.22,2.22,0,0,1-.41-1.51v-3.17h-.9v-.8H27v-1.39Z"/><path class="cls-3" d="M30.77,381.29c0-.68,0-1.27-.05-1.81h.92l0,1.14h0a1.76,1.76,0,0,1,1.62-1.27,1.36,1.36,0,0,1,.29,0v1a1.86,1.86,0,0,0-.36,0,1.47,1.47,0,0,0-1.41,1.35,2.6,2.6,0,0,0,0,.5v3.09H30.77Z"/><path class="cls-3" d="M37.85,385.28l-.09-.73h0a2.15,2.15,0,0,1-1.77.87,1.66,1.66,0,0,1-1.77-1.67c0-1.4,1.24-2.17,3.48-2.16v-.12a1.19,1.19,0,0,0-1.32-1.34,2.84,2.84,0,0,0-1.51.43l-.24-.7a3.67,3.67,0,0,1,1.92-.51c1.77,0,2.2,1.21,2.2,2.38v2.17a8.34,8.34,0,0,0,.09,1.38Zm-.17-3c-1.14,0-2.44.18-2.44,1.3a.92.92,0,0,0,1,1,1.44,1.44,0,0,0,1.41-1,1,1,0,0,0,0-.33Z"/><path class="cls-3" d="M41.64,377.81v1.67h1.51v.8H41.64v3.13c0,.72.2,1.13.79,1.13a1.79,1.79,0,0,0,.61-.08l.05.8a2.44,2.44,0,0,1-.94.15A1.46,1.46,0,0,1,41,385a2.22,2.22,0,0,1-.41-1.51v-3.17h-.9v-.8h.9v-1.39Z"/><path class="cls-3" d="M45.52,377.84a.66.66,0,1,1-.65-.65A.63.63,0,0,1,45.52,377.84Zm-1.18,7.44v-5.8h1v5.8Z"/><path class="cls-3" d="M52.4,382.33a2.84,2.84,0,0,1-2.89,3.09,2.76,2.76,0,0,1-2.78-3,2.83,2.83,0,0,1,2.88-3.08A2.75,2.75,0,0,1,52.4,382.33Zm-4.6.07c0,1.27.73,2.23,1.76,2.23s1.77-.95,1.77-2.27c0-1-.5-2.22-1.75-2.22S47.8,381.3,47.8,382.4Z"/><path class="cls-3" d="M53.74,381.05c0-.6,0-1.09-.05-1.57h.93l.06,1h0a2.13,2.13,0,0,1,1.92-1.09c.79,0,2,.48,2,2.47v3.46H57.62v-3.34c0-.94-.35-1.72-1.34-1.72a1.52,1.52,0,0,0-1.42,1.08,1.49,1.49,0,0,0-.07.49v3.49h-1Z"/><path class="cls-3" d="M67.08,385.07a4,4,0,0,1-1.67.34,2.76,2.76,0,0,1-2.89-3,3,3,0,0,1,3.11-3.1,3.4,3.4,0,0,1,1.47.31l-.23.81a2.69,2.69,0,0,0-1.24-.28,2,2,0,0,0-2,2.2,2,2,0,0,0,2,2.17,3.05,3.05,0,0,0,1.29-.28Z"/><path class="cls-3" d="M68.32,376.77h1.05v8.51H68.32Z"/><path class="cls-3" d="M76.4,382.33a2.84,2.84,0,0,1-2.89,3.09,2.76,2.76,0,0,1-2.78-3,2.83,2.83,0,0,1,2.88-3.08A2.75,2.75,0,0,1,76.4,382.33Zm-4.6.07c0,1.27.73,2.23,1.76,2.23s1.76-.95,1.76-2.27c0-1-.49-2.22-1.74-2.22S71.8,381.3,71.8,382.4Z"/><path class="cls-3" d="M77.59,384.21a2.82,2.82,0,0,0,1.39.41c.78,0,1.13-.37,1.13-.86s-.3-.77-1.08-1.06c-1-.38-1.54-.95-1.54-1.65a1.8,1.8,0,0,1,2-1.7,2.77,2.77,0,0,1,1.42.36l-.26.77a2.3,2.3,0,0,0-1.19-.35c-.62,0-1,.36-1,.8s.34.69,1.1,1c1,.37,1.52.88,1.52,1.74,0,1-.8,1.75-2.17,1.75a3.33,3.33,0,0,1-1.63-.4Z"/><path class="cls-3" d="M83.08,382.57a1.85,1.85,0,0,0,2,2,3.92,3.92,0,0,0,1.61-.3l.18.75a4.6,4.6,0,0,1-1.93.37,2.7,2.7,0,0,1-2.85-2.93c0-1.76,1-3.13,2.72-3.13a2.44,2.44,0,0,1,2.39,2.73,2.93,2.93,0,0,1,0,.49Zm3.09-.75a1.5,1.5,0,0,0-1.46-1.71,1.73,1.73,0,0,0-1.62,1.71Z"/><path class="cls-3" d="M88.35,384.21a2.86,2.86,0,0,0,1.4.41c.77,0,1.13-.37,1.13-.86s-.31-.77-1.08-1.06c-1-.38-1.55-.95-1.54-1.65a1.79,1.79,0,0,1,2-1.7,2.77,2.77,0,0,1,1.42.36l-.26.77a2.27,2.27,0,0,0-1.19-.35c-.62,0-1,.36-1,.8s.34.69,1.1,1c1,.37,1.52.88,1.52,1.74,0,1-.79,1.75-2.17,1.75a3.33,3.33,0,0,1-1.63-.4Z"/><path class="cls-3" d="M97,377.84a.65.65,0,1,1-.65-.65A.62.62,0,0,1,97,377.84Zm-1.17,7.44v-5.8h1v5.8Z"/><path class="cls-3" d="M98.6,381.05c0-.6,0-1.09,0-1.57h.93l.06,1h0a2.12,2.12,0,0,1,1.91-1.09c.8,0,2.05.48,2.05,2.47v3.46h-1.05v-3.34c0-.94-.36-1.72-1.34-1.72a1.5,1.5,0,0,0-1.42,1.08,1.48,1.48,0,0,0-.08.49v3.49H98.6Z"/><path class="cls-3" d="M107.46,385.28v-.64l.83-.8c2-1.9,2.9-2.91,2.9-4.09a1.38,1.38,0,0,0-1.53-1.52,2.66,2.66,0,0,0-1.66.66l-.34-.74a3.46,3.46,0,0,1,2.21-.79,2.19,2.19,0,0,1,2.38,2.26c0,1.45-1,2.61-2.68,4.18l-.62.59v0h3.49v.87Z"/><path class="cls-3" d="M121.51,376.77v7c0,.51,0,1.09,0,1.49h-.94l-.05-1h0a2.12,2.12,0,0,1-2,1.14c-1.4,0-2.49-1.19-2.49-2.95,0-1.94,1.2-3.12,2.61-3.12a1.94,1.94,0,0,1,1.75.88h0v-3.46Zm-1.05,5.07a2.35,2.35,0,0,0,0-.45,1.56,1.56,0,0,0-1.53-1.21c-1.09,0-1.74,1-1.74,2.23s.58,2.16,1.72,2.16a1.59,1.59,0,0,0,1.54-1.27,1.64,1.64,0,0,0,0-.45Z"/><path class="cls-3" d="M126.49,385.28l-.09-.73h0a2.18,2.18,0,0,1-1.78.87,1.66,1.66,0,0,1-1.77-1.67c0-1.4,1.25-2.17,3.49-2.16v-.12a1.2,1.2,0,0,0-1.32-1.34,2.87,2.87,0,0,0-1.52.43l-.23-.7a3.63,3.63,0,0,1,1.91-.51c1.77,0,2.2,1.21,2.2,2.38v2.17a9.59,9.59,0,0,0,.09,1.38Zm-.16-3c-1.14,0-2.45.18-2.45,1.3a.92.92,0,0,0,1,1,1.46,1.46,0,0,0,1.42-1,1.32,1.32,0,0,0,0-.33Z"/><path class="cls-3" d="M129.35,379.48l1.26,3.43c.14.39.28.84.38,1.19h0c.11-.35.24-.79.38-1.21l1.14-3.41h1.12l-1.59,4.14c-.75,2-1.26,3-2,3.63a3,3,0,0,1-1.3.68l-.26-.88a2.68,2.68,0,0,0,.93-.52,3.49,3.49,0,0,0,.88-1.17.68.68,0,0,0,.08-.26.81.81,0,0,0-.07-.27l-2.14-5.35Z"/><path class="cls-3" d="M134.39,384.21a2.89,2.89,0,0,0,1.4.41c.77,0,1.13-.37,1.13-.86s-.31-.77-1.08-1.06c-1.05-.38-1.54-.95-1.54-1.65a1.8,1.8,0,0,1,2-1.7,2.79,2.79,0,0,1,1.42.36l-.26.77a2.3,2.3,0,0,0-1.19-.35c-.63,0-1,.36-1,.8s.35.69,1.11,1c1,.37,1.51.88,1.52,1.74,0,1-.8,1.75-2.17,1.75a3.3,3.3,0,0,1-1.63-.4Z"/><path class="cls-3" d="M138.48,386.76a16.49,16.49,0,0,0,.72-2.87l1.18-.12a15.43,15.43,0,0,1-1.15,2.92Z"/><path class="cls-3" d="M143.85,385.28v-.64l.83-.8c2-1.9,2.89-2.91,2.9-4.09a1.39,1.39,0,0,0-1.54-1.52,2.69,2.69,0,0,0-1.66.66l-.33-.74a3.41,3.41,0,0,1,2.2-.79,2.19,2.19,0,0,1,2.38,2.26c0,1.45-1,2.61-2.68,4.18l-.62.59v0h3.5v.87Z"/><path class="cls-3" d="M150,385.28v-.64l.83-.8c2-1.9,2.9-2.91,2.9-4.09a1.38,1.38,0,0,0-1.53-1.52,2.64,2.64,0,0,0-1.66.66l-.34-.74a3.46,3.46,0,0,1,2.21-.79,2.19,2.19,0,0,1,2.38,2.26c0,1.45-1,2.61-2.69,4.18l-.61.59v0H155v.87Z"/><path class="cls-3" d="M159.05,376.77h1v3.62h0a2.1,2.1,0,0,1,.76-.75,2.15,2.15,0,0,1,1.08-.29c.78,0,2,.48,2,2.48v3.45h-1V382c0-.94-.35-1.73-1.34-1.73a1.52,1.52,0,0,0-1.42,1.06,1.26,1.26,0,0,0-.07.5v3.5h-1Z"/><path class="cls-3" d="M171,382.33a2.84,2.84,0,0,1-2.89,3.09,2.77,2.77,0,0,1-2.79-3,2.84,2.84,0,0,1,2.88-3.08A2.75,2.75,0,0,1,171,382.33Zm-4.6.07c0,1.27.73,2.23,1.76,2.23s1.76-.95,1.76-2.27c0-1-.49-2.22-1.74-2.22S166.36,381.3,166.36,382.4Z"/><path class="cls-3" d="M177.14,383.7c0,.6,0,1.13.05,1.58h-.93l-.06-.94h0a2.2,2.2,0,0,1-1.92,1.08c-.91,0-2-.51-2-2.55v-3.39h1.05v3.21c0,1.1.34,1.86,1.29,1.86a1.55,1.55,0,0,0,1.4-1,1.73,1.73,0,0,0,.1-.54v-3.56h1Z"/><path class="cls-3" d="M178.9,381.29c0-.68,0-1.27,0-1.81h.92l0,1.14h0a1.76,1.76,0,0,1,1.61-1.27,1.39,1.39,0,0,1,.3,0v1a1.94,1.94,0,0,0-.36,0,1.46,1.46,0,0,0-1.41,1.35,2.57,2.57,0,0,0-.05.5v3.09h-1Z"/><path class="cls-3" d="M182.68,384.21a2.86,2.86,0,0,0,1.4.41c.77,0,1.13-.37,1.13-.86s-.31-.77-1.08-1.06c-1-.38-1.55-.95-1.54-1.65a1.79,1.79,0,0,1,2-1.7,2.77,2.77,0,0,1,1.42.36l-.26.77a2.27,2.27,0,0,0-1.19-.35c-.62,0-1,.36-1,.8s.34.69,1.1,1c1,.37,1.52.88,1.52,1.74,0,1-.79,1.75-2.16,1.75a3.27,3.27,0,0,1-1.63-.4Z"/><path class="cls-11" d="M8.08,416.27c0,2.64-1,4.1-2.71,4.1-1.53,0-2.56-1.42-2.59-4s1.13-4.06,2.72-4.06S8.08,413.78,8.08,416.27Zm-4.24.11c0,2,.63,3.18,1.59,3.18S7,418.3,7,416.31s-.49-3.17-1.59-3.17C4.52,413.14,3.84,414.26,3.84,416.38Z"/><path class="cls-11" d="M16.39,420.24l-1-1.78c-.42-.69-.67-1.13-.93-1.6h0c-.23.47-.46.9-.87,1.6l-1,1.78h-1.2l2.48-4.09-2.38-4h1.2l1.08,1.9c.3.52.52.93.75,1.36h0c.23-.47.44-.85.74-1.36l1.1-1.9h1.21l-2.47,3.94,2.53,4.14Z"/><path class="cls-11" d="M23.06,420.24l-1-1.78c-.43-.69-.68-1.13-.93-1.6h0c-.23.47-.46.9-.87,1.6l-1,1.78H18l2.48-4.09-2.38-4h1.21l1.07,1.9c.3.52.52.93.75,1.36h0c.23-.47.45-.85.74-1.36l1.1-1.9h1.21l-2.47,3.94,2.53,4.14Z"/><path class="cls-11" d="M29.74,420.24l-1-1.78c-.42-.69-.68-1.13-.93-1.6h0c-.22.47-.46.9-.87,1.6l-1,1.78H24.7l2.47-4.09-2.38-4H26l1.07,1.9c.3.52.52.93.75,1.36h0c.23-.47.44-.85.73-1.36l1.1-1.9h1.21l-2.47,3.94L31,420.24Z"/><text class="cls-12" transform="translate(96.62 157.89)">UP<tspan class="cls-13" x="12.28" y="0">C</tspan><tspan x="18.61" y="0">OMING</tspan></text><rect class="cls-14" x="85.93" y="143.99" width="73.07" height="22.96" rx="10.53" transform="translate(244.93 310.94) rotate(180)"/><text class="cls-15" transform="translate(29.5 157.73)">LIVE</text><text class="cls-16" transform="translate(204.26 282.76)">$200 000</text><text class="cls-17" transform="translate(159.39 313.75)"><tspan class="cls-18">F</tspan><tspan x="8.4" y="0">eb 15</tspan><tspan class="cls-19" x="51.26" y="0">,</tspan><tspan x="54.94" y="0" xml:space="preserve"> 10:00 U</tspan><tspan class="cls-19" x="118.21" y="0">T</tspan><tspan class="cls-20" x="126.81" y="0">C</tspan></text><text class="cls-17" transform="translate(160.23 342.76)">1<tspan class="cls-21" x="9.76" y="0"> </tspan><tspan x="13.57" y="0">XX</tspan><tspan class="cls-6" x="34.62" y="0">X</tspan><tspan x="44.96" y="0" xml:space="preserve"> = 0.02 IGN</tspan><tspan class="cls-22" x="130.41" y="0">T</tspan><tspan x="139.12" y="0"> </tspan></text><rect class="cls-1" y="394.58" width="159" height="11" rx="5.5"/><path class="cls-1" d="M279.72,388.34v-2h-3.53v-1l3.19-4.85h1.74v4.7h1v1.12h-1v2Zm0-3.1v-2.12c0-.45,0-.89,0-1.35h0c-.25.49-.45.89-.69,1.32l-1.43,2.13v0Z"/><path class="cls-1" d="M287.87,381.77h-3l-.23,1.55a4.5,4.5,0,0,1,.56,0,3.43,3.43,0,0,1,1.89.5,2.24,2.24,0,0,1,1,2,2.85,2.85,0,0,1-3.15,2.7,4.49,4.49,0,0,1-2.07-.46l.31-1.12a3.92,3.92,0,0,0,1.71.41,1.52,1.52,0,0,0,1.69-1.42c0-.89-.66-1.48-2.21-1.48a7.75,7.75,0,0,0-1.07.07l.51-3.93h4Z"/><path class="cls-1" d="M293.18,382.73c0,1.63-1,2.47-2,2.47s-2-.84-2-2.35a2.16,2.16,0,0,1,2-2.44C292.44,380.41,293.18,381.32,293.18,382.73Zm-2.89.08c0,.89.31,1.56.89,1.56s.88-.63.88-1.58-.24-1.55-.88-1.55S290.29,381.94,290.29,382.81Zm.88,5.66,4.53-8.06h.83L292,388.47Zm7.39-2.51c0,1.64-1,2.48-2,2.48s-2-.85-2-2.36a2.16,2.16,0,0,1,2-2.44C297.82,383.64,298.56,384.56,298.56,386Zm-2.9.08c0,.9.32,1.56.9,1.56s.87-.62.87-1.57-.24-1.56-.87-1.56S295.66,385.17,295.66,386Z"/><path class="cls-11" d="M216.08,416.22c0,2.65-1,4.11-2.71,4.11-1.53,0-2.56-1.43-2.59-4s1.13-4.06,2.72-4.06S216.08,413.74,216.08,416.22Zm-4.24.11c0,2,.63,3.18,1.59,3.18s1.59-1.26,1.59-3.24-.49-3.18-1.59-3.18C212.52,413.09,211.84,414.22,211.84,416.33Z"/><path class="cls-11" d="M219,420.68l3.34-8.7h.82l-3.36,8.7Z"/><path class="cls-11" d="M228.54,413.38h0l-1.36.73-.2-.8,1.7-.91h.9v7.8h-1Z"/><path class="cls-11" d="M237.59,416.22c0,2.65-1,4.11-2.71,4.11-1.52,0-2.56-1.43-2.58-4s1.13-4.06,2.71-4.06S237.59,413.74,237.59,416.22Zm-4.23.11c0,2,.62,3.18,1.58,3.18s1.59-1.26,1.59-3.24-.49-3.18-1.58-3.18C234,413.09,233.36,414.22,233.36,416.33Z"/><path class="cls-11" d="M246.29,416.22c0,2.65-1,4.11-2.71,4.11-1.52,0-2.56-1.43-2.58-4s1.13-4.06,2.71-4.06S246.29,413.74,246.29,416.22Zm-4.23.11c0,2,.62,3.18,1.58,3.18s1.59-1.26,1.59-3.24-.49-3.18-1.58-3.18C242.73,413.09,242.06,414.22,242.06,416.33Z"/><path class="cls-11" d="M252.45,416.22c0,2.65-1,4.11-2.71,4.11-1.53,0-2.56-1.43-2.59-4s1.13-4.06,2.72-4.06S252.45,413.74,252.45,416.22Zm-4.23.11c0,2,.62,3.18,1.58,3.18s1.59-1.26,1.59-3.24-.49-3.18-1.59-3.18C248.89,413.09,248.21,414.22,248.22,416.33Z"/><path class="cls-11" d="M258.6,416.22c0,2.65-1,4.11-2.71,4.11-1.52,0-2.56-1.43-2.58-4s1.13-4.06,2.71-4.06S258.6,413.74,258.6,416.22Zm-4.23.11c0,2,.62,3.18,1.58,3.18s1.59-1.26,1.59-3.24-.49-3.18-1.58-3.18C255,413.09,254.37,414.22,254.37,416.33Z"/><path class="cls-11" d="M267.3,416.22c0,2.65-1,4.11-2.71,4.11-1.52,0-2.55-1.43-2.58-4s1.13-4.06,2.71-4.06S267.3,413.74,267.3,416.22Zm-4.23.11c0,2,.62,3.18,1.58,3.18s1.59-1.26,1.59-3.24-.49-3.18-1.58-3.18C263.74,413.09,263.07,414.22,263.07,416.33Z"/><path class="cls-11" d="M273.46,416.22c0,2.65-1,4.11-2.71,4.11-1.52,0-2.56-1.43-2.59-4s1.13-4.06,2.72-4.06S273.46,413.74,273.46,416.22Zm-4.23.11c0,2,.62,3.18,1.58,3.18s1.59-1.26,1.59-3.24-.49-3.18-1.58-3.18C269.9,413.09,269.23,414.22,269.23,416.33Z"/><path class="cls-11" d="M279.62,416.22c0,2.65-1,4.11-2.72,4.11-1.52,0-2.55-1.43-2.58-4s1.13-4.06,2.72-4.06S279.62,413.74,279.62,416.22Zm-4.24.11c0,2,.63,3.18,1.58,3.18s1.59-1.26,1.59-3.24-.48-3.18-1.58-3.18C276.05,413.09,275.38,414.22,275.38,416.33Z"/><path class="cls-11" d="M284.55,412.12v8.08H283.5v-8.08Z"/><path class="cls-11" d="M286.37,412.23a13.29,13.29,0,0,1,2.22-.18,4.62,4.62,0,0,1,3.27,1A3.7,3.7,0,0,1,293,416a4.27,4.27,0,0,1-1.17,3.14,5,5,0,0,1-3.57,1.17,17,17,0,0,1-1.9-.09Zm1,7.15a8,8,0,0,0,1,.05,3.11,3.11,0,0,0,3.45-3.43c0-1.91-1.07-3.11-3.27-3.11a7,7,0,0,0-1.23.1Z"/><path class="cls-11" d="M294.36,412.23a10.71,10.71,0,0,1,2-.18,3.32,3.32,0,0,1,2.34.67,2,2,0,0,1,.63,1.53,2.13,2.13,0,0,1-1.52,2.06v0A2,2,0,0,1,299,418a13.26,13.26,0,0,0,.63,2.22h-1.09a11.34,11.34,0,0,1-.53-1.94c-.24-1.1-.68-1.53-1.62-1.56h-1v3.5h-1Zm1,3.68h1.07c1.12,0,1.82-.61,1.82-1.54s-.75-1.5-1.86-1.51a5,5,0,0,0-1,.09Z"/><path class="cls-3" d="M4.36,456.63h0L3,457.36l-.2-.81,1.7-.9h.89v7.79h-1Z"/><path class="cls-3" d="M9.05,457.64l.83,1.24c.21.33.4.62.59.95h0c.2-.34.39-.64.59-1l.81-1.23H13l-2,2.81,2,3H11.9l-.86-1.3c-.23-.34-.42-.66-.62-1h0c-.19.35-.39.66-.61,1l-.84,1.3H7.78l2.06-3-2-2.84Z"/><path class="cls-3" d="M18.94,455.11a8,8,0,0,0-1.5,4.92,8.14,8.14,0,0,0,1.5,4.86h-.82A7.78,7.78,0,0,1,16.56,460a7.91,7.91,0,0,1,1.56-4.91Z"/><path class="cls-3" d="M23.28,463.44l-.09-.73h0a2.18,2.18,0,0,1-1.78.86,1.65,1.65,0,0,1-1.77-1.66c0-1.41,1.25-2.18,3.49-2.16v-.12a1.19,1.19,0,0,0-1.32-1.34,2.81,2.81,0,0,0-1.51.43L20,458a3.63,3.63,0,0,1,1.91-.51c1.77,0,2.21,1.21,2.21,2.37v2.17a9.83,9.83,0,0,0,.08,1.39Zm-.16-3c-1.14,0-2.45.18-2.45,1.3a.93.93,0,0,0,1,1,1.45,1.45,0,0,0,1.41-1,1,1,0,0,0,.05-.33Z"/><path class="cls-3" d="M25.85,459.53c0-.74,0-1.34-.05-1.89h.94l.06,1h0a2.25,2.25,0,0,1,2.05-1.12c1.41,0,2.47,1.18,2.47,2.94,0,2.09-1.28,3.12-2.64,3.12a2,2,0,0,1-1.79-.91h0v3.16h-1Zm1,1.55a2,2,0,0,0,0,.43,1.62,1.62,0,0,0,1.58,1.24c1.12,0,1.76-.92,1.76-2.25,0-1.16-.6-2.15-1.72-2.15a1.67,1.67,0,0,0-1.59,1.3,1.61,1.61,0,0,0-.07.43Z"/><path class="cls-3" d="M32.68,459.53c0-.74,0-1.34,0-1.89h.94l.06,1h0a2.27,2.27,0,0,1,2.06-1.12c1.41,0,2.46,1.18,2.46,2.94,0,2.09-1.27,3.12-2.63,3.12a2,2,0,0,1-1.79-.91h0v3.16h-1Zm1,1.55a2,2,0,0,0,0,.43,1.62,1.62,0,0,0,1.58,1.24c1.12,0,1.76-.92,1.76-2.25,0-1.16-.6-2.15-1.72-2.15a1.68,1.68,0,0,0-1.6,1.3,2.12,2.12,0,0,0-.06.43Z"/><path class="cls-3" d="M39.5,459.45c0-.69,0-1.27,0-1.81h.92l0,1.14h0a1.76,1.76,0,0,1,1.61-1.27,1.39,1.39,0,0,1,.3,0v1a1.94,1.94,0,0,0-.36,0,1.46,1.46,0,0,0-1.41,1.35,2.54,2.54,0,0,0-.05.49v3.1h-1Z"/><path class="cls-3" d="M48.56,460.49a2.84,2.84,0,0,1-2.88,3.08,2.75,2.75,0,0,1-2.79-3,2.83,2.83,0,0,1,2.88-3.08A2.74,2.74,0,0,1,48.56,460.49Zm-4.6.06c0,1.28.73,2.23,1.76,2.23s1.77-.94,1.77-2.26c0-1-.5-2.22-1.75-2.22S44,459.45,44,460.55Z"/><path class="cls-3" d="M50.22,457.64l.83,1.24c.22.33.4.62.59.95h0c.19-.34.38-.64.58-1l.81-1.23h1.15l-2,2.81,2,3H53.07l-.86-1.3c-.23-.34-.42-.66-.62-1h0c-.19.35-.39.66-.61,1l-.84,1.3H49l2.06-3-2-2.84Z"/><path class="cls-3" d="M54.65,464.89a8.11,8.11,0,0,0,1.51-4.9,8,8,0,0,0-1.51-4.88h.82A7.73,7.73,0,0,1,57,460a7.82,7.82,0,0,1-1.57,4.89Z"/><path class="cls-3" d="M60.84,459.4v-.72H67v.72Zm0,2.35V461H67v.72Z"/><path class="cls-3" d="M241.5,457.44h1.05v7.2H246v.89H241.5Z"/><path class="cls-3" d="M248.31,458.09a.66.66,0,1,1-.65-.66A.64.64,0,0,1,248.31,458.09Zm-1.18,7.44v-5.81h1.05v5.81Z"/><path class="cls-3" d="M249.79,464.45a2.86,2.86,0,0,0,1.4.41c.77,0,1.13-.37,1.13-.86s-.31-.77-1.08-1.06c-1.05-.38-1.54-.95-1.54-1.65a1.79,1.79,0,0,1,2-1.7,2.81,2.81,0,0,1,1.43.36l-.27.77a2.24,2.24,0,0,0-1.19-.35c-.62,0-1,.36-1,.8s.34.7,1.1,1c1,.37,1.52.88,1.53,1.74,0,1-.8,1.75-2.17,1.75a3.27,3.27,0,0,1-1.63-.4Z"/><path class="cls-3" d="M256,458.05v1.67h1.52v.8H256v3.13c0,.72.21,1.13.8,1.13a1.87,1.87,0,0,0,.61-.08l.05.81a2.8,2.8,0,0,1-.95.14,1.45,1.45,0,0,1-1.13-.45,2.22,2.22,0,0,1-.41-1.51v-3.17H254v-.8h.9v-1.39Z"/><path class="cls-3" d="M259.84,458.09a.65.65,0,1,1-1.3,0,.64.64,0,0,1,.65-.66A.63.63,0,0,1,259.84,458.09Zm-1.17,7.44v-5.81h1.05v5.81Z"/><path class="cls-3" d="M261.47,461.29c0-.6,0-1.09,0-1.57h.93l.06,1h0a2.12,2.12,0,0,1,1.91-1.09c.8,0,2.05.48,2.05,2.47v3.47h-1.05v-3.35c0-.94-.36-1.72-1.34-1.72a1.52,1.52,0,0,0-1.42,1.08,1.48,1.48,0,0,0-.08.49v3.5h-1Z"/><path class="cls-3" d="M273.14,459.72c0,.41-.05.89-.05,1.59v3.37a3.37,3.37,0,0,1-.83,2.66,3.12,3.12,0,0,1-2.11.69,3.7,3.7,0,0,1-1.94-.48l.27-.81a3.24,3.24,0,0,0,1.7.47c1.08,0,1.87-.57,1.87-2v-.64h0a2.08,2.08,0,0,1-1.85,1,2.6,2.6,0,0,1-2.47-2.84,2.78,2.78,0,0,1,2.62-3.08,1.93,1.93,0,0,1,1.81,1h0l0-.87ZM272,462a1.38,1.38,0,0,0-.06-.47,1.52,1.52,0,0,0-1.48-1.13c-1,0-1.73.85-1.73,2.2,0,1.14.59,2.09,1.72,2.09a1.54,1.54,0,0,0,1.47-1.09,2,2,0,0,0,.08-.56Z"/><path class="cls-3" d="M278.47,458.32H276v-.88h6v.88h-2.47v7.21h-1Z"/><path class="cls-3" d="M283.7,458.09a.66.66,0,1,1-.65-.66A.64.64,0,0,1,283.7,458.09Zm-1.18,7.44v-5.81h1.05v5.81Z"/><path class="cls-3" d="M285.33,461.29c0-.6,0-1.09-.05-1.57h.92l.05.94h0a2,2,0,0,1,1.83-1.07,1.71,1.71,0,0,1,1.64,1.17h0a2.5,2.5,0,0,1,.66-.76,2,2,0,0,1,1.27-.41c.78,0,1.92.5,1.92,2.52v3.42h-1v-3.29c0-1.12-.41-1.79-1.26-1.79a1.38,1.38,0,0,0-1.25.95,1.84,1.84,0,0,0-.09.53v3.6h-1V462c0-.92-.41-1.59-1.21-1.59a1.46,1.46,0,0,0-1.31,1.06,1.72,1.72,0,0,0-.08.52v3.5h-1Z"/><path class="cls-3" d="M295.93,462.81a1.85,1.85,0,0,0,2,2,3.92,3.92,0,0,0,1.61-.3l.18.75a4.6,4.6,0,0,1-1.93.37,2.71,2.71,0,0,1-2.86-2.93c0-1.76,1-3.13,2.73-3.13a2.44,2.44,0,0,1,2.39,2.73,2.93,2.93,0,0,1,0,.49Zm3.08-.75a1.49,1.49,0,0,0-1.45-1.71,1.73,1.73,0,0,0-1.62,1.71Z"/><text class="cls-17" transform="translate(2.04 487.33)">$42.08</text><text class="cls-17" transform="translate(113.54 487.33)">Mar 1,2022 3:00 PM U<tspan class="cls-23" x="168.29" y="0">T</tspan><tspan x="176.89" y="0">C</tspan></text><text class="cls-24" transform="translate(2.74 31.82)"><tspan class="cls-25">X</tspan><tspan class="cls-26" x="16.59" y="0">x</tspan><tspan x="28.64" y="0">e</tspan><tspan class="cls-27" x="42.59" y="0">r</tspan><tspan class="cls-28" x="51.09" y="0">t</tspan><tspan class="cls-29" x="60.04" y="0">y</tspan><tspan x="72.43" y="0">oi</tspan></text><text class="cls-30" transform="translate(2.13 55.4)">$XX<tspan class="cls-31" x="27.64" y="0">X</tspan></text></g></g></svg>