<svg xmlns="http://www.w3.org/2000/svg" xmlns:xlink="http://www.w3.org/1999/xlink" viewBox="0 0 50.47 31.55"><defs><style>.cls-1{fill:url(#linear-gradient);}</style><linearGradient id="linear-gradient" x1="56.71" y1="-23.36" x2="27.91" y2="10.52" gradientUnits="userSpaceOnUse"><stop offset="0" stop-color="#121111"/><stop offset="0.12" stop-color="#141612"/><stop offset="0.25" stop-color="#1a2416"/><stop offset="0.39" stop-color="#243b1d"/><stop offset="0.54" stop-color="#325b26"/><stop offset="0.7" stop-color="#448431"/><stop offset="0.85" stop-color="#59b63f"/><stop offset="1" stop-color="#71ee4f"/></linearGradient></defs><g id="Layer_2" data-name="Layer 2"><g id="Layer_1-2" data-name="Layer 1"><path class="cls-1" d="M.59,31.52l-.07,0a.81.81,0,0,1-.47-1L4.34,19.05a.82.82,0,0,1,.89-.51l11.35,2,4.06-10.8a.8.8,0,0,1,.89-.5l11.34,2L36.93.52A.8.8,0,0,1,37.82,0l12,2.16a.8.8,0,0,1-.28,1.57l-11.35-2L34.13,12.5a.8.8,0,0,1-.89.51L21.9,11,17.84,21.77a.79.79,0,0,1-.88.5l-11.36-2L1.54,31A.79.79,0,0,1,.59,31.52Z"/></g></g></svg>