<svg xmlns="http://www.w3.org/2000/svg" viewBox="0 0 229.54 14.42"><defs><style>.cls-1{fill:#fff;}</style></defs><g id="Layer_2" data-name="Layer 2"><g id="Layer_1-2" data-name="Layer 1"><path class="cls-1" d="M1.29,14.62a6,6,0,0,0,3.11.87c1.78,0,2.83-.93,2.83-2.29s-.73-2-2.55-2.67C2.48,9.75,1.11,8.59,1.11,6.7c0-2.1,1.75-3.65,4.37-3.65a6.26,6.26,0,0,1,3,.65L8,5.13a5.05,5.05,0,0,0-2.54-.64c-1.86,0-2.55,1.09-2.55,2,0,1.25.81,1.87,2.68,2.59,2.28.9,3.44,2,3.44,4S7.47,17,4.28,17a6.87,6.87,0,0,1-3.45-.88Z" transform="translate(-0.83 -2.54)"/><path class="cls-1" d="M19.41,14.09c0,1,0,1.88.08,2.65H17.94l-.1-1.58h0A3.62,3.62,0,0,1,14.59,17c-1.51,0-3.33-.85-3.33-4.24V7.07H13v5.34c0,1.84.58,3.1,2.16,3.1a2.56,2.56,0,0,0,2.33-1.62,2.68,2.68,0,0,0,.16-.9V7.07h1.75Z" transform="translate(-0.83 -2.54)"/><path class="cls-1" d="M22.26,16.74c0-.66.08-1.63.08-2.49V2.54h1.75V8.62h0a3.58,3.58,0,0,1,3.3-1.77c2.4,0,4.09,2,4.08,4.92,0,3.47-2.2,5.19-4.35,5.19a3.5,3.5,0,0,1-3.25-1.81h0l-.09,1.59Zm1.83-3.88a2.67,2.67,0,0,0,.07.64,2.72,2.72,0,0,0,2.64,2.06c1.85,0,2.94-1.5,2.94-3.72,0-1.95-1-3.61-2.89-3.61a2.81,2.81,0,0,0-2.66,2.16,3.22,3.22,0,0,0-.1.73Z" transform="translate(-0.83 -2.54)"/><path class="cls-1" d="M33.47,15a4.83,4.83,0,0,0,2.34.69c1.28,0,1.88-.63,1.88-1.44s-.52-1.29-1.8-1.77c-1.75-.64-2.58-1.59-2.57-2.75,0-1.56,1.26-2.83,3.34-2.83A4.63,4.63,0,0,1,39,7.44L38.6,8.72a3.86,3.86,0,0,0-2-.57c-1,0-1.6.6-1.6,1.33s.57,1.16,1.84,1.65c1.66.62,2.53,1.46,2.53,2.91,0,1.71-1.33,2.91-3.61,2.91a5.52,5.52,0,0,1-2.72-.67Z" transform="translate(-0.83 -2.54)"/><path class="cls-1" d="M48.54,16.39a6.58,6.58,0,0,1-2.77.56A4.61,4.61,0,0,1,40.94,12a4.93,4.93,0,0,1,5.2-5.16,5.71,5.71,0,0,1,2.44.51l-.39,1.36a4.27,4.27,0,0,0-2.06-.47,3.36,3.36,0,0,0-3.41,3.66,3.32,3.32,0,0,0,3.37,3.62,5.14,5.14,0,0,0,2.15-.46Z" transform="translate(-0.83 -2.54)"/><path class="cls-1" d="M50.6,10.08c0-1.14,0-2.12-.08-3h1.54L52.13,9h.06a2.94,2.94,0,0,1,2.7-2.11,1.94,1.94,0,0,1,.49.05V8.55a2.69,2.69,0,0,0-.6-.05,2.46,2.46,0,0,0-2.36,2.25,5.33,5.33,0,0,0-.07.82v5.17H50.6Z" transform="translate(-0.83 -2.54)"/><path class="cls-1" d="M59.19,4.33a1.06,1.06,0,0,1-1.12,1.09A1,1,0,0,1,57,4.33a1.09,1.09,0,1,1,2.18,0Zm-2,12.41V7.07H59v9.67Z" transform="translate(-0.83 -2.54)"/><path class="cls-1" d="M61.82,16.74c0-.66.08-1.63.08-2.49V2.54h1.75V8.62h0A3.58,3.58,0,0,1,67,6.85c2.4,0,4.09,2,4.08,4.92,0,3.47-2.2,5.19-4.36,5.19a3.5,3.5,0,0,1-3.24-1.81h0l-.09,1.59Zm1.83-3.88a2.67,2.67,0,0,0,.07.64,2.72,2.72,0,0,0,2.64,2.06c1.85,0,2.94-1.5,2.94-3.72,0-1.95-1-3.61-2.89-3.61a2.81,2.81,0,0,0-2.66,2.16,3.22,3.22,0,0,0-.1.73Z" transform="translate(-0.83 -2.54)"/><path class="cls-1" d="M74.29,12.22a3.08,3.08,0,0,0,3.31,3.36,6.49,6.49,0,0,0,2.68-.5l.3,1.25a7.61,7.61,0,0,1-3.22.62,4.51,4.51,0,0,1-4.76-4.88c0-2.93,1.72-5.22,4.55-5.22,3.16,0,4,2.77,4,4.55a4.15,4.15,0,0,1-.06.82ZM79.44,11c0-1.11-.46-2.85-2.43-2.85A2.89,2.89,0,0,0,74.31,11Z" transform="translate(-0.83 -2.54)"/><path class="cls-1" d="M89.67,4.28V7.07H92.2V8.4H89.67v5.21c0,1.21.35,1.89,1.33,1.89a3.51,3.51,0,0,0,1-.13l.08,1.34a4.56,4.56,0,0,1-1.57.24,2.49,2.49,0,0,1-1.9-.74A3.75,3.75,0,0,1,88,13.68V8.4h-1.5V7.07H88V4.74Z" transform="translate(-0.83 -2.54)"/><path class="cls-1" d="M102.82,11.81c0,3.58-2.49,5.15-4.81,5.15-2.63,0-4.65-1.91-4.65-5,0-3.24,2.13-5.13,4.8-5.13S102.82,8.86,102.82,11.81Zm-7.67.11c0,2.12,1.21,3.72,2.93,3.72s3-1.57,3-3.77c0-1.64-.83-3.71-2.92-3.71S95.15,10.09,95.15,11.92Z" transform="translate(-0.83 -2.54)"/><path class="cls-1" d="M118,11.81c0,3.58-2.49,5.15-4.81,5.15-2.63,0-4.65-1.91-4.65-5,0-3.24,2.13-5.13,4.8-5.13S118,8.86,118,11.81Zm-7.67.11c0,2.12,1.21,3.72,2.93,3.72s3-1.57,3-3.77c0-1.64-.83-3.71-2.92-3.71S110.37,10.09,110.37,11.92Z" transform="translate(-0.83 -2.54)"/><path class="cls-1" d="M128.35,14.09c0,1,0,1.88.08,2.65h-1.55l-.1-1.58h0a3.6,3.6,0,0,1-3.2,1.8c-1.51,0-3.33-.85-3.33-4.24V7.07H122v5.34c0,1.84.57,3.1,2.16,3.1a2.56,2.56,0,0,0,2.33-1.62,2.68,2.68,0,0,0,.16-.9V7.07h1.75Z" transform="translate(-0.83 -2.54)"/><path class="cls-1" d="M131.28,10.08c0-1.14,0-2.12-.08-3h1.54L132.81,9h.06a2.94,2.94,0,0,1,2.69-2.11,1.89,1.89,0,0,1,.49.05V8.55a2.64,2.64,0,0,0-.6-.05,2.45,2.45,0,0,0-2.35,2.25,4.32,4.32,0,0,0-.07.82v5.17h-1.75Z" transform="translate(-0.83 -2.54)"/><path class="cls-1" d="M142.11,16.74V3.26H144l4.32,6.81a40.21,40.21,0,0,1,2.4,4.39l.05,0c-.16-1.8-.19-3.44-.19-5.53V3.26h1.64V16.74h-1.77l-4.29-6.83a44.76,44.76,0,0,1-2.51-4.52l-.06,0c.11,1.71.13,3.34.13,5.56v5.77Z" transform="translate(-0.83 -2.54)"/><path class="cls-1" d="M156.17,12.22a3.08,3.08,0,0,0,3.31,3.36,6.49,6.49,0,0,0,2.68-.5l.3,1.25a7.61,7.61,0,0,1-3.22.62,4.51,4.51,0,0,1-4.76-4.88c0-2.93,1.72-5.22,4.55-5.22,3.15,0,4,2.77,4,4.55a4.15,4.15,0,0,1-.06.82ZM161.32,11c0-1.11-.46-2.85-2.43-2.85a2.89,2.89,0,0,0-2.7,2.85Z" transform="translate(-0.83 -2.54)"/><path class="cls-1" d="M165.89,7.07l1.3,4.9c.28,1.08.52,2.1.72,3.09H168c.21-1,.53-2,.86-3.07l1.58-4.92h1.48l1.51,4.83c.34,1.15.63,2.18.85,3.16h0c.18-1,.44-2,.75-3.14l1.38-4.85h1.74L175,16.74h-1.6L172,12.12a27.67,27.67,0,0,1-.85-3.19h0a29.8,29.8,0,0,1-.89,3.21l-1.56,4.6H167L164.1,7.07Z" transform="translate(-0.83 -2.54)"/><path class="cls-1" d="M179.55,15a4.82,4.82,0,0,0,2.33.69c1.29,0,1.88-.63,1.88-1.44s-.51-1.29-1.8-1.77c-1.74-.64-2.57-1.59-2.57-2.75,0-1.56,1.27-2.83,3.35-2.83a4.66,4.66,0,0,1,2.37.59l-.44,1.28a3.82,3.82,0,0,0-2-.57c-1,0-1.6.6-1.6,1.33s.57,1.16,1.83,1.65c1.67.62,2.54,1.46,2.54,2.91,0,1.71-1.33,2.91-3.62,2.91a5.52,5.52,0,0,1-2.72-.67Z" transform="translate(-0.83 -2.54)"/><path class="cls-1" d="M187.72,2.54h1.75v14.2h-1.75Z" transform="translate(-0.83 -2.54)"/><path class="cls-1" d="M193.42,12.22a3.1,3.1,0,0,0,3.32,3.36,6.56,6.56,0,0,0,2.68-.5l.3,1.25a7.61,7.61,0,0,1-3.22.62,4.51,4.51,0,0,1-4.76-4.88c0-2.93,1.72-5.22,4.55-5.22,3.15,0,4,2.77,4,4.55a4.15,4.15,0,0,1-.06.82ZM198.57,11c0-1.11-.45-2.85-2.42-2.85a2.89,2.89,0,0,0-2.7,2.85Z" transform="translate(-0.83 -2.54)"/><path class="cls-1" d="M204.57,4.28V7.07h2.53V8.4h-2.53v5.21c0,1.21.35,1.89,1.33,1.89a3.51,3.51,0,0,0,1-.13l.08,1.34a4.61,4.61,0,0,1-1.57.24,2.49,2.49,0,0,1-1.9-.74,3.75,3.75,0,0,1-.68-2.53V8.4h-1.5V7.07h1.5V4.74Z" transform="translate(-0.83 -2.54)"/><path class="cls-1" d="M211.19,4.28V7.07h2.53V8.4h-2.53v5.21c0,1.21.35,1.89,1.33,1.89a3.51,3.51,0,0,0,1-.13l.08,1.34a4.61,4.61,0,0,1-1.57.24,2.49,2.49,0,0,1-1.9-.74,3.75,3.75,0,0,1-.68-2.53V8.4H208V7.07h1.5V4.74Z" transform="translate(-0.83 -2.54)"/><path class="cls-1" d="M216.56,12.22a3.1,3.1,0,0,0,3.32,3.36,6.47,6.47,0,0,0,2.67-.5l.31,1.25a7.63,7.63,0,0,1-3.23.62c-3,0-4.75-2-4.75-4.88s1.72-5.22,4.55-5.22c3.15,0,4,2.77,4,4.55a4.15,4.15,0,0,1-.06.82ZM221.71,11c0-1.11-.45-2.85-2.42-2.85a2.89,2.89,0,0,0-2.7,2.85Z" transform="translate(-0.83 -2.54)"/><path class="cls-1" d="M225.6,10.08c0-1.14,0-2.12-.08-3h1.54L227.13,9h.06a2.94,2.94,0,0,1,2.69-2.11,1.89,1.89,0,0,1,.49.05V8.55a2.69,2.69,0,0,0-.6-.05,2.45,2.45,0,0,0-2.35,2.25,4.32,4.32,0,0,0-.07.82v5.17H225.6Z" transform="translate(-0.83 -2.54)"/></g></g></svg>