<svg xmlns="http://www.w3.org/2000/svg" viewBox="0 0 70.06 16.13"><defs><style>.cls-1{fill:#fff;}</style></defs><g id="Layer_2" data-name="Layer 2"><g id="Layer_1-2" data-name="Layer 1"><path class="cls-1" d="M.63,17.24l.9-1.2a4.9,4.9,0,0,0,3.19,1.28c1.43,0,2.13-.76,2.13-1.68,0-1.12-1.28-1.61-2.47-2.05-1.52-.56-3.23-1.3-3.23-3.13S2.54,7.39,4.88,7.39A5.52,5.52,0,0,1,8.25,8.6L7.37,9.78a4.1,4.1,0,0,0-2.47-1c-1.36,0-2,.73-2,1.56,0,1,1.18,1.42,2.4,1.87,1.56.59,3.3,1.23,3.3,3.29,0,1.75-1.39,3.22-3.95,3.22A6.49,6.49,0,0,1,.63,17.24Z" transform="translate(-0.63 -2.62)"/><path class="cls-1" d="M10.35,13.08c0-3.52,2.37-5.69,4.86-5.69,2.76,0,4.32,2,4.32,5.08a6.2,6.2,0,0,1-.08,1H12.16c.13,2.29,1.53,3.78,3.6,3.78a4.74,4.74,0,0,0,2.69-.87l.65,1.2a6.37,6.37,0,0,1-3.57,1.13C12.65,18.75,10.35,16.64,10.35,13.08Zm7.56-.88c0-2.17-1-3.35-2.66-3.35-1.52,0-2.88,1.22-3.11,3.35Z" transform="translate(-0.63 -2.62)"/><path class="cls-1" d="M21.21,15.67c0-2.36,2-3.54,6.65-4,0-1.39-.47-2.73-2.23-2.73a5.93,5.93,0,0,0-3.23,1.16L21.68,8.8a8,8,0,0,1,4.25-1.41c2.64,0,3.76,1.75,3.76,4.45v6.64H28.18L28,17.18H28a5.73,5.73,0,0,1-3.58,1.57A3,3,0,0,1,21.21,15.67Zm6.65.17v-3c-3.63.44-4.85,1.33-4.85,2.71s.83,1.73,1.89,1.73A4.47,4.47,0,0,0,27.86,15.84Z" transform="translate(-0.63 -2.62)"/><path class="cls-1" d="M33.1,7.66h1.52l.15,2h.06a3.72,3.72,0,0,1,3.08-2.24,2.51,2.51,0,0,1,1.15.22l-.34,1.61a2.93,2.93,0,0,0-1-.18c-.91,0-2,.66-2.73,2.49v7H33.1Z" transform="translate(-0.63 -2.62)"/><path class="cls-1" d="M39.8,13.08c0-3.61,2.44-5.69,5.21-5.69a4.5,4.5,0,0,1,3.16,1.27l-.93,1.21a3.14,3.14,0,0,0-2.15-1c-2,0-3.4,1.69-3.4,4.17s1.36,4.14,3.35,4.14a3.87,3.87,0,0,0,2.54-1.08l.8,1.23a5.26,5.26,0,0,1-3.5,1.38C42,18.75,39.8,16.66,39.8,13.08Z" transform="translate(-0.63 -2.62)"/><path class="cls-1" d="M50.76,2.62h1.83V7l-.07,2.22a5.14,5.14,0,0,1,3.6-1.79c2.28,0,3.3,1.47,3.3,4.23v6.86H57.59V11.86c0-2-.61-2.88-2-2.88-1.11,0-1.88.56-3,1.66v7.84H50.76Z" transform="translate(-0.63 -2.62)"/><path class="cls-1" d="M62.49,17.36a1.33,1.33,0,1,1,1.33,1.39A1.35,1.35,0,0,1,62.49,17.36Z" transform="translate(-0.63 -2.62)"/><path class="cls-1" d="M68,17.36a1.33,1.33,0,1,1,1.33,1.39A1.35,1.35,0,0,1,68,17.36Z" transform="translate(-0.63 -2.62)"/></g></g></svg>