<svg xmlns="http://www.w3.org/2000/svg" viewBox="0 0 303.84 44.89"><defs><style>.cls-1{fill:#fff;}</style></defs><g id="Layer_2" data-name="Layer 2"><g id="Layer_1-2" data-name="Layer 1"><path class="cls-1" d="M.91,2H2v7.2H5.41V10H.91Z" transform="translate(-0.42 -1.53)"/><path class="cls-1" d="M11.62,7.09a2.84,2.84,0,0,1-2.88,3.09A2.77,2.77,0,0,1,6,7.19,2.84,2.84,0,0,1,8.83,4.11,2.74,2.74,0,0,1,11.62,7.09ZM7,7.16c0,1.27.73,2.23,1.76,2.23s1.77-1,1.77-2.27c0-1-.49-2.22-1.75-2.22S7,6.06,7,7.16Z" transform="translate(-0.42 -1.53)"/><path class="cls-1" d="M13,6.05c0-.68,0-1.27-.05-1.81h.93l0,1.14h0a1.76,1.76,0,0,1,1.62-1.27,1.29,1.29,0,0,1,.29,0v1a1.86,1.86,0,0,0-.36,0,1.48,1.48,0,0,0-1.41,1.35A2.6,2.6,0,0,0,14,7V10H13Z" transform="translate(-0.42 -1.53)"/><path class="cls-1" d="M17.36,7.33a1.85,1.85,0,0,0,2,2A3.92,3.92,0,0,0,21,9.05l.18.75a4.63,4.63,0,0,1-1.93.37,2.71,2.71,0,0,1-2.86-2.93c0-1.76,1-3.13,2.73-3.13a2.45,2.45,0,0,1,2.39,2.73,2,2,0,0,1,0,.49Zm3.08-.75A1.49,1.49,0,0,0,19,4.87a1.73,1.73,0,0,0-1.62,1.71Z" transform="translate(-0.42 -1.53)"/><path class="cls-1" d="M22.78,5.81c0-.6,0-1.09-.05-1.57h.92l.05.94h0a2,2,0,0,1,1.83-1.07A1.71,1.71,0,0,1,27.2,5.27h0a2.34,2.34,0,0,1,.66-.75,2,2,0,0,1,1.27-.41c.78,0,1.92.5,1.92,2.52V10H30V6.76C30,5.64,29.62,5,28.78,5a1.39,1.39,0,0,0-1.26,1,1.84,1.84,0,0,0-.08.53V10h-1V6.56C26.41,5.64,26,5,25.2,5A1.45,1.45,0,0,0,23.89,6a1.46,1.46,0,0,0-.08.52V10h-1Z" transform="translate(-0.42 -1.53)"/><path class="cls-1" d="M37.65,2.6a.64.64,0,0,1-.67.66.63.63,0,0,1-.64-.66.66.66,0,0,1,1.31,0ZM36.47,10V4.24h1.05V10Z" transform="translate(-0.42 -1.53)"/><path class="cls-1" d="M39.27,6.13c0-.74,0-1.34,0-1.89h.94l.06,1h0a2.28,2.28,0,0,1,2.06-1.12c1.4,0,2.46,1.18,2.46,2.94,0,2.1-1.28,3.13-2.64,3.13a2,2,0,0,1-1.78-.92h0v3.16h-1Zm1,1.55a2,2,0,0,0,0,.43A1.62,1.62,0,0,0,42,9.35c1.11,0,1.76-.92,1.76-2.25C43.71,6,43.1,5,42,5a1.68,1.68,0,0,0-1.6,1.3,2.14,2.14,0,0,0-.07.43Z" transform="translate(-0.42 -1.53)"/><path class="cls-1" d="M46,9a2.89,2.89,0,0,0,1.4.41c.77,0,1.13-.38,1.13-.86s-.31-.77-1.08-1.06c-1-.38-1.54-1-1.54-1.65a1.8,1.8,0,0,1,2-1.7,2.79,2.79,0,0,1,1.42.36L49,5.24a2.3,2.3,0,0,0-1.19-.35c-.63,0-1,.36-1,.8s.35.69,1.11,1c1,.37,1.51.88,1.52,1.74,0,1-.8,1.75-2.17,1.75a3.3,3.3,0,0,1-1.63-.4Z" transform="translate(-0.42 -1.53)"/><path class="cls-1" d="M55.71,8.46c0,.6,0,1.12,0,1.58h-.93l-.06-.94h0a2.18,2.18,0,0,1-1.92,1.08c-.91,0-2-.51-2-2.55V4.24h1V7.45c0,1.1.34,1.86,1.29,1.86a1.55,1.55,0,0,0,1.4-1,1.73,1.73,0,0,0,.1-.54V4.24h1.05Z" transform="translate(-0.42 -1.53)"/><path class="cls-1" d="M57.47,5.81c0-.6,0-1.09,0-1.57h.92l0,.94h0a2,2,0,0,1,1.83-1.07,1.71,1.71,0,0,1,1.64,1.16h0a2.34,2.34,0,0,1,.66-.75,2,2,0,0,1,1.27-.41c.78,0,1.92.5,1.92,2.52V10h-1V6.76c0-1.12-.42-1.79-1.26-1.79a1.39,1.39,0,0,0-1.26,1,1.84,1.84,0,0,0-.08.53V10h-1V6.56c0-.92-.41-1.59-1.21-1.59A1.45,1.45,0,0,0,58.58,6a1.72,1.72,0,0,0-.08.52V10h-1Z" transform="translate(-0.42 -1.53)"/><path class="cls-1" d="M76.16,1.53v7c0,.51,0,1.09,0,1.49h-.94l0-1h0a2.12,2.12,0,0,1-2,1.14c-1.4,0-2.48-1.19-2.48-2.95,0-1.94,1.19-3.12,2.6-3.12A1.94,1.94,0,0,1,75.09,5h0V1.53Zm-1,5.07a2.38,2.38,0,0,0-.05-.45,1.56,1.56,0,0,0-1.53-1.21c-1.09,0-1.74,1-1.74,2.23s.58,2.16,1.72,2.16a1.59,1.59,0,0,0,1.54-1.27,1.63,1.63,0,0,0,.06-.45Z" transform="translate(-0.42 -1.53)"/><path class="cls-1" d="M83.18,7.09a2.84,2.84,0,0,1-2.89,3.09,2.77,2.77,0,0,1-2.79-3,2.84,2.84,0,0,1,2.88-3.08A2.75,2.75,0,0,1,83.18,7.09Zm-4.6.07c0,1.27.73,2.23,1.75,2.23s1.77-1,1.77-2.27c0-1-.49-2.22-1.75-2.22S78.58,6.06,78.58,7.16Z" transform="translate(-0.42 -1.53)"/><path class="cls-1" d="M84.51,1.53h1V10h-1Z" transform="translate(-0.42 -1.53)"/><path class="cls-1" d="M92.6,7.09a2.84,2.84,0,0,1-2.89,3.09,2.77,2.77,0,0,1-2.79-3A2.84,2.84,0,0,1,89.8,4.11,2.75,2.75,0,0,1,92.6,7.09ZM88,7.16c0,1.27.73,2.23,1.75,2.23s1.77-1,1.77-2.27c0-1-.49-2.22-1.75-2.22S88,6.06,88,7.16Z" transform="translate(-0.42 -1.53)"/><path class="cls-1" d="M93.93,6.05c0-.68,0-1.27-.05-1.81h.93l0,1.14h0A1.76,1.76,0,0,1,96.5,4.11a1.29,1.29,0,0,1,.29,0v1a1.75,1.75,0,0,0-.35,0A1.48,1.48,0,0,0,95,6.45,3.75,3.75,0,0,0,95,7V10h-1Z" transform="translate(-0.42 -1.53)"/><path class="cls-1" d="M101.39,9a2.86,2.86,0,0,0,1.4.41c.77,0,1.13-.38,1.13-.86s-.31-.77-1.08-1.06c-1-.38-1.55-1-1.54-1.65a1.79,1.79,0,0,1,2-1.7,2.77,2.77,0,0,1,1.42.36l-.26.77a2.27,2.27,0,0,0-1.19-.35c-.62,0-1,.36-1,.8s.34.69,1.1,1c1,.37,1.52.88,1.52,1.74,0,1-.79,1.75-2.17,1.75a3.33,3.33,0,0,1-1.63-.4Z" transform="translate(-0.42 -1.53)"/><path class="cls-1" d="M107.47,2.6a.66.66,0,1,1-1.31,0,.64.64,0,0,1,.66-.65A.63.63,0,0,1,107.47,2.6ZM106.29,10V4.24h1V10Z" transform="translate(-0.42 -1.53)"/><path class="cls-1" d="M110.37,2.57V4.24h1.51V5h-1.51V8.17c0,.72.2,1.13.79,1.13a1.89,1.89,0,0,0,.62-.08l0,.8a2.44,2.44,0,0,1-.94.15,1.47,1.47,0,0,1-1.14-.45,2.22,2.22,0,0,1-.41-1.51V5h-.9v-.8h.9V2.85Z" transform="translate(-0.42 -1.53)"/><path class="cls-1" d="M120,10l-.09-.73h0a2.18,2.18,0,0,1-1.78.87,1.66,1.66,0,0,1-1.77-1.67c0-1.4,1.24-2.18,3.49-2.16V6.23a1.2,1.2,0,0,0-1.33-1.34,2.84,2.84,0,0,0-1.51.43l-.24-.7a3.67,3.67,0,0,1,1.92-.51c1.77,0,2.2,1.21,2.2,2.38V8.66a9.59,9.59,0,0,0,.09,1.38Zm-.16-3c-1.15,0-2.45.18-2.45,1.3a.92.92,0,0,0,1,1,1.46,1.46,0,0,0,1.42-1,1.32,1.32,0,0,0,0-.33Z" transform="translate(-0.42 -1.53)"/><path class="cls-1" d="M122.54,5.81c0-.6,0-1.09-.05-1.57h.92l0,.94h0a2,2,0,0,1,1.83-1.07A1.71,1.71,0,0,1,127,5.27h0a2.34,2.34,0,0,1,.66-.75,2,2,0,0,1,1.27-.41c.78,0,1.92.5,1.92,2.52V10h-1V6.76c0-1.12-.42-1.79-1.26-1.79a1.39,1.39,0,0,0-1.26,1,1.84,1.84,0,0,0-.08.53V10h-1V6.56c0-.92-.41-1.59-1.21-1.59A1.46,1.46,0,0,0,123.65,6a1.72,1.72,0,0,0-.08.52V10h-1Z" transform="translate(-0.42 -1.53)"/><path class="cls-1" d="M133.14,7.33a1.85,1.85,0,0,0,2,2,3.92,3.92,0,0,0,1.61-.3l.18.75a4.63,4.63,0,0,1-1.93.37,2.71,2.71,0,0,1-2.86-2.93c0-1.76,1-3.13,2.73-3.13a2.45,2.45,0,0,1,2.39,2.73,2,2,0,0,1,0,.49Zm3.08-.75a1.49,1.49,0,0,0-1.45-1.71,1.73,1.73,0,0,0-1.62,1.71Z" transform="translate(-0.42 -1.53)"/><path class="cls-1" d="M139.82,2.57V4.24h1.52V5h-1.52V8.17c0,.72.21,1.13.8,1.13a1.87,1.87,0,0,0,.61-.08l.05.8a2.44,2.44,0,0,1-.94.15,1.46,1.46,0,0,1-1.14-.45,2.22,2.22,0,0,1-.41-1.51V5h-.9v-.8h.9V2.85Z" transform="translate(-0.42 -1.53)"/><path class="cls-1" d="M141.81,11.52a16.49,16.49,0,0,0,.72-2.87l1.18-.12a15.43,15.43,0,0,1-1.15,2.92Z" transform="translate(-0.42 -1.53)"/><path class="cls-1" d="M152.8,9.83a4,4,0,0,1-1.67.34,2.76,2.76,0,0,1-2.89-3,3,3,0,0,1,3.11-3.1,3.4,3.4,0,0,1,1.47.31l-.23.81A2.69,2.69,0,0,0,151.35,5a2,2,0,0,0-2,2.2,2,2,0,0,0,2,2.17A3.05,3.05,0,0,0,152.62,9Z" transform="translate(-0.42 -1.53)"/><path class="cls-1" d="M159.21,7.09a2.84,2.84,0,0,1-2.88,3.09,2.77,2.77,0,0,1-2.79-3,2.84,2.84,0,0,1,2.88-3.08A2.74,2.74,0,0,1,159.21,7.09Zm-4.59.07c0,1.27.72,2.23,1.75,2.23s1.77-1,1.77-2.27c0-1-.49-2.22-1.75-2.22S154.62,6.06,154.62,7.16Z" transform="translate(-0.42 -1.53)"/><path class="cls-1" d="M160.55,5.81c0-.6,0-1.09-.05-1.57h.94l.05,1h0a2.14,2.14,0,0,1,1.92-1.09c.8,0,2.05.48,2.05,2.47V10h-1.05V6.7c0-.94-.36-1.72-1.34-1.72a1.52,1.52,0,0,0-1.43,1.08,1.81,1.81,0,0,0-.07.49V10h-1Z" transform="translate(-0.42 -1.53)"/><path class="cls-1" d="M167.06,9a2.89,2.89,0,0,0,1.4.41c.77,0,1.13-.38,1.13-.86s-.31-.77-1.08-1.06c-1-.38-1.54-1-1.54-1.65a1.8,1.8,0,0,1,2-1.7,2.79,2.79,0,0,1,1.42.36l-.27.77a2.24,2.24,0,0,0-1.19-.35c-.62,0-1,.36-1,.8s.34.69,1.1,1c1,.37,1.52.88,1.53,1.74,0,1-.8,1.75-2.17,1.75a3.3,3.3,0,0,1-1.63-.4Z" transform="translate(-0.42 -1.53)"/><path class="cls-1" d="M172.55,7.33a1.86,1.86,0,0,0,2,2,4,4,0,0,0,1.61-.3l.18.75a4.63,4.63,0,0,1-1.93.37,2.71,2.71,0,0,1-2.86-2.93c0-1.76,1-3.13,2.73-3.13a2.45,2.45,0,0,1,2.39,2.73,2,2,0,0,1,0,.49Zm3.09-.75a1.49,1.49,0,0,0-1.45-1.71,1.73,1.73,0,0,0-1.62,1.71Z" transform="translate(-0.42 -1.53)"/><path class="cls-1" d="M182.11,9.83a3.91,3.91,0,0,1-1.66.34,2.77,2.77,0,0,1-2.9-3,3,3,0,0,1,3.12-3.1,3.47,3.47,0,0,1,1.47.31l-.24.81A2.65,2.65,0,0,0,180.67,5a2,2,0,0,0-2,2.2,2,2,0,0,0,2,2.17A3,3,0,0,0,181.93,9Z" transform="translate(-0.42 -1.53)"/><path class="cls-1" d="M184.77,2.57V4.24h1.52V5h-1.52V8.17c0,.72.21,1.13.8,1.13a1.87,1.87,0,0,0,.61-.08l0,.8a2.44,2.44,0,0,1-.94.15,1.46,1.46,0,0,1-1.14-.45,2.22,2.22,0,0,1-.41-1.51V5h-.9v-.8h.9V2.85Z" transform="translate(-0.42 -1.53)"/><path class="cls-1" d="M188,7.33a1.85,1.85,0,0,0,2,2,3.92,3.92,0,0,0,1.61-.3l.18.75a4.63,4.63,0,0,1-1.93.37A2.71,2.71,0,0,1,187,7.24c0-1.76,1-3.13,2.73-3.13a2.44,2.44,0,0,1,2.39,2.73,2,2,0,0,1,0,.49Zm3.08-.75a1.49,1.49,0,0,0-1.45-1.71A1.73,1.73,0,0,0,188,6.58Z" transform="translate(-0.42 -1.53)"/><path class="cls-1" d="M194.68,2.57V4.24h1.52V5h-1.52V8.17c0,.72.21,1.13.8,1.13a1.83,1.83,0,0,0,.61-.08l0,.8a2.44,2.44,0,0,1-.94.15,1.46,1.46,0,0,1-1.14-.45,2.22,2.22,0,0,1-.41-1.51V5h-.9v-.8h.9V2.85Z" transform="translate(-0.42 -1.53)"/><path class="cls-1" d="M202.24,8.46c0,.6,0,1.12,0,1.58h-.93l-.06-.94h0a2.18,2.18,0,0,1-1.92,1.08c-.91,0-2-.51-2-2.55V4.24h1.05V7.45c0,1.1.35,1.86,1.3,1.86a1.52,1.52,0,0,0,1.39-1,1.49,1.49,0,0,0,.1-.54V4.24h1.05Z" transform="translate(-0.42 -1.53)"/><path class="cls-1" d="M204,6.05c0-.68,0-1.27-.05-1.81h.93l0,1.14h0a1.77,1.77,0,0,1,1.62-1.27,1.29,1.29,0,0,1,.29,0v1a1.79,1.79,0,0,0-.36,0,1.48,1.48,0,0,0-1.41,1.35,2.6,2.6,0,0,0,0,.5V10H204Z" transform="translate(-0.42 -1.53)"/><path class="cls-1" d="M214.82,10l-.09-.73h0a2.16,2.16,0,0,1-1.77.87,1.66,1.66,0,0,1-1.78-1.67c0-1.4,1.25-2.18,3.49-2.16V6.23a1.19,1.19,0,0,0-1.32-1.34,2.81,2.81,0,0,0-1.51.43l-.24-.7a3.63,3.63,0,0,1,1.91-.51c1.78,0,2.21,1.21,2.21,2.38V8.66a8.34,8.34,0,0,0,.09,1.38Zm-.16-3c-1.14,0-2.45.18-2.45,1.3a.93.93,0,0,0,1,1,1.45,1.45,0,0,0,1.41-1,1,1,0,0,0,0-.33Z" transform="translate(-0.42 -1.53)"/><path class="cls-1" d="M222.4,1.53v7c0,.51,0,1.09,0,1.49h-.94l-.06-1h0a2.13,2.13,0,0,1-2,1.14C218.05,10.18,217,9,217,7.23c0-1.94,1.19-3.12,2.61-3.12a1.94,1.94,0,0,1,1.75.88h0V1.53ZM221.35,6.6a2.35,2.35,0,0,0,0-.45,1.57,1.57,0,0,0-1.53-1.21c-1.09,0-1.75,1-1.75,2.23s.59,2.16,1.73,2.16a1.6,1.6,0,0,0,1.54-1.27,1.64,1.64,0,0,0,0-.45Z" transform="translate(-0.42 -1.53)"/><path class="cls-1" d="M225.34,2.6a.66.66,0,1,1-1.31,0,.64.64,0,0,1,.66-.65A.63.63,0,0,1,225.34,2.6ZM224.16,10V4.24h1.05V10Z" transform="translate(-0.42 -1.53)"/><path class="cls-1" d="M227,6.13c0-.74,0-1.34-.05-1.89h.94l.06,1h0A2.28,2.28,0,0,1,230,4.11c1.41,0,2.46,1.18,2.46,2.94,0,2.1-1.27,3.13-2.63,3.13A2,2,0,0,1,228,9.26h0v3.16h-1Zm1,1.55a2,2,0,0,0,.05.43,1.62,1.62,0,0,0,1.58,1.24c1.12,0,1.76-.92,1.76-2.25C231.4,6,230.8,5,229.68,5a1.68,1.68,0,0,0-1.6,1.3,2.14,2.14,0,0,0-.07.43Z" transform="translate(-0.42 -1.53)"/><path class="cls-1" d="M235,2.6a.65.65,0,1,1-1.3,0,.64.64,0,0,1,.65-.65A.62.62,0,0,1,235,2.6ZM233.8,10V4.24h1V10Z" transform="translate(-0.42 -1.53)"/><path class="cls-1" d="M236.45,9a2.89,2.89,0,0,0,1.4.41c.77,0,1.13-.38,1.13-.86s-.31-.77-1.08-1.06c-1.05-.38-1.54-1-1.54-1.65a1.8,1.8,0,0,1,2-1.7,2.77,2.77,0,0,1,1.42.36l-.26.77a2.3,2.3,0,0,0-1.19-.35c-.63,0-1,.36-1,.8s.34.69,1.1,1c1,.37,1.52.88,1.52,1.74,0,1-.8,1.75-2.17,1.75a3.3,3.3,0,0,1-1.63-.4Z" transform="translate(-0.42 -1.53)"/><path class="cls-1" d="M245.49,9.83a3.91,3.91,0,0,1-1.66.34,2.77,2.77,0,0,1-2.9-3,3,3,0,0,1,3.12-3.1,3.47,3.47,0,0,1,1.47.31l-.24.81A2.65,2.65,0,0,0,244.05,5,2,2,0,0,0,242,7.15a2,2,0,0,0,2,2.17A3,3,0,0,0,245.31,9Z" transform="translate(-0.42 -1.53)"/><path class="cls-1" d="M247.91,2.6a.66.66,0,1,1-1.31,0,.64.64,0,0,1,.66-.65A.63.63,0,0,1,247.91,2.6ZM246.73,10V4.24h1.05V10Z" transform="translate(-0.42 -1.53)"/><path class="cls-1" d="M249.54,5.81c0-.6,0-1.09,0-1.57h.93l.06,1h0a2.14,2.14,0,0,1,1.92-1.09c.8,0,2,.48,2,2.47V10h-1.05V6.7c0-.94-.35-1.72-1.34-1.72a1.52,1.52,0,0,0-1.42,1.08,1.81,1.81,0,0,0-.07.49V10h-1.05Z" transform="translate(-0.42 -1.53)"/><path class="cls-1" d="M261.21,4.24c0,.41,0,.88,0,1.59V9.2a3.37,3.37,0,0,1-.83,2.65,3.08,3.08,0,0,1-2.11.7,3.67,3.67,0,0,1-1.94-.48l.26-.81a3.31,3.31,0,0,0,1.71.47c1.08,0,1.87-.57,1.87-2V9.05h0a2,2,0,0,1-1.84,1,2.59,2.59,0,0,1-2.47-2.83,2.78,2.78,0,0,1,2.62-3.08,1.94,1.94,0,0,1,1.81,1h0l0-.87Zm-1.1,2.29a1.8,1.8,0,0,0-.06-.48,1.53,1.53,0,0,0-1.48-1.12c-1,0-1.73.85-1.73,2.2,0,1.13.59,2.09,1.72,2.09A1.53,1.53,0,0,0,260,8.13a1.77,1.77,0,0,0,.09-.56Z" transform="translate(-0.42 -1.53)"/><path class="cls-1" d="M267.18,7.33a1.86,1.86,0,0,0,2,2,3.91,3.91,0,0,0,1.6-.3l.19.75a4.69,4.69,0,0,1-1.94.37,2.7,2.7,0,0,1-2.85-2.93c0-1.76,1-3.13,2.73-3.13a2.44,2.44,0,0,1,2.38,2.73,2.93,2.93,0,0,1,0,.49Zm3.09-.75a1.5,1.5,0,0,0-1.46-1.71,1.74,1.74,0,0,0-1.62,1.71Z" transform="translate(-0.42 -1.53)"/><path class="cls-1" d="M272.6,1.53h1V10h-1Z" transform="translate(-0.42 -1.53)"/><path class="cls-1" d="M276.61,2.6a.66.66,0,1,1-1.31,0A.64.64,0,0,1,276,2,.63.63,0,0,1,276.61,2.6ZM275.43,10V4.24h1.05V10Z" transform="translate(-0.42 -1.53)"/><path class="cls-1" d="M279.51,2.57V4.24H281V5h-1.51V8.17c0,.72.21,1.13.8,1.13a1.87,1.87,0,0,0,.61-.08l.05.8a2.54,2.54,0,0,1-1,.15,1.49,1.49,0,0,1-1.14-.45,2.22,2.22,0,0,1-.41-1.51V5h-.89v-.8h.89V2.85Z" transform="translate(-0.42 -1.53)"/><path class="cls-1" d="M281.5,11.52a17.44,17.44,0,0,0,.72-2.87l1.17-.12a14.78,14.78,0,0,1-1.15,2.92Z" transform="translate(-0.42 -1.53)"/><path class="cls-1" d="M288.2,9a2.82,2.82,0,0,0,1.39.41c.77,0,1.13-.38,1.13-.86s-.31-.77-1.08-1.06c-1-.38-1.54-1-1.54-1.65a1.8,1.8,0,0,1,2-1.7,2.77,2.77,0,0,1,1.42.36l-.26.77a2.3,2.3,0,0,0-1.19-.35c-.63,0-1,.36-1,.8s.34.69,1.1,1c1,.37,1.52.88,1.52,1.74,0,1-.8,1.75-2.17,1.75a3.33,3.33,0,0,1-1.63-.4Z" transform="translate(-0.42 -1.53)"/><path class="cls-1" d="M293.69,7.33a1.85,1.85,0,0,0,2,2,3.92,3.92,0,0,0,1.61-.3l.18.75a4.63,4.63,0,0,1-1.93.37,2.71,2.71,0,0,1-2.86-2.93c0-1.76,1-3.13,2.73-3.13a2.44,2.44,0,0,1,2.39,2.73,2.93,2.93,0,0,1,0,.49Zm3.08-.75a1.49,1.49,0,0,0-1.45-1.71,1.73,1.73,0,0,0-1.62,1.71Z" transform="translate(-0.42 -1.53)"/><path class="cls-1" d="M304.11,1.53v7c0,.51,0,1.09.05,1.49h-.93l-.06-1h0a2.12,2.12,0,0,1-2,1.14c-1.41,0-2.49-1.19-2.49-2.95,0-1.94,1.19-3.12,2.6-3.12A1.94,1.94,0,0,1,303,5h0V1.53Zm-1,5.07a2.38,2.38,0,0,0-.05-.45,1.56,1.56,0,0,0-1.53-1.21c-1.09,0-1.74,1-1.74,2.23s.59,2.16,1.72,2.16A1.59,1.59,0,0,0,303,8.06a1.63,1.63,0,0,0,.06-.45Z" transform="translate(-0.42 -1.53)"/><path class="cls-1" d="M5.88,18.53v7c0,.51,0,1.09,0,1.49H5l0-1h0a2.12,2.12,0,0,1-2,1.14C1.54,27.18.45,26,.45,24.23c0-1.94,1.2-3.12,2.61-3.12A1.94,1.94,0,0,1,4.81,22h0V18.53Zm-1,5.07a2.38,2.38,0,0,0,0-.45,1.56,1.56,0,0,0-1.53-1.21c-1.09,0-1.74,1-1.74,2.23s.58,2.16,1.72,2.16a1.59,1.59,0,0,0,1.54-1.27,1.63,1.63,0,0,0,.06-.45Z" transform="translate(-0.42 -1.53)"/><path class="cls-1" d="M12.9,24.09A2.84,2.84,0,0,1,10,27.18a2.77,2.77,0,0,1-2.79-3,2.84,2.84,0,0,1,2.88-3.08A2.75,2.75,0,0,1,12.9,24.09Zm-4.6.07c0,1.27.73,2.23,1.75,2.23s1.77-.95,1.77-2.27c0-1-.49-2.22-1.75-2.22S8.3,23.06,8.3,24.16Z" transform="translate(-0.42 -1.53)"/><path class="cls-1" d="M19.79,24.33a1.86,1.86,0,0,0,2,2,3.91,3.91,0,0,0,1.6-.3l.19.75a4.69,4.69,0,0,1-1.94.37,2.7,2.7,0,0,1-2.85-2.93c0-1.76,1-3.13,2.73-3.13a2.44,2.44,0,0,1,2.38,2.73,2.93,2.93,0,0,1,0,.49Zm3.09-.75a1.5,1.5,0,0,0-1.46-1.71,1.74,1.74,0,0,0-1.62,1.71Z" transform="translate(-0.42 -1.53)"/><path class="cls-1" d="M26.39,19.6a.66.66,0,1,1-.65-.65A.63.63,0,0,1,26.39,19.6ZM25.21,27v-5.8h1.05V27Z" transform="translate(-0.42 -1.53)"/><path class="cls-1" d="M32.87,25.46c0,.6,0,1.12.05,1.58H32l-.06-.94h0A2.18,2.18,0,0,1,30,27.18c-.91,0-2-.51-2-2.55V21.24H29v3.21c0,1.1.35,1.86,1.3,1.86a1.52,1.52,0,0,0,1.39-1,1.49,1.49,0,0,0,.1-.54V21.24h1Z" transform="translate(-0.42 -1.53)"/><path class="cls-1" d="M34.48,26a2.86,2.86,0,0,0,1.4.41c.77,0,1.13-.38,1.13-.86s-.31-.77-1.08-1.06c-1-.38-1.54-.95-1.54-1.65a1.79,1.79,0,0,1,2-1.7,2.81,2.81,0,0,1,1.43.36l-.27.77a2.24,2.24,0,0,0-1.19-.35c-.62,0-1,.36-1,.8s.34.69,1.1,1c1,.37,1.52.88,1.53,1.74,0,1-.8,1.75-2.17,1.75a3.27,3.27,0,0,1-1.63-.4Z" transform="translate(-0.42 -1.53)"/><path class="cls-1" d="M39.38,22.81c0-.6,0-1.09,0-1.57h.91l.06.94h0a2,2,0,0,1,1.83-1.07,1.71,1.71,0,0,1,1.63,1.16h0a2.21,2.21,0,0,1,.65-.75,2,2,0,0,1,1.28-.41c.77,0,1.91.5,1.91,2.52V27h-1V23.76c0-1.12-.41-1.79-1.26-1.79a1.39,1.39,0,0,0-1.25,1,1.84,1.84,0,0,0-.09.53V27H43V23.56c0-.92-.41-1.59-1.2-1.59A1.47,1.47,0,0,0,40.49,23a1.72,1.72,0,0,0-.08.52V27h-1Z" transform="translate(-0.42 -1.53)"/><path class="cls-1" d="M54.64,24.09a2.84,2.84,0,0,1-2.88,3.09,2.76,2.76,0,0,1-2.79-3,2.83,2.83,0,0,1,2.88-3.08A2.74,2.74,0,0,1,54.64,24.09Zm-4.6.07c0,1.27.73,2.23,1.76,2.23s1.77-.95,1.77-2.27c0-1-.5-2.22-1.75-2.22S50,23.06,50,24.16Z" transform="translate(-0.42 -1.53)"/><path class="cls-1" d="M61,18.53v7c0,.51,0,1.09,0,1.49h-.93l-.06-1h0a2.13,2.13,0,0,1-2,1.14c-1.41,0-2.49-1.19-2.49-2.95,0-1.94,1.19-3.12,2.6-3.12a1.93,1.93,0,0,1,1.75.88h0V18.53ZM60,23.6a1.77,1.77,0,0,0-.05-.45,1.55,1.55,0,0,0-1.52-1.21c-1.1,0-1.75,1-1.75,2.23s.59,2.16,1.72,2.16a1.61,1.61,0,0,0,1.55-1.27,2.14,2.14,0,0,0,.05-.45Z" transform="translate(-0.42 -1.53)"/><path class="cls-1" d="M69,19.57v1.67h1.52V22H69v3.13c0,.72.21,1.13.8,1.13a1.87,1.87,0,0,0,.61-.08l0,.8a2.48,2.48,0,0,1-.94.15,1.46,1.46,0,0,1-1.14-.45A2.22,2.22,0,0,1,68,25.21V22h-.9v-.8H68V19.85Z" transform="translate(-0.42 -1.53)"/><path class="cls-1" d="M72.22,24.33a1.85,1.85,0,0,0,2,2,3.92,3.92,0,0,0,1.61-.3l.18.75a4.63,4.63,0,0,1-1.93.37,2.71,2.71,0,0,1-2.86-2.93c0-1.76,1-3.13,2.73-3.13a2.45,2.45,0,0,1,2.39,2.73,2,2,0,0,1,0,.49Zm3.08-.75a1.49,1.49,0,0,0-1.45-1.71,1.73,1.73,0,0,0-1.62,1.71Z" transform="translate(-0.42 -1.53)"/><path class="cls-1" d="M77.64,22.81c0-.6,0-1.09,0-1.57h.92l0,.94h0a2,2,0,0,1,1.83-1.07,1.71,1.71,0,0,1,1.64,1.16h0a2.34,2.34,0,0,1,.66-.75A2,2,0,0,1,84,21.11c.78,0,1.92.5,1.92,2.52V27h-1V23.76c0-1.12-.42-1.79-1.26-1.79a1.39,1.39,0,0,0-1.26,1,1.84,1.84,0,0,0-.08.53V27h-1V23.56c0-.92-.41-1.59-1.21-1.59A1.45,1.45,0,0,0,78.75,23a1.72,1.72,0,0,0-.08.52V27h-1Z" transform="translate(-0.42 -1.53)"/><path class="cls-1" d="M87.64,23.13c0-.74,0-1.34,0-1.89h1l.06,1h0a2.28,2.28,0,0,1,2.06-1.12c1.4,0,2.46,1.18,2.46,2.94,0,2.1-1.28,3.13-2.64,3.13a2,2,0,0,1-1.78-.92h0v3.16h-1Zm1,1.55a2,2,0,0,0,0,.43,1.62,1.62,0,0,0,1.57,1.24c1.12,0,1.77-.92,1.77-2.25,0-1.15-.61-2.15-1.72-2.15a1.68,1.68,0,0,0-1.6,1.3,1.61,1.61,0,0,0-.07.43Z" transform="translate(-0.42 -1.53)"/><path class="cls-1" d="M99.73,24.09a2.84,2.84,0,0,1-2.88,3.09,2.77,2.77,0,0,1-2.79-3,2.84,2.84,0,0,1,2.88-3.08A2.74,2.74,0,0,1,99.73,24.09Zm-4.59.07c0,1.27.72,2.23,1.75,2.23s1.77-.95,1.77-2.27c0-1-.49-2.22-1.75-2.22S95.14,23.06,95.14,24.16Z" transform="translate(-0.42 -1.53)"/><path class="cls-1" d="M101.07,23.05c0-.68,0-1.27,0-1.81H102l0,1.14h0a1.78,1.78,0,0,1,1.62-1.27,1.29,1.29,0,0,1,.29,0v1a1.79,1.79,0,0,0-.36,0,1.48,1.48,0,0,0-1.41,1.35,3.75,3.75,0,0,0,0,.5V27h-1.05Z" transform="translate(-0.42 -1.53)"/><path class="cls-1" d="M111.14,19.6a.66.66,0,1,1-.65-.65A.63.63,0,0,1,111.14,19.6ZM110,27v-5.8H111V27Z" transform="translate(-0.42 -1.53)"/><path class="cls-1" d="M112.77,22.81c0-.6,0-1.09,0-1.57h.93l.06,1h0a2.14,2.14,0,0,1,1.92-1.09c.8,0,2,.48,2,2.47V27h-1V23.7c0-.94-.36-1.72-1.35-1.72a1.52,1.52,0,0,0-1.42,1.08,1.81,1.81,0,0,0-.07.49V27h-1Z" transform="translate(-0.42 -1.53)"/><path class="cls-1" d="M123.57,26.83a4,4,0,0,1-1.67.34,2.76,2.76,0,0,1-2.89-3,3,3,0,0,1,3.11-3.1,3.4,3.4,0,0,1,1.47.31l-.23.81a2.69,2.69,0,0,0-1.24-.28,2,2,0,0,0-2,2.2,2,2,0,0,0,2,2.17,3.05,3.05,0,0,0,1.29-.28Z" transform="translate(-0.42 -1.53)"/><path class="cls-1" d="M126,19.6a.65.65,0,0,1-.68.66.63.63,0,0,1-.63-.66.66.66,0,0,1,1.31,0ZM124.81,27v-5.8h1V27Z" transform="translate(-0.42 -1.53)"/><path class="cls-1" d="M132.62,18.53v7c0,.51,0,1.09,0,1.49h-.94l0-1h0a2.12,2.12,0,0,1-2,1.14c-1.4,0-2.49-1.19-2.49-2.95,0-1.94,1.2-3.12,2.61-3.12a1.94,1.94,0,0,1,1.75.88h0V18.53Zm-1.05,5.07a2.35,2.35,0,0,0,0-.45A1.57,1.57,0,0,0,130,21.94c-1.09,0-1.74,1-1.74,2.23s.58,2.16,1.72,2.16a1.6,1.6,0,0,0,1.54-1.27,1.64,1.64,0,0,0,0-.45Z" transform="translate(-0.42 -1.53)"/><path class="cls-1" d="M135.56,19.6a.66.66,0,1,1-.65-.65A.63.63,0,0,1,135.56,19.6ZM134.38,27v-5.8h1.05V27Z" transform="translate(-0.42 -1.53)"/><path class="cls-1" d="M142.2,18.53v7c0,.51,0,1.09,0,1.49h-.93l-.06-1h0a2.13,2.13,0,0,1-2,1.14c-1.41,0-2.49-1.19-2.49-2.95,0-1.94,1.19-3.12,2.6-3.12a1.93,1.93,0,0,1,1.75.88h0V18.53Zm-1,5.07a1.77,1.77,0,0,0-.05-.45,1.55,1.55,0,0,0-1.52-1.21c-1.1,0-1.75,1-1.75,2.23s.59,2.16,1.72,2.16a1.61,1.61,0,0,0,1.55-1.27,2.14,2.14,0,0,0,.05-.45Z" transform="translate(-0.42 -1.53)"/><path class="cls-1" d="M148.81,25.46c0,.6,0,1.12.05,1.58h-.93l-.06-.94h0a2.18,2.18,0,0,1-1.92,1.08c-.91,0-2-.51-2-2.55V21.24H145v3.21c0,1.1.35,1.86,1.3,1.86a1.54,1.54,0,0,0,1.39-1,1.49,1.49,0,0,0,.1-.54V21.24h1.05Z" transform="translate(-0.42 -1.53)"/><path class="cls-1" d="M150.57,22.81c0-.6,0-1.09,0-1.57h.94l0,1h0a2.14,2.14,0,0,1,1.92-1.09c.8,0,2,.48,2,2.47V27h-1V23.7c0-.94-.36-1.72-1.35-1.72a1.52,1.52,0,0,0-1.42,1.08,1.81,1.81,0,0,0-.07.49V27h-1.05Z" transform="translate(-0.42 -1.53)"/><path class="cls-1" d="M158.45,19.57v1.67H160V22h-1.51v3.13c0,.72.21,1.13.8,1.13a1.87,1.87,0,0,0,.61-.08l0,.8a2.54,2.54,0,0,1-.95.15,1.49,1.49,0,0,1-1.14-.45,2.22,2.22,0,0,1-.4-1.51V22h-.9v-.8h.9V19.85Z" transform="translate(-0.42 -1.53)"/><path class="cls-1" d="M171,25.46c0,.6,0,1.12.05,1.58h-.93L170,26.1h0a2.18,2.18,0,0,1-1.92,1.08c-.91,0-2-.51-2-2.55V21.24h1v3.21c0,1.1.35,1.86,1.3,1.86a1.55,1.55,0,0,0,1.4-1,1.74,1.74,0,0,0,.09-.54V21.24H171Z" transform="translate(-0.42 -1.53)"/><path class="cls-1" d="M174,19.57v1.67h1.51V22H174v3.13c0,.72.21,1.13.8,1.13a1.87,1.87,0,0,0,.61-.08l.05.8a2.54,2.54,0,0,1-1,.15,1.45,1.45,0,0,1-1.13-.45,2.17,2.17,0,0,1-.41-1.51V22h-.9v-.8h.9V19.85Z" transform="translate(-0.42 -1.53)"/><path class="cls-1" d="M181.67,18.53h1.05V27h-1.05Z" transform="translate(-0.42 -1.53)"/><path class="cls-1" d="M187.72,27l-.09-.73h0a2.15,2.15,0,0,1-1.77.87,1.66,1.66,0,0,1-1.77-1.67c0-1.4,1.24-2.18,3.48-2.16v-.12a1.19,1.19,0,0,0-1.32-1.34,2.84,2.84,0,0,0-1.51.43l-.24-.7a3.67,3.67,0,0,1,1.92-.51c1.77,0,2.2,1.21,2.2,2.38v2.17a9.59,9.59,0,0,0,.09,1.38Zm-.16-3c-1.15,0-2.45.18-2.45,1.3a.92.92,0,0,0,1,1,1.46,1.46,0,0,0,1.42-1,1.32,1.32,0,0,0,.05-.33Z" transform="translate(-0.42 -1.53)"/><path class="cls-1" d="M190.24,27c0-.39,0-1,0-1.49v-7h1v3.64h0a2.15,2.15,0,0,1,2-1.06c1.44,0,2.45,1.2,2.44,3,0,2.08-1.31,3.11-2.61,3.11a2.09,2.09,0,0,1-1.94-1.09h0l0,.95Zm1.09-2.32a1.58,1.58,0,0,0,0,.38A1.63,1.63,0,0,0,193,26.34c1.11,0,1.76-.9,1.76-2.23,0-1.17-.6-2.17-1.73-2.17a1.7,1.7,0,0,0-1.6,1.3,1.87,1.87,0,0,0-.06.44Z" transform="translate(-0.42 -1.53)"/><path class="cls-1" d="M202.38,24.09a2.84,2.84,0,0,1-2.89,3.09,2.77,2.77,0,0,1-2.79-3,2.84,2.84,0,0,1,2.88-3.08A2.75,2.75,0,0,1,202.38,24.09Zm-4.6.07c0,1.27.73,2.23,1.76,2.23s1.76-.95,1.76-2.27c0-1-.49-2.22-1.74-2.22S197.78,23.06,197.78,24.16Z" transform="translate(-0.42 -1.53)"/><path class="cls-1" d="M203.71,23.05c0-.68,0-1.27-.05-1.81h.93l0,1.14h0a1.76,1.76,0,0,1,1.61-1.27,1.39,1.39,0,0,1,.3,0v1a1.94,1.94,0,0,0-.36,0,1.48,1.48,0,0,0-1.42,1.35,3.75,3.75,0,0,0,0,.5V27h-1Z" transform="translate(-0.42 -1.53)"/><path class="cls-1" d="M208.11,24.33a1.85,1.85,0,0,0,2,2,3.92,3.92,0,0,0,1.61-.3l.19.75a4.69,4.69,0,0,1-1.94.37,2.7,2.7,0,0,1-2.85-2.93c0-1.76,1-3.13,2.73-3.13a2.44,2.44,0,0,1,2.38,2.73,2.93,2.93,0,0,1,0,.49Zm3.09-.75a1.5,1.5,0,0,0-1.46-1.71,1.73,1.73,0,0,0-1.62,1.71Z" transform="translate(-0.42 -1.53)"/><path class="cls-1" d="M219.09,24.33a1.85,1.85,0,0,0,2,2,3.92,3.92,0,0,0,1.61-.3l.18.75a4.6,4.6,0,0,1-1.93.37,2.71,2.71,0,0,1-2.86-2.93c0-1.76,1-3.13,2.73-3.13a2.44,2.44,0,0,1,2.39,2.73,2.93,2.93,0,0,1,0,.49Zm3.09-.75a1.5,1.5,0,0,0-1.46-1.71,1.73,1.73,0,0,0-1.62,1.71Z" transform="translate(-0.42 -1.53)"/><path class="cls-1" d="M225.78,19.57v1.67h1.51V22h-1.51v3.13c0,.72.2,1.13.79,1.13a1.79,1.79,0,0,0,.61-.08l0,.8a2.44,2.44,0,0,1-.94.15,1.47,1.47,0,0,1-1.14-.45,2.22,2.22,0,0,1-.41-1.51V22h-.9v-.8h.9V19.85Z" transform="translate(-0.42 -1.53)"/><path class="cls-1" d="M238.45,18.53v7c0,.51,0,1.09.05,1.49h-.94l-.05-1h0a2.12,2.12,0,0,1-2,1.14c-1.4,0-2.48-1.19-2.48-2.95,0-1.94,1.19-3.12,2.6-3.12a1.94,1.94,0,0,1,1.75.88h0V18.53Zm-1,5.07a2.38,2.38,0,0,0,0-.45,1.56,1.56,0,0,0-1.53-1.21c-1.09,0-1.74,1-1.74,2.23s.58,2.16,1.72,2.16a1.59,1.59,0,0,0,1.54-1.27,1.63,1.63,0,0,0,.06-.45Z" transform="translate(-0.42 -1.53)"/><path class="cls-1" d="M245.47,24.09a2.84,2.84,0,0,1-2.89,3.09,2.77,2.77,0,0,1-2.79-3,2.84,2.84,0,0,1,2.88-3.08A2.75,2.75,0,0,1,245.47,24.09Zm-4.6.07c0,1.27.73,2.23,1.76,2.23s1.76-.95,1.76-2.27c0-1-.49-2.22-1.75-2.22S240.87,23.06,240.87,24.16Z" transform="translate(-0.42 -1.53)"/><path class="cls-1" d="M246.8,18.53h1V27h-1Z" transform="translate(-0.42 -1.53)"/><path class="cls-1" d="M254.89,24.09A2.84,2.84,0,0,1,252,27.18a2.77,2.77,0,0,1-2.79-3,2.84,2.84,0,0,1,2.88-3.08A2.75,2.75,0,0,1,254.89,24.09Zm-4.6.07c0,1.27.73,2.23,1.76,2.23s1.76-.95,1.76-2.27c0-1-.49-2.22-1.75-2.22S250.29,23.06,250.29,24.16Z" transform="translate(-0.42 -1.53)"/><path class="cls-1" d="M256.22,23.05c0-.68,0-1.27-.05-1.81h.93l0,1.14h0a1.76,1.76,0,0,1,1.61-1.27,1.23,1.23,0,0,1,.29,0v1a1.75,1.75,0,0,0-.35,0,1.48,1.48,0,0,0-1.42,1.35,3.75,3.75,0,0,0,0,.5V27h-1Z" transform="translate(-0.42 -1.53)"/><path class="cls-1" d="M260.62,24.33a1.85,1.85,0,0,0,2,2,3.92,3.92,0,0,0,1.61-.3l.18.75a4.6,4.6,0,0,1-1.93.37,2.71,2.71,0,0,1-2.86-2.93c0-1.76,1-3.13,2.73-3.13a2.44,2.44,0,0,1,2.39,2.73,2.93,2.93,0,0,1,0,.49Zm3.09-.75a1.5,1.5,0,0,0-1.46-1.71,1.73,1.73,0,0,0-1.62,1.71Z" transform="translate(-0.42 -1.53)"/><path class="cls-1" d="M271,22.81c0-.6,0-1.09-.05-1.57h.91l.06.94h0a2,2,0,0,1,1.83-1.07,1.71,1.71,0,0,1,1.64,1.16h0a2.32,2.32,0,0,1,.65-.75,2,2,0,0,1,1.28-.41c.77,0,1.92.5,1.92,2.52V27h-1V23.76c0-1.12-.42-1.79-1.26-1.79a1.39,1.39,0,0,0-1.26,1,1.84,1.84,0,0,0-.08.53V27h-1V23.56c0-.92-.41-1.59-1.21-1.59A1.56,1.56,0,0,0,272,23.55V27h-1Z" transform="translate(-0.42 -1.53)"/><path class="cls-1" d="M284.23,27l-.09-.73h0a2.18,2.18,0,0,1-1.78.87,1.66,1.66,0,0,1-1.77-1.67c0-1.4,1.24-2.18,3.49-2.16v-.12a1.2,1.2,0,0,0-1.33-1.34,2.84,2.84,0,0,0-1.51.43l-.24-.7a3.67,3.67,0,0,1,1.92-.51c1.77,0,2.2,1.21,2.2,2.38v2.17a9.59,9.59,0,0,0,.09,1.38Zm-.16-3c-1.15,0-2.45.18-2.45,1.3a.92.92,0,0,0,1,1,1.46,1.46,0,0,0,1.42-1,1.32,1.32,0,0,0,.05-.33Z" transform="translate(-0.42 -1.53)"/><path class="cls-1" d="M291.8,21.24c0,.41-.05.88-.05,1.59V26.2a3.37,3.37,0,0,1-.82,2.65,3.11,3.11,0,0,1-2.12.7,3.66,3.66,0,0,1-1.93-.48l.26-.81a3.28,3.28,0,0,0,1.71.47c1.07,0,1.87-.57,1.87-2v-.64h0a2.05,2.05,0,0,1-1.84,1,2.59,2.59,0,0,1-2.47-2.83A2.78,2.78,0,0,1,289,21.11a1.92,1.92,0,0,1,1.81,1h0l0-.87Zm-1.09,2.29a1.8,1.8,0,0,0-.06-.48,1.54,1.54,0,0,0-1.48-1.12c-1,0-1.73.85-1.73,2.2,0,1.13.58,2.09,1.72,2.09a1.53,1.53,0,0,0,1.46-1.09,1.77,1.77,0,0,0,.09-.56Z" transform="translate(-0.42 -1.53)"/><path class="cls-1" d="M293.43,22.81c0-.6,0-1.09,0-1.57h.93l.06,1h0a2.12,2.12,0,0,1,1.91-1.09c.8,0,2.05.48,2.05,2.47V27h-1.05V23.7c0-.94-.36-1.72-1.34-1.72a1.5,1.5,0,0,0-1.42,1.08,1.48,1.48,0,0,0-.08.49V27h-1.05Z" transform="translate(-0.42 -1.53)"/><path class="cls-1" d="M303.31,27l-.09-.73h0a2.18,2.18,0,0,1-1.78.87,1.66,1.66,0,0,1-1.77-1.67c0-1.4,1.24-2.18,3.49-2.16v-.12a1.2,1.2,0,0,0-1.33-1.34,2.84,2.84,0,0,0-1.51.43l-.24-.7a3.67,3.67,0,0,1,1.92-.51c1.77,0,2.2,1.21,2.2,2.38v2.17a9.59,9.59,0,0,0,.09,1.38Zm-.16-3c-1.15,0-2.45.18-2.45,1.3a.92.92,0,0,0,1,1,1.46,1.46,0,0,0,1.42-1,1.32,1.32,0,0,0,0-.33Z" transform="translate(-0.42 -1.53)"/><path class="cls-1" d="M4.09,44,4,43.31H4a2.17,2.17,0,0,1-1.78.87A1.66,1.66,0,0,1,.42,42.51c0-1.4,1.25-2.18,3.49-2.16v-.12a1.19,1.19,0,0,0-1.32-1.34,2.81,2.81,0,0,0-1.51.43l-.24-.7a3.63,3.63,0,0,1,1.91-.51C4.53,38.11,5,39.32,5,40.49v2.17A9.68,9.68,0,0,0,5,44Zm-.16-3c-1.14,0-2.45.18-2.45,1.3a.93.93,0,0,0,1,1,1.45,1.45,0,0,0,1.41-1,1,1,0,0,0,.05-.33Z" transform="translate(-0.42 -1.53)"/><path class="cls-1" d="M6.66,35.53h1V44h-1Z" transform="translate(-0.42 -1.53)"/><path class="cls-1" d="M10.67,36.6A.66.66,0,1,1,10,36,.63.63,0,0,1,10.67,36.6ZM9.49,44v-5.8h1V44Z" transform="translate(-0.42 -1.53)"/><path class="cls-1" d="M16.26,43.15h0a2.07,2.07,0,0,1-1.89,1c-1.36,0-2.46-1.17-2.46-2.94,0-2.18,1.4-3.13,2.63-3.13a1.89,1.89,0,0,1,1.78,1h0l0-.88h1c0,.49,0,1,0,1.6v6.58h-1Zm0-2.56a1.56,1.56,0,0,0-.05-.44A1.54,1.54,0,0,0,14.7,39c-1.1,0-1.76.93-1.76,2.22s.56,2.17,1.72,2.17a1.58,1.58,0,0,0,1.51-1.15,1.48,1.48,0,0,0,.09-.51Z" transform="translate(-0.42 -1.53)"/><path class="cls-1" d="M23.91,42.46c0,.6,0,1.12.05,1.58H23L23,43.1h0A2.18,2.18,0,0,1,21,44.18c-.91,0-2-.51-2-2.55V38.24h1.05v3.21c0,1.1.34,1.86,1.3,1.86a1.54,1.54,0,0,0,1.39-1,1.49,1.49,0,0,0,.1-.54V38.24h1.05Z" transform="translate(-0.42 -1.53)"/><path class="cls-1" d="M28.89,44l-.1-.73h0a2.16,2.16,0,0,1-1.77.87,1.65,1.65,0,0,1-1.77-1.67c0-1.4,1.24-2.18,3.48-2.16v-.12a1.19,1.19,0,0,0-1.32-1.34,2.84,2.84,0,0,0-1.51.43l-.24-.7a3.63,3.63,0,0,1,1.91-.51c1.78,0,2.21,1.21,2.21,2.38v2.17A8.34,8.34,0,0,0,29.84,44Zm-.17-3c-1.14,0-2.45.18-2.45,1.3a.93.93,0,0,0,1,1,1.45,1.45,0,0,0,1.41-1,1,1,0,0,0,0-.33Z" transform="translate(-0.42 -1.53)"/><path class="cls-1" d="M31.2,43.42a.72.72,0,1,1,.71.76A.72.72,0,0,1,31.2,43.42Z" transform="translate(-0.42 -1.53)"/><path class="cls-1" d="M37.56,36v4.79c0,1.8.8,2.57,1.89,2.57s2-.79,2-2.57V36h1.05v4.72c0,2.48-1.3,3.5-3.06,3.5s-2.89-1-2.89-3.46V36Z" transform="translate(-0.42 -1.53)"/><path class="cls-1" d="M45.57,36.57v1.67h1.52V39H45.57v3.13c0,.72.21,1.13.8,1.13a1.87,1.87,0,0,0,.61-.08L47,44a2.48,2.48,0,0,1-.94.15A1.46,1.46,0,0,1,45,43.72a2.22,2.22,0,0,1-.41-1.51V39h-.9v-.8h.9V36.85Z" transform="translate(-0.42 -1.53)"/><path class="cls-1" d="M51.41,41.33a1.86,1.86,0,0,0,2,2,3.91,3.91,0,0,0,1.6-.3l.19.75a4.69,4.69,0,0,1-1.94.37,2.7,2.7,0,0,1-2.85-2.93c0-1.76,1-3.13,2.73-3.13a2.44,2.44,0,0,1,2.38,2.73,2.93,2.93,0,0,1,0,.49Zm3.09-.75A1.5,1.5,0,0,0,53,38.87a1.74,1.74,0,0,0-1.62,1.71Z" transform="translate(-0.42 -1.53)"/><path class="cls-1" d="M56.83,39.81c0-.6,0-1.09,0-1.57h.93l.06,1h0a2.14,2.14,0,0,1,1.92-1.09c.8,0,2.05.48,2.05,2.47V44H60.72V40.7c0-.94-.36-1.72-1.34-1.72A1.5,1.5,0,0,0,58,40.06a1.48,1.48,0,0,0-.08.49V44H56.83Z" transform="translate(-0.42 -1.53)"/><path class="cls-1" d="M64.67,36.6A.66.66,0,1,1,64,36,.63.63,0,0,1,64.67,36.6ZM63.49,44v-5.8h1.05V44Z" transform="translate(-0.42 -1.53)"/><path class="cls-1" d="M66.3,39.81c0-.6,0-1.09,0-1.57h.92l.06.94h0a2,2,0,0,1,1.83-1.07,1.71,1.71,0,0,1,1.63,1.16h0a2.34,2.34,0,0,1,.66-.75,2,2,0,0,1,1.28-.41c.77,0,1.91.5,1.91,2.52V44h-1V40.76c0-1.12-.41-1.79-1.26-1.79a1.38,1.38,0,0,0-1.25,1,1.84,1.84,0,0,0-.09.53V44h-1V40.56c0-.92-.41-1.59-1.2-1.59A1.47,1.47,0,0,0,67.41,40a1.72,1.72,0,0,0-.08.52V44h-1Z" transform="translate(-0.42 -1.53)"/><path class="cls-1" d="M82.07,44,82,43.31h0a2.15,2.15,0,0,1-1.77.87,1.66,1.66,0,0,1-1.77-1.67c0-1.4,1.24-2.18,3.48-2.16v-.12a1.19,1.19,0,0,0-1.32-1.34,2.84,2.84,0,0,0-1.51.43l-.24-.7a3.67,3.67,0,0,1,1.92-.51c1.77,0,2.2,1.21,2.2,2.38v2.17A9.59,9.59,0,0,0,83,44Zm-.16-3c-1.15,0-2.45.18-2.45,1.3a.92.92,0,0,0,1,1,1.43,1.43,0,0,0,1.41-1,1,1,0,0,0,.06-.33Z" transform="translate(-0.42 -1.53)"/><path class="cls-1" d="M89.64,35.53v7c0,.51,0,1.09,0,1.49h-.94l0-1h0a2.12,2.12,0,0,1-2,1.14c-1.4,0-2.49-1.19-2.49-3,0-1.94,1.2-3.12,2.61-3.12a1.94,1.94,0,0,1,1.75.88h0V35.53Zm-1,5.07a2.35,2.35,0,0,0,0-.45A1.56,1.56,0,0,0,87,38.94c-1.09,0-1.74,1-1.74,2.23s.58,2.16,1.72,2.16a1.59,1.59,0,0,0,1.54-1.27,1.64,1.64,0,0,0,0-.45Z" transform="translate(-0.42 -1.53)"/><path class="cls-1" d="M94,39.81c0-.6,0-1.09,0-1.57h.92l.05.94h0a2,2,0,0,1,1.83-1.07,1.71,1.71,0,0,1,1.64,1.16h0a2.34,2.34,0,0,1,.66-.75,2,2,0,0,1,1.27-.41c.78,0,1.92.5,1.92,2.52V44h-1V40.76c0-1.12-.42-1.79-1.26-1.79a1.39,1.39,0,0,0-1.26,1,1.84,1.84,0,0,0-.08.53V44h-1V40.56c0-.92-.41-1.59-1.21-1.59A1.46,1.46,0,0,0,95.06,40a1.72,1.72,0,0,0-.08.52V44H94Z" transform="translate(-0.42 -1.53)"/><path class="cls-1" d="M105.14,36.6a.65.65,0,0,1-.68.66.63.63,0,0,1-.63-.66.66.66,0,0,1,1.31,0ZM104,44v-5.8H105V44Z" transform="translate(-0.42 -1.53)"/><path class="cls-1" d="M106.76,39.81c0-.6,0-1.09,0-1.57h.93l.06,1h0a2.12,2.12,0,0,1,1.91-1.09c.8,0,2,.48,2,2.47V44h-1V40.7c0-.94-.35-1.72-1.34-1.72a1.52,1.52,0,0,0-1.42,1.08,1.48,1.48,0,0,0-.08.49V44h-1Z" transform="translate(-0.42 -1.53)"/><path class="cls-1" d="M114.6,36.6a.64.64,0,0,1-.67.66.63.63,0,0,1-.63-.66A.64.64,0,0,1,114,36,.62.62,0,0,1,114.6,36.6ZM113.43,44v-5.8h1V44Z" transform="translate(-0.42 -1.53)"/><path class="cls-1" d="M116.23,39.81c0-.6,0-1.09,0-1.57h.91l.06.94h0A2,2,0,0,1,119,38.11a1.71,1.71,0,0,1,1.63,1.16h0a2.21,2.21,0,0,1,.65-.75,2,2,0,0,1,1.28-.41c.77,0,1.91.5,1.91,2.52V44h-1V40.76c0-1.12-.41-1.79-1.26-1.79a1.38,1.38,0,0,0-1.25,1,1.84,1.84,0,0,0-.09.53V44h-1V40.56c0-.92-.41-1.59-1.2-1.59A1.47,1.47,0,0,0,117.34,40a1.72,1.72,0,0,0-.08.52V44h-1Z" transform="translate(-0.42 -1.53)"/><path class="cls-1" d="M129.19,38.24l1.14,3.26c.19.53.34,1,.47,1.49h0c.13-.48.29-1,.48-1.49l1.14-3.26h1.1L131.28,44h-1l-2.21-5.8Z" transform="translate(-0.42 -1.53)"/><path class="cls-1" d="M135,41.33a1.85,1.85,0,0,0,2,2,3.92,3.92,0,0,0,1.61-.3l.18.75a4.63,4.63,0,0,1-1.93.37A2.71,2.71,0,0,1,134,41.24c0-1.76,1-3.13,2.73-3.13a2.44,2.44,0,0,1,2.39,2.73,2,2,0,0,1,0,.49Zm3.08-.75a1.49,1.49,0,0,0-1.45-1.71A1.73,1.73,0,0,0,135,40.58Z" transform="translate(-0.42 -1.53)"/><path class="cls-1" d="M140.45,39.81c0-.6,0-1.09,0-1.57h.93l.06,1h0a2.14,2.14,0,0,1,1.92-1.09c.79,0,2,.48,2,2.47V44h-1V40.7c0-.94-.35-1.72-1.34-1.72a1.52,1.52,0,0,0-1.42,1.08,1.81,1.81,0,0,0-.07.49V44h-1.05Z" transform="translate(-0.42 -1.53)"/><path class="cls-1" d="M148.29,36.6a.64.64,0,0,1-.67.66.63.63,0,0,1-.64-.66.66.66,0,0,1,1.31,0ZM147.11,44v-5.8h1V44Z" transform="translate(-0.42 -1.53)"/><path class="cls-1" d="M153.13,44l-.09-.73h0a2.18,2.18,0,0,1-1.78.87,1.66,1.66,0,0,1-1.77-1.67c0-1.4,1.25-2.18,3.49-2.16v-.12a1.19,1.19,0,0,0-1.32-1.34,2.81,2.81,0,0,0-1.51.43l-.24-.7a3.63,3.63,0,0,1,1.91-.51c1.77,0,2.21,1.21,2.21,2.38v2.17a9.68,9.68,0,0,0,.08,1.38Zm-.16-3c-1.14,0-2.45.18-2.45,1.3a.93.93,0,0,0,1,1,1.45,1.45,0,0,0,1.41-1,1.32,1.32,0,0,0,.05-.33Z" transform="translate(-0.42 -1.53)"/><path class="cls-1" d="M155.7,39.81c0-.6,0-1.09,0-1.57h.92l.05.94h0a2,2,0,0,1,1.84-1.07,1.71,1.71,0,0,1,1.63,1.16h0a2.34,2.34,0,0,1,.66-.75,2,2,0,0,1,1.27-.41c.78,0,1.92.5,1.92,2.52V44h-1V40.76c0-1.12-.41-1.79-1.26-1.79a1.38,1.38,0,0,0-1.25,1,1.84,1.84,0,0,0-.09.53V44h-1V40.56c0-.92-.41-1.59-1.21-1.59A1.47,1.47,0,0,0,156.81,40a1.72,1.72,0,0,0-.08.52V44h-1Z" transform="translate(-0.42 -1.53)"/><path class="cls-1" d="M165,45.52a17.44,17.44,0,0,0,.72-2.87l1.17-.12a14.78,14.78,0,0,1-1.15,2.92Z" transform="translate(-0.42 -1.53)"/></g></g></svg>