<svg xmlns="http://www.w3.org/2000/svg" viewBox="0 0 90.34 42.54"><defs><style>.cls-1{fill:#fff;}</style></defs><g id="Layer_2" data-name="Layer 2"><g id="Layer_1-2" data-name="Layer 1"><path class="cls-1" d="M1.23,2.74a15.12,15.12,0,0,1,2.68-.22,4.41,4.41,0,0,1,3,.9,2.9,2.9,0,0,1,1,2.26A3.15,3.15,0,0,1,7,8,4.44,4.44,0,0,1,3.75,9.17a4.79,4.79,0,0,1-1.13-.1v4.32H1.23ZM2.62,7.93a4.3,4.3,0,0,0,1.16.12c1.68,0,2.71-.83,2.71-2.3s-1-2.13-2.55-2.13a7,7,0,0,0-1.32.11Z" transform="translate(0 -2.03)"/><path class="cls-1" d="M9.44,8.06c0-.91,0-1.69-.06-2.41h1.23l.05,1.52h.05a2.35,2.35,0,0,1,2.16-1.69,1.61,1.61,0,0,1,.39,0V6.84a2.27,2.27,0,0,0-.48,0A2,2,0,0,0,10.9,8.6a3.45,3.45,0,0,0-.06.66v4.13H9.44Z" transform="translate(0 -2.03)"/><path class="cls-1" d="M16.31,3.46a.85.85,0,0,1-.89.88.84.84,0,0,1-.85-.88.85.85,0,0,1,.87-.87A.83.83,0,0,1,16.31,3.46Zm-1.57,9.93V5.65h1.4v7.74Z" transform="translate(0 -2.03)"/><path class="cls-1" d="M19,5.65,20.54,10c.26.72.46,1.36.64,2h0c.18-.64.4-1.29.65-2l1.51-4.34h1.47l-3,7.74H20.46L17.52,5.65Z" transform="translate(0 -2.03)"/><path class="cls-1" d="M30.41,13.39l-.13-1h0a2.88,2.88,0,0,1-2.37,1.15,2.21,2.21,0,0,1-2.36-2.22c0-1.88,1.66-2.91,4.65-2.89V8.3A1.6,1.6,0,0,0,28.4,6.51a3.79,3.79,0,0,0-2,.58l-.32-.94a4.91,4.91,0,0,1,2.56-.67c2.36,0,2.94,1.61,2.94,3.16v2.9a11.65,11.65,0,0,0,.12,1.85Zm-.22-4c-1.53,0-3.27.24-3.27,1.74a1.24,1.24,0,0,0,1.31,1.35,2,2,0,0,0,1.89-1.3,1.44,1.44,0,0,0,.07-.44Z" transform="translate(0 -2.03)"/><path class="cls-1" d="M39.35,13.11a5.37,5.37,0,0,1-2.23.45,3.69,3.69,0,0,1-3.86-4,3.94,3.94,0,0,1,4.16-4.13,4.59,4.59,0,0,1,2,.41L39.06,7a3.44,3.44,0,0,0-1.64-.37,2.68,2.68,0,0,0-2.73,2.93,2.66,2.66,0,0,0,2.69,2.9,4.17,4.17,0,0,0,1.73-.37Z" transform="translate(0 -2.03)"/><path class="cls-1" d="M41.79,5.65l1.69,4.58c.18.51.37,1.12.5,1.58h0c.14-.46.31-1.05.49-1.61L46,5.65h1.5l-2.12,5.52c-1,2.66-1.69,4-2.65,4.85a3.87,3.87,0,0,1-1.73.9l-.35-1.17a3.64,3.64,0,0,0,1.24-.69,4.36,4.36,0,0,0,1.17-1.57.73.73,0,0,0,.11-.34,1,1,0,0,0-.09-.36L40.26,5.65Z" transform="translate(0 -2.03)"/><path class="cls-1" d="M52.25,2.74a15.12,15.12,0,0,1,2.68-.22,4.46,4.46,0,0,1,3,.9,2.93,2.93,0,0,1,.95,2.26A3.2,3.2,0,0,1,58.07,8a4.48,4.48,0,0,1-3.3,1.19,4.85,4.85,0,0,1-1.13-.1v4.32H52.25Zm1.39,5.19a4.3,4.3,0,0,0,1.16.12c1.69,0,2.71-.83,2.71-2.3s-1-2.13-2.55-2.13a7.06,7.06,0,0,0-1.32.11Z" transform="translate(0 -2.03)"/><path class="cls-1" d="M67.33,9.45a3.8,3.8,0,0,1-3.85,4.12,3.68,3.68,0,0,1-3.72-4,3.77,3.77,0,0,1,3.84-4.1A3.66,3.66,0,0,1,67.33,9.45Zm-6.14.09c0,1.7,1,3,2.35,3s2.36-1.26,2.36-3c0-1.31-.66-3-2.34-3S61.19,8.07,61.19,9.54Z" transform="translate(0 -2.03)"/><path class="cls-1" d="M69.11,2h1.4V13.39h-1.4Z" transform="translate(0 -2.03)"/><path class="cls-1" d="M74.46,3.46a.86.86,0,0,1-.9.88.84.84,0,0,1-.85-.88.88.88,0,0,1,1.75,0Zm-1.58,9.93V5.65h1.4v7.74Z" transform="translate(0 -2.03)"/><path class="cls-1" d="M82.15,13.11a5.37,5.37,0,0,1-2.23.45,3.69,3.69,0,0,1-3.86-4,3.94,3.94,0,0,1,4.16-4.13,4.59,4.59,0,0,1,2,.41L81.86,7a3.44,3.44,0,0,0-1.64-.37,2.68,2.68,0,0,0-2.73,2.93,2.66,2.66,0,0,0,2.69,2.9,4.17,4.17,0,0,0,1.73-.37Z" transform="translate(0 -2.03)"/><path class="cls-1" d="M84.59,5.65l1.69,4.58c.18.51.37,1.12.5,1.58h0c.14-.46.31-1.05.49-1.61l1.53-4.55h1.5l-2.12,5.52c-1,2.66-1.69,4-2.65,4.85a3.87,3.87,0,0,1-1.73.9l-.35-1.17a3.64,3.64,0,0,0,1.24-.69,4.48,4.48,0,0,0,1.17-1.57.87.87,0,0,0,.11-.34.85.85,0,0,0-.1-.36L83.06,5.65Z" transform="translate(0 -2.03)"/><path class="cls-1" d="M3.29,34.78H0V33.6H8v1.18H4.69v9.61H3.29Z" transform="translate(0 -2.03)"/><path class="cls-1" d="M8.79,40.78a2.47,2.47,0,0,0,2.65,2.68,5.29,5.29,0,0,0,2.14-.39l.25,1a6.31,6.31,0,0,1-2.58.49,3.61,3.61,0,0,1-3.81-3.91c0-2.34,1.38-4.17,3.64-4.17,2.53,0,3.19,2.21,3.19,3.64a3.61,3.61,0,0,1,0,.66Zm4.12-1A2,2,0,0,0,11,37.48a2.31,2.31,0,0,0-2.16,2.28Z" transform="translate(0 -2.03)"/><path class="cls-1" d="M16,39.06c0-.91,0-1.69-.07-2.41h1.24l0,1.52h.05a2.34,2.34,0,0,1,2.16-1.69,1.61,1.61,0,0,1,.39,0v1.32a2.33,2.33,0,0,0-.48,0,2,2,0,0,0-1.89,1.8,4.54,4.54,0,0,0,0,.66v4.13H16Z" transform="translate(0 -2.03)"/><path class="cls-1" d="M21.31,38.74c0-.81,0-1.45-.06-2.09h1.22l.08,1.25h0A2.66,2.66,0,0,1,25,36.48,2.26,2.26,0,0,1,27.21,38h0a3,3,0,0,1,.87-1,2.64,2.64,0,0,1,1.7-.54c1,0,2.56.66,2.56,3.35v4.56H31V40c0-1.5-.55-2.38-1.68-2.38a1.83,1.83,0,0,0-1.67,1.26,2.3,2.3,0,0,0-.12.71v4.79H26.16V39.75c0-1.24-.55-2.12-1.61-2.12A2,2,0,0,0,22.79,39a2.57,2.57,0,0,0-.1.7v4.66H21.31Z" transform="translate(0 -2.03)"/><path class="cls-1" d="M34.46,43a3.86,3.86,0,0,0,1.87.55c1,0,1.5-.51,1.5-1.15s-.41-1-1.44-1.42c-1.4-.51-2.06-1.27-2.06-2.19A2.4,2.4,0,0,1,37,36.48a3.79,3.79,0,0,1,1.9.47l-.35,1A3,3,0,0,0,37,37.52c-.83,0-1.28.48-1.28,1.06s.45.93,1.47,1.32c1.33.5,2,1.17,2,2.33,0,1.37-1.07,2.33-2.9,2.33A4.4,4.4,0,0,1,34.12,44Z" transform="translate(0 -2.03)"/><path class="cls-1" d="M51.39,40.45a3.8,3.8,0,0,1-3.85,4.12,3.68,3.68,0,0,1-3.72-4,3.78,3.78,0,0,1,3.85-4.1A3.66,3.66,0,0,1,51.39,40.45Zm-6.14.09c0,1.7,1,3,2.35,3S50,42.25,50,40.5c0-1.31-.66-3-2.33-3S45.25,39.07,45.25,40.54Z" transform="translate(0 -2.03)"/><path class="cls-1" d="M53.31,44.39V37.72H52.23V36.65h1.08v-.37a3.7,3.7,0,0,1,.9-2.71,2.68,2.68,0,0,1,1.88-.72,3,3,0,0,1,1.2.23l-.18,1.08A2.23,2.23,0,0,0,56.2,34C55,34,54.7,35,54.7,36.23v.42h1.87v1.07H54.71v6.67Z" transform="translate(0 -2.03)"/><path class="cls-1" d="M67.71,42.27c0,.82,0,1.51.06,2.12H66.53l-.08-1.26h0a2.88,2.88,0,0,1-2.56,1.44c-1.21,0-2.67-.68-2.67-3.39V36.65h1.4v4.28c0,1.47.46,2.48,1.73,2.48a2.05,2.05,0,0,0,1.87-1.29,2.32,2.32,0,0,0,.13-.73V36.65h1.4Z" transform="translate(0 -2.03)"/><path class="cls-1" d="M69.85,43a3.9,3.9,0,0,0,1.87.55c1,0,1.5-.51,1.5-1.15s-.41-1-1.44-1.42c-1.4-.51-2.06-1.27-2.06-2.19a2.4,2.4,0,0,1,2.68-2.27,3.79,3.79,0,0,1,1.9.47L74,38a3,3,0,0,0-1.59-.46c-.83,0-1.28.48-1.28,1.06s.45.93,1.47,1.32c1.33.5,2,1.17,2,2.33,0,1.37-1.07,2.33-2.9,2.33A4.4,4.4,0,0,1,69.51,44Z" transform="translate(0 -2.03)"/><path class="cls-1" d="M77.17,40.78a2.47,2.47,0,0,0,2.65,2.68A5.34,5.34,0,0,0,82,43.07l.24,1a6.31,6.31,0,0,1-2.58.49,3.61,3.61,0,0,1-3.81-3.91c0-2.34,1.38-4.17,3.64-4.17,2.53,0,3.19,2.21,3.19,3.64a3.61,3.61,0,0,1-.05.66Zm4.12-1a2,2,0,0,0-1.94-2.28,2.32,2.32,0,0,0-2.16,2.28Z" transform="translate(0 -2.03)"/></g></g></svg>