<svg xmlns="http://www.w3.org/2000/svg" xmlns:xlink="http://www.w3.org/1999/xlink" viewBox="0 0 42.27 151"><defs><style>.cls-1{isolation:isolate;}.cls-2,.cls-3,.cls-4,.cls-5,.cls-6,.cls-7,.cls-8{mix-blend-mode:color-dodge;}.cls-2{fill:url(#linear-gradient);}.cls-3{fill:url(#linear-gradient-2);}.cls-4{fill:url(#linear-gradient-3);}.cls-5{fill:url(#linear-gradient-4);}.cls-6{fill:url(#linear-gradient-5);}.cls-7{fill:url(#linear-gradient-6);}.cls-8{fill:url(#linear-gradient-7);}</style><linearGradient id="linear-gradient" x1="5118.87" y1="-60.76" x2="5380.3" y2="-60.76" gradientTransform="translate(-39.63 -5213.96) rotate(90)" gradientUnits="userSpaceOnUse"><stop offset="0" stop-opacity="0"/><stop offset="1" stop-color="#75ff57"/></linearGradient><linearGradient id="linear-gradient-2" x1="5118.87" y1="-60.76" x2="5380.29" y2="-60.76" xlink:href="#linear-gradient"/><linearGradient id="linear-gradient-3" x1="5118.87" y1="-60.76" x2="5380.3" y2="-60.76" xlink:href="#linear-gradient"/><linearGradient id="linear-gradient-4" x1="5118.88" y1="-60.76" x2="5380.29" y2="-60.76" xlink:href="#linear-gradient"/><linearGradient id="linear-gradient-5" x1="5118.88" y1="-60.76" x2="5380.29" y2="-60.76" xlink:href="#linear-gradient"/><linearGradient id="linear-gradient-6" x1="5118.85" y1="-60.76" x2="5380.3" y2="-60.76" xlink:href="#linear-gradient"/><linearGradient id="linear-gradient-7" x1="5118.86" y1="-60.76" x2="5380.3" y2="-60.76" xlink:href="#linear-gradient"/></defs><g class="cls-1"><g id="Layer_2" data-name="Layer 2"><g id="Layer_1-2" data-name="Layer 1"><polygon class="cls-2" points="42.27 5.96 36.26 0 21.14 14.98 6.01 0 0 5.96 21.14 26.89 42.27 5.96"/><polygon class="cls-3" points="42.27 26.64 36.26 20.68 21.14 35.66 6.01 20.68 0 26.64 21.14 47.58 42.27 26.64"/><polygon class="cls-4" points="42.27 47.33 36.26 41.37 21.14 56.34 6.01 41.37 0 47.33 21.14 68.26 42.27 47.33"/><polygon class="cls-5" points="42.27 68.01 36.26 62.06 21.14 77.03 6.01 62.06 0 68.01 21.14 88.94 42.27 68.01"/><polygon class="cls-6" points="42.27 88.7 36.26 82.74 21.14 97.72 6.01 82.74 0 88.7 21.14 109.63 42.27 88.7"/><polygon class="cls-7" points="42.27 109.38 36.26 103.42 21.14 118.4 6.01 103.42 0 109.38 21.14 130.32 42.27 109.38"/><polygon class="cls-8" points="42.27 130.07 36.26 124.11 21.14 139.09 6.01 124.11 0 130.07 21.14 151 42.27 130.07"/></g></g></g></svg>