<svg xmlns="http://www.w3.org/2000/svg" viewBox="0 0 64.25 10.7"><defs><style>.cls-1{fill:#fff;}</style></defs><g id="Layer_2" data-name="Layer 2"><g id="Layer_1-2" data-name="Layer 1"><path class="cls-1" d="M2.83,3.23h0L1.45,4l-.2-.8L3,2.25h.9V10h-1Z" transform="translate(-1.25 -1.71)"/><path class="cls-1" d="M7.52,4.24l.83,1.25c.22.32.4.62.59.94H9c.19-.34.38-.64.59-.95l.8-1.24h1.15l-2,2.81,2,3H10.37l-.86-1.3c-.22-.34-.41-.66-.62-1h0c-.19.35-.38.66-.61,1L7.42,10H6.25l2.07-3-2-2.84Z" transform="translate(-1.25 -1.71)"/><path class="cls-1" d="M17.42,1.71a7.94,7.94,0,0,0-1.51,4.92,8.05,8.05,0,0,0,1.51,4.86H16.6A7.71,7.71,0,0,1,15,6.62,7.84,7.84,0,0,1,16.6,1.71Z" transform="translate(-1.25 -1.71)"/><path class="cls-1" d="M21.76,10l-.1-.73h0a2.16,2.16,0,0,1-1.77.87,1.66,1.66,0,0,1-1.77-1.67c0-1.4,1.24-2.18,3.48-2.16V6.23a1.19,1.19,0,0,0-1.32-1.34,2.84,2.84,0,0,0-1.51.43l-.24-.7a3.64,3.64,0,0,1,1.92-.51c1.77,0,2.2,1.21,2.2,2.38V8.66A8.34,8.34,0,0,0,22.71,10Zm-.17-3c-1.14,0-2.45.18-2.45,1.3a.93.93,0,0,0,1,1,1.45,1.45,0,0,0,1.41-1,1,1,0,0,0,.05-.33Z" transform="translate(-1.25 -1.71)"/><path class="cls-1" d="M24.32,6.13c0-.74,0-1.34-.05-1.89h.95l.06,1h0a2.28,2.28,0,0,1,2.06-1.12c1.4,0,2.46,1.18,2.46,2.94,0,2.1-1.28,3.13-2.64,3.13a2,2,0,0,1-1.78-.92h0v3.16H24.32Zm1.05,1.55a2,2,0,0,0,.05.43A1.62,1.62,0,0,0,27,9.35c1.12,0,1.77-.92,1.77-2.25C28.76,6,28.15,5,27,5a1.68,1.68,0,0,0-1.6,1.3,1.61,1.61,0,0,0-.07.43Z" transform="translate(-1.25 -1.71)"/><path class="cls-1" d="M31.15,6.13c0-.74,0-1.34,0-1.89h.95l.05,1h0a2.27,2.27,0,0,1,2.06-1.12c1.4,0,2.46,1.18,2.46,2.94,0,2.1-1.28,3.13-2.64,3.13a2,2,0,0,1-1.79-.92h0v3.16H31.15ZM32.2,7.68a2,2,0,0,0,0,.43,1.62,1.62,0,0,0,1.58,1.24c1.12,0,1.77-.92,1.77-2.25C35.59,6,35,5,33.86,5a1.67,1.67,0,0,0-1.59,1.3,1.61,1.61,0,0,0-.07.43Z" transform="translate(-1.25 -1.71)"/><path class="cls-1" d="M38,6.05c0-.68,0-1.27,0-1.81h.92l0,1.14h0a1.76,1.76,0,0,1,1.62-1.27,1.36,1.36,0,0,1,.29,0v1a1.86,1.86,0,0,0-.36,0,1.47,1.47,0,0,0-1.41,1.35A2.6,2.6,0,0,0,39,7V10H38Z" transform="translate(-1.25 -1.71)"/><path class="cls-1" d="M47,7.09a2.84,2.84,0,0,1-2.88,3.09,2.77,2.77,0,0,1-2.79-3,2.84,2.84,0,0,1,2.88-3.08A2.74,2.74,0,0,1,47,7.09Zm-4.59.07c0,1.27.72,2.23,1.75,2.23S46,8.44,46,7.12c0-1-.49-2.22-1.75-2.22S42.44,6.06,42.44,7.16Z" transform="translate(-1.25 -1.71)"/><path class="cls-1" d="M48.69,4.24l.83,1.25c.22.32.4.62.59.94h0c.19-.34.39-.64.59-.95l.8-1.24h1.15l-2,2.81,2,3H51.54l-.86-1.3c-.22-.34-.41-.66-.62-1h0c-.2.35-.39.66-.62,1L48.59,10H47.42l2.07-3-2-2.84Z" transform="translate(-1.25 -1.71)"/><path class="cls-1" d="M53.12,11.49a8.11,8.11,0,0,0,1.51-4.9,8,8,0,0,0-1.51-4.88h.82A7.73,7.73,0,0,1,55.51,6.6a7.8,7.8,0,0,1-1.57,4.89Z" transform="translate(-1.25 -1.71)"/><path class="cls-1" d="M59.31,6V5.28H65.5V6Zm0,2.35V7.63H65.5v.72Z" transform="translate(-1.25 -1.71)"/></g></g></svg>