<svg xmlns="http://www.w3.org/2000/svg" viewBox="0 0 21.23 17.26"><defs><style>.cls-1{fill:#71ee4f;}</style></defs><g id="Layer_2" data-name="Layer 2"><g id="Layer_1-2" data-name="Layer 1"><path class="cls-1" d="M18.78,2.7A4.51,4.51,0,0,0,20.64.33a.15.15,0,0,0-.1,0,9.31,9.31,0,0,1-2.6,1,.14.14,0,0,1-.14-.06A4.29,4.29,0,0,0,15,0H14.4a4.3,4.3,0,0,0-3.54,2.26A4.18,4.18,0,0,0,10.37,5a1.37,1.37,0,0,0,.05.28c0,.07,0,.1-.07.09l-.71-.06A12.36,12.36,0,0,1,7,4.66,12.44,12.44,0,0,1,2.42,1.84a10.45,10.45,0,0,1-.9-1c-.05,0-.07-.07-.11,0a4.29,4.29,0,0,0-.54,2.4A4.31,4.31,0,0,0,2.72,6.56l.06.05a4.1,4.1,0,0,1-1-.16,4.32,4.32,0,0,1-.95-.39A4.39,4.39,0,0,0,4.27,10.4a4.28,4.28,0,0,1-1.92.07,4.39,4.39,0,0,0,4,3A8.8,8.8,0,0,1,0,15.32a12.31,12.31,0,0,0,6.29,1.94h.76A12.8,12.8,0,0,0,11,16.55,11.53,11.53,0,0,0,15.11,14a12.6,12.6,0,0,0,3.54-6,11.93,11.93,0,0,0,.41-3.41.41.41,0,0,1,.19-.41,8.73,8.73,0,0,0,1.92-2,.12.12,0,0,1,.06-.08V2a8.78,8.78,0,0,1-1.78.57A3.74,3.74,0,0,1,18.78,2.7Z"/></g></g></svg>