<svg xmlns="http://www.w3.org/2000/svg" viewBox="0 0 20.85 17.48"><defs><style>.cls-1{fill:#79fb53;}</style></defs><g id="Layer_2" data-name="Layer 2"><g id="Layer_1-2" data-name="Layer 1"><path class="cls-1" d="M19.44.11l-13,5L1.08,7.19a2.46,2.46,0,0,0-.85.48.5.5,0,0,0,.09.89,2.13,2.13,0,0,0,.49.21c1.23.39,2.46.81,3.71,1.14A1.26,1.26,0,0,1,5.62,11a2.47,2.47,0,0,0,.11.36Q6.5,13.7,7.24,16a.49.49,0,0,0,.5.38,1.18,1.18,0,0,0,.94-.36L10.9,13.9c.15-.16.24-.18.43,0l4.43,3.29a1.93,1.93,0,0,0,.65.3.87.87,0,0,0,1-.46,2.92,2.92,0,0,0,.24-.76Q19.08,9.62,20.48,3c.14-.64.31-1.27.37-1.82C20.86.21,20.26-.21,19.44.11ZM17.07,3.5l-1.3,1.18Q12.08,8,8.38,11.33a.74.74,0,0,0-.25.53c-.08,1-.18,2-.28,3.05,0,.06,0,.13-.07.18-.28-.85-.55-1.69-.83-2.53s-.53-1.65-.81-2.48a.24.24,0,0,1,.12-.34L16.39,3.35a1.37,1.37,0,0,1,.49-.2c.11,0,.23,0,.3.08S17.15,3.43,17.07,3.5Z"/></g></g></svg>