<svg xmlns="http://www.w3.org/2000/svg" viewBox="0 0 23.48 17.08"><defs><style>.cls-1{fill:#79fb53;}</style></defs><g id="Layer_2" data-name="Layer 2"><g id="Layer_1-2" data-name="Layer 1"><path class="cls-1" d="M21,3.41a4,4,0,0,0-1.82-2A11.82,11.82,0,0,0,15.42,0C15,0,15,0,14.78.31c-.09.18,0,.21.13.26a11.43,11.43,0,0,1,2,.7,9.38,9.38,0,0,1,2.62,1.79,16,16,0,0,0-15.71,0A10.36,10.36,0,0,1,5.62,1.76a10.5,10.5,0,0,1,3-1.21c.06,0,.14,0,.17-.07S8.5,0,8.36,0a10.94,10.94,0,0,0-4.87,1.9A1.38,1.38,0,0,0,3,2.38c-.18.36-.39.71-.56,1.07A28.38,28.38,0,0,0,0,13.74.31.31,0,0,0,.1,14a8.61,8.61,0,0,0,2.38,1.86,10.66,10.66,0,0,0,4.27,1.22c.09,0,.17,0,.24-.06l.82-1.1a11.66,11.66,0,0,1-2.43-1.19,9.28,9.28,0,0,1-2-1.79A12.3,12.3,0,0,0,6.1,14.46a14.91,14.91,0,0,0,5.8,1,16.45,16.45,0,0,0,3.43-.37,12.64,12.64,0,0,0,4.55-2s.09-.11.17,0a10.79,10.79,0,0,1-4.37,2.84c.24.33.48.62.69.94a.46.46,0,0,0,.49.22,11.07,11.07,0,0,0,2.53-.53,9.25,9.25,0,0,0,4-2.52.42.42,0,0,0,.11-.34,30.71,30.71,0,0,0-.4-3.44A26.94,26.94,0,0,0,21,3.41ZM9.54,11.17A1.71,1.71,0,0,1,7,11.12a2.33,2.33,0,0,1,.21-3.24,1.74,1.74,0,0,1,2.68.58,2.35,2.35,0,0,1,.29,1.13A2.26,2.26,0,0,1,9.54,11.17Zm6.81.13a1.75,1.75,0,0,1-2.73-.58,2.29,2.29,0,0,1-.27-1.12,2.24,2.24,0,0,1,.56-1.52A1.69,1.69,0,0,1,16.45,8,2.35,2.35,0,0,1,16.35,11.3Z"/></g></g></svg>