<svg xmlns="http://www.w3.org/2000/svg" xmlns:xlink="http://www.w3.org/1999/xlink" viewBox="0 0 224 95.17"><defs><style>.cls-1{fill:#fff;}.cls-2{fill:url(#linear-gradient);}.cls-3{fill:url(#linear-gradient-2);}.cls-4{fill:url(#linear-gradient-3);}.cls-5{fill:url(#linear-gradient-4);}.cls-6{fill:url(#linear-gradient-5);}.cls-7{fill:url(#linear-gradient-6);}.cls-8{fill:url(#linear-gradient-7);}</style><linearGradient id="linear-gradient" x1="46.51" y1="-2.43" x2="43.22" y2="133.38" gradientUnits="userSpaceOnUse"><stop offset="0" stop-color="#245512"/><stop offset="0.1" stop-color="#368422"/><stop offset="0.22" stop-color="#47b232"/><stop offset="0.32" stop-color="#54d43d"/><stop offset="0.4" stop-color="#5be944"/><stop offset="0.46" stop-color="#5ef047"/></linearGradient><linearGradient id="linear-gradient-2" x1="24.44" y1="92.42" x2="45.12" y2="4.8" xlink:href="#linear-gradient"/><linearGradient id="linear-gradient-3" x1="63.46" y1="56.19" x2="67.96" y2="37.14" xlink:href="#linear-gradient"/><linearGradient id="linear-gradient-4" x1="21.77" y1="26.53" x2="68.35" y2="89.39" xlink:href="#linear-gradient"/><linearGradient id="linear-gradient-5" x1="83.09" y1="45.42" x2="16.05" y2="119.15" xlink:href="#linear-gradient"/><linearGradient id="linear-gradient-6" x1="41.21" y1="78.12" x2="22.83" y2="-20.67" xlink:href="#linear-gradient"/><linearGradient id="linear-gradient-7" x1="49.91" y1="69.86" x2="31.95" y2="-26.67" xlink:href="#linear-gradient"/></defs><g id="Layer_2" data-name="Layer 2"><g id="Layer_1-2" data-name="Layer 1"><path class="cls-1" d="M119.2,41.69v-.45h5.2a3.71,3.71,0,0,0,.58,2.32,1.75,1.75,0,0,0,1.45.66,2.46,2.46,0,0,0,1.4-.4,1.64,1.64,0,0,0,.72-1.45,2.09,2.09,0,0,0-.35-1.29,5.59,5.59,0,0,0-2-1.36c-1.73-.76-2.72-1.22-3-1.37A8.2,8.2,0,0,1,120.58,36a5.9,5.9,0,0,1-.75-1.48,6.15,6.15,0,0,1-.28-1.89,6.35,6.35,0,0,1,1.86-4.54A7.45,7.45,0,0,1,127,25.91a7.11,7.11,0,0,1,4.7,1.48,6.58,6.58,0,0,1,2.15,5.36h-5a2.26,2.26,0,0,0-.49-1.46,1.84,1.84,0,0,0-1.51-.7,1.81,1.81,0,0,0-1.13.38,1.62,1.62,0,0,0-.62,1.34,1.71,1.71,0,0,0,.64,1.31,10.9,10.9,0,0,0,2.42,1.44c.61.29,1.14.56,1.59.8l1.13.64a6.68,6.68,0,0,1,2.43,2.41,5.86,5.86,0,0,1,.75,2.93,6.89,6.89,0,0,1-1.84,4.75,8.4,8.4,0,0,1-11,.66A7.23,7.23,0,0,1,119.2,41.69Z"/><path class="cls-1" d="M145.46,41.41v7.15h-5.41V26.34h7.38c3.1,0,5.37.74,6.81,2.24a7.11,7.11,0,0,1,1.8,5.16q0,4.29-2.74,6.07Q150.84,41.42,145.46,41.41Zm.07-10.13V36.6a10.45,10.45,0,0,0,3.74-.46,2.21,2.21,0,0,0,1.28-2.23,2.12,2.12,0,0,0-.91-2A8.75,8.75,0,0,0,145.53,31.28Z"/><path class="cls-1" d="M173,48.56l-1.1-3.25h-7.31l-1.19,3.25h-5.9L166,26.34h4.41L179,48.56Zm-4.76-15L166,40.74h4.41Z"/><path class="cls-1" d="M193.59,48.56l-4.26-7.15v7.15h-5.41V26.34h7.37a11.3,11.3,0,0,1,5.46,1.14,5.78,5.78,0,0,1,2.56,2.77,8.55,8.55,0,0,1,.64,3.46,7.69,7.69,0,0,1-1.27,4.55A7.73,7.73,0,0,1,194.87,41l5.45,7.56Zm-4.26-17.28V36.6a9.64,9.64,0,0,0,3.91-.54,2.16,2.16,0,0,0,1.18-2.15,2.17,2.17,0,0,0-.83-2C192.89,31.49,191.47,31.28,189.33,31.28Z"/><path class="cls-1" d="M217.22,48.56l-5.87-9.65v9.65h-5.41V26.34h5.41V36.78l6.58-10.44H224l-7.35,11.28,7.09,10.94Z"/><path class="cls-1" d="M121.82,66.68h3.09v2.37h-5.72V58.25h2.63Z"/><path class="cls-1" d="M136.43,69.05l-.54-1.58h-3.55l-.58,1.58H128.9L133,58.25h2.14l4.16,10.8Zm-2.31-7.27L133,65.25h2.14Z"/><path class="cls-1" d="M144.07,65V58.25h2.66V64.9a2.49,2.49,0,0,0,.32,1.47,1.15,1.15,0,0,0,.95.37c.91,0,1.36-.61,1.36-1.84V58.25H152V65a4.35,4.35,0,0,1-1,3,3.83,3.83,0,0,1-3,1.18,3.75,3.75,0,0,1-3.1-1.18A4.72,4.72,0,0,1,144.07,65Z"/><path class="cls-1" d="M165,69.05l-4-6v6h-2.63V58.25h2.4l3.95,6v-6h2.62v10.8Z"/><path class="cls-1" d="M181.07,65h2.86a5.85,5.85,0,0,1-1.94,3,5.22,5.22,0,0,1-3.37,1.19,5.49,5.49,0,0,1-3.85-1.5A5.36,5.36,0,0,1,173,63.63a5.69,5.69,0,0,1,.6-2.55,5.35,5.35,0,0,1,1.84-2.14,5.55,5.55,0,0,1,3.15-.9,5.71,5.71,0,0,1,1.91.32,4.71,4.71,0,0,1,2,1.26A6.51,6.51,0,0,1,184,62.35h-2.83a3.21,3.21,0,0,0-1.2-1.29,2.55,2.55,0,0,0-1.32-.34,2.72,2.72,0,0,0-1.92.73,2.84,2.84,0,0,0-.94,1.81c0,.05,0,.09,0,.13v.16a3.25,3.25,0,0,0,.26,1.3,2.65,2.65,0,0,0,2.59,1.72,2.57,2.57,0,0,0,1.17-.26A3.3,3.3,0,0,0,181.07,65Z"/><path class="cls-1" d="M197.76,58.25v10.8h-2.64V64.93h-2.7v4.12h-2.63V58.25h2.63v4.1h2.7v-4.1Z"/><path class="cls-2" d="M45.35,0l-1,0h-.45a44.33,44.33,0,0,0-9.06,1.2A45.42,45.42,0,0,0,5.17,24.31C4.54,25.5,4,26.73,3.44,28c-.36.88-.7,1.77-1,2.67a45.27,45.27,0,0,0,12.13,48,33.35,33.35,0,0,1-1.64-5.73,42.56,42.56,0,1,1,64.84,0,32.71,32.71,0,0,1-1.65,5.75A45.34,45.34,0,0,0,45.35,0Z"/><path class="cls-3" d="M31.33,46.44C18.79,58.34,17.71,77.56,27.39,89.1a16.53,16.53,0,0,1-.9-1.39,15.45,15.45,0,0,1-.75-1.46A18.39,18.39,0,0,1,25,84.34a17,17,0,0,1-.53-2.1,18,18,0,0,1,1.41-10.76c2.82-6.29,8.52-11.11,12.54-16.76A57.22,57.22,0,0,0,46.22,40a34.72,34.72,0,0,0,1.51-6.26,18.94,18.94,0,0,0-.15-7.36S43.86,34.54,31.33,46.44Z"/><path class="cls-4" d="M65.6,48.73a44.52,44.52,0,0,0,1-7.35,50.09,50.09,0,0,1-2.13,11.44c-.25.84-.52,1.69-.81,2.53.51-1.34,1-2.72,1.36-4.13C65.22,50.4,65.42,49.57,65.6,48.73Z"/><path class="cls-5" d="M46.47,72.23c4.34-2.32,8.71-3.78,12.15-7.62a26.86,26.86,0,0,0,5-9.26c-.16.42-.33.83-.5,1.24.18-.6.36-1.21.52-1.82A44.76,44.76,0,0,0,64.86,48a44.21,44.21,0,0,0,.22-4.48c0-1.14,0-2.27-.13-3.39q0-.68-.12-1.35A44.56,44.56,0,0,0,46.09,7l-.35-.28.11.32c.09.26,2,6-2.58,15.47l-.19.4c-.42.84-.89,1.71-1.43,2.62h0c-.1.18-.21.36-.33.55s-.22.36-.33.54l0,0c-.24.37-.48.76-.74,1.14a64.86,64.86,0,0,1-6.3,7.94c-.91,1-1.89,2-2.94,3C20,49.59,17.5,60.35,17.43,67.66v0c0,.37,0,.73,0,1.08,0,.19,0,.37,0,.55,0,.5.05,1,.09,1.43,0,.15,0,.3,0,.45s.05.53.08.78,0,.34.07.5.07.47.11.7h0l.06.35c0,.12.05.24.07.37s.07.39.11.57a20.68,20.68,0,0,0,1,3.07A31.77,31.77,0,0,0,23,84.45c.16.22.32.43.49.64h0a28.22,28.22,0,0,0,2.43,2.69c.47.46.95.89,1.45,1.31-9.68-11.54-8.6-30.76,3.94-42.66s16.25-20,16.25-20c.52.71,1.17,1.54,1.6,2.17.56.83,1.09,1.67,1.59,2.54a35.44,35.44,0,0,1,1.66,3.32c.3.68.58,1.37.82,2.07,2.37,6.86,1.47,14.38-1.08,21a45.64,45.64,0,0,1-5.06,9.57c-2.21,3.18-5,5.86-7.22,9a15,15,0,0,0-2.45,6h0C38.21,77.54,42.43,74.4,46.47,72.23Z"/><path class="cls-6" d="M72.73,58.75a57.59,57.59,0,0,0-1.35-6.23,42.5,42.5,0,0,0-4.81-11.14,44.52,44.52,0,0,1-1,7.35c-.09.43-.19.85-.29,1.27,0,.17-.09.34-.14.51-1.87,7-6.4,12.5-12.25,16.63-6,4.25-14.09,6.7-15.48,15a10.91,10.91,0,0,0,.79,6.35c5.91,13,22.36,4.33,28.79-3.2l.16-.2.1-.12a0,0,0,0,1,0,0,.17.17,0,0,1,.06-.07A25.75,25.75,0,0,0,72.5,74.57c-.74.69-1.5,1.35-2.3,2l0,0-.48.38-.11.09L69,77.5c.63-.88,1.22-1.79,1.77-2.72.18-.3.35-.61.52-.91l.23-.43c.12-.23.24-.47.34-.71s.17-.38.25-.57a16,16,0,0,0,1-3.4c.06-.34.11-.68.15-1A35.5,35.5,0,0,0,72.73,58.75Z"/><path class="cls-7" d="M45.85,7c.09.26,2,6-2.58,15.47l-.19.4c-.42.84-.89,1.71-1.43,2.62h0c-.1.18-.21.36-.33.55s-.22.36-.33.54l0,0c-.24.37-.48.76-.74,1.14a64.86,64.86,0,0,1-6.3,7.94c-.91,1-1.89,2-2.94,3C20,49.59,17.5,60.35,17.43,67.66v0c0,.37,0,.73,0,1.08,0,.19,0,.37,0,.55,0,.5.05,1,.09,1.43,0,.15,0,.3,0,.45s.05.53.08.78,0,.34.07.5.07.47.11.7h0l.06.35c0,.12.05.24.07.37s.07.39.11.57a20.68,20.68,0,0,0,1,3.07A31.77,31.77,0,0,0,23,84.45c.16.22.32.43.49.64h0a28.22,28.22,0,0,0,2.43,2.69c.47.46.95.89,1.45,1.31-9.68-11.54-8.6-30.76,3.94-42.66s16.25-20,16.25-20c.52.71,1.17,1.54,1.6,2.17.56.83,1.09,1.67,1.59,2.54a35.44,35.44,0,0,1,1.66,3.32c.3.68.58,1.37.82,2.07,2.11,6.12,1.62,12.77-.31,18.87h0C62.17,33.15,45.85,7,45.85,7Z"/><path class="cls-8" d="M77.77,72.9a42.56,42.56,0,1,0-64.84,0,33.54,33.54,0,0,1-.57-5.15s-.46-9.73,4-18.19c0,0-5.54,6-6.78,13.5A39.64,39.64,0,0,1,5.46,45.35c0-.35,0-.69,0-1s0-.55,0-.83,0-.29,0-.44,0-.52,0-.77,0-.67.09-1v0c0-.25.06-.5.09-.74s0-.31,0-.47c.08-.58.17-1.15.27-1.72.13-.73.28-1.45.45-2.17.06-.26.12-.52.19-.77s.14-.56.23-.84a1.33,1.33,0,0,1,0-.19c0-.19.11-.37.16-.56s.1-.33.16-.49.17-.55.26-.82c.19-.55.39-1.1.61-1.65q.11-.3.24-.6c.21-.52.43-1,.67-1.54l.28-.6c.11-.24.23-.47.35-.7s.15-.31.23-.46c.21-.41.43-.81.66-1.21l.33-.57c.17-.29.34-.58.53-.87s.52-.83.8-1.23S13,22,13.38,21.48l.11-.13c.21-.29.43-.57.65-.84s.46-.57.69-.84.56-.66.85-1,.45-.49.68-.73.44-.47.66-.69l.67-.66c.24-.23.46-.44.7-.65s.46-.44.7-.64a38.91,38.91,0,0,1,3.76-2.91l.75-.5.06,0c.25-.17.5-.33.76-.48l0,0,.66-.4,1.05-.6.77-.41.84-.42.53-.25L28.84,9c.24-.11.49-.23.74-.33l.7-.29.23-.1.57-.22,1.16-.43c.31-.1.61-.21.93-.3s.57-.19.86-.27l.12,0,.74-.2.24-.07.72-.18.18,0,.91-.21c.62-.14,1.24-.26,1.87-.35.39-.07.77-.13,1.16-.18l.83-.11h.1l.88-.08h.13l1-.07,1,0,.47,0h2.32c.56,0,1.12,0,1.68.09.22,0,.45,0,.67.06h.19q.41,0,.78.09l.82.1,1,.14.65.11.87.17c.29,0,.58.12.86.18l.87.21.84.22c.28.07.57.15.85.24l.84.25c.51.17,1,.34,1.54.53l.91.35c.54.21,1.07.43,1.6.67.22.09.43.19.65.3l.94.45c.25.12.49.25.73.38.51.26,1,.54,1.51.83.74.43,1.46.88,2.17,1.37.24.15.47.31.71.48s.47.33.69.5.45.33.68.51h0l.64.5,0,0,.63.53a8.24,8.24,0,0,1,.65.55l.64.57q.63.57,1.23,1.17l.6.61.53.57c.43.46.84.93,1.24,1.41.16.18.31.36.46.55L77,21l.45.6c.68.92,1.32,1.87,1.92,2.84.13.2.25.4.37.6s.34.58.5.87.28.5.41.76.27.51.39.76c.4.78.77,1.57,1.1,2.38.23.52.44,1.05.63,1.58.11.29.22.58.32.87s.17.52.26.77.15.51.23.76c.16.53.31,1.06.45,1.6.06.23.12.46.17.69.16.68.31,1.38.43,2.07,0,.23.09.47.12.71s.06.37.09.55.06.43.1.65,0,.47.08.72v0c0,.23.06.46.07.7a6.2,6.2,0,0,1,.06.62c0,.06,0,.12,0,.19,0,.23,0,.46,0,.7,0,.42,0,.85,0,1.28s0,.68,0,1c0,.75,0,1.5-.06,2.24l-.06.83c0,.07,0,.14,0,.21,0,.29,0,.56-.08.84l0,.28c0,.31-.07.61-.11.92s-.09.62-.14.94q-.25,1.61-.63,3.18l-.15.57c0,.19-.1.39-.15.58s-.07.26-.11.39-.13.45-.2.67-.1.34-.16.51-.1.31-.16.47-.11.34-.16.5-.18.49-.26.73l-.32.81c-.07.2-.16.4-.24.6-.3.73-.62,1.45-1,2.16l-.15.31c-1.25-7.53-6.79-13.52-6.79-13.52,4.49,8.46,4,18.19,4,18.19l0,0,0,0A32.09,32.09,0,0,1,77.77,72.9Z"/></g></g></svg>