<svg xmlns="http://www.w3.org/2000/svg" viewBox="0 0 191.55 46.07"><defs><style>.cls-1{fill:#fff;}</style></defs><g id="Layer_2" data-name="Layer 2"><g id="Layer_1-2" data-name="Layer 1"><path class="cls-1" d="M10.26,8A4.84,4.84,0,1,1,.58,8a4.84,4.84,0,1,1,9.68,0ZM1.38,8a4.11,4.11,0,0,0,4.06,4.26A4.12,4.12,0,0,0,9.46,8a4.11,4.11,0,0,0-4-4.27A4.13,4.13,0,0,0,1.38,8Zm6-1.88a3.48,3.48,0,0,0-1.55-.36A2.07,2.07,0,0,0,3.6,8a2.12,2.12,0,0,0,2.26,2.25,3.08,3.08,0,0,0,1.61-.41l.2.61a3.63,3.63,0,0,1-2,.49A2.76,2.76,0,0,1,2.77,8.05a3,3,0,0,1,3.06-3,3.19,3.19,0,0,1,1.76.43Z" transform="translate(-0.58 -1.85)"/><path class="cls-1" d="M23,13.05a7,7,0,0,1-2.86.51c-3,0-5.31-1.92-5.31-5.46a5.35,5.35,0,0,1,5.63-5.66A5.92,5.92,0,0,1,23,2.91L22.66,4a5.33,5.33,0,0,0-2.17-.44c-2.54,0-4.21,1.62-4.21,4.45,0,2.64,1.52,4.33,4.13,4.33a5.52,5.52,0,0,0,2.29-.45Z" transform="translate(-0.58 -1.85)"/><path class="cls-1" d="M31.51,9.45a3.8,3.8,0,0,1-3.85,4.12,3.69,3.69,0,0,1-3.73-4,3.78,3.78,0,0,1,3.85-4.1A3.66,3.66,0,0,1,31.51,9.45Zm-6.14.09c0,1.7,1,3,2.34,3s2.36-1.26,2.36-3c0-1.31-.66-3-2.33-3S25.37,8.07,25.37,9.54Z" transform="translate(-0.58 -1.85)"/><path class="cls-1" d="M33.28,8.17c0-1,0-1.79-.06-2.52h1.25L34.55,7h0a3,3,0,0,1,2.75-1.49c1.88,0,3.29,1.57,3.29,3.92,0,2.79-1.71,4.17-3.52,4.17a2.7,2.7,0,0,1-2.39-1.22h0v4.21h-1.4Zm1.4,2.07a2.62,2.62,0,0,0,.06.57,2.16,2.16,0,0,0,2.1,1.66c1.5,0,2.36-1.23,2.36-3,0-1.55-.81-2.88-2.3-2.88a2.24,2.24,0,0,0-2.13,1.74,2.26,2.26,0,0,0-.09.57Z" transform="translate(-0.58 -1.85)"/><path class="cls-1" d="M42.78,5.65l1.69,4.58c.19.51.38,1.11.5,1.58h0c.14-.46.31-1.05.5-1.61L47,5.65h1.49l-2.12,5.52c-1,2.66-1.69,4-2.65,4.85a3.85,3.85,0,0,1-1.72.9l-.35-1.17a3.61,3.61,0,0,0,1.23-.69,4.49,4.49,0,0,0,1.18-1.57.87.87,0,0,0,.11-.34,1,1,0,0,0-.1-.36L41.25,5.65Z" transform="translate(-0.58 -1.85)"/><path class="cls-1" d="M49.81,8.06c0-.91,0-1.69-.07-2.41H51L51,7.17h0a2.35,2.35,0,0,1,2.16-1.69,2.38,2.38,0,0,1,.39,0V6.84a2.33,2.33,0,0,0-.48,0,2,2,0,0,0-1.88,1.8,3.45,3.45,0,0,0-.06.66v4.13h-1.4Z" transform="translate(-0.58 -1.85)"/><path class="cls-1" d="M56.68,3.46a.86.86,0,0,1-.9.88.84.84,0,0,1-.85-.88.85.85,0,0,1,.88-.87A.84.84,0,0,1,56.68,3.46Zm-1.57,9.93V5.65h1.4v7.74Z" transform="translate(-0.58 -1.85)"/><path class="cls-1" d="M65.53,5.65c0,.55-.06,1.18-.06,2.12v4.49c0,1.8-.37,2.87-1.11,3.55a4.19,4.19,0,0,1-2.82.93A4.93,4.93,0,0,1,59,16.1L59.31,15a4.39,4.39,0,0,0,2.28.62c1.43,0,2.49-.75,2.49-2.72v-.86h0a2.76,2.76,0,0,1-2.46,1.31c-1.93,0-3.3-1.65-3.3-3.79,0-2.63,1.71-4.1,3.49-4.1A2.58,2.58,0,0,1,64.2,6.81h0l.06-1.16Zm-1.46,3A2.07,2.07,0,0,0,62,6.57c-1.34,0-2.3,1.13-2.3,2.93,0,1.52.78,2.79,2.29,2.79a2.07,2.07,0,0,0,2-1.45,2.67,2.67,0,0,0,.11-.75Z" transform="translate(-0.58 -1.85)"/><path class="cls-1" d="M67.79,2h1.4V6.86h0a2.67,2.67,0,0,1,1-1,2.77,2.77,0,0,1,1.44-.39c1,0,2.7.63,2.7,3.3v4.61H73V8.94c0-1.25-.47-2.3-1.79-2.3A2,2,0,0,0,69.29,8a2,2,0,0,0-.1.67v4.68h-1.4Z" transform="translate(-0.58 -1.85)"/><path class="cls-1" d="M78.3,3.42V5.65h2V6.72h-2v4.17c0,1,.28,1.51,1.06,1.51a3.06,3.06,0,0,0,.82-.1l.07,1.07a3.88,3.88,0,0,1-1.26.19,1.94,1.94,0,0,1-1.52-.6,2.94,2.94,0,0,1-.55-2V6.72h-1.2V5.65h1.2V3.79Z" transform="translate(-0.58 -1.85)"/><path class="cls-1" d="M86.74,2.6V13.39h-1.4V2.6Z" transform="translate(-0.58 -1.85)"/><path class="cls-1" d="M95.8,5.65c0,.55-.06,1.18-.06,2.12v4.49c0,1.8-.37,2.87-1.11,3.55a4.19,4.19,0,0,1-2.82.93,5,5,0,0,1-2.58-.64L89.58,15a4.39,4.39,0,0,0,2.28.62c1.44,0,2.49-.75,2.49-2.72v-.86h0a2.74,2.74,0,0,1-2.46,1.31c-1.93,0-3.3-1.65-3.3-3.79,0-2.63,1.71-4.1,3.49-4.1a2.58,2.58,0,0,1,2.42,1.33h0l.06-1.16Zm-1.46,3a2.07,2.07,0,0,0-2.06-2.13C90.94,6.57,90,7.7,90,9.5c0,1.52.78,2.79,2.29,2.79a2.07,2.07,0,0,0,2-1.45,2.67,2.67,0,0,0,.11-.75Z" transform="translate(-0.58 -1.85)"/><path class="cls-1" d="M98,7.74c0-.81,0-1.45-.06-2.09h1.24l.08,1.27h0a2.86,2.86,0,0,1,2.56-1.44c1.06,0,2.72.63,2.72,3.29v4.62h-1.4V8.93c0-1.25-.47-2.3-1.79-2.3a2,2,0,0,0-1.89,1.44,2.23,2.23,0,0,0-.1.66v4.66H98Z" transform="translate(-0.58 -1.85)"/><path class="cls-1" d="M108.42,3.46a.87.87,0,1,1-1.74,0,.85.85,0,0,1,.87-.87A.83.83,0,0,1,108.42,3.46Zm-1.57,9.93V5.65h1.4v7.74Z" transform="translate(-0.58 -1.85)"/><path class="cls-1" d="M112.28,3.42V5.65h2V6.72h-2v4.17c0,1,.28,1.51,1.07,1.51a3,3,0,0,0,.81-.1l.07,1.07a3.83,3.83,0,0,1-1.26.19,2,2,0,0,1-1.52-.6,2.94,2.94,0,0,1-.55-2V6.72h-1.2V5.65h1.2V3.79Z" transform="translate(-0.58 -1.85)"/><path class="cls-1" d="M116.58,9.78a2.47,2.47,0,0,0,2.65,2.68,5.29,5.29,0,0,0,2.14-.39l.25,1a6.31,6.31,0,0,1-2.58.49,3.61,3.61,0,0,1-3.81-3.91c0-2.34,1.38-4.17,3.64-4.17,2.53,0,3.19,2.21,3.19,3.64a3.61,3.61,0,0,1,0,.66Zm4.12-1a2,2,0,0,0-1.94-2.28,2.31,2.31,0,0,0-2.16,2.28Z" transform="translate(-0.58 -1.85)"/><path class="cls-1" d="M127.24,2.75a18.68,18.68,0,0,1,3-.23,6.21,6.21,0,0,1,4.37,1.35,5,5,0,0,1,1.53,3.87,5.75,5.75,0,0,1-1.56,4.19,6.67,6.67,0,0,1-4.77,1.56,22.88,22.88,0,0,1-2.54-.12Zm1.4,9.55a11.36,11.36,0,0,0,1.4.06c3,0,4.6-1.65,4.6-4.57,0-2.55-1.43-4.16-4.37-4.16a8.75,8.75,0,0,0-1.63.14Z" transform="translate(-0.58 -1.85)"/><path class="cls-1" d="M138.71,9.78a2.47,2.47,0,0,0,2.65,2.68,5.29,5.29,0,0,0,2.14-.39l.25,1a6.31,6.31,0,0,1-2.58.49,3.61,3.61,0,0,1-3.81-3.91c0-2.34,1.38-4.17,3.64-4.17,2.52,0,3.19,2.21,3.19,3.64a3.61,3.61,0,0,1-.05.66Zm4.12-1a2,2,0,0,0-1.94-2.28,2.31,2.31,0,0,0-2.16,2.28Z" transform="translate(-0.58 -1.85)"/><path class="cls-1" d="M146.07,13.39V6.72H145V5.65h1.08V5.22a3.11,3.11,0,0,1,3.39-3.37,3.79,3.79,0,0,1,2,.52L151,3.43A3.11,3.11,0,0,0,149.39,3c-1.48,0-1.92,1.05-1.92,2.29v.38H152v7.74h-1.4V6.72h-3.1v6.67Z" transform="translate(-0.58 -1.85)"/><path class="cls-1" d="M157.24,13.39v-.85l1.1-1.08C161,8.93,162.21,7.58,162.22,6a1.85,1.85,0,0,0-2.05-2,3.62,3.62,0,0,0-2.22.88l-.45-1a4.63,4.63,0,0,1,2.95-1.06,2.92,2.92,0,0,1,3.17,3c0,1.93-1.39,3.49-3.58,5.59l-.82.77v0h4.66v1.16Z" transform="translate(-0.58 -1.85)"/><path class="cls-1" d="M172.37,8.08c0,3.53-1.32,5.49-3.62,5.49-2,0-3.41-1.9-3.44-5.34s1.51-5.42,3.62-5.42S172.37,4.77,172.37,8.08Zm-5.65.15c0,2.71.84,4.25,2.11,4.25,1.44,0,2.13-1.68,2.13-4.33s-.65-4.24-2.11-4.24C167.62,3.91,166.72,5.41,166.72,8.23Z" transform="translate(-0.58 -1.85)"/><path class="cls-1" d="M173.66,13.39v-.85l1.1-1.08c2.66-2.53,3.86-3.88,3.87-5.45a1.85,1.85,0,0,0-2-2,3.59,3.59,0,0,0-2.21.88l-.45-1a4.58,4.58,0,0,1,2.94-1.06,2.92,2.92,0,0,1,3.18,3c0,1.93-1.39,3.49-3.58,5.59l-.82.77v0h4.66v1.16Z" transform="translate(-0.58 -1.85)"/><path class="cls-1" d="M181.86,13.39v-.85L183,11.46c2.65-2.53,3.86-3.88,3.87-5.45a1.85,1.85,0,0,0-2.05-2,3.59,3.59,0,0,0-2.21.88l-.45-1a4.58,4.58,0,0,1,2.94-1.06,2.92,2.92,0,0,1,3.18,3c0,1.93-1.39,3.49-3.58,5.59l-.83.77v0h4.66v1.16Z" transform="translate(-0.58 -1.85)"/><path class="cls-1" d="M190.19,12.56a1,1,0,0,1,1-1,.93.93,0,0,1,.94,1,1,1,0,1,1-1.9,0Z" transform="translate(-0.58 -1.85)"/><path class="cls-1" d="M1.21,33.74a15.12,15.12,0,0,1,2.68-.22,4.46,4.46,0,0,1,3,.9,2.93,2.93,0,0,1,1,2.25A3.16,3.16,0,0,1,7,39a4.48,4.48,0,0,1-3.3,1.19,4.9,4.9,0,0,1-1.13-.1v4.32H1.21ZM2.6,38.93a4.3,4.3,0,0,0,1.16.12c1.69,0,2.71-.83,2.71-2.3s-1-2.13-2.55-2.13a7.06,7.06,0,0,0-1.32.11Z" transform="translate(-0.58 -1.85)"/><path class="cls-1" d="M9.42,39.06c0-.91,0-1.69-.06-2.41h1.23l.06,1.52h0a2.34,2.34,0,0,1,2.15-1.69,2.41,2.41,0,0,1,.4,0v1.33a2.33,2.33,0,0,0-.48,0,2,2,0,0,0-1.89,1.8,3.45,3.45,0,0,0-.06.66v4.13H9.42Z" transform="translate(-0.58 -1.85)"/><path class="cls-1" d="M21.51,40.45a3.8,3.8,0,0,1-3.85,4.12,3.69,3.69,0,0,1-3.73-4,3.78,3.78,0,0,1,3.85-4.1A3.66,3.66,0,0,1,21.51,40.45Zm-6.14.09c0,1.7,1,3,2.34,3s2.36-1.26,2.36-3c0-1.31-.66-3-2.33-3S15.37,39.07,15.37,40.54Z" transform="translate(-0.58 -1.85)"/><path class="cls-1" d="M29.76,42.27c0,.81,0,1.51.06,2.12H28.58l-.08-1.26h0a2.88,2.88,0,0,1-2.56,1.44c-1.21,0-2.67-.68-2.67-3.4V36.65h1.4v4.28c0,1.47.46,2.48,1.73,2.48a2,2,0,0,0,1.87-1.3,2.2,2.2,0,0,0,.13-.72V36.65h1.4Z" transform="translate(-0.58 -1.85)"/><path class="cls-1" d="M38.78,33V42.4c0,.68,0,1.46.06,2H37.59l-.07-1.34h0a2.82,2.82,0,0,1-2.62,1.52c-1.88,0-3.33-1.59-3.33-3.93,0-2.59,1.6-4.16,3.48-4.16a2.59,2.59,0,0,1,2.34,1.17h0V33Zm-1.4,6.77a3.05,3.05,0,0,0-.06-.6,2.08,2.08,0,0,0-2-1.62c-1.46,0-2.33,1.28-2.33,3s.79,2.88,2.3,2.88a2.13,2.13,0,0,0,2.06-1.69,2.37,2.37,0,0,0,.07-.61Z" transform="translate(-0.58 -1.85)"/><path class="cls-1" d="M41.12,33h1.4V44.39h-1.4Z" transform="translate(-0.58 -1.85)"/><path class="cls-1" d="M45.41,36.65l1.69,4.58c.18.51.37,1.11.5,1.58h0c.13-.46.31-1.05.49-1.61l1.53-4.55h1.5L49,42.17c-1,2.66-1.7,4-2.65,4.85a3.92,3.92,0,0,1-1.73.9l-.35-1.17a3.61,3.61,0,0,0,1.23-.69,4.49,4.49,0,0,0,1.18-1.57.87.87,0,0,0,.11-.34.85.85,0,0,0-.1-.36l-2.85-7.14Z" transform="translate(-0.58 -1.85)"/><path class="cls-1" d="M65,39.66c-.08-1.5-.18-3.33-.17-4.66h0c-.37,1.25-.81,2.61-1.35,4.09l-1.91,5.24H60.44l-1.76-5.14c-.51-1.53-.93-2.91-1.23-4.19h0c0,1.35-.11,3.14-.21,4.76l-.29,4.63H55.59l.75-10.79h1.78L60,38.83c.44,1.32.8,2.5,1.08,3.63h0c.29-1.09.66-2.28,1.15-3.63l1.92-5.23h1.78l.67,10.79H65.23Z" transform="translate(-0.58 -1.85)"/><path class="cls-1" d="M73.08,44.39l-.13-1h0a2.88,2.88,0,0,1-2.37,1.15,2.21,2.21,0,0,1-2.36-2.22c0-1.88,1.66-2.91,4.65-2.89V39.3a1.6,1.6,0,0,0-1.76-1.79,3.82,3.82,0,0,0-2,.58l-.32-.94a4.91,4.91,0,0,1,2.56-.67c2.36,0,2.94,1.61,2.94,3.16v2.9a11.65,11.65,0,0,0,.12,1.85Zm-.22-4c-1.52,0-3.27.24-3.27,1.74a1.25,1.25,0,0,0,1.32,1.35,1.94,1.94,0,0,0,1.88-1.3,1.44,1.44,0,0,0,.07-.44Z" transform="translate(-0.58 -1.85)"/><path class="cls-1" d="M83.18,33V42.4c0,.68,0,1.46.06,2H82l-.07-1.34h0a2.82,2.82,0,0,1-2.62,1.52c-1.88,0-3.33-1.59-3.33-3.93,0-2.59,1.6-4.16,3.48-4.16a2.59,2.59,0,0,1,2.34,1.17h0V33Zm-1.4,6.77a3.05,3.05,0,0,0-.06-.6,2.08,2.08,0,0,0-2-1.62c-1.46,0-2.33,1.28-2.33,3s.78,2.88,2.3,2.88a2.13,2.13,0,0,0,2.06-1.69,2.37,2.37,0,0,0,.07-.61Z" transform="translate(-0.58 -1.85)"/><path class="cls-1" d="M86.31,40.78A2.47,2.47,0,0,0,89,43.46a5.29,5.29,0,0,0,2.14-.39l.25,1a6.31,6.31,0,0,1-2.58.49A3.61,3.61,0,0,1,85,40.65c0-2.34,1.38-4.17,3.64-4.17,2.53,0,3.19,2.21,3.19,3.64a3.61,3.61,0,0,1-.05.66Zm4.12-1a2,2,0,0,0-1.94-2.28,2.31,2.31,0,0,0-2.16,2.28Z" transform="translate(-0.58 -1.85)"/><path class="cls-1" d="M97.07,44.39V37.72H96V36.65h1.08v-.37a3.7,3.7,0,0,1,.9-2.71,2.68,2.68,0,0,1,1.88-.72,3,3,0,0,1,1.2.23l-.18,1.08A2.23,2.23,0,0,0,100,34c-1.19,0-1.5,1.06-1.5,2.25v.42h1.87v1.07H98.47v6.67Z" transform="translate(-0.58 -1.85)"/><path class="cls-1" d="M108.4,40.45a3.8,3.8,0,0,1-3.85,4.12,3.68,3.68,0,0,1-3.72-4,3.77,3.77,0,0,1,3.84-4.1A3.66,3.66,0,0,1,108.4,40.45Zm-6.14.09c0,1.7,1,3,2.35,3s2.36-1.26,2.36-3c0-1.31-.66-3-2.34-3S102.26,39.07,102.26,40.54Z" transform="translate(-0.58 -1.85)"/><path class="cls-1" d="M110.17,39.06c0-.91,0-1.69-.06-2.41h1.23l.06,1.52h0a2.34,2.34,0,0,1,2.15-1.69,2.41,2.41,0,0,1,.4,0v1.33a2.33,2.33,0,0,0-.48,0,2,2,0,0,0-1.89,1.8,4.54,4.54,0,0,0,0,.66v4.13h-1.41Z" transform="translate(-0.58 -1.85)"/><path class="cls-1" d="M120.24,33.6V44.39h-1.4V33.6Z" transform="translate(-0.58 -1.85)"/><path class="cls-1" d="M129.31,36.65c0,.55-.07,1.18-.07,2.12v4.49c0,1.8-.36,2.87-1.1,3.55a4.21,4.21,0,0,1-2.82.93,5,5,0,0,1-2.59-.64l.35-1.08a4.42,4.42,0,0,0,2.28.62c1.44,0,2.5-.75,2.5-2.72v-.86h0a2.73,2.73,0,0,1-2.46,1.31c-1.93,0-3.3-1.65-3.3-3.79,0-2.63,1.71-4.1,3.5-4.1A2.57,2.57,0,0,1,128,37.81h0l.06-1.16Zm-1.47,3.05a2.07,2.07,0,0,0-2-2.13c-1.35,0-2.31,1.13-2.31,2.93,0,1.52.78,2.79,2.29,2.79a2.05,2.05,0,0,0,2-1.45,2.35,2.35,0,0,0,.11-.75Z" transform="translate(-0.58 -1.85)"/><path class="cls-1" d="M131.47,38.74c0-.81,0-1.45-.06-2.09h1.24l.08,1.27h0a2.86,2.86,0,0,1,2.56-1.44c1.06,0,2.73.63,2.73,3.29v4.62h-1.4V39.93c0-1.25-.47-2.3-1.79-2.3a2,2,0,0,0-1.9,1.45,2.11,2.11,0,0,0-.1.65v4.66h-1.4Z" transform="translate(-0.58 -1.85)"/><path class="cls-1" d="M141.93,34.46a.86.86,0,0,1-.9.88.84.84,0,0,1-.85-.88.88.88,0,0,1,1.75,0Zm-1.58,9.93V36.65h1.4v7.74Z" transform="translate(-0.58 -1.85)"/><path class="cls-1" d="M145.79,34.42v2.23h2v1.07h-2v4.17c0,1,.27,1.51,1.06,1.51a3.12,3.12,0,0,0,.82-.1l.06,1.07a3.78,3.78,0,0,1-1.26.19A2,2,0,0,1,145,44a3,3,0,0,1-.54-2V37.72h-1.2V36.65h1.2V34.79Z" transform="translate(-0.58 -1.85)"/><path class="cls-1" d="M150.08,40.78a2.47,2.47,0,0,0,2.65,2.68,5.34,5.34,0,0,0,2.15-.39l.24,1a6.31,6.31,0,0,1-2.58.49,3.61,3.61,0,0,1-3.81-3.91c0-2.34,1.39-4.17,3.65-4.17,2.52,0,3.18,2.21,3.18,3.64a3.61,3.61,0,0,1-.05.66Zm4.13-1a2,2,0,0,0-2-2.28,2.32,2.32,0,0,0-2.16,2.28Z" transform="translate(-0.58 -1.85)"/><path class="cls-1" d="M160.75,33.75a18.45,18.45,0,0,1,3-.23,6.17,6.17,0,0,1,4.37,1.35,4.94,4.94,0,0,1,1.53,3.87,5.74,5.74,0,0,1-1.55,4.19,6.7,6.7,0,0,1-4.78,1.56,22.69,22.69,0,0,1-2.53-.12Zm1.4,9.55a11.17,11.17,0,0,0,1.4.06c3,0,4.59-1.66,4.59-4.57,0-2.55-1.42-4.16-4.36-4.16a8.75,8.75,0,0,0-1.63.14Z" transform="translate(-0.58 -1.85)"/><path class="cls-1" d="M172.21,40.78a2.47,2.47,0,0,0,2.65,2.68,5.34,5.34,0,0,0,2.15-.39l.24,1a6.31,6.31,0,0,1-2.58.49,3.61,3.61,0,0,1-3.81-3.91c0-2.34,1.38-4.17,3.64-4.17,2.53,0,3.19,2.21,3.19,3.64a3.61,3.61,0,0,1-.05.66Zm4.12-1a2,2,0,0,0-1.94-2.28,2.31,2.31,0,0,0-2.16,2.28Z" transform="translate(-0.58 -1.85)"/><path class="cls-1" d="M179.48,33.6h5.81v1.16h-4.41v3.6H185v1.15h-4.08v4.88h-1.4Z" transform="translate(-0.58 -1.85)"/><path class="cls-1" d="M188.39,34.46a.86.86,0,0,1-.9.88.84.84,0,0,1-.85-.88.85.85,0,0,1,.88-.87A.84.84,0,0,1,188.39,34.46Zm-1.57,9.93V36.65h1.4v7.74Z" transform="translate(-0.58 -1.85)"/><path class="cls-1" d="M190.23,43.57a1,1,0,1,1,.94,1A.94.94,0,0,1,190.23,43.57Z" transform="translate(-0.58 -1.85)"/></g></g></svg>