<svg xmlns="http://www.w3.org/2000/svg" viewBox="0 0 58.53 10.6"><defs><style>.cls-1{fill:#fff;}</style></defs><g id="Layer_2" data-name="Layer 2"><g id="Layer_1-2" data-name="Layer 1"><path class="cls-1" d="M34.5,2h1v7.2H39V10H34.5Z" transform="translate(-34.5 -1.95)"/><path class="cls-1" d="M41.32,2.61a.64.64,0,0,1-.68.65A.63.63,0,0,1,40,2.61a.66.66,0,1,1,1.31,0ZM40.14,10V4.24h1V10Z" transform="translate(-34.5 -1.95)"/><path class="cls-1" d="M42.8,9a2.82,2.82,0,0,0,1.39.41c.77,0,1.13-.37,1.13-.86S45,7.75,44.24,7.46c-1.05-.38-1.54-1-1.54-1.65a1.8,1.8,0,0,1,2-1.7,2.77,2.77,0,0,1,1.42.36l-.26.77a2.3,2.3,0,0,0-1.19-.35c-.63,0-1,.36-1,.8s.34.69,1.1,1c1,.37,1.52.88,1.52,1.74,0,1-.8,1.75-2.17,1.75a3.3,3.3,0,0,1-1.63-.4Z" transform="translate(-34.5 -1.95)"/><path class="cls-1" d="M49,2.57V4.24h1.52V5H49V8.17c0,.72.21,1.13.8,1.13a1.87,1.87,0,0,0,.61-.08l.05.81a2.73,2.73,0,0,1-.94.14,1.46,1.46,0,0,1-1.14-.45,2.22,2.22,0,0,1-.41-1.51V5H47v-.8h.9V2.85Z" transform="translate(-34.5 -1.95)"/><path class="cls-1" d="M52.85,2.61a.64.64,0,0,1-.67.65.63.63,0,0,1-.64-.65.66.66,0,1,1,1.31,0ZM51.67,10V4.24h1V10Z" transform="translate(-34.5 -1.95)"/><path class="cls-1" d="M54.48,5.81c0-.6,0-1.09,0-1.57h.93l.06,1h0a2.13,2.13,0,0,1,1.92-1.09c.79,0,2,.48,2,2.47V10h-1V6.7C58.36,5.76,58,5,57,5A1.52,1.52,0,0,0,55.6,6.06a1.81,1.81,0,0,0-.07.49V10H54.48Z" transform="translate(-34.5 -1.95)"/><path class="cls-1" d="M66.14,4.24c0,.41,0,.88,0,1.59V9.2a3.37,3.37,0,0,1-.83,2.66,3.12,3.12,0,0,1-2.11.69,3.66,3.66,0,0,1-1.93-.48l.26-.81a3.28,3.28,0,0,0,1.71.47c1.07,0,1.87-.57,1.87-2V9.05h0a2.07,2.07,0,0,1-1.84,1,2.61,2.61,0,0,1-2.48-2.84,2.78,2.78,0,0,1,2.62-3.08,1.93,1.93,0,0,1,1.81,1h0l0-.87ZM65,6.53A1.82,1.82,0,0,0,65,6.05,1.54,1.54,0,0,0,63.5,4.93c-1,0-1.72.85-1.72,2.2,0,1.14.58,2.09,1.71,2.09A1.53,1.53,0,0,0,65,8.13,1.73,1.73,0,0,0,65,7.57Z" transform="translate(-34.5 -1.95)"/><path class="cls-1" d="M71.47,2.84H69V2h6v.88H72.52V10h-1Z" transform="translate(-34.5 -1.95)"/><path class="cls-1" d="M76.7,2.61a.64.64,0,0,1-.67.65.62.62,0,0,1-.63-.65.65.65,0,1,1,1.3,0ZM75.52,10V4.24h1V10Z" transform="translate(-34.5 -1.95)"/><path class="cls-1" d="M78.33,5.81c0-.6,0-1.09,0-1.57h.91l.06.94h0a2,2,0,0,1,1.83-1.07,1.71,1.71,0,0,1,1.63,1.17h0a2.35,2.35,0,0,1,.65-.76,2,2,0,0,1,1.28-.41c.77,0,1.91.5,1.91,2.52V10h-1V6.76c0-1.12-.41-1.79-1.26-1.79a1.38,1.38,0,0,0-1.25,1,1.84,1.84,0,0,0-.09.53V10H82V6.56C82,5.64,81.55,5,80.76,5A1.47,1.47,0,0,0,79.44,6a1.72,1.72,0,0,0-.08.52V10h-1Z" transform="translate(-34.5 -1.95)"/><path class="cls-1" d="M88.93,7.33a1.86,1.86,0,0,0,2,2,3.91,3.91,0,0,0,1.6-.3l.19.75a4.69,4.69,0,0,1-1.94.37,2.7,2.7,0,0,1-2.85-2.93c0-1.76,1-3.13,2.73-3.13A2.44,2.44,0,0,1,93,6.84a2.93,2.93,0,0,1,0,.49ZM92,6.58a1.5,1.5,0,0,0-1.46-1.71,1.74,1.74,0,0,0-1.62,1.71Z" transform="translate(-34.5 -1.95)"/></g></g></svg>