<svg xmlns="http://www.w3.org/2000/svg" viewBox="0 0 23.61 23.56"><defs><style>.cls-1{fill:#79fb53;}</style></defs><g id="Layer_2" data-name="Layer 2"><g id="Layer_1-2" data-name="Layer 1"><path class="cls-1" d="M23,10.67a4.43,4.43,0,0,0-3.19-3,7.6,7.6,0,0,0-2.64-.23,5.12,5.12,0,0,0-3.66,1.86c-.17.2-.31.43-.48.67A.38.38,0,0,1,13,9.72c0-.54,0-1.09,0-1.63,0-.22-.07-.27-.27-.27H8.59c-.21,0-.25.07-.25.26q0,7.61,0,15.21c0,.23.08.27.28.27h4.3c.25,0,.3-.07.3-.3,0-2.51,0-5,0-7.52a7.63,7.63,0,0,1,.22-2,2.46,2.46,0,0,1,1.78-1.88,3.47,3.47,0,0,1,1.2-.1,2.08,2.08,0,0,1,2,1.52,6.61,6.61,0,0,1,.28,2.17c0,2.62,0,5.23,0,7.85,0,.21,0,.28.27.28h4.37c.23,0,.27-.08.27-.28,0-2.94,0-5.88,0-8.81A11.16,11.16,0,0,0,23,10.67Z"/><path class="cls-1" d="M.62,23.56H5c.23,0,.28-.06.28-.29q0-3.8,0-7.59t0-7.59c0-.21-.06-.27-.27-.27H.61c-.19,0-.23.06-.23.24V23.31C.38,23.51.43,23.56.62,23.56Z"/><path class="cls-1" d="M2.84,0A2.84,2.84,0,1,0,5.67,2.87,2.84,2.84,0,0,0,2.84,0Z"/></g></g></svg>