<svg xmlns="http://www.w3.org/2000/svg" viewBox="0 0 22.43 18.24"><defs><style>.cls-1{fill:#79fb53;}</style></defs><g id="Layer_2" data-name="Layer 2"><g id="Layer_1-2" data-name="Layer 1"><path class="cls-1" d="M19.85,2.86a4.74,4.74,0,0,0,2-2.51.18.18,0,0,0-.11,0,9.29,9.29,0,0,1-2.74,1c-.07,0-.11,0-.15-.06A4.56,4.56,0,0,0,16.87.19,4.71,4.71,0,0,0,15.81,0h-.59a4.52,4.52,0,0,0-3.74,2.39A4.39,4.39,0,0,0,11,5.25a1.57,1.57,0,0,0,0,.3c0,.08,0,.1-.08.09-.25,0-.5,0-.74-.06a12.81,12.81,0,0,1-2.85-.66A13,13,0,0,1,2.56,2a13.43,13.43,0,0,1-1-1c0-.06-.07-.08-.11,0A4.49,4.49,0,0,0,.92,3.46a4.55,4.55,0,0,0,2,3.47L2.94,7a4.6,4.6,0,0,1-1.07-.16,5.39,5.39,0,0,1-1-.41,4.56,4.56,0,0,0,1,2.94A4.67,4.67,0,0,0,4.52,11a4.49,4.49,0,0,1-2,.07,4.65,4.65,0,0,0,1.62,2.29,4.72,4.72,0,0,0,2.64.93A9.26,9.26,0,0,1,0,16.19a13.05,13.05,0,0,0,6.64,2h.81a13.57,13.57,0,0,0,4.14-.75A12.25,12.25,0,0,0,16,14.8a13.41,13.41,0,0,0,3.74-6.39,12.17,12.17,0,0,0,.43-3.6.42.42,0,0,1,.21-.43,9.08,9.08,0,0,0,2-2.13.24.24,0,0,1,.06-.08v0a9.36,9.36,0,0,1-1.88.6A5.37,5.37,0,0,1,19.85,2.86Z"/></g></g></svg>